<?xml version="1.0" encoding="UTF-8" standalone="no"?>
<svg
   width="199.0500030517578mm"
   height="201.39999389648432mm"
   viewBox="-272 -234.89999389648432 199.0500030517578 201.39999389648432"
   version="1.1"
   id="svg2474"
   sodipodi:docname="Megacommand-Case.svg"
   inkscape:version="1.2-alpha1 (b6a15bbbed, 2022-02-23)"
   xmlns:inkscape="http://www.inkscape.org/namespaces/inkscape"
   xmlns:sodipodi="http://sodipodi.sourceforge.net/DTD/sodipodi-0.dtd"
   xmlns="http://www.w3.org/2000/svg"
   xmlns:svg="http://www.w3.org/2000/svg"
   xmlns:rdf="http://www.w3.org/1999/02/22-rdf-syntax-ns#"
   xmlns:cc="http://creativecommons.org/ns#"
   xmlns:dc="http://purl.org/dc/elements/1.1/">
  <defs
     id="defs2478" />
  <sodipodi:namedview
     id="namedview2476"
     pagecolor="#ffffff"
     bordercolor="#666666"
     borderopacity="1.0"
     inkscape:pageshadow="2"
     inkscape:pageopacity="0.0"
     inkscape:pagecheckerboard="0"
     inkscape:deskcolor="#d1d1d1"
     inkscape:document-units="mm"
     showgrid="false"
     inkscape:zoom="7.0153608"
     inkscape:cx="687.63391"
     inkscape:cy="501.61355"
     inkscape:window-width="1680"
     inkscape:window-height="987"
     inkscape:window-x="-8"
     inkscape:window-y="-8"
     inkscape:window-maximized="1"
     inkscape:current-layer="svg2474" />
  <title
     id="title2468">svgOutput</title>
  <desc
     id="desc2470">made with tinkercad</desc>
  <path
     d="M -201.5 -117.49999999999997 L -201.5 -35.998001098632805 L -201.5 -34.49999999999999 L -234.5 -34.49999999999999 L -234.5 -35.998001098632805 L -234.5 -65.53600311279295 L -234.5 -117.49999999999997 L -203.68600463867188 -117.49999999999997 L -201.5 -117.49999999999997 M -191.54954528808594 -34.49999999999999 L -192.03700256347656 -34.52399826049804 L -192.03749084472656 -34.52407455444335 L -192.1230010986328 -34.53683471679687 L -192.51199340820312 -34.5942153930664 L -192.61900329589844 -34.610000610351555 L -193.04800415039062 -34.717998504638665 L -193.19200134277344 -34.75400161743163 L -193.19439697265625 -34.75485610961913 L -193.7469940185547 -34.95199966430663 L -193.75003051757812 -34.953437805175774 L -193.99899291992188 -35.07161712646484 L -194.27581787109375 -35.202495574951165 L -194.2790069580078 -35.20399856567382 L -194.78500366210938 -35.506999969482415 L -195.2530059814453 -35.854290008544915 L -195.25799560546875 -35.85800170898437 L -195.69500732421875 -36.25400161743163 L -195.6954803466797 -36.254524230957024 L -195.6959991455078 -36.25500106811523 L -196.0919952392578 -36.69200134277343 L -196.09242248535156 -36.692573547363274 L -196.21963500976562 -36.86399841308593 L -196.4429931640625 -37.16500091552734 L -196.4472198486328 -37.17205810546874 L -196.60800170898438 -37.44054412841796 L -196.63214111328125 -37.48085784912109 L -196.74378967285156 -37.66633987426757 L -196.74600219726562 -37.669998168945305 L -196.9980010986328 -38.20299911499023 L -197.06900024414062 -38.40200042724609 L -197.19700622558594 -38.7589988708496 L -197.19850158691406 -38.76502609252929 L -197.3040008544922 -39.187000274658196 L -197.3396453857422 -39.32858657836913 L -197.33999633789062 -39.33000183105468 L -197.42599487304688 -39.91299819946288 L -197.4499969482422 -40.40044784545898 L -197.4499969482422 -40.50199890136718 L -197.4499969482422 -41.40299987792968 L -197.4499969482422 -117.49999999999997 L -197.4499969482422 -125.90000152587888 L -197.4499969482422 -126.49800109863278 L -197.4499969482422 -126.59854888916013 L -197.4499969482422 -126.59954833984372 L -197.42599487304688 -127.08699798583982 L -197.42593383789062 -127.08749389648435 L -197.4131622314453 -127.17299652099607 L -197.34107971191406 -127.66168212890622 L -197.33999633789062 -127.66899871826169 L -197.23199462890625 -128.0980072021484 L -197.1959991455078 -128.24200439453122 L -197.1951446533203 -128.24440002441403 L -196.9980010986328 -128.79699707031247 L -196.99656677246094 -128.80001831054685 L -196.87838745117188 -129.04899597167966 L -196.74749755859375 -129.32582092285153 L -196.74600219726562 -129.32899475097653 L -196.4429931640625 -129.83500671386716 L -196.0919952392578 -130.30799865722653 L -195.6959991455078 -130.74499511718747 L -195.6954803466797 -130.7454681396484 L -195.69500732421875 -130.7460021972656 L -195.3352508544922 -131.0720062255859 L -195.25799560546875 -131.1419982910156 L -195.25743103027344 -131.14242553710935 L -194.78500366210938 -131.49299621582028 L -194.77793884277344 -131.4972229003906 L -194.46914672851562 -131.68214416503903 L -194.28366088867188 -131.79379272460935 L -194.27999877929688 -131.7960052490234 L -193.7469940185547 -132.0480041503906 L -193.54800415039062 -132.11898803710935 L -193.1909942626953 -132.24699401855466 L -193.1849822998047 -132.24850463867185 L -192.76300048828125 -132.35400390624997 L -192.6214141845703 -132.38964843749997 L -192.6199951171875 -132.3899993896484 L -192.03700256347656 -132.47599792480466 L -191.54954528808594 -132.49999999999997 L -191.447998046875 -132.49999999999997 L -190.54800415039062 -132.49999999999997 L -80.85299682617188 -132.49999999999997 L -79.9520034790039 -132.49999999999997 L -79.85144805908203 -132.49999999999997 L -79.85044860839844 -132.49999999999997 L -79.36299896240234 -132.47599792480466 L -79.36251068115234 -132.47592163085935 L -79.2770004272461 -132.4631652832031 L -79.15299987792969 -132.44486999511716 L -78.78831481933594 -132.39108276367185 L -78.78099822998047 -132.3899993896484 L -78.35199737548828 -132.28199768066403 L -78.20800018310547 -132.2460021972656 L -78.20560455322266 -132.2451477050781 L -77.8239974975586 -132.10900878906247 L -77.65299987792969 -132.0480041503906 L -77.64997100830078 -132.04656982421872 L -77.4010009765625 -131.9283752441406 L -77.12418365478516 -131.79750061035153 L -77.12100219726562 -131.7960052490234 L -76.61499786376953 -131.49299621582028 L -76.14800262451172 -131.14645385742185 L -76.14199829101562 -131.1419982910156 L -75.70500183105469 -130.7460021972656 L -75.70452117919922 -130.7454681396484 L -75.7040023803711 -130.74499511718747 L -75.30799865722656 -130.30799865722653 L -75.30757904052734 -130.30743408203122 L -74.95700073242188 -129.83500671386716 L -74.95277404785156 -129.82794189453122 L -74.76786041259766 -129.51913452148435 L -74.65620422363281 -129.33366394042966 L -74.65399932861328 -129.33000183105466 L -74.4020004272461 -128.79699707031247 L -74.33100891113281 -128.5980072021484 L -74.2030029296875 -128.2409973144531 L -74.20149230957031 -128.2349700927734 L -74.09600067138672 -127.81300354003903 L -74.06035614013672 -127.6714172363281 L -74.05999755859375 -127.66999816894528 L -73.99037170410156 -127.19799804687497 L -73.9739990234375 -127.08699798583982 L -73.94999694824219 -126.59954833984372 L -73.94999694824219 -126.49800109863278 L -73.94999694824219 -125.90000152587888 L -73.94999694824219 -125.59799957275388 L -73.94999694824219 -117.49999999999997 L -73.94999694824219 -108.74800109863278 L -73.94999694824219 -90.38300323486327 L -73.94999694824219 -50.9980010986328 L -73.94999694824219 -41.40299987792968 L -73.94999694824219 -40.50199890136718 L -73.94999694824219 -40.40144729614257 L -73.94999694824219 -40.40044784545898 L -73.9739990234375 -39.91299819946288 L -73.97407531738281 -39.91250610351562 L -73.98683166503906 -39.82699966430663 L -74.05892181396484 -39.33831787109374 L -74.05999755859375 -39.331001281738274 L -74.16799926757812 -38.90200042724609 L -74.2040023803711 -38.75799942016601 L -74.2048568725586 -38.755603790283196 L -74.4020004272461 -38.20299911499023 L -74.40343475341797 -38.19997406005859 L -74.52161407470703 -37.95100021362304 L -74.65249633789062 -37.674182891845696 L -74.65399932861328 -37.671001434326165 L -74.95700073242188 -37.16500091552734 L -75.18036651611328 -36.86399841308593 L -75.30355072021484 -36.69800186157226 L -75.30799865722656 -36.69200134277343 L -75.7040023803711 -36.25500106811523 L -75.70452117919922 -36.254524230957024 L -75.70500183105469 -36.25400161743163 L -76.14199829101562 -35.85800170898437 L -76.14257049560547 -35.85757446289062 L -76.61499786376953 -35.506999969482415 L -76.62205505371094 -35.5027732849121 L -76.93086242675781 -35.317859649658196 L -77.11634063720703 -35.20620346069335 L -77.12000274658203 -35.20399856567382 L -77.65299987792969 -34.95199966430663 L -77.8239974975586 -34.89099502563476 L -77.85199737548828 -34.88100433349609 L -78.20899963378906 -34.752998352050774 L -78.21502685546875 -34.75149536132812 L -78.63700103759766 -34.64599990844726 L -78.7785873413086 -34.61035537719726 L -78.77999877929688 -34.610000610351555 L -79.25299835205078 -34.54022598266601 L -79.36299896240234 -34.52399826049804 L -79.85044860839844 -34.49999999999999 L -79.9520034790039 -34.49999999999999 L -80.85299682617188 -34.49999999999999 L -190.54800415039062 -34.49999999999999 L -191.447998046875 -34.49999999999999 L -191.54855346679688 -34.49999999999999 L -191.54954528808594 -34.49999999999999 M -271 -34.49999999999999 L -271 -117.49999999999997 L -238 -117.49999999999997 L -238 -34.49999999999999 L -271 -34.49999999999999 M -201.5 -125.90000152587888 L -234.5 -125.90000152587888 L -234.5 -135.49800109863278 L -234.5 -162.50300598144528 L -234.5 -233.89999389648432 L -232.60299682617188 -233.89999389648432 L -224.5030059814453 -233.89999389648432 L -214.4980010986328 -233.89999389648432 L -214.38900756835938 -233.89999389648432 L -201.5 -233.89999389648432 L -201.5 -162.50300598144528 L -201.5 -135.49800109863278 L -201.5 -125.90000152587888 M -214.51800537109375 -220.29167175292963 L -214.4980010986328 -220.69999694824213 L -214.52171325683594 -221.18400573730463 L -214.52200317382812 -221.1900024414062 L -214.593994140625 -221.67599487304682 L -214.71299743652344 -222.1519927978515 L -214.8780059814453 -222.61399841308588 L -215.08799743652344 -223.0579986572265 L -215.34100341796875 -223.47900390624994 L -215.63299560546875 -223.87399291992182 L -215.96299743652344 -224.2369995117187 L -216.3260040283203 -224.56700134277338 L -216.7209930419922 -224.85899353027338 L -217.08799743652344 -225.07954406738276 L -217.14199829101562 -225.1119995117187 L -217.58599853515625 -225.32200622558588 L -218.04800415039062 -225.4869995117187 L -218.5240020751953 -225.60600280761713 L -219.00999450683594 -225.677993774414 L -219.5 -225.70300292968744 L -219.99000549316406 -225.677993774414 L -220.4759979248047 -225.60600280761713 L -220.95199584960938 -225.4869995117187 L -221.1840057373047 -225.40414428710932 L -221.41400146484375 -225.32200622558588 L -221.85800170898438 -225.1119995117187 L -222.2790069580078 -224.85899353027338 L -222.6739959716797 -224.56700134277338 L -223.03700256347656 -224.2369995117187 L -223.36700439453125 -223.87399291992182 L -223.65899658203125 -223.47900390624994 L -223.91200256347656 -223.0579986572265 L -224.1219940185547 -222.61399841308588 L -224.13673400878906 -222.57275390624994 L -224.21627807617188 -222.4348754882812 L -224.32028198242188 -222.25463867187494 L -224.4337158203125 -222.05802917480463 L -224.5030059814453 -221.93794250488276 L -228.6370086669922 -214.77299499511713 L -229.37600708007812 -213.49218749999994 L -229.6645965576172 -212.9920043945312 L -230.642333984375 -211.29739379882807 L -231.0679931640625 -210.72399902343744 L -231.52699279785156 -209.95700073242182 L -231.90899658203125 -209.14900207519526 L -232.2100067138672 -208.30700683593744 L -232.42799377441406 -207.43899536132807 L -232.5590057373047 -206.5549926757812 L -232.60299682617188 -205.6620025634765 L -232.56053161621094 -204.80000305175776 L -232.5590057373047 -204.76899719238276 L -232.42799377441406 -203.88400268554682 L -232.2100067138672 -203.01699829101557 L -231.90899658203125 -202.17500305175776 L -231.52699279785156 -201.3670043945312 L -231.0679931640625 -200.60000610351557 L -230.53500366210938 -199.88200378417963 L -229.93499755859375 -199.21899414062494 L -229.37600708007812 -198.71235656738276 L -229.2729949951172 -198.61900329589838 L -228.55499267578125 -198.0859985351562 L -227.78900146484375 -197.62699890136713 L -226.9810028076172 -197.24400329589838 L -226.13900756835938 -196.94299316406244 L -225.27200317382812 -196.72599792480463 L -224.47572326660156 -196.60800170898432 L -224.38800048828125 -196.59500122070307 L -223.49600219726562 -196.55099487304682 L -222.60299682617188 -196.59500122070307 L -222.51527404785156 -196.60800170898432 L -221.718994140625 -196.72599792480463 L -221.1840057373047 -196.85990905761713 L -220.8520050048828 -196.94299316406244 L -220.01100158691406 -197.24400329589838 L -219.2030029296875 -197.62699890136713 L -218.43600463867188 -198.0859985351562 L -217.71800231933594 -198.61900329589838 L -217.05599975585938 -199.21899414062494 L -216.45599365234375 -199.88200378417963 L -215.9239959716797 -200.60000610351557 L -215.46400451660156 -201.3670043945312 L -215.08200073242188 -202.17500305175776 L -214.781005859375 -203.01699829101557 L -214.56399536132812 -203.88400268554682 L -214.43299865722656 -204.76899719238276 L -214.4314727783203 -204.80000305175776 L -214.38900756835938 -205.6620025634765 L -214.43299865722656 -206.5549926757812 L -214.51800537109375 -207.12858581542963 L -214.51800537109375 -207.25500488281244 L -214.51800537109375 -207.571304321289 L -214.51800537109375 -207.95603942871088 L -214.51800537109375 -208.379653930664 L -214.51800537109375 -208.826431274414 L -214.51800537109375 -209.30050659179682 L -214.51800537109375 -209.804702758789 L -214.51800537109375 -210.32951354980463 L -214.51800537109375 -212.9920043945312 L -214.51800537109375 -213.53088378906244 L -214.51800537109375 -214.3306274414062 L -214.51800537109375 -214.77299499511713 L -214.51800537109375 -215.69799804687494 L -214.51800537109375 -220.29167175292963 M -77.65299987792969 -136.35200500488278 L -77.8239974975586 -136.2910003662109 L -77.85199737548828 -136.28100585937497 L -78.20899963378906 -136.15299987792966 L -78.21502685546875 -136.15148925781247 L -78.63700103759766 -136.0460052490234 L -78.7785873413086 -136.0103607177734 L -78.77999877929688 -136.0099945068359 L -79.20099639892578 -135.94789123535153 L -79.36249542236328 -135.92407226562497 L -79.36299896240234 -135.92399597167966 L -79.85044860839844 -135.89999389648435 L -79.85144805908203 -135.89999389648435 L -80.05455017089844 -135.89999389648435 L -80.37930297851562 -135.89999389648435 L -80.68499755859375 -135.89999389648435 L -80.85299682617188 -135.89999389648435 L -190.54800415039062 -135.89999389648435 L -191.447998046875 -135.89999389648435 L -191.54954528808594 -135.89999389648435 L -192.03700256347656 -135.92399597167966 L -192.03749084472656 -135.92407226562497 L -192.1230010986328 -135.93682861328122 L -192.51199340820312 -135.99421691894528 L -192.61167907714844 -136.00892639160153 L -192.61900329589844 -136.0099945068359 L -193.04800415039062 -136.11799621582028 L -193.19200134277344 -136.15400695800778 L -193.7469940185547 -136.35200500488278 L -193.75003051757812 -136.35343933105466 L -193.99899291992188 -136.47161865234372 L -194.27581787109375 -136.60249328613278 L -194.2790069580078 -136.60400390624997 L -194.783203125 -136.9059143066406 L -194.78500366210938 -136.90699768066403 L -195.25743103027344 -137.25756835937497 L -195.25799560546875 -137.25799560546872 L -195.69500732421875 -137.65400695800778 L -195.6954803466797 -137.6545257568359 L -195.6959991455078 -137.65499877929685 L -196.0919952392578 -138.09199523925778 L -196.4429931640625 -138.56500244140622 L -196.60800170898438 -138.84054565429685 L -196.63214111328125 -138.88085937499997 L -196.74378967285156 -139.06634521484372 L -196.74600219726562 -139.07000732421872 L -196.8377227783203 -139.26400756835935 L -196.99652099609375 -139.59986877441403 L -196.9980010986328 -139.60299682617185 L -197.06900024414062 -139.80200195312497 L -197.19700622558594 -140.15899658203122 L -197.19850158691406 -140.1650238037109 L -197.3040008544922 -140.58700561523435 L -197.3396453857422 -140.72859191894528 L -197.33999633789062 -140.72999572753903 L -197.402099609375 -141.15100097656247 L -197.42591857910156 -141.31249999999997 L -197.42599487304688 -141.31300354003903 L -197.4499969482422 -141.8004455566406 L -197.4499969482422 -141.80145263671872 L -197.4499969482422 -142.0045471191406 L -197.4499969482422 -142.32929992675778 L -197.4499969482422 -142.6349945068359 L -197.4499969482422 -142.80299377441403 L -197.4499969482422 -226.99800109863276 L -197.4499969482422 -227.89799499511713 L -197.4499969482422 -227.99955749511713 L -197.42599487304688 -228.4869995117187 L -197.42593383789062 -228.4874877929687 L -197.4131622314453 -228.57299804687494 L -197.34107971191406 -229.06167602539057 L -197.33999633789062 -229.06900024414057 L -197.26271057128906 -229.37600708007807 L -197.23199462890625 -229.49800109863276 L -197.1959991455078 -229.64199829101557 L -196.9980010986328 -230.19700622558588 L -196.99656677246094 -230.20002746582026 L -196.87838745117188 -230.44900512695307 L -196.74749755859375 -230.72581481933588 L -196.74600219726562 -230.72900390624994 L -196.60800170898438 -230.95945739746088 L -196.44407653808594 -231.23320007324213 L -196.4429931640625 -231.2350006103515 L -196.09242248535156 -231.70742797851557 L -196.0919952392578 -231.70799255371088 L -195.6959991455078 -232.14500427246088 L -195.6954803466797 -232.14547729492182 L -195.69500732421875 -232.14599609374994 L -195.25799560546875 -232.542007446289 L -195.1529998779297 -232.61991882324213 L -194.78500366210938 -232.8930053710937 L -194.77793884277344 -232.897232055664 L -194.46914672851562 -233.08213806152338 L -194.28366088867188 -233.19380187988276 L -194.27999877929688 -233.19599914550776 L -193.75013732910156 -233.44651794433588 L -193.7469940185547 -233.44799804687494 L -193.54800415039062 -233.51899719238276 L -193.1909942626953 -233.64700317382807 L -193.1849822998047 -233.64851379394526 L -192.76300048828125 -233.75399780273432 L -192.6214141845703 -233.78964233398432 L -192.6199951171875 -233.78999328613276 L -192.51199340820312 -233.80593872070307 L -192.19900512695312 -233.85209655761713 L -192.03750610351562 -233.87593078613276 L -192.03700256347656 -233.87600708007807 L -191.54954528808594 -233.89999389648432 L -191.54855346679688 -233.89999389648432 L -191.34544372558594 -233.89999389648432 L -191.02069091796875 -233.89999389648432 L -190.71499633789062 -233.89999389648432 L -190.54800415039062 -233.89999389648432 L -80.85299682617188 -233.89999389648432 L -79.9520034790039 -233.89999389648432 L -79.85044860839844 -233.89999389648432 L -79.36299896240234 -233.87600708007807 L -79.36251068115234 -233.87593078613276 L -79.2770004272461 -233.86315917968744 L -78.78831481933594 -233.7910766601562 L -78.78099822998047 -233.78999328613276 L -78.35199737548828 -233.68200683593744 L -78.20800018310547 -233.64599609374994 L -77.65299987792969 -233.44799804687494 L -77.64997100830078 -233.44656372070307 L -77.4010009765625 -233.328384399414 L -77.12418365478516 -233.19750976562494 L -77.12100219726562 -233.19599914550776 L -76.6167984008789 -232.89407348632807 L -76.61499786376953 -232.8930053710937 L -76.14257049560547 -232.5424194335937 L -76.14199829101562 -232.542007446289 L -75.70500183105469 -232.14599609374994 L -75.70452117919922 -232.14547729492182 L -75.7040023803711 -232.14500427246088 L -75.30799865722656 -231.70799255371088 L -74.95700073242188 -231.2350006103515 L -74.95277404785156 -231.22793579101557 L -74.76786041259766 -230.91914367675776 L -74.65620422363281 -230.733657836914 L -74.65399932861328 -230.729995727539 L -74.40348052978516 -230.2001342773437 L -74.4020004272461 -230.19700622558588 L -74.33100891113281 -229.99800109863276 L -74.2030029296875 -229.6410064697265 L -74.13674926757812 -229.37600708007807 L -74.09600067138672 -229.21299743652338 L -74.06035614013672 -229.07141113281244 L -74.05999755859375 -229.0700073242187 L -73.99789428710938 -228.64900207519526 L -73.97407531738281 -228.48750305175776 L -73.9739990234375 -228.4869995117187 L -73.94999694824219 -227.99955749511713 L -73.94999694824219 -227.998550415039 L -73.94999694824219 -227.79544067382807 L -73.94999694824219 -227.47070312499994 L -73.94999694824219 -227.16499328613276 L -73.94999694824219 -226.99800109863276 L -73.94999694824219 -142.80299377441403 L -73.94999694824219 -141.90199279785153 L -73.94999694824219 -141.8004455566406 L -73.9739990234375 -141.31300354003903 L -73.97407531738281 -141.31249999999997 L -73.98683166503906 -141.22700500488278 L -74.05892181396484 -140.7383117675781 L -74.05999755859375 -140.73100280761716 L -74.16799926757812 -140.30200195312497 L -74.2040023803711 -140.15800476074216 L -74.4020004272461 -139.60299682617185 L -74.40343475341797 -139.59997558593747 L -74.52161407470703 -139.35099792480466 L -74.56275177001953 -139.26400756835935 L -74.65249633789062 -139.07418823242185 L -74.65399932861328 -139.07099914550778 L -74.95592498779297 -138.5668029785156 L -74.95700073242188 -138.56500244140622 L -75.30757904052734 -138.09257507324216 L -75.30799865722656 -138.09199523925778 L -75.7040023803711 -137.65499877929685 L -75.70452117919922 -137.6545257568359 L -75.70500183105469 -137.65400695800778 L -76.14199829101562 -137.25799560546872 L -76.61499786376953 -136.90699768066403 L -76.62205505371094 -136.90277099609372 L -76.93086242675781 -136.71786499023435 L -77.11634063720703 -136.60620117187497 L -77.12000274658203 -136.60400390624997 L -77.64986419677734 -136.35348510742185 L -77.65299987792969 -136.35200500488278 M -271 -125.90000152587888 L -271 -233.89999389648432 L -238 -233.89999389648432 L -238 -125.90000152587888 L -271 -125.90000152587888 M -143.4530029296875 -119.16300201416013 L -144.2832489013672 -117.49999999999997 L -144.4510040283203 -117.16400909423825 L -144.4510040283203 -117.16200256347653 L -168.4530029296875 -117.16200256347653 L -168.4530029296875 -90.15799713134764 L -167.51499938964844 -90.15799713134764 L -152.07000732421875 -90.15799713134764 L -144.06500244140625 -90.15799713134764 L -142.4530029296875 -90.15799713134764 L -129.44700622558594 -90.15799713134764 L -128.52000427246094 -90.15799713134764 L -120.51499938964844 -90.15799713134764 L -105.06999969482422 -90.15799713134764 L -103.447998046875 -90.15799713134764 L -103.447998046875 -117.16200256347653 L -127.4489974975586 -117.16200256347653 L -127.4489974975586 -117.16400909423825 L -127.61674499511719 -117.49999999999997 L -128.44700622558594 -119.16300201416013 L -143.4530029296875 -119.16300201416013 M -189.01783752441406 -117.49999999999997 L -189.1699981689453 -117.33200073242185 L -189.4770050048828 -116.9179992675781 L -189.74200439453125 -116.47599792480466 L -189.96299743652344 -116.01000213623044 L -190.13600158691406 -115.52500152587888 L -190.26199340820312 -115.02500152587888 L -190.31155395507812 -114.68800354003903 L -190.33700561523438 -114.51499938964841 L -190.36300659179688 -113.99999999999997 L -190.33700561523438 -113.48500061035153 L -190.26199340820312 -112.97499847412107 L -190.13600158691406 -112.47499847412107 L -189.96299743652344 -111.9899978637695 L -189.74200439453125 -111.52400207519528 L -189.4770050048828 -111.08200073242185 L -189.1699981689453 -110.6679992675781 L -188.82400512695312 -110.28600311279294 L -188.44200134277344 -109.94000244140622 L -188.41600036621094 -109.92072296142575 L -188.0279998779297 -109.63300323486325 L -187.58599853515625 -109.36799621582028 L -187.1199951171875 -109.1470031738281 L -186.63499450683594 -108.97399902343747 L -186.13499450683594 -108.84799957275388 L -185.625 -108.77300262451169 L -185.11000061035156 -108.74800109863278 L -184.59500122070312 -108.77300262451169 L -184.32000732421875 -108.81343841552732 L -184.0850067138672 -108.84799957275388 L -183.5850067138672 -108.97399902343747 L -183.10000610351562 -109.1470031738281 L -182.63400268554688 -109.36799621582028 L -182.19200134277344 -109.63300323486325 L -181.7779998779297 -109.94000244140622 L -181.39599609375 -110.28600311279294 L -181.0500030517578 -110.6679992675781 L -180.7429962158203 -111.08200073242185 L -180.47799682617188 -111.52400207519528 L -180.2570037841797 -111.9899978637695 L -180.2239990234375 -112.08251190185544 L -180.08399963378906 -112.47499847412107 L -179.95799255371094 -112.97499847412107 L -179.88299560546875 -113.48500061035153 L -179.85800170898438 -113.99999999999997 L -179.88299560546875 -114.51499938964841 L -179.908447265625 -114.68800354003903 L -179.95799255371094 -115.02500152587888 L -180.08399963378906 -115.52500152587888 L -180.2239990234375 -115.9174880981445 L -180.2570037841797 -116.01000213623044 L -180.47799682617188 -116.47599792480466 L -180.7429962158203 -116.9179992675781 L -181.0500030517578 -117.33200073242185 L -181.20216369628906 -117.49999999999997 L -181.39599609375 -117.713996887207 L -181.7779998779297 -118.05999755859372 L -182.19200134277344 -118.36699676513669 L -182.63400268554688 -118.63200378417966 L -183.10000610351562 -118.85299682617185 L -183.5850067138672 -119.02600097656247 L -184.0850067138672 -119.15200042724607 L -184.32000732421875 -119.18656158447263 L -184.59500122070312 -119.22699737548825 L -185.11000061035156 -119.25299835205075 L -185.625 -119.22699737548825 L -186.13499450683594 -119.15200042724607 L -186.63499450683594 -119.02600097656247 L -187.1199951171875 -118.85299682617185 L -187.58599853515625 -118.63200378417966 L -188.0279998779297 -118.36699676513669 L -188.41600036621094 -118.07927703857419 L -188.44200134277344 -118.05999755859372 L -188.82400512695312 -117.713996887207 L -189.01783752441406 -117.49999999999997 M -90.11199951171875 -117.6389236450195 L -90.23783111572266 -117.49999999999997 L -90.38999938964844 -117.33200073242185 L -90.6969985961914 -116.9179992675781 L -90.96199798583984 -116.47599792480466 L -91.18299865722656 -116.01000213623044 L -91.35600280761719 -115.52500152587888 L -91.48200225830078 -115.02500152587888 L -91.53155517578125 -114.68800354003903 L -91.55699920654297 -114.51499938964841 L -91.58300018310547 -113.99999999999997 L -91.55699920654297 -113.48500061035153 L -91.48200225830078 -112.97499847412107 L -91.35600280761719 -112.47499847412107 L -91.18299865722656 -111.9899978637695 L -90.96199798583984 -111.52400207519528 L -90.6969985961914 -111.08200073242185 L -90.38999938964844 -110.6679992675781 L -90.11199951171875 -110.36107635498044 L -90.04399871826172 -110.28600311279294 L -89.66200256347656 -109.94000244140622 L -89.24800109863281 -109.63300323486325 L -88.80599975585938 -109.36799621582028 L -88.33999633789062 -109.1470031738281 L -87.8550033569336 -108.97399902343747 L -87.3550033569336 -108.84799957275388 L -86.84500122070312 -108.77300262451169 L -86.33000183105469 -108.74800109863278 L -86.01599884033203 -108.76324462890622 L -85.81500244140625 -108.77300262451169 L -85.30500030517578 -108.84799957275388 L -84.80500030517578 -108.97399902343747 L -84.31999969482422 -109.1470031738281 L -83.85399627685547 -109.36799621582028 L -83.41200256347656 -109.63300323486325 L -82.99800109863281 -109.94000244140622 L -82.61599731445312 -110.28600311279294 L -82.2699966430664 -110.6679992675781 L -81.96299743652344 -111.08200073242185 L -81.91999816894531 -111.1537170410156 L -81.697998046875 -111.52400207519528 L -81.47699737548828 -111.9899978637695 L -81.30400085449219 -112.47499847412107 L -81.1780014038086 -112.97499847412107 L -81.10299682617188 -113.48500061035153 L -81.0780029296875 -113.99999999999997 L -81.10299682617188 -114.51499938964841 L -81.1284408569336 -114.68800354003903 L -81.1780014038086 -115.02500152587888 L -81.30400085449219 -115.52500152587888 L -81.47699737548828 -116.01000213623044 L -81.697998046875 -116.47599792480466 L -81.91999816894531 -116.84628295898435 L -81.96299743652344 -116.9179992675781 L -82.2699966430664 -117.33200073242185 L -82.42216491699219 -117.49999999999997 L -82.61599731445312 -117.713996887207 L -82.99800109863281 -118.05999755859372 L -83.41200256347656 -118.36699676513669 L -83.85399627685547 -118.63200378417966 L -84.31999969482422 -118.85299682617185 L -84.80500030517578 -119.02600097656247 L -85.30500030517578 -119.15200042724607 L -85.81500244140625 -119.22699737548825 L -86.01599884033203 -119.23714447021482 L -86.33000183105469 -119.25299835205075 L -86.84500122070312 -119.22699737548825 L -87.3550033569336 -119.15200042724607 L -87.8550033569336 -119.02600097656247 L -88.33999633789062 -118.85299682617185 L -88.80599975585938 -118.63200378417966 L -89.24800109863281 -118.36699676513669 L -89.66200256347656 -118.05999755859372 L -90.04399871826172 -117.713996887207 L -90.11199951171875 -117.6389236450195 M -192.50100708007812 -39.134998321533196 L -192.51199340820312 -39.14974975585937 L -192.58900451660156 -39.252998352050774 L -192.68800354003906 -39.36199951171874 L -192.7969970703125 -39.46099853515624 L -192.9149932861328 -39.548999786376946 L -193.04200744628906 -39.62499999999999 L -193.1750030517578 -39.68799972534179 L -193.31399536132812 -39.73799896240234 L -193.45700073242188 -39.77399826049804 L -193.53599548339844 -39.78536224365234 L -193.60299682617188 -39.794998168945305 L -193.75 -39.80300140380859 L -193.89700317382812 -39.794998168945305 L -194.04299926757812 -39.77399826049804 L -194.18600463867188 -39.73799896240234 L -194.3249969482422 -39.68799972534179 L -194.45799255371094 -39.62499999999999 L -194.55999755859375 -39.56396102905273 L -194.5850067138672 -39.548999786376946 L -194.7030029296875 -39.46099853515624 L -194.81199645996094 -39.36199951171874 L -194.91099548339844 -39.252998352050774 L -194.99899291992188 -39.134998321533196 L -195.0749969482422 -39.00799942016601 L -195.12046813964844 -38.91199874877929 L -195.13800048828125 -38.87499999999999 L -195.18800354003906 -38.73600006103515 L -195.2239990234375 -38.592998504638665 L -195.2449951171875 -38.4469985961914 L -195.2530059814453 -38.29999923706054 L -195.2449951171875 -38.15299987792968 L -195.2239990234375 -38.006999969482415 L -195.1940460205078 -37.88800048828124 L -195.18800354003906 -37.86399841308593 L -195.13800048828125 -37.72499847412109 L -195.0749969482422 -37.59199905395507 L -194.99899291992188 -37.46500015258788 L -194.91099548339844 -37.347000122070305 L -194.81199645996094 -37.23799896240234 L -194.7030029296875 -37.13899993896484 L -194.5850067138672 -37.05099868774413 L -194.55999755859375 -37.03604125976562 L -194.45799255371094 -36.97499847412109 L -194.3249969482422 -36.91199874877929 L -194.19155883789062 -36.86399841308593 L -194.18600463867188 -36.86199951171874 L -194.04299926757812 -36.82600021362304 L -193.89700317382812 -36.805000305175774 L -193.75 -36.79800033569335 L -193.60299682617188 -36.805000305175774 L -193.45700073242188 -36.82600021362304 L -193.31399536132812 -36.86199951171874 L -193.30844116210938 -36.86399841308593 L -193.1750030517578 -36.91199874877929 L -193.04200744628906 -36.97499847412109 L -192.9149932861328 -37.05099868774413 L -192.7969970703125 -37.13899993896484 L -192.68800354003906 -37.23799896240234 L -192.58900451660156 -37.347000122070305 L -192.51199340820312 -37.45024871826171 L -192.50100708007812 -37.46500015258788 L -192.4250030517578 -37.59199905395507 L -192.36199951171875 -37.72499847412109 L -192.31199645996094 -37.86399841308593 L -192.2760009765625 -38.006999969482415 L -192.2550048828125 -38.15299987792968 L -192.2480010986328 -38.29999923706054 L -192.2550048828125 -38.4469985961914 L -192.2760009765625 -38.592998504638665 L -192.31199645996094 -38.73600006103515 L -192.36199951171875 -38.87499999999999 L -192.4250030517578 -39.00799942016601 L -192.50100708007812 -39.134998321533196 M -78.45800018310547 -36.87499999999999 L -78.43477630615234 -36.86399841308593 L -78.32499694824219 -36.812000274658196 L -78.18599700927734 -36.76200103759765 L -78.04299926757812 -36.726001739501946 L -77.89700317382812 -36.70500183105468 L -77.75 -36.69800186157226 L -77.60299682617188 -36.70500183105468 L -77.45700073242188 -36.726001739501946 L -77.31400299072266 -36.76200103759765 L -77.17500305175781 -36.812000274658196 L -77.06522369384766 -36.86399841308593 L -77.04199981689453 -36.87499999999999 L -76.91500091552734 -36.95100021362304 L -76.7969970703125 -37.03900146484374 L -76.68800354003906 -37.13800048828124 L -76.58899688720703 -37.24700164794921 L -76.5009994506836 -37.36500167846679 L -76.42500305175781 -37.49200057983398 L -76.36199951171875 -37.62499999999999 L -76.31199645996094 -37.76399993896484 L -76.2807846069336 -37.88800048828124 L -76.2760009765625 -37.90700149536132 L -76.25499725341797 -38.05300140380859 L -76.24800109863281 -38.200000762939446 L -76.25499725341797 -38.347000122070305 L -76.2760009765625 -38.49300003051757 L -76.31199645996094 -38.636001586914055 L -76.36199951171875 -38.7750015258789 L -76.42500305175781 -38.908000946044915 L -76.4273910522461 -38.91199874877929 L -76.5009994506836 -39.0349998474121 L -76.58899688720703 -39.15299987792968 L -76.68800354003906 -39.26200103759765 L -76.7969970703125 -39.36100006103515 L -76.91500091552734 -39.44900131225585 L -77.04199981689453 -39.5250015258789 L -77.17500305175781 -39.588001251220696 L -77.31400299072266 -39.63800048828124 L -77.45700073242188 -39.673999786376946 L -77.60299682617188 -39.69499969482421 L -77.75 -39.70299911499023 L -77.8239974975586 -39.69897460937499 L -77.89700317382812 -39.69499969482421 L -78.04299926757812 -39.673999786376946 L -78.18599700927734 -39.63800048828124 L -78.32499694824219 -39.588001251220696 L -78.45800018310547 -39.5250015258789 L -78.58499908447266 -39.44900131225585 L -78.7030029296875 -39.36100006103515 L -78.81199645996094 -39.26200103759765 L -78.91100311279297 -39.15299987792968 L -78.9990005493164 -39.0349998474121 L -79.0726089477539 -38.91199874877929 L -79.07499694824219 -38.908000946044915 L -79.13800048828125 -38.7750015258789 L -79.18800354003906 -38.636001586914055 L -79.2239990234375 -38.49300003051757 L -79.24500274658203 -38.347000122070305 L -79.25299835205078 -38.200000762939446 L -79.24500274658203 -38.05300140380859 L -79.2239990234375 -37.90700149536132 L -79.2192153930664 -37.88800048828124 L -79.18800354003906 -37.76399993896484 L -79.13800048828125 -37.62499999999999 L -79.07499694824219 -37.49200057983398 L -78.9990005493164 -37.36500167846679 L -78.91100311279297 -37.24700164794921 L -78.81199645996094 -37.13800048828124 L -78.7030029296875 -37.03900146484374 L -78.58499908447266 -36.95100021362304 L -78.45800018310547 -36.87499999999999 M -148.4600067138672 -51.01800155639647 L -148.0679931640625 -50.9980010986328 L -147.6750030517578 -51.01800155639647 L -147.45599365234375 -51.050170898437486 L -147.28700256347656 -51.07500076293944 L -146.906005859375 -51.17100143432616 L -146.53599548339844 -51.30300140380858 L -146.18099975585938 -51.471000671386705 L -145.843994140625 -51.673000335693345 L -145.5279998779297 -51.907001495361314 L -145.23699951171875 -52.17100143432616 L -144.9739990234375 -52.462001800537095 L -144.74000549316406 -52.77700042724608 L -144.53799438476562 -53.11399841308592 L -144.47457885742188 -53.2480010986328 L -144.3699951171875 -53.46900177001952 L -144.23699951171875 -53.83900070190428 L -144.14199829101562 -54.22000122070311 L -144.08399963378906 -54.609001159667955 L -144.06500244140625 -55.00099945068358 L -144.08399963378906 -55.39300155639647 L -144.14199829101562 -55.782001495361314 L -144.23699951171875 -56.162998199462876 L -144.3699951171875 -56.53300094604491 L -144.53799438476562 -56.888000488281236 L -144.74000549316406 -57.22499847412108 L -144.82839965820312 -57.34400177001952 L -144.9739990234375 -57.54000091552733 L -145.23699951171875 -57.83100128173827 L -145.5279998779297 -58.09500122070311 L -145.843994140625 -58.328998565673814 L -146.18099975585938 -58.530998229980455 L -146.53599548339844 -58.699001312255845 L -146.906005859375 -58.83100128173827 L -147.28700256347656 -58.92699813842772 L -147.45599365234375 -58.95182800292967 L -147.6750030517578 -58.984001159667955 L -148.0679931640625 -59.00299835205077 L -148.4600067138672 -58.984001159667955 L -148.84800720214844 -58.92699813842772 L -149.22900390625 -58.83100128173827 L -149.5989990234375 -58.699001312255845 L -149.95399475097656 -58.530998229980455 L -150.29100036621094 -58.328998565673814 L -150.60699462890625 -58.09500122070311 L -150.8979949951172 -57.83100128173827 L -151.16099548339844 -57.54000091552733 L -151.3065948486328 -57.34400177001952 L -151.39500427246094 -57.22499847412108 L -151.5970001220703 -56.888000488281236 L -151.76499938964844 -56.53300094604491 L -151.8979949951172 -56.162998199462876 L -151.9929962158203 -55.782001495361314 L -152.05099487304688 -55.39300155639647 L -152.07000732421875 -55.00099945068358 L -152.05099487304688 -54.609001159667955 L -151.9929962158203 -54.22000122070311 L -151.8979949951172 -53.83900070190428 L -151.76499938964844 -53.46900177001952 L -151.66041564941406 -53.2480010986328 L -151.5970001220703 -53.11399841308592 L -151.39500427246094 -52.77700042724608 L -151.16099548339844 -52.462001800537095 L -150.8979949951172 -52.17100143432616 L -150.60699462890625 -51.907001495361314 L -150.29100036621094 -51.673000335693345 L -149.95399475097656 -51.471000671386705 L -149.5989990234375 -51.30300140380858 L -149.22900390625 -51.17100143432616 L -148.84800720214844 -51.07500076293944 L -148.4600067138672 -51.01800155639647 M -167.98800659179688 -53.11399841308592 L -167.92459106445312 -53.2480010986328 L -167.82000732421875 -53.46900177001952 L -167.68699645996094 -53.83900070190428 L -167.5919952392578 -54.22000122070311 L -167.53399658203125 -54.609001159667955 L -167.51499938964844 -55.00099945068358 L -167.53399658203125 -55.39300155639647 L -167.5919952392578 -55.782001495361314 L -167.68699645996094 -56.162998199462876 L -167.82000732421875 -56.53300094604491 L -167.98800659179688 -56.888000488281236 L -168.19000244140625 -57.22499847412108 L -168.2783966064453 -57.34400177001952 L -168.4239959716797 -57.54000091552733 L -168.4530029296875 -57.5720863342285 L -168.68699645996094 -57.83100128173827 L -168.97799682617188 -58.09500122070311 L -169.29400634765625 -58.328998565673814 L -169.63099670410156 -58.530998229980455 L -169.98599243164062 -58.699001312255845 L -170.3560028076172 -58.83100128173827 L -170.73699951171875 -58.92699813842772 L -171.125 -58.984001159667955 L -171.51800537109375 -59.00299835205077 L -171.91000366210938 -58.984001159667955 L -172.03199768066406 -58.96607589721678 L -172.29800415039062 -58.92699813842772 L -172.6790008544922 -58.83100128173827 L -173.0489959716797 -58.699001312255845 L -173.4040069580078 -58.530998229980455 L -173.74099731445312 -58.328998565673814 L -174.0570068359375 -58.09500122070311 L -174.34800720214844 -57.83100128173827 L -174.61199951171875 -57.54000091552733 L -174.75697326660156 -57.34400177001952 L -174.84500122070312 -57.22499847412108 L -175.0469970703125 -56.888000488281236 L -175.21499633789062 -56.53300094604491 L -175.34800720214844 -56.162998199462876 L -175.4429931640625 -55.782001495361314 L -175.50100708007812 -55.39300155639647 L -175.52000427246094 -55.00099945068358 L -175.50100708007812 -54.609001159667955 L -175.4429931640625 -54.22000122070311 L -175.34800720214844 -53.83900070190428 L -175.21499633789062 -53.46900177001952 L -175.11041259765625 -53.2480010986328 L -175.0469970703125 -53.11399841308592 L -174.84500122070312 -52.77700042724608 L -174.61199951171875 -52.462001800537095 L -174.34800720214844 -52.17100143432616 L -174.0570068359375 -51.907001495361314 L -173.74099731445312 -51.673000335693345 L -173.4040069580078 -51.471000671386705 L -173.0489959716797 -51.30300140380858 L -172.6790008544922 -51.17100143432616 L -172.29800415039062 -51.07500076293944 L -172.03199768066406 -51.035923004150376 L -171.91000366210938 -51.01800155639647 L -171.51800537109375 -50.9980010986328 L -171.125 -51.01800155639647 L -170.73699951171875 -51.07500076293944 L -170.3560028076172 -51.17100143432616 L -169.98599243164062 -51.30300140380858 L -169.63099670410156 -51.471000671386705 L -169.29400634765625 -51.673000335693345 L -168.97799682617188 -51.907001495361314 L -168.68699645996094 -52.17100143432616 L -168.4530029296875 -52.42991256713866 L -168.4239959716797 -52.462001800537095 L -168.19000244140625 -52.77700042724608 L -167.98800659179688 -53.11399841308592 M -103.60700225830078 -51.907001495361314 L -103.447998046875 -51.7892608642578 L -103.29100036621094 -51.673000335693345 L -102.9540023803711 -51.471000671386705 L -102.5989990234375 -51.30300140380858 L -102.4000015258789 -51.23200607299803 L -102.22899627685547 -51.17100143432616 L -101.8479995727539 -51.07500076293944 L -101.45999908447266 -51.01800155639647 L -101.06800079345703 -50.9980010986328 L -100.67500305175781 -51.01800155639647 L -100.28700256347656 -51.07500076293944 L -99.90599822998047 -51.17100143432616 L -99.53600311279297 -51.30300140380858 L -99.18099975585938 -51.471000671386705 L -98.84400177001953 -51.673000335693345 L -98.52799987792969 -51.907001495361314 L -98.30400085449219 -52.11021804809569 L -98.23699951171875 -52.17100143432616 L -97.9739990234375 -52.462001800537095 L -97.73999786376953 -52.77700042724608 L -97.53800201416016 -53.11399841308592 L -97.37000274658203 -53.46900177001952 L -97.23699951171875 -53.83900070190428 L -97.14199829101562 -54.22000122070311 L -97.08399963378906 -54.609001159667955 L -97.06500244140625 -55.00099945068358 L -97.08399963378906 -55.39300155639647 L -97.14199829101562 -55.782001495361314 L -97.23699951171875 -56.162998199462876 L -97.37000274658203 -56.53300094604491 L -97.53800201416016 -56.888000488281236 L -97.73999786376953 -57.22499847412108 L -97.82839965820312 -57.34400177001952 L -97.9739990234375 -57.54000091552733 L -98.23699951171875 -57.83100128173827 L -98.30400085449219 -57.891784667968736 L -98.52799987792969 -58.09500122070311 L -98.84400177001953 -58.328998565673814 L -99.18099975585938 -58.530998229980455 L -99.53600311279297 -58.699001312255845 L -99.90599822998047 -58.83100128173827 L -100.28700256347656 -58.92699813842772 L -100.67500305175781 -58.984001159667955 L -101.06800079345703 -59.00299835205077 L -101.45999908447266 -58.984001159667955 L -101.8479995727539 -58.92699813842772 L -102.22899627685547 -58.83100128173827 L -102.4000015258789 -58.769992828369126 L -102.5989990234375 -58.699001312255845 L -102.9540023803711 -58.530998229980455 L -103.29100036621094 -58.328998565673814 L -103.447998046875 -58.212741851806626 L -103.60700225830078 -58.09500122070311 L -103.89800262451172 -57.83100128173827 L -104.16100311279297 -57.54000091552733 L -104.30660247802734 -57.34400177001952 L -104.3949966430664 -57.22499847412108 L -104.59700012207031 -56.888000488281236 L -104.76499938964844 -56.53300094604491 L -104.89800262451172 -56.162998199462876 L -104.99299621582031 -55.782001495361314 L -105.0510025024414 -55.39300155639647 L -105.06999969482422 -55.00099945068358 L -105.0510025024414 -54.609001159667955 L -104.99299621582031 -54.22000122070311 L -104.89800262451172 -53.83900070190428 L -104.76499938964844 -53.46900177001952 L -104.66041564941406 -53.2480010986328 L -104.59700012207031 -53.11399841308592 L -104.3949966430664 -52.77700042724608 L -104.16100311279297 -52.462001800537095 L -103.89800262451172 -52.17100143432616 L -103.60700225830078 -51.907001495361314 M -127.05699920654297 -51.907001495361314 L -126.97599792480469 -51.847019195556626 L -126.74099731445312 -51.673000335693345 L -126.40399932861328 -51.471000671386705 L -126.04900360107422 -51.30300140380858 L -125.67900085449219 -51.17100143432616 L -125.2979965209961 -51.07500076293944 L -124.91000366210938 -51.01800155639647 L -124.51799774169922 -50.9980010986328 L -124.125 -51.01800155639647 L -123.73699951171875 -51.07500076293944 L -123.35600280761719 -51.17100143432616 L -122.98600006103516 -51.30300140380858 L -122.87999725341797 -51.35316467285155 L -122.63099670410156 -51.471000671386705 L -122.29399871826172 -51.673000335693345 L -121.97799682617188 -51.907001495361314 L -121.68699645996094 -52.17100143432616 L -121.42400360107422 -52.462001800537095 L -121.19000244140625 -52.77700042724608 L -120.98799896240234 -53.11399841308592 L -120.9245834350586 -53.2480010986328 L -120.81999969482422 -53.46900177001952 L -120.68699645996094 -53.83900070190428 L -120.59200286865234 -54.22000122070311 L -120.53399658203125 -54.609001159667955 L -120.51499938964844 -55.00099945068358 L -120.53399658203125 -55.39300155639647 L -120.59200286865234 -55.782001495361314 L -120.68699645996094 -56.162998199462876 L -120.81999969482422 -56.53300094604491 L -120.98799896240234 -56.888000488281236 L -121.19000244140625 -57.22499847412108 L -121.27839660644531 -57.34400177001952 L -121.42400360107422 -57.54000091552733 L -121.68699645996094 -57.83100128173827 L -121.97799682617188 -58.09500122070311 L -122.29399871826172 -58.328998565673814 L -122.63099670410156 -58.530998229980455 L -122.87999725341797 -58.648838043212876 L -122.98600006103516 -58.699001312255845 L -123.35600280761719 -58.83100128173827 L -123.73699951171875 -58.92699813842772 L -124.125 -58.984001159667955 L -124.51799774169922 -59.00299835205077 L -124.91000366210938 -58.984001159667955 L -125.2979965209961 -58.92699813842772 L -125.67900085449219 -58.83100128173827 L -126.04900360107422 -58.699001312255845 L -126.40399932861328 -58.530998229980455 L -126.74099731445312 -58.328998565673814 L -127.05699920654297 -58.09500122070311 L -127.3479995727539 -57.83100128173827 L -127.61100006103516 -57.54000091552733 L -127.75659942626953 -57.34400177001952 L -127.84500122070312 -57.22499847412108 L -128.0469970703125 -56.888000488281236 L -128.21499633789062 -56.53300094604491 L -128.34800720214844 -56.162998199462876 L -128.4429931640625 -55.782001495361314 L -128.50100708007812 -55.39300155639647 L -128.52000427246094 -55.00099945068358 L -128.50100708007812 -54.609001159667955 L -128.4429931640625 -54.22000122070311 L -128.34800720214844 -53.83900070190428 L -128.21499633789062 -53.46900177001952 L -128.11041259765625 -53.2480010986328 L -128.0469970703125 -53.11399841308592 L -127.84500122070312 -52.77700042724608 L -127.61100006103516 -52.462001800537095 L -127.3479995727539 -52.17100143432616 L -127.05699920654297 -51.907001495361314 M -188.44200134277344 -91.57499694824217 L -188.41600036621094 -91.5557174682617 L -188.0279998779297 -91.2679977416992 L -187.58599853515625 -91.00299835205077 L -187.1199951171875 -90.78199768066405 L -186.63499450683594 -90.60900115966795 L -186.13499450683594 -90.48300170898436 L -185.625 -90.40799713134764 L -185.11000061035156 -90.38300323486327 L -184.59500122070312 -90.40799713134764 L -184.32000732421875 -90.4484405517578 L -184.0850067138672 -90.48300170898436 L -183.5850067138672 -90.60900115966795 L -183.10000610351562 -90.78199768066405 L -182.63400268554688 -91.00299835205077 L -182.19200134277344 -91.2679977416992 L -181.7779998779297 -91.57499694824217 L -181.39599609375 -91.92099761962889 L -181.0500030517578 -92.30300140380858 L -180.7429962158203 -92.71700286865233 L -180.47799682617188 -93.15899658203124 L -180.2570037841797 -93.62499999999999 L -180.2239990234375 -93.71751403808592 L -180.08399963378906 -94.11000061035155 L -179.95799255371094 -94.61000061035155 L -179.88299560546875 -95.12000274658202 L -179.85800170898438 -95.63500213623045 L -179.88299560546875 -96.15000152587888 L -179.95799255371094 -96.66000366210935 L -180.08399963378906 -97.16000366210935 L -180.2239990234375 -97.55248260498044 L -180.2570037841797 -97.64499664306638 L -180.47799682617188 -98.11100006103513 L -180.59371948242188 -98.30400085449216 L -180.7429962158203 -98.55300140380857 L -181.0500030517578 -98.96700286865232 L -181.39599609375 -99.34899902343747 L -181.7779998779297 -99.69499969482419 L -182.19200134277344 -100.00199890136716 L -182.63400268554688 -100.2669982910156 L -183.10000610351562 -100.48799896240232 L -183.5850067138672 -100.66100311279294 L -184.0850067138672 -100.78700256347653 L -184.32000732421875 -100.82155609130857 L -184.59500122070312 -100.86199951171872 L -185.11000061035156 -100.88800048828122 L -185.625 -100.86199951171872 L -186.13499450683594 -100.78700256347653 L -186.63499450683594 -100.66100311279294 L -187.1199951171875 -100.48799896240232 L -187.58599853515625 -100.2669982910156 L -188.0279998779297 -100.00199890136716 L -188.41600036621094 -99.71427917480466 L -188.44200134277344 -99.69499969482419 L -188.82400512695312 -99.34899902343747 L -189.1699981689453 -98.96700286865232 L -189.4770050048828 -98.55300140380857 L -189.62628173828125 -98.30400085449216 L -189.74200439453125 -98.11100006103513 L -189.96299743652344 -97.64499664306638 L -190.13600158691406 -97.16000366210935 L -190.26199340820312 -96.66000366210935 L -190.33700561523438 -96.15000152587888 L -190.36300659179688 -95.63500213623045 L -190.33700561523438 -95.12000274658202 L -190.26199340820312 -94.61000061035155 L -190.13600158691406 -94.11000061035155 L -189.96299743652344 -93.62499999999999 L -189.74200439453125 -93.15899658203124 L -189.4770050048828 -92.71700286865233 L -189.1699981689453 -92.30300140380858 L -188.82400512695312 -91.92099761962889 L -188.44200134277344 -91.57499694824217 M -177.9720001220703 -68.00599670410155 L -177.8000030517578 -67.9980010986328 L -177.6280059814453 -68.00599670410155 L -177.45799255371094 -68.03099822998045 L -177.29100036621094 -68.07299804687499 L -177.12899780273438 -68.13099670410155 L -176.9739990234375 -68.20400238037108 L -176.8260040283203 -68.29299926757811 L -176.68800354003906 -68.39499664306639 L -176.56100463867188 -68.51100158691405 L -176.44500732421875 -68.63800048828124 L -176.34300231933594 -68.77600097656249 L -176.25399780273438 -68.9240036010742 L -176.18099975585938 -69.07900238037108 L -176.1280059814453 -69.22703552246092 L -176.1230010986328 -69.24099731445311 L -176.08099365234375 -69.40799713134764 L -176.05599975585938 -69.57800292968749 L -176.05348205566406 -69.63200378417967 L -176.04800415039062 -69.74999999999999 L -176.05599975585938 -69.92199707031249 L -176.08099365234375 -70.09200286865233 L -176.1230010986328 -70.25900268554686 L -176.1280059814453 -70.27296447753905 L -176.18099975585938 -70.42099761962889 L -176.25399780273438 -70.57599639892577 L -176.34300231933594 -70.72399902343749 L -176.44500732421875 -70.86199951171874 L -176.56100463867188 -70.98899841308592 L -176.68800354003906 -71.10500335693358 L -176.8260040283203 -71.20700073242186 L -176.9739990234375 -71.29599761962889 L -177.12899780273438 -71.36900329589842 L -177.29100036621094 -71.42700195312499 L -177.45799255371094 -71.46900177001952 L -177.6280059814453 -71.49400329589842 L -177.8000030517578 -71.50299835205077 L -177.9720001220703 -71.49400329589842 L -178.14199829101562 -71.46900177001952 L -178.17599487304688 -71.46044921874999 L -178.3090057373047 -71.42700195312499 L -178.4709930419922 -71.36900329589842 L -178.62600708007812 -71.29599761962889 L -178.7740020751953 -71.20700073242186 L -178.91200256347656 -71.10500335693358 L -179.03900146484375 -70.98899841308592 L -179.15499877929688 -70.86199951171874 L -179.2570037841797 -70.72399902343749 L -179.3459930419922 -70.57599639892577 L -179.41900634765625 -70.42099761962889 L -179.4770050048828 -70.25900268554686 L -179.5189971923828 -70.09200286865233 L -179.54400634765625 -69.92199707031249 L -179.55299377441406 -69.74999999999999 L -179.5468292236328 -69.63200378417967 L -179.54400634765625 -69.57800292968749 L -179.5189971923828 -69.40799713134764 L -179.4770050048828 -69.24099731445311 L -179.41900634765625 -69.07900238037108 L -179.3459930419922 -68.9240036010742 L -179.2570037841797 -68.77600097656249 L -179.15499877929688 -68.63800048828124 L -179.03900146484375 -68.51100158691405 L -178.91200256347656 -68.39499664306639 L -178.7740020751953 -68.29299926757811 L -178.62600708007812 -68.20400238037108 L -178.4709930419922 -68.13099670410155 L -178.3090057373047 -68.07299804687499 L -178.17599487304688 -68.03955078124999 L -178.14199829101562 -68.03099822998045 L -177.9720001220703 -68.00599670410155 M -90.38999938964844 -92.30300140380858 L -90.11199951171875 -91.99607849121092 L -90.04399871826172 -91.92099761962889 L -89.66200256347656 -91.57499694824217 L -89.24800109863281 -91.2679977416992 L -88.80599975585938 -91.00299835205077 L -88.33999633789062 -90.78199768066405 L -87.8550033569336 -90.60900115966795 L -87.3550033569336 -90.48300170898436 L -86.84500122070312 -90.40799713134764 L -86.33000183105469 -90.38300323486327 L -86.01599884033203 -90.39823913574217 L -85.81500244140625 -90.40799713134764 L -85.30500030517578 -90.48300170898436 L -84.80500030517578 -90.60900115966795 L -84.31999969482422 -90.78199768066405 L -83.85399627685547 -91.00299835205077 L -83.41200256347656 -91.2679977416992 L -82.99800109863281 -91.57499694824217 L -82.61599731445312 -91.92099761962889 L -82.2699966430664 -92.30300140380858 L -81.96299743652344 -92.71700286865233 L -81.91999816894531 -92.78871917724608 L -81.697998046875 -93.15899658203124 L -81.47699737548828 -93.62499999999999 L -81.30400085449219 -94.11000061035155 L -81.1780014038086 -94.61000061035155 L -81.10299682617188 -95.12000274658202 L -81.0780029296875 -95.63500213623045 L -81.10299682617188 -96.15000152587888 L -81.1780014038086 -96.66000366210935 L -81.30400085449219 -97.16000366210935 L -81.47699737548828 -97.64499664306638 L -81.697998046875 -98.11100006103513 L -81.81371307373047 -98.30400085449216 L -81.91999816894531 -98.48127746582028 L -81.96299743652344 -98.55300140380857 L -82.2699966430664 -98.96700286865232 L -82.61599731445312 -99.34899902343747 L -82.99800109863281 -99.69499969482419 L -83.41200256347656 -100.00199890136716 L -83.85399627685547 -100.2669982910156 L -84.31999969482422 -100.48799896240232 L -84.80500030517578 -100.66100311279294 L -85.30500030517578 -100.78700256347653 L -85.81500244140625 -100.86199951171872 L -86.01599884033203 -100.87214660644528 L -86.33000183105469 -100.88800048828122 L -86.84500122070312 -100.86199951171872 L -87.3550033569336 -100.78700256347653 L -87.8550033569336 -100.66100311279294 L -88.33999633789062 -100.48799896240232 L -88.80599975585938 -100.2669982910156 L -89.24800109863281 -100.00199890136716 L -89.66200256347656 -99.69499969482419 L -90.04399871826172 -99.34899902343747 L -90.11199951171875 -99.27392578124997 L -90.38999938964844 -98.96700286865232 L -90.6969985961914 -98.55300140380857 L -90.8462905883789 -98.30400085449216 L -90.96199798583984 -98.11100006103513 L -91.18299865722656 -97.64499664306638 L -91.35600280761719 -97.16000366210935 L -91.48200225830078 -96.66000366210935 L -91.55699920654297 -96.15000152587888 L -91.58300018310547 -95.63500213623045 L -91.55699920654297 -95.12000274658202 L -91.48200225830078 -94.61000061035155 L -91.35600280761719 -94.11000061035155 L -91.18299865722656 -93.62499999999999 L -90.96199798583984 -93.15899658203124 L -90.6969985961914 -92.71700286865233 L -90.38999938964844 -92.30300140380858 M -94.20899963378906 -68.07299804687499 L -94.20800018310547 -68.07274627685545 L -94.04199981689453 -68.03099822998045 L -93.87200164794922 -68.00599670410155 L -93.69999694824219 -67.9980010986328 L -93.52799987792969 -68.00599670410155 L -93.35800170898438 -68.03099822998045 L -93.19100189208984 -68.07299804687499 L -93.02899932861328 -68.13099670410155 L -92.8740005493164 -68.20400238037108 L -92.72599792480469 -68.29299926757811 L -92.58799743652344 -68.39499664306639 L -92.46099853515625 -68.51100158691405 L -92.34500122070312 -68.63800048828124 L -92.24299621582031 -68.77600097656249 L -92.16000366210938 -68.91402435302733 L -92.15399932861328 -68.9240036010742 L -92.08100128173828 -69.07900238037108 L -92.02300262451172 -69.24099731445311 L -91.98100280761719 -69.40799713134764 L -91.95600128173828 -69.57800292968749 L -91.9534912109375 -69.63200378417967 L -91.947998046875 -69.74999999999999 L -91.95600128173828 -69.92199707031249 L -91.98100280761719 -70.09200286865233 L -92.02300262451172 -70.25900268554686 L -92.08100128173828 -70.42099761962889 L -92.15399932861328 -70.57599639892577 L -92.16000366210938 -70.58597564697264 L -92.24299621582031 -70.72399902343749 L -92.34500122070312 -70.86199951171874 L -92.46099853515625 -70.98899841308592 L -92.58799743652344 -71.10500335693358 L -92.72599792480469 -71.20700073242186 L -92.8740005493164 -71.29599761962889 L -93.02899932861328 -71.36900329589842 L -93.19100189208984 -71.42700195312499 L -93.35800170898438 -71.46900177001952 L -93.52799987792969 -71.49400329589842 L -93.69999694824219 -71.50299835205077 L -93.87200164794922 -71.49400329589842 L -94.04199981689453 -71.46900177001952 L -94.20800018310547 -71.42725372314452 L -94.20899963378906 -71.42700195312499 L -94.37100219726562 -71.36900329589842 L -94.5260009765625 -71.29599761962889 L -94.67400360107422 -71.20700073242186 L -94.81199645996094 -71.10500335693358 L -94.93900299072266 -70.98899841308592 L -95.05500030517578 -70.86199951171874 L -95.15699768066406 -70.72399902343749 L -95.24600219726562 -70.57599639892577 L -95.31900024414062 -70.42099761962889 L -95.37699890136719 -70.25900268554686 L -95.41899871826172 -70.09200286865233 L -95.44400024414062 -69.92199707031249 L -95.4530029296875 -69.74999999999999 L -95.44682312011719 -69.63200378417967 L -95.44400024414062 -69.57800292968749 L -95.41899871826172 -69.40799713134764 L -95.37699890136719 -69.24099731445311 L -95.31900024414062 -69.07900238037108 L -95.24600219726562 -68.9240036010742 L -95.15699768066406 -68.77600097656249 L -95.05500030517578 -68.63800048828124 L -94.93900299072266 -68.51100158691405 L -94.81199645996094 -68.39499664306639 L -94.67400360107422 -68.29299926757811 L -94.5260009765625 -68.20400238037108 L -94.37100219726562 -68.13099670410155 L -94.20899963378906 -68.07299804687499 M -232.5590057373047 -145.50500488281247 L -232.60299682617188 -144.61199951171872 L -232.5590057373047 -143.71899414062497 L -232.42799377441406 -142.83500671386716 L -232.2100067138672 -141.96699523925778 L -231.90899658203125 -141.12499999999997 L -231.52699279785156 -140.3170013427734 L -231.0679931640625 -139.55000305175778 L -230.53500366210938 -138.83200073242185 L -229.93499755859375 -138.16900634765622 L -229.37600708007812 -137.66235351562497 L -229.2729949951172 -137.5690002441406 L -228.55499267578125 -137.0359954833984 L -227.78900146484375 -136.57699584960935 L -226.9810028076172 -136.1940002441406 L -226.13900756835938 -135.89300537109372 L -225.27200317382812 -135.67599487304685 L -224.38800048828125 -135.54499816894528 L -223.49600219726562 -135.5010070800781 L -222.60299682617188 -135.54499816894528 L -221.718994140625 -135.67599487304685 L -221.1840057373047 -135.80990600585935 L -220.8520050048828 -135.89300537109372 L -220.01100158691406 -136.1940002441406 L -219.2030029296875 -136.57699584960935 L -218.43600463867188 -137.0359954833984 L -217.71800231933594 -137.5690002441406 L -217.05599975585938 -138.16900634765622 L -216.45599365234375 -138.83200073242185 L -216.1359100341797 -139.26400756835935 L -215.9239959716797 -139.55000305175778 L -215.46400451660156 -140.3170013427734 L -215.08200073242188 -141.12499999999997 L -214.781005859375 -141.96699523925778 L -214.56399536132812 -142.83500671386716 L -214.43299865722656 -143.71899414062497 L -214.38900756835938 -144.61199951171872 L -214.43299865722656 -145.50500488281247 L -214.56399536132812 -146.38900756835935 L -214.781005859375 -147.25700378417966 L -214.85214233398438 -147.45599365234372 L -215.08200073242188 -148.09899902343747 L -215.46400451660156 -148.90699768066403 L -215.9239959716797 -149.67399597167966 L -216.45599365234375 -150.3919982910156 L -217.05599975585938 -151.05499267578122 L -217.71800231933594 -151.65499877929685 L -218.43600463867188 -152.18800354003903 L -219.2030029296875 -152.6470031738281 L -220.01100158691406 -153.02999877929685 L -220.8520050048828 -153.33099365234372 L -221.1840057373047 -153.4140930175781 L -221.718994140625 -153.5480041503906 L -222.60299682617188 -153.67900085449216 L -223.49600219726562 -153.7230072021484 L -224.38800048828125 -153.67900085449216 L -225.27200317382812 -153.5480041503906 L -226.13900756835938 -153.33099365234372 L -226.9810028076172 -153.02999877929685 L -227.78900146484375 -152.6470031738281 L -228.55499267578125 -152.18800354003903 L -229.2729949951172 -151.65499877929685 L -229.37600708007812 -151.56164550781247 L -229.93499755859375 -151.05499267578122 L -230.53500366210938 -150.3919982910156 L -231.0679931640625 -149.67399597167966 L -231.52699279785156 -148.90699768066403 L -231.90899658203125 -148.09899902343747 L -232.13885498046875 -147.45599365234372 L -232.2100067138672 -147.25700378417966 L -232.42799377441406 -146.38900756835935 L -232.5590057373047 -145.50500488281247 M -222.60299682617188 -155.8450012207031 L -221.718994140625 -155.97599792480466 L -221.1840057373047 -156.10990905761716 L -220.8520050048828 -156.19299316406247 L -220.01100158691406 -156.4940032958984 L -219.2030029296875 -156.87699890136716 L -218.43600463867188 -157.33599853515622 L -217.71800231933594 -157.8690032958984 L -217.05599975585938 -158.46899414062497 L -216.45599365234375 -159.13200378417966 L -215.9239959716797 -159.8500061035156 L -215.46400451660156 -160.61700439453122 L -215.08200073242188 -161.42500305175778 L -214.781005859375 -162.2669982910156 L -214.72193908691406 -162.50300598144528 L -214.56399536132812 -163.13400268554685 L -214.45950317382812 -163.8399963378906 L -214.43299865722656 -164.01899719238278 L -214.38900756835938 -164.91200256347653 L -214.43299865722656 -165.80499267578122 L -214.56399536132812 -166.6889953613281 L -214.781005859375 -167.55700683593747 L -215.08200073242188 -168.39900207519528 L -215.46400451660156 -169.20700073242185 L -215.9239959716797 -169.97399902343747 L -216.45599365234375 -170.6920013427734 L -217.05599975585938 -171.35499572753903 L -217.71800231933594 -171.95500183105466 L -218.43600463867188 -172.48800659179685 L -219.2030029296875 -172.9470062255859 L -220.01100158691406 -173.33000183105466 L -220.8520050048828 -173.63099670410153 L -221.1840057373047 -173.7140960693359 L -221.718994140625 -173.8480072021484 L -222.60299682617188 -173.97900390624997 L -223.49600219726562 -174.02299499511716 L -224.38800048828125 -173.97900390624997 L -225.27200317382812 -173.8480072021484 L -226.13900756835938 -173.63099670410153 L -226.9810028076172 -173.33000183105466 L -227.78900146484375 -172.9470062255859 L -228.55499267578125 -172.48800659179685 L -229.2729949951172 -171.95500183105466 L -229.37600708007812 -171.86164855957028 L -229.93499755859375 -171.35499572753903 L -230.53500366210938 -170.6920013427734 L -231.0679931640625 -169.97399902343747 L -231.52699279785156 -169.20700073242185 L -231.90899658203125 -168.39900207519528 L -232.2100067138672 -167.55700683593747 L -232.42799377441406 -166.6889953613281 L -232.5590057373047 -165.80499267578122 L -232.60299682617188 -164.91200256347653 L -232.5590057373047 -164.01899719238278 L -232.53250122070312 -163.8399963378906 L -232.42799377441406 -163.13400268554685 L -232.2693328857422 -162.50300598144528 L -232.2100067138672 -162.2669982910156 L -231.90899658203125 -161.42500305175778 L -231.52699279785156 -160.61700439453122 L -231.0679931640625 -159.8500061035156 L -230.53500366210938 -159.13200378417966 L -229.93499755859375 -158.46899414062497 L -229.37600708007812 -157.96235656738278 L -229.2729949951172 -157.8690032958984 L -228.55499267578125 -157.33599853515622 L -227.78900146484375 -156.87699890136716 L -226.9810028076172 -156.4940032958984 L -226.13900756835938 -156.19299316406247 L -225.27200317382812 -155.97599792480466 L -224.38800048828125 -155.8450012207031 L -223.49600219726562 -155.80099487304685 L -222.60299682617188 -155.8450012207031 M -229.2729949951172 -178.21899414062497 L -228.55499267578125 -177.68600463867185 L -227.78900146484375 -177.22700500488278 L -226.9810028076172 -176.84399414062497 L -226.13900756835938 -176.5429992675781 L -225.27200317382812 -176.32600402832028 L -224.38800048828125 -176.19500732421872 L -223.49600219726562 -176.15100097656247 L -222.60299682617188 -176.19500732421872 L -221.718994140625 -176.32600402832028 L -221.1840057373047 -176.45989990234372 L -220.8520050048828 -176.5429992675781 L -220.01100158691406 -176.84399414062497 L -219.2030029296875 -177.22700500488278 L -218.43600463867188 -177.68600463867185 L -217.71800231933594 -178.21899414062497 L -217.05599975585938 -178.8190002441406 L -216.45599365234375 -179.48199462890622 L -215.9239959716797 -180.19999694824216 L -215.90960693359375 -180.22399902343747 L -215.46400451660156 -180.96699523925778 L -215.08200073242188 -181.77499389648435 L -214.781005859375 -182.61700439453122 L -214.56399536132812 -183.48500061035153 L -214.43299865722656 -184.3690032958984 L -214.38900756835938 -185.2619934082031 L -214.43299865722656 -186.15499877929685 L -214.56399536132812 -187.03900146484372 L -214.781005859375 -187.90699768066403 L -214.96295166015625 -188.4160003662109 L -215.08200073242188 -188.74899291992185 L -215.46400451660156 -189.55700683593747 L -215.9239959716797 -190.3240051269531 L -216.45599365234375 -191.04200744628903 L -217.05599975585938 -191.70500183105466 L -217.71800231933594 -192.3049926757812 L -218.43600463867188 -192.83799743652338 L -219.2030029296875 -193.29699707031244 L -220.01100158691406 -193.6799926757812 L -220.8520050048828 -193.98100280761713 L -221.1840057373047 -194.0641021728515 L -221.718994140625 -194.19799804687494 L -222.60299682617188 -194.3289947509765 L -223.49600219726562 -194.37300109863276 L -224.38800048828125 -194.3289947509765 L -225.27200317382812 -194.19799804687494 L -226.13900756835938 -193.98100280761713 L -226.9810028076172 -193.6799926757812 L -227.78900146484375 -193.29699707031244 L -228.55499267578125 -192.83799743652338 L -229.2729949951172 -192.3049926757812 L -229.37600708007812 -192.21163940429682 L -229.93499755859375 -191.70500183105466 L -230.53500366210938 -191.04200744628903 L -231.0679931640625 -190.3240051269531 L -231.52699279785156 -189.55700683593747 L -231.90899658203125 -188.74899291992185 L -232.2100067138672 -187.90699768066403 L -232.42799377441406 -187.03900146484372 L -232.5590057373047 -186.15499877929685 L -232.60299682617188 -185.2619934082031 L -232.5590057373047 -184.3690032958984 L -232.42799377441406 -183.48500061035153 L -232.2100067138672 -182.61700439453122 L -231.90899658203125 -181.77499389648435 L -231.52699279785156 -180.96699523925778 L -231.08236694335938 -180.22399902343747 L -231.0679931640625 -180.19999694824216 L -230.53500366210938 -179.48199462890622 L -229.93499755859375 -178.8190002441406 L -229.37600708007812 -178.31234741210935 L -229.2729949951172 -178.21899414062497 M -194.60299682617188 -127.63899993896482 L -194.55999755859375 -127.60693359374997 L -194.48500061035156 -127.55100250244138 L -194.35800170898438 -127.47499847412107 L -194.22500610351562 -127.41200256347653 L -194.08599853515625 -127.36199951171872 L -193.9429931640625 -127.32599639892575 L -193.7969970703125 -127.30500030517575 L -193.64999389648438 -127.29799652099607 L -193.53599548339844 -127.30342864990232 L -193.5030059814453 -127.30500030517575 L -193.35699462890625 -127.32599639892575 L -193.21400451660156 -127.36199951171872 L -193.0749969482422 -127.41200256347653 L -192.94200134277344 -127.47499847412107 L -192.81500244140625 -127.55100250244138 L -192.69700622558594 -127.63899993896482 L -192.58799743652344 -127.73799896240232 L -192.51199340820312 -127.82167816162107 L -192.48899841308594 -127.84700012207028 L -192.4010009765625 -127.9649963378906 L -192.3249969482422 -128.09199523925778 L -192.26199340820312 -128.2250061035156 L -192.21200561523438 -128.3639984130859 L -192.17599487304688 -128.50700378417966 L -192.15499877929688 -128.65299987792966 L -192.1479949951172 -128.80000305175778 L -192.15499877929688 -128.9470062255859 L -192.16607666015625 -129.02400207519528 L -192.17599487304688 -129.0930023193359 L -192.21200561523438 -129.2359924316406 L -192.26199340820312 -129.37499999999997 L -192.3249969482422 -129.50799560546872 L -192.4010009765625 -129.6349945068359 L -192.48899841308594 -129.75300598144528 L -192.51199340820312 -129.77832031249997 L -192.58799743652344 -129.86199951171872 L -192.69700622558594 -129.96099853515622 L -192.81500244140625 -130.04899597167966 L -192.94200134277344 -130.12499999999997 L -193.0749969482422 -130.18800354003903 L -193.21400451660156 -130.23800659179685 L -193.35699462890625 -130.27400207519528 L -193.5030059814453 -130.29499816894528 L -193.53599548339844 -130.29679870605466 L -193.64999389648438 -130.30299377441403 L -193.7969970703125 -130.29499816894528 L -193.9429931640625 -130.27400207519528 L -194.08599853515625 -130.23800659179685 L -194.22500610351562 -130.18800354003903 L -194.35800170898438 -130.12499999999997 L -194.48500061035156 -130.04899597167966 L -194.55999755859375 -129.9930725097656 L -194.60299682617188 -129.96099853515622 L -194.71200561523438 -129.86199951171872 L -194.81100463867188 -129.75300598144528 L -194.8990020751953 -129.6349945068359 L -194.97500610351562 -129.50799560546872 L -195.03799438476562 -129.37499999999997 L -195.08799743652344 -129.2359924316406 L -195.12399291992188 -129.0930023193359 L -195.13392639160156 -129.02400207519528 L -195.14500427246094 -128.9470062255859 L -195.1529998779297 -128.80000305175778 L -195.14500427246094 -128.65299987792966 L -195.12399291992188 -128.50700378417966 L -195.08799743652344 -128.3639984130859 L -195.03799438476562 -128.2250061035156 L -194.97500610351562 -128.09199523925778 L -194.8990020751953 -127.9649963378906 L -194.81100463867188 -127.84700012207028 L -194.71200561523438 -127.73799896240232 L -194.60299682617188 -127.63899993896482 M -76.32499694824219 -127.99199676513669 L -76.32121276855469 -127.99999999999997 L -76.26200103759766 -128.12499999999997 L -76.21199798583984 -128.26400756835935 L -76.1760025024414 -128.40699768066403 L -76.15499877929688 -128.55299377441403 L -76.14800262451172 -128.69999694824216 L -76.15499877929688 -128.84700012207028 L -76.1760025024414 -128.99299621582028 L -76.18380737304688 -129.02400207519528 L -76.21199798583984 -129.13600158691403 L -76.26200103759766 -129.27499389648435 L -76.32499694824219 -129.40800476074216 L -76.4010009765625 -129.53500366210935 L -76.48899841308594 -129.65299987792966 L -76.58799743652344 -129.7619934082031 L -76.6969985961914 -129.8609924316406 L -76.80000305175781 -129.93782043457028 L -76.81500244140625 -129.9490051269531 L -76.94200134277344 -130.02499389648435 L -77.07499694824219 -130.0879974365234 L -77.21399688720703 -130.13800048828122 L -77.35700225830078 -130.17399597167966 L -77.50299835205078 -130.19500732421872 L -77.6500015258789 -130.20300292968747 L -77.7969970703125 -130.19500732421872 L -77.8239974975586 -130.19111633300778 L -77.94300079345703 -130.17399597167966 L -78.08599853515625 -130.13800048828122 L -78.2249984741211 -130.0879974365234 L -78.35800170898438 -130.02499389648435 L -78.48500061035156 -129.9490051269531 L -78.60299682617188 -129.8609924316406 L -78.71199798583984 -129.7619934082031 L -78.81099700927734 -129.65299987792966 L -78.89900207519531 -129.53500366210935 L -78.9749984741211 -129.40800476074216 L -79.03800201416016 -129.27499389648435 L -79.08799743652344 -129.13600158691403 L -79.11619567871094 -129.02400207519528 L -79.1240005493164 -128.99299621582028 L -79.1449966430664 -128.84700012207028 L -79.15299987792969 -128.69999694824216 L -79.1449966430664 -128.55299377441403 L -79.1240005493164 -128.40699768066403 L -79.08799743652344 -128.26400756835935 L -79.03800201416016 -128.12499999999997 L -78.97879028320312 -127.99999999999997 L -78.9749984741211 -127.99199676513669 L -78.89900207519531 -127.8649978637695 L -78.81099700927734 -127.74700164794919 L -78.71199798583984 -127.63800048828122 L -78.60299682617188 -127.53900146484372 L -78.48500061035156 -127.45099639892575 L -78.35800170898438 -127.37499999999997 L -78.2249984741211 -127.31199645996091 L -78.08599853515625 -127.26200103759763 L -77.94300079345703 -127.22599792480466 L -77.8239974975586 -127.20888519287107 L -77.7969970703125 -127.20500183105466 L -77.6500015258789 -127.19799804687497 L -77.50299835205078 -127.20500183105466 L -77.35700225830078 -127.22599792480466 L -77.21399688720703 -127.26200103759763 L -77.07499694824219 -127.31199645996091 L -76.94200134277344 -127.37499999999997 L -76.81500244140625 -127.45099639892575 L -76.6969985961914 -127.53900146484372 L -76.58799743652344 -127.63800048828122 L -76.48899841308594 -127.74700164794919 L -76.4010009765625 -127.8649978637695 L -76.32499694824219 -127.99199676513669 M -76.31199645996094 -139.16400146484372 L -76.28682708740234 -139.26400756835935 L -76.2760009765625 -139.30700683593747 L -76.25499725341797 -139.45300292968747 L -76.24800109863281 -139.6000061035156 L -76.25499725341797 -139.74699401855466 L -76.2760009765625 -139.89300537109372 L -76.31199645996094 -140.0359954833984 L -76.36199951171875 -140.17500305175778 L -76.41552734375 -140.2879943847656 L -76.42500305175781 -140.30799865722653 L -76.5009994506836 -140.43499755859372 L -76.58899688720703 -140.55299377441403 L -76.68800354003906 -140.66200256347653 L -76.7969970703125 -140.76100158691403 L -76.91500091552734 -140.84899902343747 L -77.04199981689453 -140.92500305175778 L -77.17500305175781 -140.98800659179685 L -77.31400299072266 -141.0379943847656 L -77.45700073242188 -141.0740051269531 L -77.60299682617188 -141.0950012207031 L -77.75 -141.10299682617185 L -77.8239974975586 -141.09896850585935 L -77.89700317382812 -141.0950012207031 L -78.04299926757812 -141.0740051269531 L -78.18599700927734 -141.0379943847656 L -78.32499694824219 -140.98800659179685 L -78.45800018310547 -140.92500305175778 L -78.58499908447266 -140.84899902343747 L -78.7030029296875 -140.76100158691403 L -78.81199645996094 -140.66200256347653 L -78.91100311279297 -140.55299377441403 L -78.9990005493164 -140.43499755859372 L -79.07499694824219 -140.30799865722653 L -79.08447265625 -140.2879943847656 L -79.13800048828125 -140.17500305175778 L -79.18800354003906 -140.0359954833984 L -79.20099639892578 -139.9843597412109 L -79.2239990234375 -139.89300537109372 L -79.24500274658203 -139.74699401855466 L -79.25299835205078 -139.6000061035156 L -79.24500274658203 -139.45300292968747 L -79.2239990234375 -139.30700683593747 L -79.21317291259766 -139.26400756835935 L -79.20099639892578 -139.21563720703122 L -79.18800354003906 -139.16400146484372 L -79.13800048828125 -139.02499389648435 L -79.07499694824219 -138.8919982910156 L -78.9990005493164 -138.7649993896484 L -78.91100311279297 -138.6470031738281 L -78.81199645996094 -138.5379943847656 L -78.7030029296875 -138.4389953613281 L -78.58499908447266 -138.35099792480466 L -78.45800018310547 -138.27499389648435 L -78.32499694824219 -138.21200561523435 L -78.18599700927734 -138.16200256347653 L -78.04299926757812 -138.1260070800781 L -77.89700317382812 -138.10499572753903 L -77.8239974975586 -138.10151672363278 L -77.75 -138.0980072021484 L -77.60299682617188 -138.10499572753903 L -77.45700073242188 -138.1260070800781 L -77.31400299072266 -138.16200256347653 L -77.17500305175781 -138.21200561523435 L -77.04199981689453 -138.27499389648435 L -76.91500091552734 -138.35099792480466 L -76.7969970703125 -138.4389953613281 L -76.68800354003906 -138.5379943847656 L -76.58899688720703 -138.6470031738281 L -76.5009994506836 -138.7649993896484 L -76.42500305175781 -138.8919982910156 L -76.36199951171875 -139.02499389648435 L -76.31199645996094 -139.16400146484372 M -78.9749984741211 -229.39199829101557 L -78.96542358398438 -229.37600708007807 L -78.89900207519531 -229.26499938964838 L -78.81099700927734 -229.14700317382807 L -78.71199798583984 -229.03799438476557 L -78.60299682617188 -228.93899536132807 L -78.48500061035156 -228.85099792480463 L -78.35800170898438 -228.77499389648432 L -78.2249984741211 -228.71200561523432 L -78.08599853515625 -228.6620025634765 L -78.03436279296875 -228.64900207519526 L -77.94300079345703 -228.62600708007807 L -77.8239974975586 -228.60888671874994 L -77.7969970703125 -228.604995727539 L -77.6500015258789 -228.59800720214838 L -77.50299835205078 -228.604995727539 L -77.35700225830078 -228.62600708007807 L -77.26564025878906 -228.64900207519526 L -77.21399688720703 -228.6620025634765 L -77.07499694824219 -228.71200561523432 L -76.94200134277344 -228.77499389648432 L -76.81500244140625 -228.85099792480463 L -76.6969985961914 -228.93899536132807 L -76.58799743652344 -229.03799438476557 L -76.48899841308594 -229.14700317382807 L -76.4010009765625 -229.26499938964838 L -76.3345718383789 -229.37600708007807 L -76.32499694824219 -229.39199829101557 L -76.26200103759766 -229.52499389648432 L -76.21199798583984 -229.6640014648437 L -76.1760025024414 -229.80700683593744 L -76.15499877929688 -229.95300292968744 L -76.14800262451172 -230.10000610351557 L -76.15499877929688 -230.24699401855463 L -76.1760025024414 -230.3930053710937 L -76.17776489257812 -230.39999389648432 L -76.21199798583984 -230.53599548339838 L -76.26200103759766 -230.67500305175776 L -76.32499694824219 -230.8079986572265 L -76.4010009765625 -230.9349975585937 L -76.48899841308594 -231.052993774414 L -76.58799743652344 -231.1620025634765 L -76.6969985961914 -231.261001586914 L -76.81500244140625 -231.34899902343744 L -76.9403305053711 -231.42399597167963 L -76.94200134277344 -231.42500305175776 L -77.07499694824219 -231.48800659179682 L -77.21399688720703 -231.53799438476557 L -77.35700225830078 -231.57400512695307 L -77.50299835205078 -231.59500122070307 L -77.6500015258789 -231.60299682617182 L -77.7969970703125 -231.59500122070307 L -77.8239974975586 -231.59111022949213 L -77.94300079345703 -231.57400512695307 L -78.08599853515625 -231.53799438476557 L -78.2249984741211 -231.48800659179682 L -78.35800170898438 -231.42500305175776 L -78.35967254638672 -231.42399597167963 L -78.48500061035156 -231.34899902343744 L -78.60299682617188 -231.261001586914 L -78.71199798583984 -231.1620025634765 L -78.81099700927734 -231.052993774414 L -78.89900207519531 -230.9349975585937 L -78.9749984741211 -230.8079986572265 L -79.03800201416016 -230.67500305175776 L -79.08799743652344 -230.53599548339838 L -79.12223815917969 -230.39999389648432 L -79.1240005493164 -230.3930053710937 L -79.1449966430664 -230.24699401855463 L -79.15299987792969 -230.10000610351557 L -79.1449966430664 -229.95300292968744 L -79.1240005493164 -229.80700683593744 L -79.08799743652344 -229.6640014648437 L -79.03800201416016 -229.52499389648432 L -78.9749984741211 -229.39199829101557 M -192.4010009765625 -229.365005493164 L -192.39442443847656 -229.37600708007807 L -192.3249969482422 -229.4920043945312 L -192.26199340820312 -229.62499999999994 L -192.21200561523438 -229.76400756835932 L -192.19900512695312 -229.81564331054682 L -192.17599487304688 -229.906997680664 L -192.15499877929688 -230.052993774414 L -192.1479949951172 -230.19999694824213 L -192.15499877929688 -230.34700012207026 L -192.17599487304688 -230.49299621582026 L -192.19900512695312 -230.5843658447265 L -192.21200561523438 -230.636001586914 L -192.26199340820312 -230.77499389648432 L -192.3249969482422 -230.90800476074213 L -192.4010009765625 -231.03500366210932 L -192.48899841308594 -231.15299987792963 L -192.51199340820312 -231.17832946777338 L -192.58799743652344 -231.26199340820307 L -192.69700622558594 -231.36099243164057 L -192.78147888183594 -231.42399597167963 L -192.81500244140625 -231.44900512695307 L -192.94200134277344 -231.52499389648432 L -193.0749969482422 -231.58799743652338 L -193.21400451660156 -231.6380004882812 L -193.35699462890625 -231.67399597167963 L -193.5030059814453 -231.6950073242187 L -193.64999389648438 -231.70300292968744 L -193.7969970703125 -231.6950073242187 L -193.9429931640625 -231.67399597167963 L -194.08599853515625 -231.6380004882812 L -194.22500610351562 -231.58799743652338 L -194.35800170898438 -231.52499389648432 L -194.48500061035156 -231.44900512695307 L -194.51852416992188 -231.42399597167963 L -194.55999755859375 -231.39306640624994 L -194.60299682617188 -231.36099243164057 L -194.71200561523438 -231.26199340820307 L -194.81100463867188 -231.15299987792963 L -194.8990020751953 -231.03500366210932 L -194.97500610351562 -230.90800476074213 L -195.03799438476562 -230.77499389648432 L -195.08799743652344 -230.636001586914 L -195.12399291992188 -230.49299621582026 L -195.1373748779297 -230.39999389648432 L -195.14500427246094 -230.34700012207026 L -195.1529998779297 -230.19999694824213 L -195.14500427246094 -230.052993774414 L -195.12399291992188 -229.906997680664 L -195.08799743652344 -229.76400756835932 L -195.03799438476562 -229.62499999999994 L -194.97500610351562 -229.4920043945312 L -194.90557861328125 -229.37600708007807 L -194.8990020751953 -229.365005493164 L -194.81100463867188 -229.24699401855463 L -194.71200561523438 -229.1380004882812 L -194.60299682617188 -229.0390014648437 L -194.55999755859375 -229.00692749023432 L -194.48500061035156 -228.95100402832026 L -194.35800170898438 -228.87499999999994 L -194.22500610351562 -228.81199645996088 L -194.08599853515625 -228.76199340820307 L -193.9429931640625 -228.72599792480463 L -193.7969970703125 -228.70500183105463 L -193.64999389648438 -228.69799804687494 L -193.53599548339844 -228.7034301757812 L -193.5030059814453 -228.70500183105463 L -193.35699462890625 -228.72599792480463 L -193.21400451660156 -228.76199340820307 L -193.0749969482422 -228.81199645996088 L -192.94200134277344 -228.87499999999994 L -192.81500244140625 -228.95100402832026 L -192.69700622558594 -229.0390014648437 L -192.58799743652344 -229.1380004882812 L -192.51199340820312 -229.22167968749994 L -192.48899841308594 -229.24699401855463 L -192.4010009765625 -229.365005493164 M -195.2449951171875 -139.84700012207028 L -195.2530059814453 -139.69999694824216 L -195.2449951171875 -139.55299377441403 L -195.2239990234375 -139.40699768066403 L -195.18800354003906 -139.26400756835935 L -195.13800048828125 -139.12499999999997 L -195.0749969482422 -138.99200439453122 L -194.99899291992188 -138.86500549316403 L -194.91099548339844 -138.74699401855466 L -194.81199645996094 -138.63800048828122 L -194.7030029296875 -138.53900146484372 L -194.5850067138672 -138.45100402832028 L -194.55999755859375 -138.43603515624997 L -194.45799255371094 -138.37499999999997 L -194.3249969482422 -138.3119964599609 L -194.18600463867188 -138.2619934082031 L -194.04299926757812 -138.22599792480466 L -193.89700317382812 -138.20500183105466 L -193.75 -138.19799804687497 L -193.60299682617188 -138.20500183105466 L -193.53599548339844 -138.2146301269531 L -193.45700073242188 -138.22599792480466 L -193.31399536132812 -138.2619934082031 L -193.1750030517578 -138.3119964599609 L -193.04200744628906 -138.37499999999997 L -192.9149932861328 -138.45100402832028 L -192.7969970703125 -138.53900146484372 L -192.68800354003906 -138.63800048828122 L -192.58900451660156 -138.74699401855466 L -192.51199340820312 -138.8502502441406 L -192.50100708007812 -138.86500549316403 L -192.4250030517578 -138.99200439453122 L -192.36199951171875 -139.12499999999997 L -192.31199645996094 -139.26400756835935 L -192.2760009765625 -139.40699768066403 L -192.2550048828125 -139.55299377441403 L -192.2480010986328 -139.69999694824216 L -192.2550048828125 -139.84700012207028 L -192.2760009765625 -139.99299621582028 L -192.31199645996094 -140.13600158691403 L -192.36199951171875 -140.27499389648435 L -192.4250030517578 -140.40800476074216 L -192.50100708007812 -140.53500366210935 L -192.51199340820312 -140.54974365234372 L -192.58900451660156 -140.65299987792966 L -192.68800354003906 -140.7619934082031 L -192.7969970703125 -140.8609924316406 L -192.9149932861328 -140.9490051269531 L -193.04200744628906 -141.02499389648435 L -193.1750030517578 -141.0879974365234 L -193.31399536132812 -141.13800048828122 L -193.3656463623047 -141.15100097656247 L -193.45700073242188 -141.17399597167966 L -193.53599548339844 -141.18536376953122 L -193.60299682617188 -141.19500732421872 L -193.75 -141.20300292968747 L -193.89700317382812 -141.19500732421872 L -194.04299926757812 -141.17399597167966 L -194.1343536376953 -141.15100097656247 L -194.18600463867188 -141.13800048828122 L -194.3249969482422 -141.0879974365234 L -194.45799255371094 -141.02499389648435 L -194.55999755859375 -140.96395874023435 L -194.5850067138672 -140.9490051269531 L -194.7030029296875 -140.8609924316406 L -194.81199645996094 -140.7619934082031 L -194.91099548339844 -140.65299987792966 L -194.99899291992188 -140.53500366210935 L -195.0749969482422 -140.40800476074216 L -195.13800048828125 -140.27499389648435 L -195.18800354003906 -140.13600158691403 L -195.2239990234375 -139.99299621582028 L -195.2449951171875 -139.84700012207028 M -213.99899291992188 -56.4980010986328 L -227.7530059814453 -56.4980010986328 L -227.7530059814453 -43.49599838256835 L -213.99899291992188 -43.49599838256835 L -213.99899291992188 -56.4980010986328 M -129.44700622558594 -86.00299835205077 L -142.4530029296875 -86.00299835205077 L -142.4530029296875 -80.9980010986328 L -129.44700622558594 -80.9980010986328 L -129.44700622558594 -86.00299835205077 M -212.10299682617188 -135.5010070800781 L -212.10299682617188 -135.49800109863278 L -204.09800720214844 -135.49800109863278 L -204.09800720214844 -162.50300598144528 L -212.10299682617188 -162.50300598144528 L -212.10299682617188 -135.5010070800781 z"
     fill="none"
     stroke="rgb(255,0,0)"
     stroke-width="0.001mm"
     id="path2472"
     style="stroke-width:0.104;stroke-miterlimit:4;stroke-dasharray:none" />
  <text
     xml:space="preserve"
     style="font-size:4.23333px;line-height:1.25;font-family:sans-serif;stroke-width:0.264583;fill:#00b600;fill-opacity:1"
     x="-194.15652"
     y="-104.10487"
     id="text4165"><tspan
       sodipodi:role="line"
       id="tspan4163"
       style="stroke-width:0.264583;fill:#00b600;fill-opacity:1"
       x="-194.15652"
       y="-104.10487">SAVE / NO</tspan></text>
  <text
     xml:space="preserve"
     style="font-size:4.23333px;line-height:1.25;font-family:sans-serif;stroke-width:0.264583;fill:#00b600;fill-opacity:1"
     x="-190.13208"
     y="-85.544334"
     id="text4165-5"><tspan
       sodipodi:role="line"
       id="tspan4163-3"
       style="stroke-width:0.264583;fill:#00b600;fill-opacity:1"
       x="-190.13208"
       y="-85.544334">PAGE</tspan></text>
  <text
     xml:space="preserve"
     style="font-size:4.23333px;line-height:1.25;font-family:sans-serif;fill:#00b600;fill-opacity:1;stroke-width:0.264583"
     x="-98.790169"
     y="-104.10487"
     id="text4165-3"><tspan
       sodipodi:role="line"
       id="tspan4163-9"
       style="fill:#00b600;fill-opacity:1;stroke-width:0.264583"
       x="-98.790169"
       y="-104.10487">LOAD / YES</tspan></text>
  <text
     xml:space="preserve"
     style="font-size:4.23333px;line-height:1.25;font-family:sans-serif;stroke-width:0.264583;fill:#00b600;fill-opacity:1"
     x="-91.470016"
     y="-85.544334"
     id="text4165-34"><tspan
       sodipodi:role="line"
       id="tspan4163-5"
       style="stroke-width:0.264583;fill:#00b600;fill-opacity:1"
       x="-91.470016"
       y="-85.544334">SHIFT</tspan></text>
  <text
     xml:space="preserve"
     style="font-size:4.23333px;line-height:1.25;font-family:sans-serif;stroke-width:0.264583;fill:#00b600;fill-opacity:1"
     x="-172.88635"
     y="-43.454357"
     id="text4165-5-5"><tspan
       sodipodi:role="line"
       id="tspan4163-3-6"
       style="stroke-width:0.264583;fill:#00b600;fill-opacity:1"
       x="-172.88635"
       y="-43.454357">1</tspan></text>
  <text
     xml:space="preserve"
     style="font-size:4.23333px;line-height:1.25;font-family:sans-serif;stroke-width:0.264583;fill:#00b600;fill-opacity:1"
     x="-149.05057"
     y="-43.412025"
     id="text4165-5-6"><tspan
       sodipodi:role="line"
       id="tspan4163-3-4"
       style="stroke-width:0.264583;fill:#00b600;fill-opacity:1"
       x="-149.05057"
       y="-43.412025">2</tspan></text>
  <text
     xml:space="preserve"
     style="font-size:4.23333px;line-height:1.25;font-family:sans-serif;stroke-width:0.264583;fill:#00b600;fill-opacity:1"
     x="-125.66736"
     y="-43.412025"
     id="text4165-5-2"><tspan
       sodipodi:role="line"
       id="tspan4163-3-69"
       style="stroke-width:0.264583;fill:#00b600;fill-opacity:1"
       x="-125.66736"
       y="-43.412025">3</tspan></text>
  <text
     xml:space="preserve"
     style="font-size:4.23333px;line-height:1.25;font-family:sans-serif;stroke-width:0.264583;fill:#00b600;fill-opacity:1"
     x="-102.28414"
     y="-43.437424"
     id="text4165-5-1"><tspan
       sodipodi:role="line"
       style="stroke-width:0.264583;fill:#00b600;fill-opacity:1"
       x="-102.28414"
       y="-43.437424"
       id="tspan14590">4</tspan></text>
  <text
     xml:space="preserve"
     style="font-size:4.23333px;line-height:1.25;font-family:sans-serif;stroke-width:0.264583;fill:#00b600;fill-opacity:1"
     x="-220.55792"
     y="-132.01115"
     id="text4165-5-4"><tspan
       sodipodi:role="line"
       id="tspan4163-3-0"
       style="stroke-width:0.264583;fill:#00b600;fill-opacity:1"
       x="-220.55792"
       y="-132.01115">IN 1</tspan></text>
  <text
     xml:space="preserve"
     style="font-size:4.23333px;line-height:1.25;font-family:sans-serif;stroke-width:0.264583;fill:#00b600;fill-opacity:1"
     x="-215.35329"
     y="-170.93288"
     id="text4165-5-7"><tspan
       sodipodi:role="line"
       id="tspan4163-3-08"
       style="stroke-width:0.264583;fill:#00b600;fill-opacity:1"
       x="-215.35329"
       y="-170.93288">OUT 1</tspan></text>
  <text
     xml:space="preserve"
     style="font-size:4.23333px;line-height:1.25;font-family:sans-serif;stroke-width:0.264583;fill:#00b600;fill-opacity:1"
     x="-213.54297"
     y="-184.35938"
     id="text4165-5-3"><tspan
       sodipodi:role="line"
       id="tspan4163-3-9"
       style="stroke-width:0.264583;fill:#00b600;fill-opacity:1"
       x="-213.54297"
       y="-184.35938">IN 2</tspan></text>
  <text
     xml:space="preserve"
     style="font-size:4.23333px;line-height:1.25;font-family:sans-serif;stroke-width:0.264583;fill:#00b600;fill-opacity:1"
     x="-216.25844"
     y="-196.42813"
     id="text4165-5-0"><tspan
       sodipodi:role="line"
       id="tspan4163-3-48"
       style="stroke-width:0.264583;fill:#00b600;fill-opacity:1"
       x="-216.25844"
       y="-196.42813">OUT 2</tspan></text>
  <metadata
     id="metadata2303">
    <rdf:RDF>
      <cc:Work
         rdf:about="">
        <dc:title>svgOutput</dc:title>
      </cc:Work>
    </rdf:RDF>
  </metadata>
</svg>
