%
M48
M72
T01C0.02000
T02C0.02362
T03C0.03150
T04C0.03200
T05C0.03346
T06C0.03543
T07C0.03740
T08C0.03937
T09C0.04000
T10C0.04400
T11C0.05200
T12C0.12598
%
T01
X104800Y20984
X108800Y29384
X98400Y30184
X105200Y41784
X118400Y44584
X104400Y64584
X100800Y67784
X100000Y74184
X91600Y79784
X91600Y88184
X72800Y96984
X71600Y108184
X64000Y108184
X64000Y121384
X60800Y145384
X87600Y145384
X101600Y140984
X104000Y134584
X101600Y124584
X118400Y133784
X123200Y133784
X125600Y124584
X129600Y142584
X121200Y146184
X157200Y137384
X157200Y132584
X165600Y145784
X163600Y173384
X172400Y194584
X160000Y230984
X156000Y238984
X170000Y266584
X146800Y300984
X132000Y297784
X134400Y324984
X83600Y311784
X85200Y293384
X82000Y250584
X96000Y205784
X71600Y204584
X71600Y199784
X51200Y178184
X43600Y188984
X34400Y196584
X21200Y161384
X21600Y156584
X12800Y157384
X9600Y68984
X54800Y71384
X58400Y67784
X82000Y41784
X160400Y107384
X161200Y100984
X180000Y105784
X198400Y100984
X214400Y100184
X220800Y101784
X236400Y115384
X216000Y130984
X216000Y142984
X208000Y142984
X200800Y134184
X194400Y138184
X190400Y132584
X209600Y160584
X238400Y145384
X259200Y190184
X282000Y183784
X287200Y183784
X292800Y183784
X286400Y190184
X309200Y156584
X319600Y157384
X332000Y183784
X340800Y186584
X352400Y186584
X360000Y188584
X344800Y168584
X359200Y150584
X380000Y132584
X382400Y138984
X392800Y153384
X384400Y183384
X387600Y191784
X425600Y145784
X380000Y116184
X357200Y105784
X349600Y73784
X337600Y78584
X332800Y80184
X330400Y110984
X327200Y116184
X318800Y114184
X297600Y82984
X287600Y102584
X266800Y66584
X258800Y56184
X256400Y44184
X256400Y39384
X265200Y40184
X252000Y74184
X224400Y63784
X206800Y78984
X198800Y67784
X196800Y40184
X206800Y40184
X197200Y24984
X172000Y27784
X172000Y56584
X172000Y63784
X172000Y70984
X164800Y60584
X234800Y17784
X296000Y62984
X278400Y146184
X276800Y152584
X300000Y148584
X325200Y186584
X316800Y190184
X246800Y240584
X216000Y228584
X198400Y225784
X212800Y208584
X208000Y253784
X202800Y262584
X201600Y268584
X201600Y281784
X221200Y280984
X260400Y278984
X383200Y264584
X44000Y267384
X35600Y271384
T02
X47244Y235236
X74803Y185039
X47244Y152559
X90551Y235236
X253386Y179407
X346457Y180118
X368110Y195866
X374016Y175197
T03
X402559Y175472
X402559Y165472
X402559Y155472
X402559Y145472
X402559Y135472
X402559Y125472
X402559Y115472
X402559Y105472
X402559Y95472
X415354Y95472
X415354Y105472
X415354Y115472
X415354Y125472
X415354Y135472
X415354Y145472
X415354Y155472
X415354Y165472
X415354Y175472
T04
X385827Y164449
X385827Y154449
X385827Y143780
X385827Y133780
X385827Y116220
X385827Y106220
X385827Y94567
X385827Y84567
X367362Y94921
X367362Y104921
X367362Y114921
X367362Y124921
X367362Y134921
X367362Y144921
X367362Y154921
X367362Y164921
X337362Y164921
X337362Y154921
X337362Y144921
X337362Y134921
X337362Y124921
X337362Y114921
X337362Y104921
X337362Y94921
X323543Y93268
X313543Y93268
X303543Y93268
X293543Y93268
X283543Y93268
X273543Y93268
X263543Y93268
X253543Y93268
X243543Y93268
X233543Y93268
X230551Y76772
X200551Y76772
X210551Y28543
X220551Y28543
X233543Y123268
X243543Y123268
X253543Y123268
X263543Y123268
X263386Y137559
X253386Y137559
X242205Y140748
X232205Y140748
X253386Y167559
X263386Y167559
X273386Y167559
X283386Y167559
X293386Y167559
X303386Y167559
X313386Y167559
X323386Y167559
X323386Y137559
X313386Y137559
X313543Y123268
X323543Y123268
X303543Y123268
X303386Y137559
X293386Y137559
X283386Y137559
X283543Y123268
X293543Y123268
X273543Y123268
X273386Y137559
X273701Y186024
X263701Y186024
X270709Y212795
X270906Y226142
X282081Y225457
X292963Y225368
X303159Y225368
X303159Y255368
X292963Y255368
X282081Y255457
X270906Y256142
X260906Y256142
X250906Y256142
X240906Y256142
X225804Y258847
X224646Y243110
X240906Y226142
X250906Y226142
X240709Y212795
X260906Y226142
X194646Y243110
X195804Y258847
X184291Y256142
X174291Y256142
X164291Y256142
X154291Y256142
X142717Y255157
X126220Y246063
X142717Y225157
X154291Y226142
X154291Y212598
X164291Y226142
X174291Y226142
X184291Y226142
X184291Y212598
X189055Y165354
X179055Y165354
X169370Y165354
X159370Y165354
X149685Y165354
X139685Y165354
X130000Y165354
X120000Y165354
X111299Y165354
X101299Y165354
X92598Y165354
X82598Y165354
X72913Y165354
X62913Y165354
X51181Y116220
X51181Y106220
X107047Y76772
X137047Y76772
X48228Y243031
X48228Y253031
X65709Y257874
X95709Y257874
X96220Y246063
X12795Y243031
X12795Y253031
X300790Y28813
X310790Y28813
X311102Y73819
X301102Y73819
X385827Y19764
X385827Y9764
X385827Y242047
X385827Y252047
X421260Y252047
X421260Y242047
T05
X298071Y201811
X288071Y201811
X278071Y201811
X268071Y201811
X258071Y201811
X248071Y201811
X238071Y201811
X228071Y201811
X208071Y201811
X198071Y201811
X188071Y201811
X178071Y201811
X168071Y201811
X158071Y201811
X148071Y201811
X138071Y201811
X138071Y11811
X128071Y11811
X118071Y11811
X108071Y11811
X98071Y11811
X88071Y11811
X78071Y11811
X68071Y11811
X158071Y11811
X168071Y11811
X178071Y11811
X188071Y11811
X198071Y11811
X208071Y11811
X218071Y11811
X228071Y11811
X244071Y11811
X254071Y11811
X264071Y11811
X274071Y11811
X284071Y11811
X294071Y11811
X304071Y11811
X314071Y11811
X324071Y11811
X334071Y11811
T06
X396417Y190630
X426417Y190630
X426417Y230630
X426417Y265433
X396417Y265433
X396417Y230630
X396417Y305433
X426417Y305433
X37638Y305433
X7638Y305433
X7638Y265433
X7638Y230630
X37638Y230630
X37638Y265433
X37638Y190630
X7638Y190630
T07
X28071Y11811
X38071Y11811
X38071Y21811
X28071Y21811
X28071Y31811
X38071Y31811
X38071Y41811
X38071Y51811
X38071Y61811
X28071Y61811
X28071Y51811
X28071Y41811
X28071Y71811
X38071Y71811
X38071Y81811
X38071Y91811
X38071Y101811
X38071Y111811
X28071Y111811
X28071Y101811
X28071Y91811
X28071Y81811
X28071Y121811
X38071Y121811
X38071Y131811
X38071Y141811
X38071Y151811
X38071Y161811
X28071Y161811
X28071Y151811
X28071Y141811
X28071Y131811
X28071Y171811
X38071Y171811
X38071Y181811
X28071Y181811
T08
X65945Y82677
X75787Y82677
X85630Y82677
X85630Y25591
X65945Y25591
X158465Y25591
X178150Y25591
X178150Y82677
X168307Y82677
X158465Y82677
X250984Y82677
X260827Y82677
X270669Y82677
X270669Y25591
X250984Y25591
X343504Y25591
X363189Y25591
X363189Y82677
X353346Y82677
X343504Y82677
X366949Y275394
X366949Y300197
X386634Y287205
T09
X345677Y229107
X335677Y229107
X325677Y229107
X335677Y249107
X241535Y308071
X231535Y308071
X221535Y308071
X211535Y308071
X201535Y308071
X191535Y308071
X181535Y308071
X171535Y308071
X161535Y308071
X151535Y308071
X141535Y308071
X131535Y308071
X121535Y308071
X111535Y308071
X101535Y308071
X91535Y308071
X95500Y227795
X105500Y227795
X115500Y227795
X125500Y227795
X121535Y185039
X111535Y185039
X101535Y185039
X91535Y185039
X85500Y227795
X75500Y227795
X65500Y227795
X55500Y227795
X131535Y185039
X141535Y185039
X151535Y185039
X161535Y185039
X171535Y185039
X181535Y185039
X191535Y185039
X201535Y185039
X211535Y185039
X221535Y185039
X231535Y185039
X241535Y185039
X227235Y166339
X216535Y166339
X205835Y166339
T10
X206535Y152524
X196536Y152489
X186536Y152454
X176536Y152419
X166536Y152385
X156536Y152350
X146536Y152315
X136536Y152280
X126536Y152245
X116536Y152210
X106536Y152175
X96536Y152140
X86536Y152105
X76536Y152070
X66536Y152035
X66746Y92036
X76746Y92071
X86746Y92106
X96746Y92141
X106746Y92175
X116745Y92210
X126745Y92245
X136745Y92280
X146745Y92315
X156745Y92350
X166745Y92385
X176745Y92420
X186745Y92455
X196745Y92490
X206745Y92525
X216745Y92559
X216535Y152559
T11
X219665Y271575
X210059Y281181
X189449Y281181
X179449Y271575
X159449Y280787
X139449Y271575
X129843Y281181
X109232Y281181
X99232Y271575
X79232Y280787
X59232Y271575
X49626Y281181
X239665Y280787
X259665Y271575
X269665Y281181
X290276Y281181
X299882Y271575
X319882Y280787
X339882Y271575
X349882Y281181
T12
X402559Y248031
X402559Y317913
X376378Y53150
X346542Y12591
X330315Y53150
X283858Y53150
X237795Y53150
X191339Y53150
X145276Y53150
X98819Y53150
X52756Y53150
X51358Y12500
X32480Y251969
X32480Y317913
M30
