G75*
%MOIN*%
%OFA0B0*%
%FSLAX25Y25*%
%IPPOS*%
%LPD*%
%AMOC8*
5,1,8,0,0,1.08239X$1,22.5*
%
%ADD10C,0.00000*%
D10*
X0360650Y0274409D02*
X0373248Y0274409D01*
X0373249Y0274409D02*
X0373247Y0274495D01*
X0373242Y0274581D01*
X0373232Y0274666D01*
X0373219Y0274751D01*
X0373202Y0274835D01*
X0373182Y0274919D01*
X0373158Y0275001D01*
X0373130Y0275082D01*
X0373099Y0275163D01*
X0373065Y0275241D01*
X0373027Y0275318D01*
X0372985Y0275394D01*
X0372941Y0275467D01*
X0372893Y0275538D01*
X0372842Y0275608D01*
X0372788Y0275675D01*
X0372732Y0275739D01*
X0372672Y0275801D01*
X0372610Y0275861D01*
X0372546Y0275917D01*
X0372479Y0275971D01*
X0372409Y0276022D01*
X0372338Y0276070D01*
X0372265Y0276114D01*
X0372189Y0276156D01*
X0372112Y0276194D01*
X0372034Y0276228D01*
X0371953Y0276259D01*
X0371872Y0276287D01*
X0371790Y0276311D01*
X0371706Y0276331D01*
X0371622Y0276348D01*
X0371537Y0276361D01*
X0371452Y0276371D01*
X0371366Y0276376D01*
X0371280Y0276378D01*
X0362618Y0276378D01*
X0362532Y0276376D01*
X0362446Y0276371D01*
X0362361Y0276361D01*
X0362276Y0276348D01*
X0362192Y0276331D01*
X0362108Y0276311D01*
X0362026Y0276287D01*
X0361945Y0276259D01*
X0361864Y0276228D01*
X0361786Y0276194D01*
X0361709Y0276156D01*
X0361634Y0276114D01*
X0361560Y0276070D01*
X0361489Y0276022D01*
X0361419Y0275971D01*
X0361352Y0275917D01*
X0361288Y0275861D01*
X0361226Y0275801D01*
X0361166Y0275739D01*
X0361110Y0275675D01*
X0361056Y0275608D01*
X0361005Y0275538D01*
X0360957Y0275467D01*
X0360913Y0275394D01*
X0360871Y0275318D01*
X0360833Y0275241D01*
X0360799Y0275163D01*
X0360768Y0275082D01*
X0360740Y0275001D01*
X0360716Y0274919D01*
X0360696Y0274835D01*
X0360679Y0274751D01*
X0360666Y0274666D01*
X0360656Y0274581D01*
X0360651Y0274495D01*
X0360649Y0274409D01*
X0360651Y0274323D01*
X0360656Y0274237D01*
X0360666Y0274152D01*
X0360679Y0274067D01*
X0360696Y0273983D01*
X0360716Y0273899D01*
X0360740Y0273817D01*
X0360768Y0273736D01*
X0360799Y0273655D01*
X0360833Y0273577D01*
X0360871Y0273500D01*
X0360913Y0273425D01*
X0360957Y0273351D01*
X0361005Y0273280D01*
X0361056Y0273210D01*
X0361110Y0273143D01*
X0361166Y0273079D01*
X0361226Y0273017D01*
X0361288Y0272957D01*
X0361352Y0272901D01*
X0361419Y0272847D01*
X0361489Y0272796D01*
X0361560Y0272748D01*
X0361634Y0272704D01*
X0361709Y0272662D01*
X0361786Y0272624D01*
X0361864Y0272590D01*
X0361945Y0272559D01*
X0362026Y0272531D01*
X0362108Y0272507D01*
X0362192Y0272487D01*
X0362276Y0272470D01*
X0362361Y0272457D01*
X0362446Y0272447D01*
X0362532Y0272442D01*
X0362618Y0272440D01*
X0362618Y0272441D02*
X0371280Y0272441D01*
X0371280Y0272440D02*
X0371366Y0272442D01*
X0371452Y0272447D01*
X0371537Y0272457D01*
X0371622Y0272470D01*
X0371706Y0272487D01*
X0371790Y0272507D01*
X0371872Y0272531D01*
X0371953Y0272559D01*
X0372034Y0272590D01*
X0372112Y0272624D01*
X0372189Y0272662D01*
X0372265Y0272704D01*
X0372338Y0272748D01*
X0372409Y0272796D01*
X0372479Y0272847D01*
X0372546Y0272901D01*
X0372610Y0272957D01*
X0372672Y0273017D01*
X0372732Y0273079D01*
X0372788Y0273143D01*
X0372842Y0273210D01*
X0372893Y0273280D01*
X0372941Y0273351D01*
X0372985Y0273425D01*
X0373027Y0273500D01*
X0373065Y0273577D01*
X0373099Y0273655D01*
X0373130Y0273736D01*
X0373158Y0273817D01*
X0373182Y0273899D01*
X0373202Y0273983D01*
X0373219Y0274067D01*
X0373232Y0274152D01*
X0373242Y0274237D01*
X0373247Y0274323D01*
X0373249Y0274409D01*
X0384665Y0281890D02*
X0384665Y0290551D01*
X0384667Y0290637D01*
X0384672Y0290723D01*
X0384682Y0290808D01*
X0384695Y0290893D01*
X0384712Y0290977D01*
X0384732Y0291061D01*
X0384756Y0291143D01*
X0384784Y0291224D01*
X0384815Y0291305D01*
X0384849Y0291383D01*
X0384887Y0291460D01*
X0384929Y0291536D01*
X0384973Y0291609D01*
X0385021Y0291680D01*
X0385072Y0291750D01*
X0385126Y0291817D01*
X0385182Y0291881D01*
X0385242Y0291943D01*
X0385304Y0292003D01*
X0385368Y0292059D01*
X0385435Y0292113D01*
X0385505Y0292164D01*
X0385576Y0292212D01*
X0385650Y0292256D01*
X0385725Y0292298D01*
X0385802Y0292336D01*
X0385880Y0292370D01*
X0385961Y0292401D01*
X0386042Y0292429D01*
X0386124Y0292453D01*
X0386208Y0292473D01*
X0386292Y0292490D01*
X0386377Y0292503D01*
X0386462Y0292513D01*
X0386548Y0292518D01*
X0386634Y0292520D01*
X0386720Y0292518D01*
X0386806Y0292513D01*
X0386891Y0292503D01*
X0386976Y0292490D01*
X0387060Y0292473D01*
X0387144Y0292453D01*
X0387226Y0292429D01*
X0387307Y0292401D01*
X0387388Y0292370D01*
X0387466Y0292336D01*
X0387543Y0292298D01*
X0387619Y0292256D01*
X0387692Y0292212D01*
X0387763Y0292164D01*
X0387833Y0292113D01*
X0387900Y0292059D01*
X0387964Y0292003D01*
X0388026Y0291943D01*
X0388086Y0291881D01*
X0388142Y0291817D01*
X0388196Y0291750D01*
X0388247Y0291680D01*
X0388295Y0291609D01*
X0388339Y0291536D01*
X0388381Y0291460D01*
X0388419Y0291383D01*
X0388453Y0291305D01*
X0388484Y0291224D01*
X0388512Y0291143D01*
X0388536Y0291061D01*
X0388556Y0290977D01*
X0388573Y0290893D01*
X0388586Y0290808D01*
X0388596Y0290723D01*
X0388601Y0290637D01*
X0388603Y0290551D01*
X0388602Y0290551D02*
X0388602Y0281890D01*
X0386634Y0279921D02*
X0386548Y0279923D01*
X0386462Y0279928D01*
X0386377Y0279938D01*
X0386292Y0279951D01*
X0386208Y0279968D01*
X0386124Y0279988D01*
X0386042Y0280012D01*
X0385961Y0280040D01*
X0385880Y0280071D01*
X0385802Y0280105D01*
X0385725Y0280143D01*
X0385650Y0280185D01*
X0385576Y0280229D01*
X0385505Y0280277D01*
X0385435Y0280328D01*
X0385368Y0280382D01*
X0385304Y0280438D01*
X0385242Y0280498D01*
X0385182Y0280560D01*
X0385126Y0280624D01*
X0385072Y0280691D01*
X0385021Y0280761D01*
X0384973Y0280832D01*
X0384929Y0280906D01*
X0384887Y0280981D01*
X0384849Y0281058D01*
X0384815Y0281136D01*
X0384784Y0281217D01*
X0384756Y0281298D01*
X0384732Y0281380D01*
X0384712Y0281464D01*
X0384695Y0281548D01*
X0384682Y0281633D01*
X0384672Y0281718D01*
X0384667Y0281804D01*
X0384665Y0281890D01*
X0386634Y0279921D02*
X0386720Y0279923D01*
X0386806Y0279928D01*
X0386891Y0279938D01*
X0386976Y0279951D01*
X0387060Y0279968D01*
X0387144Y0279988D01*
X0387226Y0280012D01*
X0387307Y0280040D01*
X0387388Y0280071D01*
X0387466Y0280105D01*
X0387543Y0280143D01*
X0387619Y0280185D01*
X0387692Y0280229D01*
X0387763Y0280277D01*
X0387833Y0280328D01*
X0387900Y0280382D01*
X0387964Y0280438D01*
X0388026Y0280498D01*
X0388086Y0280560D01*
X0388142Y0280624D01*
X0388196Y0280691D01*
X0388247Y0280761D01*
X0388295Y0280832D01*
X0388339Y0280906D01*
X0388381Y0280981D01*
X0388419Y0281058D01*
X0388453Y0281136D01*
X0388484Y0281217D01*
X0388512Y0281298D01*
X0388536Y0281380D01*
X0388556Y0281464D01*
X0388573Y0281548D01*
X0388586Y0281633D01*
X0388596Y0281718D01*
X0388601Y0281804D01*
X0388603Y0281890D01*
X0371280Y0297244D02*
X0362618Y0297244D01*
X0360649Y0299213D02*
X0360651Y0299299D01*
X0360656Y0299385D01*
X0360666Y0299470D01*
X0360679Y0299555D01*
X0360696Y0299639D01*
X0360716Y0299723D01*
X0360740Y0299805D01*
X0360768Y0299886D01*
X0360799Y0299967D01*
X0360833Y0300045D01*
X0360871Y0300122D01*
X0360913Y0300198D01*
X0360957Y0300271D01*
X0361005Y0300342D01*
X0361056Y0300412D01*
X0361110Y0300479D01*
X0361166Y0300543D01*
X0361226Y0300605D01*
X0361288Y0300665D01*
X0361352Y0300721D01*
X0361419Y0300775D01*
X0361489Y0300826D01*
X0361560Y0300874D01*
X0361634Y0300918D01*
X0361709Y0300960D01*
X0361786Y0300998D01*
X0361864Y0301032D01*
X0361945Y0301063D01*
X0362026Y0301091D01*
X0362108Y0301115D01*
X0362192Y0301135D01*
X0362276Y0301152D01*
X0362361Y0301165D01*
X0362446Y0301175D01*
X0362532Y0301180D01*
X0362618Y0301182D01*
X0362618Y0301181D02*
X0371280Y0301181D01*
X0371280Y0301182D02*
X0371366Y0301180D01*
X0371452Y0301175D01*
X0371537Y0301165D01*
X0371622Y0301152D01*
X0371706Y0301135D01*
X0371790Y0301115D01*
X0371872Y0301091D01*
X0371953Y0301063D01*
X0372034Y0301032D01*
X0372112Y0300998D01*
X0372189Y0300960D01*
X0372265Y0300918D01*
X0372338Y0300874D01*
X0372409Y0300826D01*
X0372479Y0300775D01*
X0372546Y0300721D01*
X0372610Y0300665D01*
X0372672Y0300605D01*
X0372732Y0300543D01*
X0372788Y0300479D01*
X0372842Y0300412D01*
X0372893Y0300342D01*
X0372941Y0300271D01*
X0372985Y0300198D01*
X0373027Y0300122D01*
X0373065Y0300045D01*
X0373099Y0299967D01*
X0373130Y0299886D01*
X0373158Y0299805D01*
X0373182Y0299723D01*
X0373202Y0299639D01*
X0373219Y0299555D01*
X0373232Y0299470D01*
X0373242Y0299385D01*
X0373247Y0299299D01*
X0373249Y0299213D01*
X0373247Y0299127D01*
X0373242Y0299041D01*
X0373232Y0298956D01*
X0373219Y0298871D01*
X0373202Y0298787D01*
X0373182Y0298703D01*
X0373158Y0298621D01*
X0373130Y0298540D01*
X0373099Y0298459D01*
X0373065Y0298381D01*
X0373027Y0298304D01*
X0372985Y0298229D01*
X0372941Y0298155D01*
X0372893Y0298084D01*
X0372842Y0298014D01*
X0372788Y0297947D01*
X0372732Y0297883D01*
X0372672Y0297821D01*
X0372610Y0297761D01*
X0372546Y0297705D01*
X0372479Y0297651D01*
X0372409Y0297600D01*
X0372338Y0297552D01*
X0372265Y0297508D01*
X0372189Y0297466D01*
X0372112Y0297428D01*
X0372034Y0297394D01*
X0371953Y0297363D01*
X0371872Y0297335D01*
X0371790Y0297311D01*
X0371706Y0297291D01*
X0371622Y0297274D01*
X0371537Y0297261D01*
X0371452Y0297251D01*
X0371366Y0297246D01*
X0371280Y0297244D01*
X0362618Y0297244D02*
X0362532Y0297246D01*
X0362446Y0297251D01*
X0362361Y0297261D01*
X0362276Y0297274D01*
X0362192Y0297291D01*
X0362108Y0297311D01*
X0362026Y0297335D01*
X0361945Y0297363D01*
X0361864Y0297394D01*
X0361786Y0297428D01*
X0361709Y0297466D01*
X0361634Y0297508D01*
X0361560Y0297552D01*
X0361489Y0297600D01*
X0361419Y0297651D01*
X0361352Y0297705D01*
X0361288Y0297761D01*
X0361226Y0297821D01*
X0361166Y0297883D01*
X0361110Y0297947D01*
X0361056Y0298014D01*
X0361005Y0298084D01*
X0360957Y0298155D01*
X0360913Y0298229D01*
X0360871Y0298304D01*
X0360833Y0298381D01*
X0360799Y0298459D01*
X0360768Y0298540D01*
X0360740Y0298621D01*
X0360716Y0298703D01*
X0360696Y0298787D01*
X0360679Y0298871D01*
X0360666Y0298956D01*
X0360656Y0299041D01*
X0360651Y0299127D01*
X0360649Y0299213D01*
M02*
