%
M48
M72
T01C0.02000
T02C0.02362
T03C0.03150
T04C0.03200
T05C0.03346
T06C0.03543
T07C0.03740
T08C0.03937
T09C0.04000
T10C0.04400
T11C0.05200
T12C0.08661
T13C0.12598
%
T01
X47784Y29200
X62584Y38800
X64184Y68000
X57384Y72400
X59784Y81200
X70584Y102000
X62584Y108800
X59384Y105200
X86184Y64800
X101784Y80400
X108984Y78000
X110984Y84800
X117384Y71600
X132584Y74800
X136184Y78000
X144984Y71600
X152184Y66800
X148984Y82000
X156184Y98000
X148584Y104800
X148584Y112000
X143784Y110400
X146984Y116800
X130584Y118400
X122184Y101600
X117384Y101600
X100584Y102400
X110584Y122400
X123784Y143200
X124184Y171600
X117784Y178000
X105784Y179600
X96184Y170000
X111384Y206400
X133784Y171600
X150984Y178000
X152184Y208000
X186984Y173200
X166584Y136400
X184184Y115600
X194984Y112400
X201384Y107600
X198184Y99600
X202184Y81200
X202184Y76400
X184984Y73200
X178584Y71600
X168984Y71600
X168984Y66800
X164984Y53200
X168984Y49200
X148184Y35200
X138584Y31600
X113384Y29200
X107384Y35200
X46984Y152800
X66184Y180400
X55784Y216800
X34584Y206400
X28584Y205600
X30984Y190800
X16984Y175200
X18584Y168000
X16184Y218000
X31784Y228800
X40184Y256800
X144984Y276800
X229784Y154800
X232984Y151200
X246184Y154800
X244584Y169600
X263384Y156000
X263384Y151200
X246184Y142400
X234584Y115200
X242984Y111200
X274584Y101600
X283384Y104800
X310184Y110400
X328984Y102800
X330584Y114000
X332184Y127600
X328984Y133600
X307784Y146400
X322984Y179200
X332584Y193600
X342184Y198400
X305384Y204000
X300584Y190400
X286184Y179200
X281384Y179200
X275384Y214000
X262184Y295600
X379384Y205200
X394584Y159600
X406984Y151200
X417784Y160000
X393384Y122800
X414984Y118800
X421384Y110800
X407784Y97200
X418184Y71600
X408584Y66800
X368984Y86400
X359384Y74400
X333784Y79600
X334984Y85600
X317384Y58400
X288584Y65600
X277384Y74000
X272584Y74000
X244184Y43200
X222184Y57200
X349384Y38800
X360984Y111600
X360984Y116400
X348984Y114800
T02
X53995Y316800
T03
X386811Y167598
X386811Y157598
X386811Y147598
X386811Y137598
X386811Y127598
X386811Y117598
X386811Y107598
X386811Y97598
X386811Y87598
X401575Y87598
X401575Y97598
X401575Y107598
X401575Y117598
X401575Y127598
X401575Y137598
X401575Y147598
X401575Y157598
X401575Y167598
T04
X9843Y26339
X9843Y56339
X56024Y164370
X66024Y164370
X75709Y164370
X85709Y164370
X95394Y164370
X105394Y164370
X115079Y164370
X125079Y164370
X134764Y164370
X144764Y164370
X154449Y164370
X164449Y164370
X173150Y164370
X183150Y164370
X221378Y139764
X231378Y139764
X230591Y122283
X240591Y122283
X250591Y122283
X250433Y135591
X260433Y135591
X270433Y135591
X270591Y122283
X260591Y122283
X280591Y122283
X280433Y135591
X290433Y135591
X300433Y135591
X300591Y122283
X290591Y122283
X310591Y122283
X310433Y135591
X320433Y135591
X320591Y122283
X339331Y123937
X339331Y113937
X339331Y103937
X339331Y93937
X320591Y92283
X310591Y92283
X300591Y92283
X290591Y92283
X280591Y92283
X270591Y92283
X260591Y92283
X250591Y92283
X240591Y92283
X230591Y92283
X213583Y73071
X213583Y43071
X292244Y69882
X302244Y69882
X312913Y69882
X322913Y69882
X369331Y93937
X369331Y103937
X369331Y113937
X369331Y123937
X369331Y133937
X369331Y143937
X369331Y153937
X369331Y163937
X382874Y180039
X382874Y190039
X419826Y176456
X419826Y166456
X421260Y241063
X421260Y251063
X385827Y248110
X385827Y238110
X363425Y237205
X364409Y250984
X334409Y250984
X333425Y237205
X309420Y223278
X295512Y212598
X294528Y226142
X284528Y226142
X274528Y226142
X264528Y226142
X265512Y212598
X269764Y184055
X259764Y184055
X260433Y165591
X270433Y165591
X280433Y165591
X290433Y165591
X300433Y165591
X310433Y165591
X320433Y165591
X339331Y163937
X339331Y153937
X339331Y143937
X339331Y133937
X392950Y69612
X402950Y69612
X402638Y51181
X392638Y51181
X392495Y32750
X402495Y32750
X402638Y13780
X392638Y13780
X250433Y165591
X224646Y242126
X223363Y256879
X253363Y256879
X264528Y256142
X274528Y256142
X284528Y256142
X294528Y256142
X309420Y253278
X194646Y242126
X183307Y255157
X173307Y255157
X163307Y255157
X153307Y255157
X141732Y256142
X131142Y245079
X141732Y226142
X153307Y225157
X158228Y212598
X163307Y225157
X173307Y225157
X183307Y225157
X188228Y212598
X101142Y245079
X101614Y256890
X71614Y256890
X48228Y252047
X48228Y242047
X12795Y242047
X12795Y252047
X52165Y190039
X52165Y180039
T05
X138071Y200827
X148071Y200827
X158071Y200827
X168071Y200827
X178071Y200827
X188071Y200827
X198071Y200827
X208071Y200827
X228071Y200827
X238071Y200827
X248071Y200827
X258071Y200827
X268071Y200827
X278071Y200827
X288071Y200827
X298071Y200827
X294071Y10827
X284071Y10827
X274071Y10827
X264071Y10827
X254071Y10827
X244071Y10827
X228071Y10827
X218071Y10827
X208071Y10827
X198071Y10827
X188071Y10827
X178071Y10827
X168071Y10827
X158071Y10827
X138071Y10827
X128071Y10827
X118071Y10827
X108071Y10827
X98071Y10827
X88071Y10827
X78071Y10827
X68071Y10827
X304071Y10827
X314071Y10827
X324071Y10827
X334071Y10827
T06
X396417Y189646
X426417Y189646
X426417Y229646
X426417Y264449
X396417Y264449
X396417Y229646
X396417Y304449
X426417Y304449
X37638Y304449
X7638Y304449
X7638Y264449
X7638Y229646
X37638Y229646
X37638Y264449
X37638Y189646
X7638Y189646
T07
X28071Y180827
X38071Y180827
X38071Y170827
X28071Y170827
X28071Y160827
X38071Y160827
X38071Y150827
X28071Y150827
X28071Y140827
X38071Y140827
X38071Y130827
X28071Y130827
X28071Y120827
X38071Y120827
X38071Y110827
X28071Y110827
X28071Y100827
X38071Y100827
X38071Y90827
X28071Y90827
X28071Y80827
X38071Y80827
X38071Y70827
X28071Y70827
X28071Y60827
X38071Y60827
X38071Y50827
X28071Y50827
X28071Y40827
X38071Y40827
X38071Y30827
X28071Y30827
X28071Y20827
X38071Y20827
X38071Y10827
X28071Y10827
T08
X65945Y24606
X85630Y24606
X85630Y81693
X75787Y81693
X65945Y81693
X158465Y81693
X168307Y81693
X178150Y81693
X178150Y24606
X158465Y24606
X250984Y24606
X270669Y24606
X270669Y81693
X260827Y81693
X250984Y81693
X343504Y81693
X353346Y81693
X363189Y81693
X363189Y24606
X343504Y24606
X366949Y274409
X366949Y299213
X386634Y286220
T09
X241535Y307087
X231535Y307087
X221535Y307087
X211535Y307087
X201535Y307087
X191535Y307087
X181535Y307087
X171535Y307087
X161535Y307087
X151535Y307087
X141535Y307087
X131535Y307087
X121535Y307087
X111535Y307087
X101535Y307087
X91535Y307087
X93531Y226811
X83531Y226811
X73531Y226811
X63531Y226811
X53531Y226811
X91535Y184055
X101535Y184055
X111535Y184055
X121535Y184055
X131535Y184055
X141535Y184055
X151535Y184055
X161535Y184055
X171535Y184055
X181535Y184055
X191535Y184055
X201535Y184055
X211535Y184055
X221535Y184055
X231535Y184055
X241535Y184055
X228220Y165354
X217520Y165354
X206820Y165354
X123531Y226811
X113531Y226811
X103531Y226811
X297087Y23465
X307087Y43465
X317087Y23465
T10
X205918Y91575
X195918Y91540
X185918Y91505
X175918Y91470
X165918Y91436
X155918Y91401
X145918Y91366
X135919Y91331
X125919Y91296
X115919Y91261
X105919Y91226
X95919Y91191
X85919Y91156
X75919Y91121
X65919Y91086
X55919Y91052
X55710Y151051
X65710Y151086
X75709Y151121
X85709Y151156
X95709Y151191
X105709Y151226
X115709Y151261
X125709Y151296
X135709Y151330
X145709Y151365
X155709Y151400
X165709Y151435
X175709Y151470
X185709Y151505
X195709Y151540
X205709Y151575
T11
X219665Y270591
X210059Y280197
X189449Y280197
X179449Y270591
X159449Y279803
X139449Y270591
X129843Y280197
X109232Y280197
X99232Y270591
X79232Y279803
X59232Y270591
X49626Y280197
X239665Y279803
X259665Y270591
X269665Y280197
X290276Y280197
X299882Y270591
X319882Y279803
X339882Y270591
X349882Y280197
T12
X329331Y52165
X284843Y52165
X236811Y52165
X192323Y52165
X144291Y52165
X99803Y52165
X51772Y52165
X377362Y52165
T13
X346542Y11606
X402559Y247047
X402559Y316929
X51358Y11516
X32480Y250984
X32480Y316929
M30
