G75*
%MOIN*%
%OFA0B0*%
%FSLAX25Y25*%
%IPPOS*%
%LPD*%
%AMOC8*
5,1,8,0,0,1.08239X$1,22.5*
%
%ADD10C,0.05746*%
%ADD11OC8,0.06600*%
%ADD12R,0.06800X0.06800*%
%ADD13C,0.06800*%
%ADD14C,0.05600*%
%ADD15R,0.06400X0.06400*%
%ADD16C,0.06400*%
%ADD17R,0.06337X0.06337*%
%ADD18R,0.12661X0.12661*%
%ADD19OC8,0.05600*%
%ADD20R,0.06600X0.06600*%
%ADD21C,0.06600*%
%ADD22R,0.05943X0.05943*%
%ADD23C,0.06400*%
%ADD24C,0.07874*%
%ADD25OC8,0.07000*%
%ADD26OC8,0.08600*%
%ADD27C,0.07800*%
%ADD28C,0.07400*%
%ADD29C,0.02000*%
%ADD30C,0.04000*%
%ADD31C,0.01200*%
%ADD32C,0.00800*%
%ADD33C,0.04362*%
%ADD34C,0.02400*%
D10*
X0068071Y0007954D02*
X0068071Y0013700D01*
X0078071Y0013700D02*
X0078071Y0007954D01*
X0088071Y0007954D02*
X0088071Y0013700D01*
X0098071Y0013700D02*
X0098071Y0007954D01*
X0108071Y0007954D02*
X0108071Y0013700D01*
X0118071Y0013700D02*
X0118071Y0007954D01*
X0128071Y0007954D02*
X0128071Y0013700D01*
X0138071Y0013700D02*
X0138071Y0007954D01*
X0158071Y0007954D02*
X0158071Y0013700D01*
X0168071Y0013700D02*
X0168071Y0007954D01*
X0178071Y0007954D02*
X0178071Y0013700D01*
X0188071Y0013700D02*
X0188071Y0007954D01*
X0198071Y0007954D02*
X0198071Y0013700D01*
X0208071Y0013700D02*
X0208071Y0007954D01*
X0218071Y0007954D02*
X0218071Y0013700D01*
X0228071Y0013700D02*
X0228071Y0007954D01*
X0244071Y0007954D02*
X0244071Y0013700D01*
X0254071Y0013700D02*
X0254071Y0007954D01*
X0264071Y0007954D02*
X0264071Y0013700D01*
X0274071Y0013700D02*
X0274071Y0007954D01*
X0284071Y0007954D02*
X0284071Y0013700D01*
X0294071Y0013700D02*
X0294071Y0007954D01*
X0304071Y0007954D02*
X0304071Y0013700D01*
X0314071Y0013700D02*
X0314071Y0007954D01*
X0324071Y0007954D02*
X0324071Y0013700D01*
X0334071Y0013700D02*
X0334071Y0007954D01*
X0298071Y0197954D02*
X0298071Y0203700D01*
X0288071Y0203700D02*
X0288071Y0197954D01*
X0278071Y0197954D02*
X0278071Y0203700D01*
X0268071Y0203700D02*
X0268071Y0197954D01*
X0258071Y0197954D02*
X0258071Y0203700D01*
X0248071Y0203700D02*
X0248071Y0197954D01*
X0238071Y0197954D02*
X0238071Y0203700D01*
X0228071Y0203700D02*
X0228071Y0197954D01*
X0208071Y0197954D02*
X0208071Y0203700D01*
X0198071Y0203700D02*
X0198071Y0197954D01*
X0188071Y0197954D02*
X0188071Y0203700D01*
X0178071Y0203700D02*
X0178071Y0197954D01*
X0168071Y0197954D02*
X0168071Y0203700D01*
X0158071Y0203700D02*
X0158071Y0197954D01*
X0148071Y0197954D02*
X0148071Y0203700D01*
X0138071Y0203700D02*
X0138071Y0197954D01*
D11*
X0038071Y0180827D03*
X0028071Y0180827D03*
X0028071Y0170827D03*
X0038071Y0170827D03*
X0038071Y0160827D03*
X0028071Y0160827D03*
X0028071Y0150827D03*
X0038071Y0150827D03*
X0038071Y0140827D03*
X0028071Y0140827D03*
X0028071Y0130827D03*
X0038071Y0130827D03*
X0038071Y0120827D03*
X0028071Y0120827D03*
X0028071Y0110827D03*
X0038071Y0110827D03*
X0038071Y0100827D03*
X0028071Y0100827D03*
X0028071Y0090827D03*
X0038071Y0090827D03*
X0038071Y0080827D03*
X0028071Y0080827D03*
X0028071Y0070827D03*
X0038071Y0070827D03*
X0038071Y0060827D03*
X0028071Y0060827D03*
X0028071Y0050827D03*
X0038071Y0050827D03*
X0038071Y0040827D03*
X0028071Y0040827D03*
X0028071Y0030827D03*
X0038071Y0030827D03*
X0038071Y0020827D03*
X0028071Y0020827D03*
X0028071Y0010827D03*
X0038071Y0010827D03*
D12*
G36*
X0059307Y0094463D02*
X0059330Y0087664D01*
X0052531Y0087641D01*
X0052508Y0094440D01*
X0059307Y0094463D01*
G37*
D13*
X0065919Y0091086D03*
X0075919Y0091121D03*
X0085919Y0091156D03*
X0095919Y0091191D03*
X0105919Y0091226D03*
X0115919Y0091261D03*
X0125919Y0091296D03*
X0135919Y0091331D03*
X0145918Y0091366D03*
X0155918Y0091401D03*
X0165918Y0091436D03*
X0175918Y0091470D03*
X0185918Y0091505D03*
X0195918Y0091540D03*
X0205918Y0091575D03*
X0205709Y0151575D03*
X0195709Y0151540D03*
X0185709Y0151505D03*
X0175709Y0151470D03*
X0165709Y0151435D03*
X0155709Y0151400D03*
X0145709Y0151365D03*
X0135709Y0151330D03*
X0125709Y0151296D03*
X0115709Y0151261D03*
X0105709Y0151226D03*
X0095709Y0151191D03*
X0085709Y0151156D03*
X0075709Y0151121D03*
X0065710Y0151086D03*
X0055710Y0151051D03*
D14*
X0068814Y0256890D02*
X0074414Y0256890D01*
X0098814Y0256890D02*
X0104414Y0256890D01*
X0153307Y0255157D02*
X0153307Y0260757D01*
X0163307Y0260757D02*
X0163307Y0255157D01*
X0173307Y0255157D02*
X0173307Y0260757D01*
X0183307Y0260757D02*
X0183307Y0255157D01*
X0183307Y0225157D02*
X0183307Y0219557D01*
X0173307Y0219557D02*
X0173307Y0225157D01*
X0163307Y0225157D02*
X0163307Y0219557D01*
X0153307Y0219557D02*
X0153307Y0225157D01*
X0220563Y0256879D02*
X0226163Y0256879D01*
X0250563Y0256879D02*
X0256163Y0256879D01*
X0264528Y0256142D02*
X0264528Y0261742D01*
X0274528Y0261742D02*
X0274528Y0256142D01*
X0284528Y0256142D02*
X0284528Y0261742D01*
X0294528Y0261742D02*
X0294528Y0256142D01*
X0294528Y0226142D02*
X0294528Y0220542D01*
X0284528Y0220542D02*
X0284528Y0226142D01*
X0274528Y0226142D02*
X0274528Y0220542D01*
X0264528Y0220542D02*
X0264528Y0226142D01*
X0260433Y0168391D02*
X0260433Y0162791D01*
X0270433Y0162791D02*
X0270433Y0168391D01*
X0280433Y0168391D02*
X0280433Y0162791D01*
X0290433Y0162791D02*
X0290433Y0168391D01*
X0300433Y0168391D02*
X0300433Y0162791D01*
X0310433Y0162791D02*
X0310433Y0168391D01*
X0320433Y0168391D02*
X0320433Y0162791D01*
X0336531Y0163937D02*
X0342131Y0163937D01*
X0342131Y0153937D02*
X0336531Y0153937D01*
X0336531Y0143937D02*
X0342131Y0143937D01*
X0342131Y0133937D02*
X0336531Y0133937D01*
X0336531Y0123937D02*
X0342131Y0123937D01*
X0342131Y0113937D02*
X0336531Y0113937D01*
X0336531Y0103937D02*
X0342131Y0103937D01*
X0342131Y0093937D02*
X0336531Y0093937D01*
X0320591Y0095083D02*
X0320591Y0089483D01*
X0310591Y0089483D02*
X0310591Y0095083D01*
X0300591Y0095083D02*
X0300591Y0089483D01*
X0290591Y0089483D02*
X0290591Y0095083D01*
X0280591Y0095083D02*
X0280591Y0089483D01*
X0270591Y0089483D02*
X0270591Y0095083D01*
X0260591Y0095083D02*
X0260591Y0089483D01*
X0250591Y0089483D02*
X0250591Y0095083D01*
X0240591Y0095083D02*
X0240591Y0089483D01*
X0230591Y0089483D02*
X0230591Y0095083D01*
X0230591Y0119483D02*
X0230591Y0125083D01*
X0240591Y0125083D02*
X0240591Y0119483D01*
X0250591Y0119483D02*
X0250591Y0125083D01*
X0250433Y0132791D02*
X0250433Y0138391D01*
X0260433Y0138391D02*
X0260433Y0132791D01*
X0260591Y0125083D02*
X0260591Y0119483D01*
X0270591Y0119483D02*
X0270591Y0125083D01*
X0270433Y0132791D02*
X0270433Y0138391D01*
X0280433Y0138391D02*
X0280433Y0132791D01*
X0280591Y0125083D02*
X0280591Y0119483D01*
X0290591Y0119483D02*
X0290591Y0125083D01*
X0290433Y0132791D02*
X0290433Y0138391D01*
X0300433Y0138391D02*
X0300433Y0132791D01*
X0300591Y0125083D02*
X0300591Y0119483D01*
X0310591Y0119483D02*
X0310591Y0125083D01*
X0310433Y0132791D02*
X0310433Y0138391D01*
X0320433Y0138391D02*
X0320433Y0132791D01*
X0320591Y0125083D02*
X0320591Y0119483D01*
X0366531Y0123937D02*
X0372131Y0123937D01*
X0372131Y0113937D02*
X0366531Y0113937D01*
X0366531Y0103937D02*
X0372131Y0103937D01*
X0372131Y0093937D02*
X0366531Y0093937D01*
X0366531Y0133937D02*
X0372131Y0133937D01*
X0372131Y0143937D02*
X0366531Y0143937D01*
X0366531Y0153937D02*
X0372131Y0153937D01*
X0372131Y0163937D02*
X0366531Y0163937D01*
X0250433Y0162791D02*
X0250433Y0168391D01*
D15*
X0091535Y0184055D03*
X0091535Y0307087D03*
D16*
X0101535Y0307087D03*
X0111535Y0307087D03*
X0121535Y0307087D03*
X0131535Y0307087D03*
X0141535Y0307087D03*
X0151535Y0307087D03*
X0161535Y0307087D03*
X0171535Y0307087D03*
X0181535Y0307087D03*
X0191535Y0307087D03*
X0201535Y0307087D03*
X0211535Y0307087D03*
X0221535Y0307087D03*
X0231535Y0307087D03*
X0241535Y0307087D03*
X0241535Y0184055D03*
X0231535Y0184055D03*
X0221535Y0184055D03*
X0211535Y0184055D03*
X0201535Y0184055D03*
X0191535Y0184055D03*
X0181535Y0184055D03*
X0171535Y0184055D03*
X0161535Y0184055D03*
X0151535Y0184055D03*
X0141535Y0184055D03*
X0131535Y0184055D03*
X0121535Y0184055D03*
X0111535Y0184055D03*
X0101535Y0184055D03*
D17*
X0085630Y0081693D03*
X0075787Y0081693D03*
X0065945Y0081693D03*
X0065945Y0024606D03*
X0085630Y0024606D03*
X0158465Y0024606D03*
X0178150Y0024606D03*
X0178150Y0081693D03*
X0168307Y0081693D03*
X0158465Y0081693D03*
X0250984Y0081693D03*
X0260827Y0081693D03*
X0270669Y0081693D03*
X0270669Y0024606D03*
X0250984Y0024606D03*
X0343504Y0024606D03*
X0363189Y0024606D03*
X0363189Y0081693D03*
X0353346Y0081693D03*
X0343504Y0081693D03*
D18*
X0329331Y0052165D03*
X0284843Y0052165D03*
X0236811Y0052165D03*
X0192323Y0052165D03*
X0144291Y0052165D03*
X0099803Y0052165D03*
X0051772Y0052165D03*
X0377362Y0052165D03*
D19*
X0009843Y0026339D03*
X0009843Y0056339D03*
X0056024Y0164370D03*
X0066024Y0164370D03*
X0075709Y0164370D03*
X0085709Y0164370D03*
X0095394Y0164370D03*
X0105394Y0164370D03*
X0115079Y0164370D03*
X0125079Y0164370D03*
X0134764Y0164370D03*
X0144764Y0164370D03*
X0154449Y0164370D03*
X0164449Y0164370D03*
X0173150Y0164370D03*
X0183150Y0164370D03*
X0221378Y0139764D03*
X0231378Y0139764D03*
X0259764Y0184055D03*
X0269764Y0184055D03*
X0265512Y0212598D03*
X0295512Y0212598D03*
X0309420Y0223278D03*
X0333425Y0237205D03*
X0334409Y0250984D03*
X0309420Y0253278D03*
X0364409Y0250984D03*
X0363425Y0237205D03*
X0385827Y0238110D03*
X0385827Y0248110D03*
X0421260Y0251063D03*
X0421260Y0241063D03*
X0382874Y0190039D03*
X0382874Y0180039D03*
X0419826Y0176456D03*
X0419826Y0166456D03*
X0402950Y0069612D03*
X0392950Y0069612D03*
X0392638Y0051181D03*
X0402638Y0051181D03*
X0402495Y0032750D03*
X0392495Y0032750D03*
X0392638Y0013780D03*
X0402638Y0013780D03*
X0322913Y0069882D03*
X0312913Y0069882D03*
X0302244Y0069882D03*
X0292244Y0069882D03*
X0213583Y0073071D03*
X0213583Y0043071D03*
X0188228Y0212598D03*
X0194646Y0242126D03*
X0224646Y0242126D03*
X0158228Y0212598D03*
X0141732Y0226142D03*
X0131142Y0245079D03*
X0141732Y0256142D03*
X0101142Y0245079D03*
X0052165Y0190039D03*
X0052165Y0180039D03*
X0048228Y0242047D03*
X0048228Y0252047D03*
X0012795Y0252047D03*
X0012795Y0242047D03*
D20*
X0386811Y0087598D03*
X0401575Y0087598D03*
D21*
X0401575Y0097598D03*
X0401575Y0107598D03*
X0401575Y0117598D03*
X0401575Y0127598D03*
X0401575Y0137598D03*
X0401575Y0147598D03*
X0401575Y0157598D03*
X0401575Y0167598D03*
X0386811Y0167598D03*
X0386811Y0157598D03*
X0386811Y0147598D03*
X0386811Y0137598D03*
X0386811Y0127598D03*
X0386811Y0117598D03*
X0386811Y0107598D03*
X0386811Y0097598D03*
D22*
X0396417Y0189646D03*
X0426417Y0189646D03*
X0426417Y0229646D03*
X0426417Y0264449D03*
X0396417Y0264449D03*
X0396417Y0229646D03*
X0396417Y0304449D03*
X0426417Y0304449D03*
X0037638Y0304449D03*
X0007638Y0304449D03*
X0007638Y0264449D03*
X0007638Y0229646D03*
X0037638Y0229646D03*
X0037638Y0264449D03*
X0037638Y0189646D03*
X0007638Y0189646D03*
D23*
X0297087Y0026665D02*
X0297087Y0020265D01*
X0317087Y0020265D02*
X0317087Y0026665D01*
X0310287Y0043465D02*
X0303887Y0043465D01*
D24*
X0363012Y0274409D02*
X0370886Y0274409D01*
X0386634Y0282283D02*
X0386634Y0290157D01*
X0370886Y0299213D02*
X0363012Y0299213D01*
D25*
X0123531Y0226811D03*
X0113531Y0226811D03*
X0103531Y0226811D03*
X0093531Y0226811D03*
X0083531Y0226811D03*
X0073531Y0226811D03*
X0063531Y0226811D03*
X0053531Y0226811D03*
D26*
X0059232Y0270591D03*
X0049626Y0280197D03*
X0099232Y0270591D03*
X0109232Y0280197D03*
X0129843Y0280197D03*
X0139449Y0270591D03*
X0179449Y0270591D03*
X0189449Y0280197D03*
X0210059Y0280197D03*
X0219665Y0270591D03*
X0259665Y0270591D03*
X0269665Y0280197D03*
X0290276Y0280197D03*
X0299882Y0270591D03*
X0339882Y0270591D03*
X0349882Y0280197D03*
D27*
X0319882Y0283703D02*
X0319882Y0275903D01*
X0239665Y0275903D02*
X0239665Y0283703D01*
X0159449Y0283703D02*
X0159449Y0275903D01*
X0079232Y0275903D02*
X0079232Y0283703D01*
D28*
X0206820Y0165354D03*
X0217520Y0165354D03*
X0228220Y0165354D03*
D29*
X0231535Y0184055D02*
X0231784Y0184400D01*
X0234584Y0184400D01*
X0243384Y0193200D01*
X0250184Y0193200D01*
X0257784Y0200800D01*
X0258071Y0200827D01*
X0246184Y0154800D02*
X0231384Y0140000D01*
X0231378Y0139764D01*
X0242984Y0111200D02*
X0284984Y0111200D01*
X0292984Y0103200D01*
X0309384Y0103200D01*
X0319784Y0092800D01*
X0320591Y0092283D01*
X0320984Y0092400D01*
X0337784Y0092400D01*
X0338984Y0093600D01*
X0339331Y0093937D01*
X0323784Y0070400D02*
X0322913Y0069882D01*
X0322584Y0069600D01*
X0318184Y0065200D01*
X0310984Y0065200D01*
X0306584Y0069600D01*
X0302584Y0069600D01*
X0302244Y0069882D01*
X0317384Y0058400D02*
X0317384Y0032000D01*
X0294984Y0032000D01*
X0282584Y0019600D01*
X0061784Y0019600D01*
X0061384Y0020000D01*
X0047784Y0020000D01*
X0038984Y0011200D01*
X0038184Y0011200D01*
X0038071Y0010827D01*
X0055710Y0151051D02*
X0055784Y0151200D01*
X0055784Y0156400D01*
X0067784Y0156400D01*
X0072984Y0151200D01*
X0075384Y0151200D01*
X0075709Y0151121D01*
X0055784Y0156400D02*
X0055784Y0164000D01*
X0056024Y0164370D01*
X0052165Y0180039D02*
X0052184Y0180400D01*
X0060984Y0189200D01*
X0066184Y0189200D01*
X0066184Y0180400D01*
X0066184Y0189200D02*
X0095384Y0189200D01*
X0100184Y0184400D01*
X0101384Y0184400D01*
X0101535Y0184055D01*
X0111384Y0206400D02*
X0117384Y0212400D01*
X0158184Y0212400D01*
X0158228Y0212598D01*
X0215784Y0251200D02*
X0224584Y0242400D01*
X0224646Y0242126D01*
X0215784Y0251200D02*
X0215784Y0258800D01*
X0218584Y0261600D01*
X0219384Y0261600D01*
X0231384Y0273600D01*
X0231384Y0306800D01*
X0231535Y0307087D01*
X0379384Y0205200D02*
X0382584Y0202000D01*
X0382584Y0190400D01*
X0382874Y0190039D01*
X0386811Y0087598D02*
X0386584Y0087200D01*
X0377784Y0087200D01*
X0360984Y0070400D01*
X0323784Y0070400D01*
X0317384Y0032000D02*
X0317384Y0023600D01*
X0317087Y0023465D01*
D30*
X0317384Y0058400D03*
X0333784Y0079600D03*
X0334984Y0085600D03*
X0328984Y0102800D03*
X0330584Y0114000D03*
X0332184Y0127600D03*
X0328984Y0133600D03*
X0307784Y0146400D03*
X0322984Y0179200D03*
X0332584Y0193600D03*
X0342184Y0198400D03*
X0305384Y0204000D03*
X0300584Y0190400D03*
X0286184Y0179200D03*
X0281384Y0179200D03*
X0263384Y0156000D03*
X0263384Y0151200D03*
X0246184Y0154800D03*
X0244584Y0169600D03*
X0229784Y0154800D03*
X0232984Y0151200D03*
X0246184Y0142400D03*
X0234584Y0115200D03*
X0242984Y0111200D03*
X0274584Y0101600D03*
X0283384Y0104800D03*
X0310184Y0110400D03*
X0277384Y0074000D03*
X0272584Y0074000D03*
X0288584Y0065600D03*
X0244184Y0043200D03*
X0222184Y0057200D03*
X0202184Y0076400D03*
X0202184Y0081200D03*
X0198184Y0099600D03*
X0201384Y0107600D03*
X0194984Y0112400D03*
X0184184Y0115600D03*
X0166584Y0136400D03*
X0146984Y0116800D03*
X0148584Y0112000D03*
X0143784Y0110400D03*
X0148584Y0104800D03*
X0156184Y0098000D03*
X0148984Y0082000D03*
X0144984Y0071600D03*
X0152184Y0066800D03*
X0164984Y0053200D03*
X0168984Y0049200D03*
X0168984Y0066800D03*
X0168984Y0071600D03*
X0178584Y0071600D03*
X0184984Y0073200D03*
X0148184Y0035200D03*
X0138584Y0031600D03*
X0113384Y0029200D03*
X0107384Y0035200D03*
X0086184Y0064800D03*
X0101784Y0080400D03*
X0108984Y0078000D03*
X0110984Y0084800D03*
X0117384Y0071600D03*
X0132584Y0074800D03*
X0136184Y0078000D03*
X0122184Y0101600D03*
X0117384Y0101600D03*
X0100584Y0102400D03*
X0110584Y0122400D03*
X0123784Y0143200D03*
X0130584Y0118400D03*
X0133784Y0171600D03*
X0124184Y0171600D03*
X0117784Y0178000D03*
X0105784Y0179600D03*
X0096184Y0170000D03*
X0111384Y0206400D03*
X0152184Y0208000D03*
X0150984Y0178000D03*
X0186984Y0173200D03*
X0144984Y0276800D03*
X0066184Y0180400D03*
X0046984Y0152800D03*
X0018584Y0168000D03*
X0016984Y0175200D03*
X0030984Y0190800D03*
X0028584Y0205600D03*
X0034584Y0206400D03*
X0016184Y0218000D03*
X0031784Y0228800D03*
X0040184Y0256800D03*
X0055784Y0216800D03*
X0062584Y0108800D03*
X0059384Y0105200D03*
X0070584Y0102000D03*
X0059784Y0081200D03*
X0057384Y0072400D03*
X0064184Y0068000D03*
X0062584Y0038800D03*
X0047784Y0029200D03*
X0262184Y0295600D03*
X0275384Y0214000D03*
X0348984Y0114800D03*
X0360984Y0116400D03*
X0360984Y0111600D03*
X0368984Y0086400D03*
X0359384Y0074400D03*
X0349384Y0038800D03*
X0408584Y0066800D03*
X0418184Y0071600D03*
X0407784Y0097200D03*
X0421384Y0110800D03*
X0414984Y0118800D03*
X0393384Y0122800D03*
X0406984Y0151200D03*
X0417784Y0160000D03*
X0394584Y0159600D03*
X0379384Y0205200D03*
D31*
X0375784Y0234400D02*
X0375784Y0170400D01*
X0369384Y0164000D01*
X0369331Y0163937D01*
X0339331Y0153937D02*
X0338984Y0153600D01*
X0320584Y0135200D01*
X0320433Y0135591D01*
X0335784Y0086400D02*
X0334984Y0085600D01*
X0335784Y0086400D02*
X0347384Y0086400D01*
X0351784Y0082000D01*
X0352984Y0082000D01*
X0353346Y0081693D01*
X0343504Y0024606D02*
X0343784Y0024400D01*
X0348184Y0020000D01*
X0392984Y0020000D01*
X0392984Y0014000D01*
X0392638Y0013780D01*
X0392984Y0020000D02*
X0392984Y0023200D01*
X0402184Y0032400D01*
X0402495Y0032750D01*
X0402584Y0033200D01*
X0402584Y0050800D01*
X0402638Y0051181D01*
X0292244Y0069882D02*
X0292184Y0069600D01*
X0287384Y0069600D01*
X0250984Y0033200D01*
X0250984Y0024606D01*
X0260827Y0081693D02*
X0260984Y0082000D01*
X0260984Y0083200D01*
X0264984Y0087200D01*
X0264984Y0096800D01*
X0260584Y0101200D01*
X0219384Y0101200D01*
X0209784Y0091600D01*
X0206184Y0091600D01*
X0205918Y0091575D01*
X0230591Y0122283D02*
X0230584Y0122400D01*
X0230584Y0130400D01*
X0221384Y0139600D01*
X0221378Y0139764D01*
X0227784Y0158400D02*
X0222984Y0163200D01*
X0222984Y0170800D01*
X0204984Y0170800D01*
X0203784Y0169600D01*
X0185384Y0169600D01*
X0183384Y0171600D01*
X0183384Y0174800D01*
X0186184Y0177600D01*
X0186184Y0186000D01*
X0183384Y0188800D01*
X0183384Y0224800D01*
X0183307Y0225157D01*
X0164449Y0164370D02*
X0164184Y0164000D01*
X0164184Y0160000D01*
X0155784Y0151600D01*
X0155709Y0151400D01*
X0144764Y0164370D02*
X0144584Y0164400D01*
X0140984Y0164400D01*
X0133784Y0171600D01*
X0125079Y0164370D02*
X0124984Y0164400D01*
X0121384Y0164400D01*
X0116984Y0168800D01*
X0100184Y0168800D01*
X0095784Y0164400D01*
X0095394Y0164370D01*
X0091384Y0184000D02*
X0091535Y0184055D01*
X0091384Y0184000D02*
X0074984Y0184000D01*
X0067784Y0176800D01*
X0054984Y0176800D01*
X0053784Y0175600D01*
X0043384Y0175600D01*
X0038184Y0180800D01*
X0038071Y0180827D01*
X0073531Y0226811D02*
X0073384Y0227200D01*
X0048584Y0252000D01*
X0048228Y0252047D01*
X0091784Y0306800D02*
X0091535Y0307087D01*
X0091784Y0306800D02*
X0094984Y0306800D01*
X0099384Y0302400D01*
X0126984Y0302400D01*
X0131384Y0306800D01*
X0131535Y0307087D01*
X0229384Y0179200D02*
X0222984Y0172800D01*
X0222984Y0170800D01*
X0229384Y0179200D02*
X0236584Y0179200D01*
X0241384Y0184000D01*
X0241535Y0184055D01*
X0241784Y0184400D01*
X0259384Y0184400D01*
X0259764Y0184055D01*
X0260433Y0165591D02*
X0260184Y0165200D01*
X0258984Y0165200D01*
X0252184Y0158400D01*
X0227784Y0158400D01*
X0248071Y0200827D02*
X0248184Y0201200D01*
X0254984Y0208000D01*
X0278184Y0208000D01*
X0294184Y0224000D01*
X0294184Y0226000D01*
X0294528Y0226142D01*
X0375784Y0234400D02*
X0385784Y0244400D01*
X0385784Y0248000D01*
X0385827Y0248110D01*
X0148184Y0035200D02*
X0107384Y0035200D01*
D32*
X0102184Y0035600D02*
X0108584Y0029200D01*
X0113384Y0029200D01*
X0109384Y0026000D02*
X0132984Y0026000D01*
X0138584Y0031600D01*
X0144184Y0024400D02*
X0168984Y0049200D01*
X0164984Y0053200D02*
X0150584Y0038800D01*
X0062584Y0038800D01*
X0053784Y0035600D02*
X0102184Y0035600D01*
X0101384Y0034000D02*
X0109384Y0026000D01*
X0108584Y0024400D02*
X0144184Y0024400D01*
X0144984Y0022800D02*
X0095784Y0022800D01*
X0089384Y0029200D01*
X0047784Y0029200D01*
X0046184Y0032400D02*
X0100584Y0032400D01*
X0108584Y0024400D01*
X0101384Y0034000D02*
X0045384Y0034000D01*
X0042584Y0031200D01*
X0038184Y0031200D01*
X0038071Y0030827D01*
X0036584Y0026000D02*
X0039784Y0026000D01*
X0046184Y0032400D01*
X0053784Y0035600D02*
X0043784Y0045600D01*
X0026584Y0045600D01*
X0012184Y0060000D01*
X0012184Y0177600D01*
X0016584Y0182000D01*
X0016584Y0198400D01*
X0042184Y0224000D01*
X0042184Y0252000D01*
X0051384Y0261200D01*
X0071784Y0261200D01*
X0096584Y0286000D01*
X0116984Y0286000D01*
X0136184Y0305200D01*
X0136184Y0308000D01*
X0142984Y0314800D01*
X0266184Y0314800D01*
X0316984Y0264000D01*
X0316984Y0257200D01*
X0333384Y0240800D01*
X0333384Y0237600D01*
X0333425Y0237205D01*
X0341784Y0234800D02*
X0330184Y0246400D01*
X0330184Y0253200D01*
X0266984Y0316400D01*
X0092584Y0316400D01*
X0086984Y0310800D01*
X0086984Y0309600D01*
X0053384Y0276000D01*
X0053384Y0272400D01*
X0040184Y0259200D01*
X0040184Y0256800D01*
X0024584Y0263200D02*
X0024584Y0247600D01*
X0037384Y0234800D01*
X0037384Y0230000D01*
X0037638Y0229646D01*
X0031784Y0228800D02*
X0014984Y0212000D01*
X0014984Y0186800D01*
X0005784Y0177600D01*
X0005784Y0054400D01*
X0024184Y0036000D01*
X0029384Y0036000D01*
X0032584Y0032800D01*
X0032584Y0028800D01*
X0029784Y0026000D01*
X0026584Y0026000D01*
X0023384Y0022800D01*
X0023384Y0018800D01*
X0026184Y0016000D01*
X0029384Y0016000D01*
X0032584Y0012800D01*
X0032584Y0009600D01*
X0038584Y0003600D01*
X0079784Y0003600D01*
X0086984Y0010800D01*
X0087784Y0010800D01*
X0088071Y0010827D01*
X0108071Y0010827D02*
X0108184Y0010800D01*
X0109384Y0010800D01*
X0116584Y0003600D01*
X0315784Y0003600D01*
X0319784Y0007600D01*
X0319784Y0015200D01*
X0340184Y0035600D01*
X0382984Y0035600D01*
X0398584Y0051200D01*
X0398584Y0052800D01*
X0409384Y0063600D01*
X0410184Y0063600D01*
X0418184Y0071600D01*
X0408584Y0066800D02*
X0392984Y0051200D01*
X0392638Y0051181D01*
X0390584Y0061200D02*
X0398584Y0069200D01*
X0398584Y0076000D01*
X0424584Y0102000D01*
X0424584Y0167600D01*
X0421384Y0170800D01*
X0411384Y0170800D01*
X0402984Y0162400D01*
X0397384Y0162400D01*
X0394584Y0159600D01*
X0395384Y0162800D02*
X0399784Y0167200D01*
X0401384Y0167200D01*
X0401575Y0167598D01*
X0401784Y0167600D01*
X0401784Y0227600D01*
X0420984Y0246800D01*
X0420984Y0250800D01*
X0421260Y0251063D01*
X0396584Y0229600D02*
X0396417Y0229646D01*
X0396584Y0229600D02*
X0396584Y0190000D01*
X0396417Y0189646D01*
X0391784Y0172400D02*
X0386984Y0167600D01*
X0386811Y0167598D01*
X0385384Y0162800D02*
X0382184Y0159600D01*
X0325784Y0159600D01*
X0301784Y0135600D01*
X0300584Y0135600D01*
X0300433Y0135591D01*
X0296184Y0138400D02*
X0296184Y0118000D01*
X0306984Y0107200D01*
X0318984Y0107200D01*
X0331384Y0119600D01*
X0382184Y0119600D01*
X0385384Y0122800D01*
X0388584Y0122800D01*
X0392984Y0127200D01*
X0401384Y0127200D01*
X0401575Y0127598D01*
X0393384Y0122800D02*
X0392184Y0122800D01*
X0386984Y0117600D01*
X0386811Y0117598D01*
X0384184Y0113600D02*
X0385384Y0112400D01*
X0396584Y0112400D01*
X0401384Y0107600D01*
X0401575Y0107598D01*
X0400184Y0109200D01*
X0420984Y0130000D01*
X0420984Y0161600D01*
X0420184Y0162400D01*
X0420184Y0166400D01*
X0419826Y0166456D01*
X0417784Y0160000D02*
X0417784Y0157200D01*
X0402984Y0142400D01*
X0399784Y0142400D01*
X0386984Y0129600D01*
X0386984Y0127600D01*
X0386811Y0127598D01*
X0384184Y0113600D02*
X0376184Y0113600D01*
X0376184Y0092000D01*
X0373784Y0089600D01*
X0334184Y0089600D01*
X0326584Y0082000D01*
X0270984Y0082000D01*
X0270669Y0081693D01*
X0265384Y0084800D02*
X0265384Y0078000D01*
X0254184Y0066800D01*
X0168984Y0066800D01*
X0167384Y0063600D02*
X0148984Y0082000D01*
X0145784Y0080400D02*
X0145784Y0084000D01*
X0151184Y0089400D01*
X0150984Y0089600D01*
X0150984Y0093200D01*
X0151784Y0094000D01*
X0151784Y0116800D01*
X0140984Y0127600D01*
X0140984Y0152800D01*
X0134984Y0158800D01*
X0134984Y0164000D01*
X0134764Y0164370D01*
X0130584Y0164800D02*
X0130584Y0118400D01*
X0122184Y0113600D02*
X0106184Y0097600D01*
X0106184Y0091600D01*
X0105919Y0091226D01*
X0110984Y0089600D02*
X0101784Y0080400D01*
X0100984Y0077200D02*
X0103384Y0077200D01*
X0110984Y0084800D01*
X0110984Y0089600D02*
X0110984Y0100000D01*
X0121384Y0110400D01*
X0143784Y0110400D01*
X0145384Y0113600D02*
X0146984Y0112000D01*
X0148584Y0112000D01*
X0145384Y0113600D02*
X0122184Y0113600D01*
X0121384Y0115200D02*
X0145384Y0115200D01*
X0146984Y0116800D01*
X0150984Y0120000D02*
X0156184Y0114800D01*
X0156184Y0098000D01*
X0156184Y0092400D02*
X0156184Y0091600D01*
X0155918Y0091401D01*
X0156184Y0092400D02*
X0182584Y0118800D01*
X0195784Y0118800D01*
X0206584Y0108000D01*
X0284984Y0108000D01*
X0300584Y0092400D01*
X0300591Y0092283D01*
X0293784Y0105600D02*
X0284184Y0115200D01*
X0258984Y0115200D01*
X0254984Y0119200D01*
X0254984Y0130800D01*
X0250584Y0135200D01*
X0250433Y0135591D01*
X0250584Y0135600D01*
X0250584Y0143200D01*
X0263384Y0156000D01*
X0263384Y0151200D02*
X0264584Y0150000D01*
X0264584Y0132800D01*
X0270584Y0126800D01*
X0270584Y0122400D01*
X0270591Y0122283D01*
X0274584Y0101600D02*
X0262984Y0101600D01*
X0261384Y0103200D01*
X0206584Y0103200D01*
X0200384Y0097000D01*
X0200584Y0096800D01*
X0200584Y0089600D01*
X0184984Y0074000D01*
X0184984Y0073200D01*
X0182584Y0078000D02*
X0182584Y0086800D01*
X0173784Y0086800D01*
X0170984Y0089600D01*
X0170984Y0093200D01*
X0190184Y0112400D01*
X0194984Y0112400D01*
X0196584Y0115600D02*
X0184184Y0115600D01*
X0196584Y0115600D02*
X0201384Y0110800D01*
X0201384Y0107600D01*
X0203384Y0104800D02*
X0198184Y0099600D01*
X0200384Y0097000D02*
X0199784Y0096400D01*
X0180984Y0096400D01*
X0176184Y0091600D01*
X0175918Y0091470D01*
X0171784Y0086400D02*
X0176184Y0082000D01*
X0177784Y0082000D01*
X0178150Y0081693D01*
X0182584Y0078000D02*
X0178584Y0074000D01*
X0178584Y0071600D01*
X0172184Y0068400D02*
X0168984Y0071600D01*
X0172184Y0068400D02*
X0245784Y0068400D01*
X0255384Y0078000D01*
X0255384Y0084400D01*
X0260584Y0089600D01*
X0260584Y0092000D01*
X0260591Y0092283D01*
X0265384Y0084800D02*
X0270584Y0090000D01*
X0270584Y0092000D01*
X0270591Y0092283D01*
X0272584Y0074000D02*
X0263784Y0074000D01*
X0253384Y0063600D01*
X0167384Y0063600D01*
X0164184Y0062000D02*
X0145784Y0080400D01*
X0144984Y0074000D02*
X0135784Y0083200D01*
X0124184Y0083200D01*
X0116184Y0091200D01*
X0115919Y0091261D01*
X0117384Y0101600D02*
X0120584Y0104800D01*
X0148584Y0104800D01*
X0150984Y0120000D02*
X0150984Y0153200D01*
X0154184Y0156400D01*
X0154184Y0164000D01*
X0154449Y0164370D01*
X0160984Y0153600D02*
X0160984Y0149600D01*
X0163784Y0146800D01*
X0170984Y0146800D01*
X0175384Y0151200D01*
X0175709Y0151470D01*
X0177384Y0156400D02*
X0170584Y0156400D01*
X0165784Y0151600D01*
X0165709Y0151435D01*
X0160984Y0153600D02*
X0168584Y0161200D01*
X0168584Y0166000D01*
X0156984Y0177600D01*
X0156984Y0185200D01*
X0151784Y0190400D01*
X0121384Y0190400D01*
X0116984Y0186000D01*
X0116984Y0183200D01*
X0113384Y0179600D01*
X0105784Y0179600D01*
X0096184Y0170000D02*
X0094984Y0170000D01*
X0090984Y0166000D01*
X0090984Y0149600D01*
X0070584Y0129200D01*
X0070584Y0102000D01*
X0067384Y0100400D02*
X0070584Y0097200D01*
X0070584Y0089200D01*
X0067784Y0086400D01*
X0062584Y0086400D01*
X0059784Y0083600D01*
X0059784Y0081200D01*
X0054984Y0077200D02*
X0079384Y0077200D01*
X0080984Y0078800D01*
X0080984Y0086000D01*
X0085784Y0090800D01*
X0085919Y0091156D01*
X0090984Y0078800D02*
X0087784Y0075600D01*
X0055784Y0075600D01*
X0051384Y0071200D01*
X0038184Y0071200D01*
X0038071Y0070827D01*
X0036584Y0076000D02*
X0031784Y0071200D01*
X0028184Y0071200D01*
X0028071Y0070827D01*
X0023384Y0072800D02*
X0023384Y0068800D01*
X0026584Y0065600D01*
X0061784Y0065600D01*
X0062584Y0064800D01*
X0086184Y0064800D01*
X0086184Y0060000D02*
X0043784Y0060000D01*
X0039784Y0056000D01*
X0026184Y0056000D01*
X0021784Y0060400D01*
X0021784Y0094800D01*
X0027784Y0100800D01*
X0028071Y0100827D01*
X0038071Y0110827D02*
X0038184Y0110800D01*
X0053784Y0110800D01*
X0059384Y0105200D01*
X0062584Y0108800D02*
X0062584Y0112800D01*
X0038184Y0137200D01*
X0038184Y0140800D01*
X0038071Y0140827D01*
X0043784Y0134000D02*
X0065784Y0112000D01*
X0065784Y0091200D01*
X0065919Y0091086D01*
X0067384Y0100400D02*
X0067384Y0149200D01*
X0065784Y0150800D01*
X0065710Y0151086D01*
X0075709Y0164370D02*
X0075784Y0164400D01*
X0079784Y0164400D01*
X0088584Y0173200D01*
X0122184Y0173200D01*
X0123984Y0171400D01*
X0124184Y0171600D01*
X0123984Y0171400D02*
X0130584Y0164800D01*
X0132184Y0174800D02*
X0141384Y0184000D01*
X0141535Y0184055D01*
X0146184Y0182800D02*
X0146184Y0186000D01*
X0143384Y0188800D01*
X0129784Y0188800D01*
X0126184Y0185200D01*
X0126184Y0182400D01*
X0121784Y0178000D01*
X0117784Y0178000D01*
X0115079Y0164370D02*
X0114984Y0164000D01*
X0114984Y0157200D01*
X0110584Y0152800D01*
X0110584Y0122400D01*
X0121384Y0115200D02*
X0100984Y0094800D01*
X0100984Y0086400D01*
X0086984Y0072400D01*
X0057384Y0072400D01*
X0053784Y0076000D02*
X0054984Y0077200D01*
X0053784Y0076000D02*
X0036584Y0076000D01*
X0027784Y0077200D02*
X0027784Y0080800D01*
X0028071Y0080827D01*
X0027784Y0077200D02*
X0023384Y0072800D01*
X0013784Y0066000D02*
X0013784Y0176800D01*
X0020184Y0183200D01*
X0020184Y0187200D01*
X0028584Y0195600D01*
X0134584Y0195600D01*
X0138184Y0192000D01*
X0160184Y0192000D01*
X0166984Y0185200D01*
X0166984Y0176400D01*
X0177384Y0166000D01*
X0177384Y0156400D01*
X0187384Y0156400D01*
X0190584Y0153200D01*
X0190584Y0150000D01*
X0193784Y0146800D01*
X0197784Y0146800D01*
X0200584Y0149600D01*
X0200584Y0153200D01*
X0203784Y0156400D01*
X0210584Y0156400D01*
X0225384Y0141600D01*
X0225384Y0140000D01*
X0240584Y0124800D01*
X0240584Y0122400D01*
X0240591Y0122283D01*
X0246184Y0119200D02*
X0238984Y0112000D01*
X0224984Y0112000D01*
X0185784Y0151200D01*
X0185709Y0151505D01*
X0185384Y0151200D01*
X0170584Y0136400D01*
X0166584Y0136400D01*
X0183384Y0164000D02*
X0183150Y0164370D01*
X0183384Y0164000D02*
X0200984Y0164000D01*
X0205384Y0159600D01*
X0223784Y0159600D01*
X0228584Y0154800D01*
X0229784Y0154800D01*
X0232984Y0151200D02*
X0218184Y0151200D01*
X0211384Y0158000D01*
X0202184Y0158000D01*
X0195784Y0151600D01*
X0195709Y0151540D01*
X0205709Y0151575D02*
X0205784Y0151200D01*
X0205784Y0138400D01*
X0228984Y0115200D01*
X0234584Y0115200D01*
X0246184Y0119200D02*
X0246184Y0142400D01*
X0245784Y0169600D02*
X0248584Y0172400D01*
X0283384Y0172400D01*
X0290184Y0165600D01*
X0290433Y0165591D01*
X0300433Y0165591D02*
X0300584Y0165200D01*
X0300584Y0153600D01*
X0307784Y0146400D01*
X0317384Y0158400D02*
X0310584Y0165200D01*
X0310433Y0165591D01*
X0317384Y0158400D02*
X0321784Y0158400D01*
X0326984Y0163600D01*
X0338984Y0163600D01*
X0339331Y0163937D01*
X0339331Y0143937D02*
X0338984Y0143600D01*
X0328984Y0133600D01*
X0332184Y0127600D02*
X0334184Y0127600D01*
X0336184Y0129600D01*
X0356184Y0129600D01*
X0366184Y0139600D01*
X0378984Y0139600D01*
X0386584Y0147200D01*
X0386811Y0147598D01*
X0382184Y0149600D02*
X0384984Y0152400D01*
X0405784Y0152400D01*
X0406984Y0151200D01*
X0395384Y0162800D02*
X0385384Y0162800D01*
X0391784Y0172400D02*
X0391784Y0292400D01*
X0366184Y0318000D01*
X0079384Y0318000D01*
X0024584Y0263200D01*
X0017717Y0294291D02*
X0007638Y0304370D01*
X0007638Y0304449D01*
X0017717Y0294291D02*
X0045276Y0294291D01*
X0045276Y0316661D01*
X0053995Y0316800D01*
X0079384Y0264800D02*
X0071784Y0257200D01*
X0071614Y0256890D01*
X0079384Y0264800D02*
X0164984Y0264800D01*
X0172984Y0256800D01*
X0172984Y0255200D01*
X0173307Y0255157D01*
X0172984Y0250800D02*
X0174984Y0250800D01*
X0178984Y0254800D01*
X0178984Y0262400D01*
X0181384Y0264800D01*
X0181784Y0264800D01*
X0184984Y0268000D01*
X0184984Y0276800D01*
X0183784Y0278000D01*
X0183784Y0302800D01*
X0186984Y0306000D01*
X0186984Y0308800D01*
X0189784Y0311600D01*
X0250984Y0311600D01*
X0305384Y0257200D01*
X0305384Y0233200D01*
X0313784Y0224800D01*
X0313784Y0207600D01*
X0299784Y0193600D01*
X0295784Y0193600D01*
X0281384Y0179200D01*
X0286184Y0179200D02*
X0318184Y0179200D01*
X0332584Y0193600D01*
X0341784Y0198400D02*
X0342184Y0198400D01*
X0322984Y0179200D01*
X0300584Y0192000D02*
X0315384Y0206800D01*
X0315384Y0263200D01*
X0265384Y0313200D01*
X0181384Y0313200D01*
X0176184Y0308000D01*
X0176184Y0305200D01*
X0160184Y0289200D01*
X0157384Y0289200D01*
X0144984Y0276800D01*
X0163307Y0255157D02*
X0162984Y0254800D01*
X0153384Y0245200D01*
X0131384Y0245200D01*
X0131142Y0245079D01*
X0144184Y0222000D02*
X0172984Y0250800D01*
X0173307Y0225157D02*
X0172984Y0224800D01*
X0172984Y0223200D01*
X0164984Y0215200D01*
X0161784Y0215200D01*
X0160184Y0216800D01*
X0156584Y0216800D01*
X0154984Y0215200D01*
X0151784Y0215200D01*
X0150184Y0216800D01*
X0055784Y0216800D01*
X0056184Y0222000D02*
X0144184Y0222000D01*
X0136584Y0208000D02*
X0152184Y0208000D01*
X0136584Y0208000D02*
X0131784Y0203200D01*
X0032984Y0203200D01*
X0030584Y0205600D01*
X0028584Y0205600D01*
X0034584Y0206400D02*
X0040584Y0206400D01*
X0056184Y0222000D01*
X0048184Y0194000D02*
X0029384Y0194000D01*
X0021784Y0186400D01*
X0021784Y0175200D01*
X0018584Y0172000D01*
X0018584Y0168000D01*
X0023384Y0168800D02*
X0023384Y0183200D01*
X0030984Y0190800D01*
X0031384Y0170800D02*
X0036584Y0165600D01*
X0039784Y0165600D01*
X0043784Y0161600D01*
X0043784Y0134000D01*
X0028071Y0140827D02*
X0027784Y0141200D01*
X0027784Y0144400D01*
X0015384Y0156800D01*
X0015384Y0173600D01*
X0016984Y0175200D01*
X0023384Y0168800D02*
X0026184Y0166000D01*
X0029384Y0166000D01*
X0032584Y0162800D01*
X0032584Y0159600D01*
X0037784Y0154400D01*
X0037784Y0151200D01*
X0038071Y0150827D01*
X0046984Y0152800D02*
X0046984Y0161200D01*
X0060584Y0174800D01*
X0132184Y0174800D01*
X0146184Y0182800D02*
X0150984Y0178000D01*
X0125709Y0151296D02*
X0125384Y0151200D01*
X0123784Y0149600D01*
X0123784Y0143200D01*
X0105384Y0157600D02*
X0105384Y0164000D01*
X0105394Y0164370D01*
X0105384Y0157600D02*
X0100584Y0152800D01*
X0100584Y0102400D01*
X0122184Y0101600D02*
X0130584Y0093200D01*
X0130584Y0090000D01*
X0134184Y0086400D01*
X0137384Y0086400D01*
X0163384Y0060400D01*
X0268584Y0060400D01*
X0287784Y0079600D01*
X0333784Y0079600D01*
X0347784Y0094000D02*
X0342184Y0099600D01*
X0316184Y0099600D01*
X0310184Y0105600D01*
X0293784Y0105600D01*
X0283384Y0104800D02*
X0203384Y0104800D01*
X0195918Y0091540D02*
X0195784Y0091200D01*
X0191384Y0086800D01*
X0182584Y0086800D01*
X0171784Y0086400D02*
X0154184Y0086400D01*
X0151184Y0089400D01*
X0144984Y0074000D02*
X0144984Y0071600D01*
X0139384Y0071600D02*
X0117384Y0071600D01*
X0108984Y0078000D02*
X0136184Y0078000D01*
X0132584Y0074800D02*
X0100984Y0074800D01*
X0086184Y0060000D01*
X0091784Y0068000D02*
X0100984Y0077200D01*
X0090984Y0078800D02*
X0090984Y0146400D01*
X0095384Y0150800D01*
X0095709Y0151191D01*
X0052165Y0190039D02*
X0051784Y0190400D01*
X0048184Y0194000D01*
X0031384Y0170800D02*
X0028184Y0170800D01*
X0028071Y0170827D01*
X0013384Y0187600D02*
X0013384Y0215200D01*
X0016184Y0218000D01*
X0013384Y0187600D02*
X0004184Y0178400D01*
X0004184Y0053600D01*
X0026584Y0031200D01*
X0027784Y0031200D01*
X0028071Y0030827D01*
X0036584Y0026000D02*
X0031784Y0021200D01*
X0028184Y0021200D01*
X0028071Y0020827D01*
X0028071Y0050827D02*
X0027784Y0051200D01*
X0027784Y0052000D01*
X0013784Y0066000D01*
X0064184Y0068000D02*
X0091784Y0068000D01*
X0125919Y0091296D02*
X0126184Y0091200D01*
X0132584Y0084800D01*
X0136584Y0084800D01*
X0152184Y0069200D01*
X0152184Y0066800D01*
X0152184Y0058800D02*
X0139384Y0071600D01*
X0152184Y0058800D02*
X0164184Y0058800D01*
X0178584Y0044400D01*
X0198984Y0044400D01*
X0211784Y0057200D01*
X0222184Y0057200D01*
X0219384Y0043200D02*
X0205384Y0029200D01*
X0151384Y0029200D01*
X0144984Y0022800D01*
X0164184Y0062000D02*
X0265384Y0062000D01*
X0277384Y0074000D01*
X0288584Y0065600D02*
X0293784Y0065600D01*
X0298184Y0070000D01*
X0298184Y0071600D01*
X0300984Y0074400D01*
X0359384Y0074400D01*
X0356184Y0076400D02*
X0358584Y0078800D01*
X0358584Y0085200D01*
X0359784Y0086400D01*
X0368984Y0086400D01*
X0369331Y0093937D02*
X0368984Y0094000D01*
X0347784Y0094000D01*
X0356184Y0076400D02*
X0291384Y0076400D01*
X0239784Y0024800D01*
X0178184Y0024800D01*
X0178150Y0024606D01*
X0202184Y0076400D02*
X0217784Y0092000D01*
X0230584Y0092000D01*
X0230591Y0092283D01*
X0232184Y0099200D02*
X0220184Y0099200D01*
X0202184Y0081200D01*
X0232184Y0099200D02*
X0238984Y0092400D01*
X0240584Y0092400D01*
X0240591Y0092283D01*
X0244184Y0043200D02*
X0219384Y0043200D01*
X0270669Y0024606D02*
X0270984Y0024800D01*
X0278984Y0024800D01*
X0316984Y0062800D01*
X0385784Y0062800D01*
X0392584Y0069600D01*
X0392950Y0069612D01*
X0392984Y0070000D01*
X0392984Y0088800D01*
X0401384Y0097200D01*
X0401575Y0097598D01*
X0401784Y0097600D01*
X0414984Y0110800D01*
X0414984Y0118800D01*
X0421384Y0110800D02*
X0407784Y0097200D01*
X0376184Y0113600D02*
X0369384Y0113600D01*
X0369331Y0113937D01*
X0360984Y0111600D02*
X0357784Y0114800D01*
X0348984Y0114800D01*
X0339331Y0123937D02*
X0338984Y0123600D01*
X0330584Y0123600D01*
X0317384Y0110400D01*
X0310184Y0110400D01*
X0328984Y0102800D02*
X0330584Y0104400D01*
X0330584Y0114000D01*
X0334584Y0118000D01*
X0359384Y0118000D01*
X0360984Y0116400D01*
X0360584Y0124000D02*
X0366184Y0129600D01*
X0378984Y0129600D01*
X0386584Y0137200D01*
X0386811Y0137598D01*
X0382184Y0149600D02*
X0366184Y0149600D01*
X0350584Y0134000D01*
X0339384Y0134000D01*
X0339331Y0133937D01*
X0339384Y0124000D02*
X0339331Y0123937D01*
X0339384Y0124000D02*
X0360584Y0124000D01*
X0371784Y0061200D02*
X0390584Y0061200D01*
X0371784Y0061200D02*
X0349384Y0038800D01*
X0296184Y0138400D02*
X0270584Y0164000D01*
X0270584Y0165200D01*
X0270433Y0165591D01*
X0245784Y0169600D02*
X0244584Y0169600D01*
X0204984Y0188800D02*
X0199784Y0188800D01*
X0196184Y0185200D01*
X0196184Y0182400D01*
X0186984Y0173200D01*
X0191535Y0184055D02*
X0191384Y0184400D01*
X0207784Y0200800D01*
X0208071Y0200827D01*
X0207784Y0201200D01*
X0207784Y0270000D01*
X0191784Y0286000D01*
X0191784Y0306800D01*
X0191535Y0307087D01*
X0223363Y0256879D02*
X0223384Y0256800D01*
X0228184Y0252000D01*
X0276184Y0252000D01*
X0280184Y0256000D01*
X0284184Y0256000D01*
X0284528Y0256142D01*
X0290184Y0267600D02*
X0290184Y0236400D01*
X0305384Y0221200D01*
X0305384Y0204000D01*
X0300584Y0192000D02*
X0300584Y0190400D01*
X0275384Y0214000D02*
X0268584Y0220800D01*
X0268584Y0228000D01*
X0266184Y0230400D01*
X0246584Y0230400D01*
X0204984Y0188800D01*
X0290184Y0267600D02*
X0262184Y0295600D01*
X0341784Y0234800D02*
X0341784Y0198400D01*
D33*
X0053995Y0316800D03*
D34*
X0229331Y0175197D02*
X0229331Y0166465D01*
X0228220Y0165354D01*
X0229331Y0175197D02*
X0371063Y0175197D01*
X0373031Y0177165D01*
X0373031Y0261811D01*
X0378937Y0267717D01*
X0378937Y0285433D01*
X0385846Y0285433D01*
X0386634Y0286220D01*
X0378937Y0285433D02*
X0378937Y0299213D01*
X0366949Y0299213D01*
M02*
