G75*
%MOIN*%
%OFA0B0*%
%FSLAX25Y25*%
%IPPOS*%
%LPD*%
%AMOC8*
5,1,8,0,0,1.08239X$1,22.5*
%
%ADD10C,0.00000*%
%ADD11C,0.01600*%
%ADD12C,0.05746*%
%ADD13OC8,0.06600*%
%ADD14R,0.06800X0.06800*%
%ADD15C,0.06800*%
%ADD16C,0.05600*%
%ADD17C,0.06400*%
%ADD18R,0.06337X0.06337*%
%ADD19R,0.16598X0.16598*%
%ADD20OC8,0.05600*%
%ADD21R,0.06600X0.06600*%
%ADD22C,0.06600*%
%ADD23R,0.05943X0.05943*%
%ADD24C,0.07874*%
%ADD25OC8,0.07000*%
%ADD26OC8,0.08600*%
%ADD27C,0.07800*%
%ADD28C,0.07400*%
%ADD29C,0.04362*%
%ADD30C,0.00800*%
%ADD31C,0.04000*%
%ADD32C,0.01000*%
%ADD33C,0.01200*%
%ADD34R,0.04362X0.04362*%
D10*
X0045059Y0012500D02*
X0045061Y0012658D01*
X0045067Y0012816D01*
X0045077Y0012974D01*
X0045091Y0013132D01*
X0045109Y0013289D01*
X0045130Y0013446D01*
X0045156Y0013602D01*
X0045186Y0013758D01*
X0045219Y0013913D01*
X0045257Y0014066D01*
X0045298Y0014219D01*
X0045343Y0014371D01*
X0045392Y0014522D01*
X0045445Y0014671D01*
X0045501Y0014819D01*
X0045561Y0014965D01*
X0045625Y0015110D01*
X0045693Y0015253D01*
X0045764Y0015395D01*
X0045838Y0015535D01*
X0045916Y0015672D01*
X0045998Y0015808D01*
X0046082Y0015942D01*
X0046171Y0016073D01*
X0046262Y0016202D01*
X0046357Y0016329D01*
X0046454Y0016454D01*
X0046555Y0016576D01*
X0046659Y0016695D01*
X0046766Y0016812D01*
X0046876Y0016926D01*
X0046989Y0017037D01*
X0047104Y0017146D01*
X0047222Y0017251D01*
X0047343Y0017353D01*
X0047466Y0017453D01*
X0047592Y0017549D01*
X0047720Y0017642D01*
X0047850Y0017732D01*
X0047983Y0017818D01*
X0048118Y0017902D01*
X0048254Y0017981D01*
X0048393Y0018058D01*
X0048534Y0018130D01*
X0048676Y0018200D01*
X0048820Y0018265D01*
X0048966Y0018327D01*
X0049113Y0018385D01*
X0049262Y0018440D01*
X0049412Y0018491D01*
X0049563Y0018538D01*
X0049715Y0018581D01*
X0049868Y0018620D01*
X0050023Y0018656D01*
X0050178Y0018687D01*
X0050334Y0018715D01*
X0050490Y0018739D01*
X0050647Y0018759D01*
X0050805Y0018775D01*
X0050962Y0018787D01*
X0051121Y0018795D01*
X0051279Y0018799D01*
X0051437Y0018799D01*
X0051595Y0018795D01*
X0051754Y0018787D01*
X0051911Y0018775D01*
X0052069Y0018759D01*
X0052226Y0018739D01*
X0052382Y0018715D01*
X0052538Y0018687D01*
X0052693Y0018656D01*
X0052848Y0018620D01*
X0053001Y0018581D01*
X0053153Y0018538D01*
X0053304Y0018491D01*
X0053454Y0018440D01*
X0053603Y0018385D01*
X0053750Y0018327D01*
X0053896Y0018265D01*
X0054040Y0018200D01*
X0054182Y0018130D01*
X0054323Y0018058D01*
X0054462Y0017981D01*
X0054598Y0017902D01*
X0054733Y0017818D01*
X0054866Y0017732D01*
X0054996Y0017642D01*
X0055124Y0017549D01*
X0055250Y0017453D01*
X0055373Y0017353D01*
X0055494Y0017251D01*
X0055612Y0017146D01*
X0055727Y0017037D01*
X0055840Y0016926D01*
X0055950Y0016812D01*
X0056057Y0016695D01*
X0056161Y0016576D01*
X0056262Y0016454D01*
X0056359Y0016329D01*
X0056454Y0016202D01*
X0056545Y0016073D01*
X0056634Y0015942D01*
X0056718Y0015808D01*
X0056800Y0015672D01*
X0056878Y0015535D01*
X0056952Y0015395D01*
X0057023Y0015253D01*
X0057091Y0015110D01*
X0057155Y0014965D01*
X0057215Y0014819D01*
X0057271Y0014671D01*
X0057324Y0014522D01*
X0057373Y0014371D01*
X0057418Y0014219D01*
X0057459Y0014066D01*
X0057497Y0013913D01*
X0057530Y0013758D01*
X0057560Y0013602D01*
X0057586Y0013446D01*
X0057607Y0013289D01*
X0057625Y0013132D01*
X0057639Y0012974D01*
X0057649Y0012816D01*
X0057655Y0012658D01*
X0057657Y0012500D01*
X0057655Y0012342D01*
X0057649Y0012184D01*
X0057639Y0012026D01*
X0057625Y0011868D01*
X0057607Y0011711D01*
X0057586Y0011554D01*
X0057560Y0011398D01*
X0057530Y0011242D01*
X0057497Y0011087D01*
X0057459Y0010934D01*
X0057418Y0010781D01*
X0057373Y0010629D01*
X0057324Y0010478D01*
X0057271Y0010329D01*
X0057215Y0010181D01*
X0057155Y0010035D01*
X0057091Y0009890D01*
X0057023Y0009747D01*
X0056952Y0009605D01*
X0056878Y0009465D01*
X0056800Y0009328D01*
X0056718Y0009192D01*
X0056634Y0009058D01*
X0056545Y0008927D01*
X0056454Y0008798D01*
X0056359Y0008671D01*
X0056262Y0008546D01*
X0056161Y0008424D01*
X0056057Y0008305D01*
X0055950Y0008188D01*
X0055840Y0008074D01*
X0055727Y0007963D01*
X0055612Y0007854D01*
X0055494Y0007749D01*
X0055373Y0007647D01*
X0055250Y0007547D01*
X0055124Y0007451D01*
X0054996Y0007358D01*
X0054866Y0007268D01*
X0054733Y0007182D01*
X0054598Y0007098D01*
X0054462Y0007019D01*
X0054323Y0006942D01*
X0054182Y0006870D01*
X0054040Y0006800D01*
X0053896Y0006735D01*
X0053750Y0006673D01*
X0053603Y0006615D01*
X0053454Y0006560D01*
X0053304Y0006509D01*
X0053153Y0006462D01*
X0053001Y0006419D01*
X0052848Y0006380D01*
X0052693Y0006344D01*
X0052538Y0006313D01*
X0052382Y0006285D01*
X0052226Y0006261D01*
X0052069Y0006241D01*
X0051911Y0006225D01*
X0051754Y0006213D01*
X0051595Y0006205D01*
X0051437Y0006201D01*
X0051279Y0006201D01*
X0051121Y0006205D01*
X0050962Y0006213D01*
X0050805Y0006225D01*
X0050647Y0006241D01*
X0050490Y0006261D01*
X0050334Y0006285D01*
X0050178Y0006313D01*
X0050023Y0006344D01*
X0049868Y0006380D01*
X0049715Y0006419D01*
X0049563Y0006462D01*
X0049412Y0006509D01*
X0049262Y0006560D01*
X0049113Y0006615D01*
X0048966Y0006673D01*
X0048820Y0006735D01*
X0048676Y0006800D01*
X0048534Y0006870D01*
X0048393Y0006942D01*
X0048254Y0007019D01*
X0048118Y0007098D01*
X0047983Y0007182D01*
X0047850Y0007268D01*
X0047720Y0007358D01*
X0047592Y0007451D01*
X0047466Y0007547D01*
X0047343Y0007647D01*
X0047222Y0007749D01*
X0047104Y0007854D01*
X0046989Y0007963D01*
X0046876Y0008074D01*
X0046766Y0008188D01*
X0046659Y0008305D01*
X0046555Y0008424D01*
X0046454Y0008546D01*
X0046357Y0008671D01*
X0046262Y0008798D01*
X0046171Y0008927D01*
X0046082Y0009058D01*
X0045998Y0009192D01*
X0045916Y0009328D01*
X0045838Y0009465D01*
X0045764Y0009605D01*
X0045693Y0009747D01*
X0045625Y0009890D01*
X0045561Y0010035D01*
X0045501Y0010181D01*
X0045445Y0010329D01*
X0045392Y0010478D01*
X0045343Y0010629D01*
X0045298Y0010781D01*
X0045257Y0010934D01*
X0045219Y0011087D01*
X0045186Y0011242D01*
X0045156Y0011398D01*
X0045130Y0011554D01*
X0045109Y0011711D01*
X0045091Y0011868D01*
X0045077Y0012026D01*
X0045067Y0012184D01*
X0045061Y0012342D01*
X0045059Y0012500D01*
X0026181Y0251969D02*
X0026183Y0252127D01*
X0026189Y0252285D01*
X0026199Y0252443D01*
X0026213Y0252601D01*
X0026231Y0252758D01*
X0026252Y0252915D01*
X0026278Y0253071D01*
X0026308Y0253227D01*
X0026341Y0253382D01*
X0026379Y0253535D01*
X0026420Y0253688D01*
X0026465Y0253840D01*
X0026514Y0253991D01*
X0026567Y0254140D01*
X0026623Y0254288D01*
X0026683Y0254434D01*
X0026747Y0254579D01*
X0026815Y0254722D01*
X0026886Y0254864D01*
X0026960Y0255004D01*
X0027038Y0255141D01*
X0027120Y0255277D01*
X0027204Y0255411D01*
X0027293Y0255542D01*
X0027384Y0255671D01*
X0027479Y0255798D01*
X0027576Y0255923D01*
X0027677Y0256045D01*
X0027781Y0256164D01*
X0027888Y0256281D01*
X0027998Y0256395D01*
X0028111Y0256506D01*
X0028226Y0256615D01*
X0028344Y0256720D01*
X0028465Y0256822D01*
X0028588Y0256922D01*
X0028714Y0257018D01*
X0028842Y0257111D01*
X0028972Y0257201D01*
X0029105Y0257287D01*
X0029240Y0257371D01*
X0029376Y0257450D01*
X0029515Y0257527D01*
X0029656Y0257599D01*
X0029798Y0257669D01*
X0029942Y0257734D01*
X0030088Y0257796D01*
X0030235Y0257854D01*
X0030384Y0257909D01*
X0030534Y0257960D01*
X0030685Y0258007D01*
X0030837Y0258050D01*
X0030990Y0258089D01*
X0031145Y0258125D01*
X0031300Y0258156D01*
X0031456Y0258184D01*
X0031612Y0258208D01*
X0031769Y0258228D01*
X0031927Y0258244D01*
X0032084Y0258256D01*
X0032243Y0258264D01*
X0032401Y0258268D01*
X0032559Y0258268D01*
X0032717Y0258264D01*
X0032876Y0258256D01*
X0033033Y0258244D01*
X0033191Y0258228D01*
X0033348Y0258208D01*
X0033504Y0258184D01*
X0033660Y0258156D01*
X0033815Y0258125D01*
X0033970Y0258089D01*
X0034123Y0258050D01*
X0034275Y0258007D01*
X0034426Y0257960D01*
X0034576Y0257909D01*
X0034725Y0257854D01*
X0034872Y0257796D01*
X0035018Y0257734D01*
X0035162Y0257669D01*
X0035304Y0257599D01*
X0035445Y0257527D01*
X0035584Y0257450D01*
X0035720Y0257371D01*
X0035855Y0257287D01*
X0035988Y0257201D01*
X0036118Y0257111D01*
X0036246Y0257018D01*
X0036372Y0256922D01*
X0036495Y0256822D01*
X0036616Y0256720D01*
X0036734Y0256615D01*
X0036849Y0256506D01*
X0036962Y0256395D01*
X0037072Y0256281D01*
X0037179Y0256164D01*
X0037283Y0256045D01*
X0037384Y0255923D01*
X0037481Y0255798D01*
X0037576Y0255671D01*
X0037667Y0255542D01*
X0037756Y0255411D01*
X0037840Y0255277D01*
X0037922Y0255141D01*
X0038000Y0255004D01*
X0038074Y0254864D01*
X0038145Y0254722D01*
X0038213Y0254579D01*
X0038277Y0254434D01*
X0038337Y0254288D01*
X0038393Y0254140D01*
X0038446Y0253991D01*
X0038495Y0253840D01*
X0038540Y0253688D01*
X0038581Y0253535D01*
X0038619Y0253382D01*
X0038652Y0253227D01*
X0038682Y0253071D01*
X0038708Y0252915D01*
X0038729Y0252758D01*
X0038747Y0252601D01*
X0038761Y0252443D01*
X0038771Y0252285D01*
X0038777Y0252127D01*
X0038779Y0251969D01*
X0038777Y0251811D01*
X0038771Y0251653D01*
X0038761Y0251495D01*
X0038747Y0251337D01*
X0038729Y0251180D01*
X0038708Y0251023D01*
X0038682Y0250867D01*
X0038652Y0250711D01*
X0038619Y0250556D01*
X0038581Y0250403D01*
X0038540Y0250250D01*
X0038495Y0250098D01*
X0038446Y0249947D01*
X0038393Y0249798D01*
X0038337Y0249650D01*
X0038277Y0249504D01*
X0038213Y0249359D01*
X0038145Y0249216D01*
X0038074Y0249074D01*
X0038000Y0248934D01*
X0037922Y0248797D01*
X0037840Y0248661D01*
X0037756Y0248527D01*
X0037667Y0248396D01*
X0037576Y0248267D01*
X0037481Y0248140D01*
X0037384Y0248015D01*
X0037283Y0247893D01*
X0037179Y0247774D01*
X0037072Y0247657D01*
X0036962Y0247543D01*
X0036849Y0247432D01*
X0036734Y0247323D01*
X0036616Y0247218D01*
X0036495Y0247116D01*
X0036372Y0247016D01*
X0036246Y0246920D01*
X0036118Y0246827D01*
X0035988Y0246737D01*
X0035855Y0246651D01*
X0035720Y0246567D01*
X0035584Y0246488D01*
X0035445Y0246411D01*
X0035304Y0246339D01*
X0035162Y0246269D01*
X0035018Y0246204D01*
X0034872Y0246142D01*
X0034725Y0246084D01*
X0034576Y0246029D01*
X0034426Y0245978D01*
X0034275Y0245931D01*
X0034123Y0245888D01*
X0033970Y0245849D01*
X0033815Y0245813D01*
X0033660Y0245782D01*
X0033504Y0245754D01*
X0033348Y0245730D01*
X0033191Y0245710D01*
X0033033Y0245694D01*
X0032876Y0245682D01*
X0032717Y0245674D01*
X0032559Y0245670D01*
X0032401Y0245670D01*
X0032243Y0245674D01*
X0032084Y0245682D01*
X0031927Y0245694D01*
X0031769Y0245710D01*
X0031612Y0245730D01*
X0031456Y0245754D01*
X0031300Y0245782D01*
X0031145Y0245813D01*
X0030990Y0245849D01*
X0030837Y0245888D01*
X0030685Y0245931D01*
X0030534Y0245978D01*
X0030384Y0246029D01*
X0030235Y0246084D01*
X0030088Y0246142D01*
X0029942Y0246204D01*
X0029798Y0246269D01*
X0029656Y0246339D01*
X0029515Y0246411D01*
X0029376Y0246488D01*
X0029240Y0246567D01*
X0029105Y0246651D01*
X0028972Y0246737D01*
X0028842Y0246827D01*
X0028714Y0246920D01*
X0028588Y0247016D01*
X0028465Y0247116D01*
X0028344Y0247218D01*
X0028226Y0247323D01*
X0028111Y0247432D01*
X0027998Y0247543D01*
X0027888Y0247657D01*
X0027781Y0247774D01*
X0027677Y0247893D01*
X0027576Y0248015D01*
X0027479Y0248140D01*
X0027384Y0248267D01*
X0027293Y0248396D01*
X0027204Y0248527D01*
X0027120Y0248661D01*
X0027038Y0248797D01*
X0026960Y0248934D01*
X0026886Y0249074D01*
X0026815Y0249216D01*
X0026747Y0249359D01*
X0026683Y0249504D01*
X0026623Y0249650D01*
X0026567Y0249798D01*
X0026514Y0249947D01*
X0026465Y0250098D01*
X0026420Y0250250D01*
X0026379Y0250403D01*
X0026341Y0250556D01*
X0026308Y0250711D01*
X0026278Y0250867D01*
X0026252Y0251023D01*
X0026231Y0251180D01*
X0026213Y0251337D01*
X0026199Y0251495D01*
X0026189Y0251653D01*
X0026183Y0251811D01*
X0026181Y0251969D01*
X0026181Y0317913D02*
X0026183Y0318071D01*
X0026189Y0318229D01*
X0026199Y0318387D01*
X0026213Y0318545D01*
X0026231Y0318702D01*
X0026252Y0318859D01*
X0026278Y0319015D01*
X0026308Y0319171D01*
X0026341Y0319326D01*
X0026379Y0319479D01*
X0026420Y0319632D01*
X0026465Y0319784D01*
X0026514Y0319935D01*
X0026567Y0320084D01*
X0026623Y0320232D01*
X0026683Y0320378D01*
X0026747Y0320523D01*
X0026815Y0320666D01*
X0026886Y0320808D01*
X0026960Y0320948D01*
X0027038Y0321085D01*
X0027120Y0321221D01*
X0027204Y0321355D01*
X0027293Y0321486D01*
X0027384Y0321615D01*
X0027479Y0321742D01*
X0027576Y0321867D01*
X0027677Y0321989D01*
X0027781Y0322108D01*
X0027888Y0322225D01*
X0027998Y0322339D01*
X0028111Y0322450D01*
X0028226Y0322559D01*
X0028344Y0322664D01*
X0028465Y0322766D01*
X0028588Y0322866D01*
X0028714Y0322962D01*
X0028842Y0323055D01*
X0028972Y0323145D01*
X0029105Y0323231D01*
X0029240Y0323315D01*
X0029376Y0323394D01*
X0029515Y0323471D01*
X0029656Y0323543D01*
X0029798Y0323613D01*
X0029942Y0323678D01*
X0030088Y0323740D01*
X0030235Y0323798D01*
X0030384Y0323853D01*
X0030534Y0323904D01*
X0030685Y0323951D01*
X0030837Y0323994D01*
X0030990Y0324033D01*
X0031145Y0324069D01*
X0031300Y0324100D01*
X0031456Y0324128D01*
X0031612Y0324152D01*
X0031769Y0324172D01*
X0031927Y0324188D01*
X0032084Y0324200D01*
X0032243Y0324208D01*
X0032401Y0324212D01*
X0032559Y0324212D01*
X0032717Y0324208D01*
X0032876Y0324200D01*
X0033033Y0324188D01*
X0033191Y0324172D01*
X0033348Y0324152D01*
X0033504Y0324128D01*
X0033660Y0324100D01*
X0033815Y0324069D01*
X0033970Y0324033D01*
X0034123Y0323994D01*
X0034275Y0323951D01*
X0034426Y0323904D01*
X0034576Y0323853D01*
X0034725Y0323798D01*
X0034872Y0323740D01*
X0035018Y0323678D01*
X0035162Y0323613D01*
X0035304Y0323543D01*
X0035445Y0323471D01*
X0035584Y0323394D01*
X0035720Y0323315D01*
X0035855Y0323231D01*
X0035988Y0323145D01*
X0036118Y0323055D01*
X0036246Y0322962D01*
X0036372Y0322866D01*
X0036495Y0322766D01*
X0036616Y0322664D01*
X0036734Y0322559D01*
X0036849Y0322450D01*
X0036962Y0322339D01*
X0037072Y0322225D01*
X0037179Y0322108D01*
X0037283Y0321989D01*
X0037384Y0321867D01*
X0037481Y0321742D01*
X0037576Y0321615D01*
X0037667Y0321486D01*
X0037756Y0321355D01*
X0037840Y0321221D01*
X0037922Y0321085D01*
X0038000Y0320948D01*
X0038074Y0320808D01*
X0038145Y0320666D01*
X0038213Y0320523D01*
X0038277Y0320378D01*
X0038337Y0320232D01*
X0038393Y0320084D01*
X0038446Y0319935D01*
X0038495Y0319784D01*
X0038540Y0319632D01*
X0038581Y0319479D01*
X0038619Y0319326D01*
X0038652Y0319171D01*
X0038682Y0319015D01*
X0038708Y0318859D01*
X0038729Y0318702D01*
X0038747Y0318545D01*
X0038761Y0318387D01*
X0038771Y0318229D01*
X0038777Y0318071D01*
X0038779Y0317913D01*
X0038777Y0317755D01*
X0038771Y0317597D01*
X0038761Y0317439D01*
X0038747Y0317281D01*
X0038729Y0317124D01*
X0038708Y0316967D01*
X0038682Y0316811D01*
X0038652Y0316655D01*
X0038619Y0316500D01*
X0038581Y0316347D01*
X0038540Y0316194D01*
X0038495Y0316042D01*
X0038446Y0315891D01*
X0038393Y0315742D01*
X0038337Y0315594D01*
X0038277Y0315448D01*
X0038213Y0315303D01*
X0038145Y0315160D01*
X0038074Y0315018D01*
X0038000Y0314878D01*
X0037922Y0314741D01*
X0037840Y0314605D01*
X0037756Y0314471D01*
X0037667Y0314340D01*
X0037576Y0314211D01*
X0037481Y0314084D01*
X0037384Y0313959D01*
X0037283Y0313837D01*
X0037179Y0313718D01*
X0037072Y0313601D01*
X0036962Y0313487D01*
X0036849Y0313376D01*
X0036734Y0313267D01*
X0036616Y0313162D01*
X0036495Y0313060D01*
X0036372Y0312960D01*
X0036246Y0312864D01*
X0036118Y0312771D01*
X0035988Y0312681D01*
X0035855Y0312595D01*
X0035720Y0312511D01*
X0035584Y0312432D01*
X0035445Y0312355D01*
X0035304Y0312283D01*
X0035162Y0312213D01*
X0035018Y0312148D01*
X0034872Y0312086D01*
X0034725Y0312028D01*
X0034576Y0311973D01*
X0034426Y0311922D01*
X0034275Y0311875D01*
X0034123Y0311832D01*
X0033970Y0311793D01*
X0033815Y0311757D01*
X0033660Y0311726D01*
X0033504Y0311698D01*
X0033348Y0311674D01*
X0033191Y0311654D01*
X0033033Y0311638D01*
X0032876Y0311626D01*
X0032717Y0311618D01*
X0032559Y0311614D01*
X0032401Y0311614D01*
X0032243Y0311618D01*
X0032084Y0311626D01*
X0031927Y0311638D01*
X0031769Y0311654D01*
X0031612Y0311674D01*
X0031456Y0311698D01*
X0031300Y0311726D01*
X0031145Y0311757D01*
X0030990Y0311793D01*
X0030837Y0311832D01*
X0030685Y0311875D01*
X0030534Y0311922D01*
X0030384Y0311973D01*
X0030235Y0312028D01*
X0030088Y0312086D01*
X0029942Y0312148D01*
X0029798Y0312213D01*
X0029656Y0312283D01*
X0029515Y0312355D01*
X0029376Y0312432D01*
X0029240Y0312511D01*
X0029105Y0312595D01*
X0028972Y0312681D01*
X0028842Y0312771D01*
X0028714Y0312864D01*
X0028588Y0312960D01*
X0028465Y0313060D01*
X0028344Y0313162D01*
X0028226Y0313267D01*
X0028111Y0313376D01*
X0027998Y0313487D01*
X0027888Y0313601D01*
X0027781Y0313718D01*
X0027677Y0313837D01*
X0027576Y0313959D01*
X0027479Y0314084D01*
X0027384Y0314211D01*
X0027293Y0314340D01*
X0027204Y0314471D01*
X0027120Y0314605D01*
X0027038Y0314741D01*
X0026960Y0314878D01*
X0026886Y0315018D01*
X0026815Y0315160D01*
X0026747Y0315303D01*
X0026683Y0315448D01*
X0026623Y0315594D01*
X0026567Y0315742D01*
X0026514Y0315891D01*
X0026465Y0316042D01*
X0026420Y0316194D01*
X0026379Y0316347D01*
X0026341Y0316500D01*
X0026308Y0316655D01*
X0026278Y0316811D01*
X0026252Y0316967D01*
X0026231Y0317124D01*
X0026213Y0317281D01*
X0026199Y0317439D01*
X0026189Y0317597D01*
X0026183Y0317755D01*
X0026181Y0317913D01*
X0340243Y0012591D02*
X0340245Y0012749D01*
X0340251Y0012907D01*
X0340261Y0013065D01*
X0340275Y0013223D01*
X0340293Y0013380D01*
X0340314Y0013537D01*
X0340340Y0013693D01*
X0340370Y0013849D01*
X0340403Y0014004D01*
X0340441Y0014157D01*
X0340482Y0014310D01*
X0340527Y0014462D01*
X0340576Y0014613D01*
X0340629Y0014762D01*
X0340685Y0014910D01*
X0340745Y0015056D01*
X0340809Y0015201D01*
X0340877Y0015344D01*
X0340948Y0015486D01*
X0341022Y0015626D01*
X0341100Y0015763D01*
X0341182Y0015899D01*
X0341266Y0016033D01*
X0341355Y0016164D01*
X0341446Y0016293D01*
X0341541Y0016420D01*
X0341638Y0016545D01*
X0341739Y0016667D01*
X0341843Y0016786D01*
X0341950Y0016903D01*
X0342060Y0017017D01*
X0342173Y0017128D01*
X0342288Y0017237D01*
X0342406Y0017342D01*
X0342527Y0017444D01*
X0342650Y0017544D01*
X0342776Y0017640D01*
X0342904Y0017733D01*
X0343034Y0017823D01*
X0343167Y0017909D01*
X0343302Y0017993D01*
X0343438Y0018072D01*
X0343577Y0018149D01*
X0343718Y0018221D01*
X0343860Y0018291D01*
X0344004Y0018356D01*
X0344150Y0018418D01*
X0344297Y0018476D01*
X0344446Y0018531D01*
X0344596Y0018582D01*
X0344747Y0018629D01*
X0344899Y0018672D01*
X0345052Y0018711D01*
X0345207Y0018747D01*
X0345362Y0018778D01*
X0345518Y0018806D01*
X0345674Y0018830D01*
X0345831Y0018850D01*
X0345989Y0018866D01*
X0346146Y0018878D01*
X0346305Y0018886D01*
X0346463Y0018890D01*
X0346621Y0018890D01*
X0346779Y0018886D01*
X0346938Y0018878D01*
X0347095Y0018866D01*
X0347253Y0018850D01*
X0347410Y0018830D01*
X0347566Y0018806D01*
X0347722Y0018778D01*
X0347877Y0018747D01*
X0348032Y0018711D01*
X0348185Y0018672D01*
X0348337Y0018629D01*
X0348488Y0018582D01*
X0348638Y0018531D01*
X0348787Y0018476D01*
X0348934Y0018418D01*
X0349080Y0018356D01*
X0349224Y0018291D01*
X0349366Y0018221D01*
X0349507Y0018149D01*
X0349646Y0018072D01*
X0349782Y0017993D01*
X0349917Y0017909D01*
X0350050Y0017823D01*
X0350180Y0017733D01*
X0350308Y0017640D01*
X0350434Y0017544D01*
X0350557Y0017444D01*
X0350678Y0017342D01*
X0350796Y0017237D01*
X0350911Y0017128D01*
X0351024Y0017017D01*
X0351134Y0016903D01*
X0351241Y0016786D01*
X0351345Y0016667D01*
X0351446Y0016545D01*
X0351543Y0016420D01*
X0351638Y0016293D01*
X0351729Y0016164D01*
X0351818Y0016033D01*
X0351902Y0015899D01*
X0351984Y0015763D01*
X0352062Y0015626D01*
X0352136Y0015486D01*
X0352207Y0015344D01*
X0352275Y0015201D01*
X0352339Y0015056D01*
X0352399Y0014910D01*
X0352455Y0014762D01*
X0352508Y0014613D01*
X0352557Y0014462D01*
X0352602Y0014310D01*
X0352643Y0014157D01*
X0352681Y0014004D01*
X0352714Y0013849D01*
X0352744Y0013693D01*
X0352770Y0013537D01*
X0352791Y0013380D01*
X0352809Y0013223D01*
X0352823Y0013065D01*
X0352833Y0012907D01*
X0352839Y0012749D01*
X0352841Y0012591D01*
X0352839Y0012433D01*
X0352833Y0012275D01*
X0352823Y0012117D01*
X0352809Y0011959D01*
X0352791Y0011802D01*
X0352770Y0011645D01*
X0352744Y0011489D01*
X0352714Y0011333D01*
X0352681Y0011178D01*
X0352643Y0011025D01*
X0352602Y0010872D01*
X0352557Y0010720D01*
X0352508Y0010569D01*
X0352455Y0010420D01*
X0352399Y0010272D01*
X0352339Y0010126D01*
X0352275Y0009981D01*
X0352207Y0009838D01*
X0352136Y0009696D01*
X0352062Y0009556D01*
X0351984Y0009419D01*
X0351902Y0009283D01*
X0351818Y0009149D01*
X0351729Y0009018D01*
X0351638Y0008889D01*
X0351543Y0008762D01*
X0351446Y0008637D01*
X0351345Y0008515D01*
X0351241Y0008396D01*
X0351134Y0008279D01*
X0351024Y0008165D01*
X0350911Y0008054D01*
X0350796Y0007945D01*
X0350678Y0007840D01*
X0350557Y0007738D01*
X0350434Y0007638D01*
X0350308Y0007542D01*
X0350180Y0007449D01*
X0350050Y0007359D01*
X0349917Y0007273D01*
X0349782Y0007189D01*
X0349646Y0007110D01*
X0349507Y0007033D01*
X0349366Y0006961D01*
X0349224Y0006891D01*
X0349080Y0006826D01*
X0348934Y0006764D01*
X0348787Y0006706D01*
X0348638Y0006651D01*
X0348488Y0006600D01*
X0348337Y0006553D01*
X0348185Y0006510D01*
X0348032Y0006471D01*
X0347877Y0006435D01*
X0347722Y0006404D01*
X0347566Y0006376D01*
X0347410Y0006352D01*
X0347253Y0006332D01*
X0347095Y0006316D01*
X0346938Y0006304D01*
X0346779Y0006296D01*
X0346621Y0006292D01*
X0346463Y0006292D01*
X0346305Y0006296D01*
X0346146Y0006304D01*
X0345989Y0006316D01*
X0345831Y0006332D01*
X0345674Y0006352D01*
X0345518Y0006376D01*
X0345362Y0006404D01*
X0345207Y0006435D01*
X0345052Y0006471D01*
X0344899Y0006510D01*
X0344747Y0006553D01*
X0344596Y0006600D01*
X0344446Y0006651D01*
X0344297Y0006706D01*
X0344150Y0006764D01*
X0344004Y0006826D01*
X0343860Y0006891D01*
X0343718Y0006961D01*
X0343577Y0007033D01*
X0343438Y0007110D01*
X0343302Y0007189D01*
X0343167Y0007273D01*
X0343034Y0007359D01*
X0342904Y0007449D01*
X0342776Y0007542D01*
X0342650Y0007638D01*
X0342527Y0007738D01*
X0342406Y0007840D01*
X0342288Y0007945D01*
X0342173Y0008054D01*
X0342060Y0008165D01*
X0341950Y0008279D01*
X0341843Y0008396D01*
X0341739Y0008515D01*
X0341638Y0008637D01*
X0341541Y0008762D01*
X0341446Y0008889D01*
X0341355Y0009018D01*
X0341266Y0009149D01*
X0341182Y0009283D01*
X0341100Y0009419D01*
X0341022Y0009556D01*
X0340948Y0009696D01*
X0340877Y0009838D01*
X0340809Y0009981D01*
X0340745Y0010126D01*
X0340685Y0010272D01*
X0340629Y0010420D01*
X0340576Y0010569D01*
X0340527Y0010720D01*
X0340482Y0010872D01*
X0340441Y0011025D01*
X0340403Y0011178D01*
X0340370Y0011333D01*
X0340340Y0011489D01*
X0340314Y0011645D01*
X0340293Y0011802D01*
X0340275Y0011959D01*
X0340261Y0012117D01*
X0340251Y0012275D01*
X0340245Y0012433D01*
X0340243Y0012591D01*
X0396260Y0248031D02*
X0396262Y0248189D01*
X0396268Y0248347D01*
X0396278Y0248505D01*
X0396292Y0248663D01*
X0396310Y0248820D01*
X0396331Y0248977D01*
X0396357Y0249133D01*
X0396387Y0249289D01*
X0396420Y0249444D01*
X0396458Y0249597D01*
X0396499Y0249750D01*
X0396544Y0249902D01*
X0396593Y0250053D01*
X0396646Y0250202D01*
X0396702Y0250350D01*
X0396762Y0250496D01*
X0396826Y0250641D01*
X0396894Y0250784D01*
X0396965Y0250926D01*
X0397039Y0251066D01*
X0397117Y0251203D01*
X0397199Y0251339D01*
X0397283Y0251473D01*
X0397372Y0251604D01*
X0397463Y0251733D01*
X0397558Y0251860D01*
X0397655Y0251985D01*
X0397756Y0252107D01*
X0397860Y0252226D01*
X0397967Y0252343D01*
X0398077Y0252457D01*
X0398190Y0252568D01*
X0398305Y0252677D01*
X0398423Y0252782D01*
X0398544Y0252884D01*
X0398667Y0252984D01*
X0398793Y0253080D01*
X0398921Y0253173D01*
X0399051Y0253263D01*
X0399184Y0253349D01*
X0399319Y0253433D01*
X0399455Y0253512D01*
X0399594Y0253589D01*
X0399735Y0253661D01*
X0399877Y0253731D01*
X0400021Y0253796D01*
X0400167Y0253858D01*
X0400314Y0253916D01*
X0400463Y0253971D01*
X0400613Y0254022D01*
X0400764Y0254069D01*
X0400916Y0254112D01*
X0401069Y0254151D01*
X0401224Y0254187D01*
X0401379Y0254218D01*
X0401535Y0254246D01*
X0401691Y0254270D01*
X0401848Y0254290D01*
X0402006Y0254306D01*
X0402163Y0254318D01*
X0402322Y0254326D01*
X0402480Y0254330D01*
X0402638Y0254330D01*
X0402796Y0254326D01*
X0402955Y0254318D01*
X0403112Y0254306D01*
X0403270Y0254290D01*
X0403427Y0254270D01*
X0403583Y0254246D01*
X0403739Y0254218D01*
X0403894Y0254187D01*
X0404049Y0254151D01*
X0404202Y0254112D01*
X0404354Y0254069D01*
X0404505Y0254022D01*
X0404655Y0253971D01*
X0404804Y0253916D01*
X0404951Y0253858D01*
X0405097Y0253796D01*
X0405241Y0253731D01*
X0405383Y0253661D01*
X0405524Y0253589D01*
X0405663Y0253512D01*
X0405799Y0253433D01*
X0405934Y0253349D01*
X0406067Y0253263D01*
X0406197Y0253173D01*
X0406325Y0253080D01*
X0406451Y0252984D01*
X0406574Y0252884D01*
X0406695Y0252782D01*
X0406813Y0252677D01*
X0406928Y0252568D01*
X0407041Y0252457D01*
X0407151Y0252343D01*
X0407258Y0252226D01*
X0407362Y0252107D01*
X0407463Y0251985D01*
X0407560Y0251860D01*
X0407655Y0251733D01*
X0407746Y0251604D01*
X0407835Y0251473D01*
X0407919Y0251339D01*
X0408001Y0251203D01*
X0408079Y0251066D01*
X0408153Y0250926D01*
X0408224Y0250784D01*
X0408292Y0250641D01*
X0408356Y0250496D01*
X0408416Y0250350D01*
X0408472Y0250202D01*
X0408525Y0250053D01*
X0408574Y0249902D01*
X0408619Y0249750D01*
X0408660Y0249597D01*
X0408698Y0249444D01*
X0408731Y0249289D01*
X0408761Y0249133D01*
X0408787Y0248977D01*
X0408808Y0248820D01*
X0408826Y0248663D01*
X0408840Y0248505D01*
X0408850Y0248347D01*
X0408856Y0248189D01*
X0408858Y0248031D01*
X0408856Y0247873D01*
X0408850Y0247715D01*
X0408840Y0247557D01*
X0408826Y0247399D01*
X0408808Y0247242D01*
X0408787Y0247085D01*
X0408761Y0246929D01*
X0408731Y0246773D01*
X0408698Y0246618D01*
X0408660Y0246465D01*
X0408619Y0246312D01*
X0408574Y0246160D01*
X0408525Y0246009D01*
X0408472Y0245860D01*
X0408416Y0245712D01*
X0408356Y0245566D01*
X0408292Y0245421D01*
X0408224Y0245278D01*
X0408153Y0245136D01*
X0408079Y0244996D01*
X0408001Y0244859D01*
X0407919Y0244723D01*
X0407835Y0244589D01*
X0407746Y0244458D01*
X0407655Y0244329D01*
X0407560Y0244202D01*
X0407463Y0244077D01*
X0407362Y0243955D01*
X0407258Y0243836D01*
X0407151Y0243719D01*
X0407041Y0243605D01*
X0406928Y0243494D01*
X0406813Y0243385D01*
X0406695Y0243280D01*
X0406574Y0243178D01*
X0406451Y0243078D01*
X0406325Y0242982D01*
X0406197Y0242889D01*
X0406067Y0242799D01*
X0405934Y0242713D01*
X0405799Y0242629D01*
X0405663Y0242550D01*
X0405524Y0242473D01*
X0405383Y0242401D01*
X0405241Y0242331D01*
X0405097Y0242266D01*
X0404951Y0242204D01*
X0404804Y0242146D01*
X0404655Y0242091D01*
X0404505Y0242040D01*
X0404354Y0241993D01*
X0404202Y0241950D01*
X0404049Y0241911D01*
X0403894Y0241875D01*
X0403739Y0241844D01*
X0403583Y0241816D01*
X0403427Y0241792D01*
X0403270Y0241772D01*
X0403112Y0241756D01*
X0402955Y0241744D01*
X0402796Y0241736D01*
X0402638Y0241732D01*
X0402480Y0241732D01*
X0402322Y0241736D01*
X0402163Y0241744D01*
X0402006Y0241756D01*
X0401848Y0241772D01*
X0401691Y0241792D01*
X0401535Y0241816D01*
X0401379Y0241844D01*
X0401224Y0241875D01*
X0401069Y0241911D01*
X0400916Y0241950D01*
X0400764Y0241993D01*
X0400613Y0242040D01*
X0400463Y0242091D01*
X0400314Y0242146D01*
X0400167Y0242204D01*
X0400021Y0242266D01*
X0399877Y0242331D01*
X0399735Y0242401D01*
X0399594Y0242473D01*
X0399455Y0242550D01*
X0399319Y0242629D01*
X0399184Y0242713D01*
X0399051Y0242799D01*
X0398921Y0242889D01*
X0398793Y0242982D01*
X0398667Y0243078D01*
X0398544Y0243178D01*
X0398423Y0243280D01*
X0398305Y0243385D01*
X0398190Y0243494D01*
X0398077Y0243605D01*
X0397967Y0243719D01*
X0397860Y0243836D01*
X0397756Y0243955D01*
X0397655Y0244077D01*
X0397558Y0244202D01*
X0397463Y0244329D01*
X0397372Y0244458D01*
X0397283Y0244589D01*
X0397199Y0244723D01*
X0397117Y0244859D01*
X0397039Y0244996D01*
X0396965Y0245136D01*
X0396894Y0245278D01*
X0396826Y0245421D01*
X0396762Y0245566D01*
X0396702Y0245712D01*
X0396646Y0245860D01*
X0396593Y0246009D01*
X0396544Y0246160D01*
X0396499Y0246312D01*
X0396458Y0246465D01*
X0396420Y0246618D01*
X0396387Y0246773D01*
X0396357Y0246929D01*
X0396331Y0247085D01*
X0396310Y0247242D01*
X0396292Y0247399D01*
X0396278Y0247557D01*
X0396268Y0247715D01*
X0396262Y0247873D01*
X0396260Y0248031D01*
X0396260Y0317913D02*
X0396262Y0318071D01*
X0396268Y0318229D01*
X0396278Y0318387D01*
X0396292Y0318545D01*
X0396310Y0318702D01*
X0396331Y0318859D01*
X0396357Y0319015D01*
X0396387Y0319171D01*
X0396420Y0319326D01*
X0396458Y0319479D01*
X0396499Y0319632D01*
X0396544Y0319784D01*
X0396593Y0319935D01*
X0396646Y0320084D01*
X0396702Y0320232D01*
X0396762Y0320378D01*
X0396826Y0320523D01*
X0396894Y0320666D01*
X0396965Y0320808D01*
X0397039Y0320948D01*
X0397117Y0321085D01*
X0397199Y0321221D01*
X0397283Y0321355D01*
X0397372Y0321486D01*
X0397463Y0321615D01*
X0397558Y0321742D01*
X0397655Y0321867D01*
X0397756Y0321989D01*
X0397860Y0322108D01*
X0397967Y0322225D01*
X0398077Y0322339D01*
X0398190Y0322450D01*
X0398305Y0322559D01*
X0398423Y0322664D01*
X0398544Y0322766D01*
X0398667Y0322866D01*
X0398793Y0322962D01*
X0398921Y0323055D01*
X0399051Y0323145D01*
X0399184Y0323231D01*
X0399319Y0323315D01*
X0399455Y0323394D01*
X0399594Y0323471D01*
X0399735Y0323543D01*
X0399877Y0323613D01*
X0400021Y0323678D01*
X0400167Y0323740D01*
X0400314Y0323798D01*
X0400463Y0323853D01*
X0400613Y0323904D01*
X0400764Y0323951D01*
X0400916Y0323994D01*
X0401069Y0324033D01*
X0401224Y0324069D01*
X0401379Y0324100D01*
X0401535Y0324128D01*
X0401691Y0324152D01*
X0401848Y0324172D01*
X0402006Y0324188D01*
X0402163Y0324200D01*
X0402322Y0324208D01*
X0402480Y0324212D01*
X0402638Y0324212D01*
X0402796Y0324208D01*
X0402955Y0324200D01*
X0403112Y0324188D01*
X0403270Y0324172D01*
X0403427Y0324152D01*
X0403583Y0324128D01*
X0403739Y0324100D01*
X0403894Y0324069D01*
X0404049Y0324033D01*
X0404202Y0323994D01*
X0404354Y0323951D01*
X0404505Y0323904D01*
X0404655Y0323853D01*
X0404804Y0323798D01*
X0404951Y0323740D01*
X0405097Y0323678D01*
X0405241Y0323613D01*
X0405383Y0323543D01*
X0405524Y0323471D01*
X0405663Y0323394D01*
X0405799Y0323315D01*
X0405934Y0323231D01*
X0406067Y0323145D01*
X0406197Y0323055D01*
X0406325Y0322962D01*
X0406451Y0322866D01*
X0406574Y0322766D01*
X0406695Y0322664D01*
X0406813Y0322559D01*
X0406928Y0322450D01*
X0407041Y0322339D01*
X0407151Y0322225D01*
X0407258Y0322108D01*
X0407362Y0321989D01*
X0407463Y0321867D01*
X0407560Y0321742D01*
X0407655Y0321615D01*
X0407746Y0321486D01*
X0407835Y0321355D01*
X0407919Y0321221D01*
X0408001Y0321085D01*
X0408079Y0320948D01*
X0408153Y0320808D01*
X0408224Y0320666D01*
X0408292Y0320523D01*
X0408356Y0320378D01*
X0408416Y0320232D01*
X0408472Y0320084D01*
X0408525Y0319935D01*
X0408574Y0319784D01*
X0408619Y0319632D01*
X0408660Y0319479D01*
X0408698Y0319326D01*
X0408731Y0319171D01*
X0408761Y0319015D01*
X0408787Y0318859D01*
X0408808Y0318702D01*
X0408826Y0318545D01*
X0408840Y0318387D01*
X0408850Y0318229D01*
X0408856Y0318071D01*
X0408858Y0317913D01*
X0408856Y0317755D01*
X0408850Y0317597D01*
X0408840Y0317439D01*
X0408826Y0317281D01*
X0408808Y0317124D01*
X0408787Y0316967D01*
X0408761Y0316811D01*
X0408731Y0316655D01*
X0408698Y0316500D01*
X0408660Y0316347D01*
X0408619Y0316194D01*
X0408574Y0316042D01*
X0408525Y0315891D01*
X0408472Y0315742D01*
X0408416Y0315594D01*
X0408356Y0315448D01*
X0408292Y0315303D01*
X0408224Y0315160D01*
X0408153Y0315018D01*
X0408079Y0314878D01*
X0408001Y0314741D01*
X0407919Y0314605D01*
X0407835Y0314471D01*
X0407746Y0314340D01*
X0407655Y0314211D01*
X0407560Y0314084D01*
X0407463Y0313959D01*
X0407362Y0313837D01*
X0407258Y0313718D01*
X0407151Y0313601D01*
X0407041Y0313487D01*
X0406928Y0313376D01*
X0406813Y0313267D01*
X0406695Y0313162D01*
X0406574Y0313060D01*
X0406451Y0312960D01*
X0406325Y0312864D01*
X0406197Y0312771D01*
X0406067Y0312681D01*
X0405934Y0312595D01*
X0405799Y0312511D01*
X0405663Y0312432D01*
X0405524Y0312355D01*
X0405383Y0312283D01*
X0405241Y0312213D01*
X0405097Y0312148D01*
X0404951Y0312086D01*
X0404804Y0312028D01*
X0404655Y0311973D01*
X0404505Y0311922D01*
X0404354Y0311875D01*
X0404202Y0311832D01*
X0404049Y0311793D01*
X0403894Y0311757D01*
X0403739Y0311726D01*
X0403583Y0311698D01*
X0403427Y0311674D01*
X0403270Y0311654D01*
X0403112Y0311638D01*
X0402955Y0311626D01*
X0402796Y0311618D01*
X0402638Y0311614D01*
X0402480Y0311614D01*
X0402322Y0311618D01*
X0402163Y0311626D01*
X0402006Y0311638D01*
X0401848Y0311654D01*
X0401691Y0311674D01*
X0401535Y0311698D01*
X0401379Y0311726D01*
X0401224Y0311757D01*
X0401069Y0311793D01*
X0400916Y0311832D01*
X0400764Y0311875D01*
X0400613Y0311922D01*
X0400463Y0311973D01*
X0400314Y0312028D01*
X0400167Y0312086D01*
X0400021Y0312148D01*
X0399877Y0312213D01*
X0399735Y0312283D01*
X0399594Y0312355D01*
X0399455Y0312432D01*
X0399319Y0312511D01*
X0399184Y0312595D01*
X0399051Y0312681D01*
X0398921Y0312771D01*
X0398793Y0312864D01*
X0398667Y0312960D01*
X0398544Y0313060D01*
X0398423Y0313162D01*
X0398305Y0313267D01*
X0398190Y0313376D01*
X0398077Y0313487D01*
X0397967Y0313601D01*
X0397860Y0313718D01*
X0397756Y0313837D01*
X0397655Y0313959D01*
X0397558Y0314084D01*
X0397463Y0314211D01*
X0397372Y0314340D01*
X0397283Y0314471D01*
X0397199Y0314605D01*
X0397117Y0314741D01*
X0397039Y0314878D01*
X0396965Y0315018D01*
X0396894Y0315160D01*
X0396826Y0315303D01*
X0396762Y0315448D01*
X0396702Y0315594D01*
X0396646Y0315742D01*
X0396593Y0315891D01*
X0396544Y0316042D01*
X0396499Y0316194D01*
X0396458Y0316347D01*
X0396420Y0316500D01*
X0396387Y0316655D01*
X0396357Y0316811D01*
X0396331Y0316967D01*
X0396310Y0317124D01*
X0396292Y0317281D01*
X0396278Y0317439D01*
X0396268Y0317597D01*
X0396262Y0317755D01*
X0396260Y0317913D01*
D11*
X0020669Y0019685D02*
X0000984Y0019685D01*
X0000984Y0312008D01*
X0020669Y0312008D01*
X0020669Y0330709D01*
X0414370Y0330709D01*
X0414370Y0312008D01*
X0433071Y0312008D01*
X0433071Y0019685D01*
X0414370Y0019685D01*
X0414370Y0000984D01*
X0020669Y0000984D01*
X0020669Y0019685D01*
X0047768Y0152035D02*
X0066536Y0152035D01*
X0047768Y0152035D02*
X0047244Y0152559D01*
X0038071Y0181811D02*
X0041299Y0185039D01*
X0074803Y0185039D01*
X0091535Y0185039D01*
X0090551Y0235236D02*
X0056102Y0235236D01*
X0047244Y0235236D01*
X0055500Y0234634D02*
X0055500Y0227795D01*
X0055500Y0234634D02*
X0056102Y0235236D01*
X0090551Y0235236D02*
X0154528Y0235236D01*
X0154528Y0226378D01*
X0154291Y0226142D01*
X0154528Y0235236D02*
X0218268Y0235236D01*
X0224646Y0228858D01*
X0227362Y0226142D01*
X0240906Y0226142D01*
X0240709Y0212795D02*
X0227362Y0226142D01*
X0224646Y0228858D02*
X0224646Y0243110D01*
X0240709Y0212795D02*
X0247087Y0212795D01*
X0258071Y0201811D01*
X0264000Y0193898D02*
X0248000Y0193898D01*
X0240157Y0193898D01*
X0241535Y0192520D01*
X0241535Y0185039D01*
X0240157Y0193898D02*
X0238071Y0195984D01*
X0238071Y0201811D01*
X0254097Y0180118D02*
X0346457Y0180118D01*
X0366142Y0193898D02*
X0282800Y0193898D01*
X0264000Y0193898D01*
X0254097Y0180118D02*
X0253386Y0179407D01*
X0249016Y0175197D02*
X0240157Y0166339D01*
X0227235Y0166339D01*
X0249016Y0175197D02*
X0374016Y0175197D01*
X0375000Y0174213D01*
X0366142Y0193898D02*
X0368110Y0195866D01*
X0345677Y0218299D01*
X0345677Y0229107D01*
X0345677Y0233063D01*
X0340551Y0238189D01*
X0282953Y0238189D01*
X0270906Y0226142D01*
X0323543Y0093268D02*
X0335709Y0093268D01*
X0337362Y0094921D01*
D12*
X0334071Y0014684D02*
X0334071Y0008938D01*
X0324071Y0008938D02*
X0324071Y0014684D01*
X0314071Y0014684D02*
X0314071Y0008938D01*
X0304071Y0008938D02*
X0304071Y0014684D01*
X0294071Y0014684D02*
X0294071Y0008938D01*
X0284071Y0008938D02*
X0284071Y0014684D01*
X0274071Y0014684D02*
X0274071Y0008938D01*
X0264071Y0008938D02*
X0264071Y0014684D01*
X0254071Y0014684D02*
X0254071Y0008938D01*
X0244071Y0008938D02*
X0244071Y0014684D01*
X0228071Y0014684D02*
X0228071Y0008938D01*
X0218071Y0008938D02*
X0218071Y0014684D01*
X0208071Y0014684D02*
X0208071Y0008938D01*
X0198071Y0008938D02*
X0198071Y0014684D01*
X0188071Y0014684D02*
X0188071Y0008938D01*
X0178071Y0008938D02*
X0178071Y0014684D01*
X0168071Y0014684D02*
X0168071Y0008938D01*
X0158071Y0008938D02*
X0158071Y0014684D01*
X0138071Y0014684D02*
X0138071Y0008938D01*
X0128071Y0008938D02*
X0128071Y0014684D01*
X0118071Y0014684D02*
X0118071Y0008938D01*
X0108071Y0008938D02*
X0108071Y0014684D01*
X0098071Y0014684D02*
X0098071Y0008938D01*
X0088071Y0008938D02*
X0088071Y0014684D01*
X0078071Y0014684D02*
X0078071Y0008938D01*
X0068071Y0008938D02*
X0068071Y0014684D01*
X0138071Y0198938D02*
X0138071Y0204684D01*
X0148071Y0204684D02*
X0148071Y0198938D01*
X0158071Y0198938D02*
X0158071Y0204684D01*
X0168071Y0204684D02*
X0168071Y0198938D01*
X0178071Y0198938D02*
X0178071Y0204684D01*
X0188071Y0204684D02*
X0188071Y0198938D01*
X0198071Y0198938D02*
X0198071Y0204684D01*
X0208071Y0204684D02*
X0208071Y0198938D01*
X0228071Y0198938D02*
X0228071Y0204684D01*
X0238071Y0204684D02*
X0238071Y0198938D01*
X0248071Y0198938D02*
X0248071Y0204684D01*
X0258071Y0204684D02*
X0258071Y0198938D01*
X0268071Y0198938D02*
X0268071Y0204684D01*
X0278071Y0204684D02*
X0278071Y0198938D01*
X0288071Y0198938D02*
X0288071Y0204684D01*
X0298071Y0204684D02*
X0298071Y0198938D01*
D13*
X0038071Y0181811D03*
X0038071Y0171811D03*
X0028071Y0171811D03*
X0028071Y0181811D03*
X0028071Y0161811D03*
X0038071Y0161811D03*
X0038071Y0151811D03*
X0038071Y0141811D03*
X0038071Y0131811D03*
X0038071Y0121811D03*
X0028071Y0121811D03*
X0028071Y0131811D03*
X0028071Y0141811D03*
X0028071Y0151811D03*
X0028071Y0111811D03*
X0038071Y0111811D03*
X0038071Y0101811D03*
X0038071Y0091811D03*
X0038071Y0081811D03*
X0038071Y0071811D03*
X0028071Y0071811D03*
X0028071Y0081811D03*
X0028071Y0091811D03*
X0028071Y0101811D03*
X0028071Y0061811D03*
X0038071Y0061811D03*
X0038071Y0051811D03*
X0038071Y0041811D03*
X0038071Y0031811D03*
X0028071Y0031811D03*
X0028071Y0041811D03*
X0028071Y0051811D03*
X0028071Y0021811D03*
X0038071Y0021811D03*
X0038071Y0011811D03*
X0028071Y0011811D03*
D14*
G36*
X0070134Y0095447D02*
X0070157Y0088648D01*
X0063358Y0088625D01*
X0063335Y0095424D01*
X0070134Y0095447D01*
G37*
D15*
X0076746Y0092071D03*
X0086746Y0092106D03*
X0096746Y0092141D03*
X0106746Y0092175D03*
X0116745Y0092210D03*
X0126745Y0092245D03*
X0136745Y0092280D03*
X0146745Y0092315D03*
X0156745Y0092350D03*
X0166745Y0092385D03*
X0176745Y0092420D03*
X0186745Y0092455D03*
X0196745Y0092490D03*
X0206745Y0092525D03*
X0216745Y0092559D03*
X0216535Y0152559D03*
X0206535Y0152524D03*
X0196536Y0152489D03*
X0186536Y0152454D03*
X0176536Y0152419D03*
X0166536Y0152385D03*
X0156536Y0152350D03*
X0146536Y0152315D03*
X0136536Y0152280D03*
X0126536Y0152245D03*
X0116536Y0152210D03*
X0106536Y0152175D03*
X0096536Y0152140D03*
X0086536Y0152105D03*
X0076536Y0152070D03*
X0066536Y0152035D03*
D16*
X0068509Y0257874D02*
X0062909Y0257874D01*
X0092909Y0257874D02*
X0098509Y0257874D01*
X0154291Y0256142D02*
X0154291Y0261742D01*
X0164291Y0261742D02*
X0164291Y0256142D01*
X0174291Y0256142D02*
X0174291Y0261742D01*
X0184291Y0261742D02*
X0184291Y0256142D01*
X0193004Y0258847D02*
X0198604Y0258847D01*
X0223004Y0258847D02*
X0228604Y0258847D01*
X0240906Y0256142D02*
X0240906Y0261742D01*
X0250906Y0261742D02*
X0250906Y0256142D01*
X0260906Y0256142D02*
X0260906Y0261742D01*
X0270906Y0261742D02*
X0270906Y0256142D01*
X0270906Y0226142D02*
X0270906Y0220542D01*
X0260906Y0220542D02*
X0260906Y0226142D01*
X0250906Y0226142D02*
X0250906Y0220542D01*
X0240906Y0220542D02*
X0240906Y0226142D01*
X0253386Y0170359D02*
X0253386Y0164759D01*
X0263386Y0164759D02*
X0263386Y0170359D01*
X0273386Y0170359D02*
X0273386Y0164759D01*
X0283386Y0164759D02*
X0283386Y0170359D01*
X0293386Y0170359D02*
X0293386Y0164759D01*
X0303386Y0164759D02*
X0303386Y0170359D01*
X0313386Y0170359D02*
X0313386Y0164759D01*
X0323386Y0164759D02*
X0323386Y0170359D01*
X0334562Y0164921D02*
X0340162Y0164921D01*
X0340162Y0154921D02*
X0334562Y0154921D01*
X0334562Y0144921D02*
X0340162Y0144921D01*
X0340162Y0134921D02*
X0334562Y0134921D01*
X0334562Y0124921D02*
X0340162Y0124921D01*
X0340162Y0114921D02*
X0334562Y0114921D01*
X0334562Y0104921D02*
X0340162Y0104921D01*
X0340162Y0094921D02*
X0334562Y0094921D01*
X0323543Y0096068D02*
X0323543Y0090468D01*
X0313543Y0090468D02*
X0313543Y0096068D01*
X0303543Y0096068D02*
X0303543Y0090468D01*
X0293543Y0090468D02*
X0293543Y0096068D01*
X0283543Y0096068D02*
X0283543Y0090468D01*
X0273543Y0090468D02*
X0273543Y0096068D01*
X0263543Y0096068D02*
X0263543Y0090468D01*
X0253543Y0090468D02*
X0253543Y0096068D01*
X0243543Y0096068D02*
X0243543Y0090468D01*
X0233543Y0090468D02*
X0233543Y0096068D01*
X0233543Y0120468D02*
X0233543Y0126068D01*
X0243543Y0126068D02*
X0243543Y0120468D01*
X0253543Y0120468D02*
X0253543Y0126068D01*
X0253386Y0134759D02*
X0253386Y0140359D01*
X0263386Y0140359D02*
X0263386Y0134759D01*
X0263543Y0126068D02*
X0263543Y0120468D01*
X0273543Y0120468D02*
X0273543Y0126068D01*
X0273386Y0134759D02*
X0273386Y0140359D01*
X0283386Y0140359D02*
X0283386Y0134759D01*
X0283543Y0126068D02*
X0283543Y0120468D01*
X0293543Y0120468D02*
X0293543Y0126068D01*
X0293386Y0134759D02*
X0293386Y0140359D01*
X0303386Y0140359D02*
X0303386Y0134759D01*
X0303543Y0126068D02*
X0303543Y0120468D01*
X0313543Y0120468D02*
X0313543Y0126068D01*
X0313386Y0134759D02*
X0313386Y0140359D01*
X0323386Y0140359D02*
X0323386Y0134759D01*
X0323543Y0126068D02*
X0323543Y0120468D01*
X0364562Y0124921D02*
X0370162Y0124921D01*
X0370162Y0114921D02*
X0364562Y0114921D01*
X0364562Y0104921D02*
X0370162Y0104921D01*
X0370162Y0094921D02*
X0364562Y0094921D01*
X0364562Y0134921D02*
X0370162Y0134921D01*
X0370162Y0144921D02*
X0364562Y0144921D01*
X0364562Y0154921D02*
X0370162Y0154921D01*
X0370162Y0164921D02*
X0364562Y0164921D01*
X0184291Y0220542D02*
X0184291Y0226142D01*
X0174291Y0226142D02*
X0174291Y0220542D01*
X0164291Y0220542D02*
X0164291Y0226142D01*
X0154291Y0226142D02*
X0154291Y0220542D01*
D17*
X0151535Y0188239D02*
X0151535Y0181839D01*
X0141535Y0181839D02*
X0141535Y0188239D01*
X0131535Y0188239D02*
X0131535Y0181839D01*
X0121535Y0181839D02*
X0121535Y0188239D01*
X0111535Y0188239D02*
X0111535Y0181839D01*
X0101535Y0181839D02*
X0101535Y0188239D01*
X0091535Y0188239D02*
X0091535Y0181839D01*
X0161535Y0181839D02*
X0161535Y0188239D01*
X0171535Y0188239D02*
X0171535Y0181839D01*
X0181535Y0181839D02*
X0181535Y0188239D01*
X0191535Y0188239D02*
X0191535Y0181839D01*
X0201535Y0181839D02*
X0201535Y0188239D01*
X0211535Y0188239D02*
X0211535Y0181839D01*
X0221535Y0181839D02*
X0221535Y0188239D01*
X0231535Y0188239D02*
X0231535Y0181839D01*
X0241535Y0181839D02*
X0241535Y0188239D01*
X0325677Y0225907D02*
X0325677Y0232307D01*
X0335677Y0232307D02*
X0335677Y0225907D01*
X0345677Y0225907D02*
X0345677Y0232307D01*
X0338877Y0249107D02*
X0332477Y0249107D01*
X0241535Y0304871D02*
X0241535Y0311271D01*
X0231535Y0311271D02*
X0231535Y0304871D01*
X0221535Y0304871D02*
X0221535Y0311271D01*
X0211535Y0311271D02*
X0211535Y0304871D01*
X0201535Y0304871D02*
X0201535Y0311271D01*
X0191535Y0311271D02*
X0191535Y0304871D01*
X0181535Y0304871D02*
X0181535Y0311271D01*
X0171535Y0311271D02*
X0171535Y0304871D01*
X0161535Y0304871D02*
X0161535Y0311271D01*
X0151535Y0311271D02*
X0151535Y0304871D01*
X0141535Y0304871D02*
X0141535Y0311271D01*
X0131535Y0311271D02*
X0131535Y0304871D01*
X0121535Y0304871D02*
X0121535Y0311271D01*
X0111535Y0311271D02*
X0111535Y0304871D01*
X0101535Y0304871D02*
X0101535Y0311271D01*
X0091535Y0311271D02*
X0091535Y0304871D01*
D18*
X0085630Y0082677D03*
X0075787Y0082677D03*
X0065945Y0082677D03*
X0065945Y0025591D03*
X0085630Y0025591D03*
X0158465Y0025591D03*
X0178150Y0025591D03*
X0178150Y0082677D03*
X0168307Y0082677D03*
X0158465Y0082677D03*
X0250984Y0082677D03*
X0260827Y0082677D03*
X0270669Y0082677D03*
X0270669Y0025591D03*
X0250984Y0025591D03*
X0343504Y0025591D03*
X0363189Y0025591D03*
X0363189Y0082677D03*
X0353346Y0082677D03*
X0343504Y0082677D03*
D19*
X0330315Y0053150D03*
X0283858Y0053150D03*
X0237795Y0053150D03*
X0191339Y0053150D03*
X0145276Y0053150D03*
X0098819Y0053150D03*
X0052756Y0053150D03*
X0376378Y0053150D03*
D20*
X0385827Y0084567D03*
X0385827Y0094567D03*
X0385827Y0106220D03*
X0385827Y0116220D03*
X0385827Y0133780D03*
X0385827Y0143780D03*
X0385827Y0154449D03*
X0385827Y0164449D03*
X0385827Y0242047D03*
X0385827Y0252047D03*
X0421260Y0252047D03*
X0421260Y0242047D03*
X0303159Y0255368D03*
X0292963Y0255368D03*
X0282081Y0255457D03*
X0282081Y0225457D03*
X0270709Y0212795D03*
X0292963Y0225368D03*
X0303159Y0225368D03*
X0273701Y0186024D03*
X0263701Y0186024D03*
X0240709Y0212795D03*
X0224646Y0243110D03*
X0194646Y0243110D03*
X0184291Y0212598D03*
X0154291Y0212598D03*
X0142717Y0225157D03*
X0126220Y0246063D03*
X0142717Y0255157D03*
X0096220Y0246063D03*
X0048228Y0243031D03*
X0048228Y0253031D03*
X0012795Y0253031D03*
X0012795Y0243031D03*
X0062913Y0165354D03*
X0072913Y0165354D03*
X0082598Y0165354D03*
X0092598Y0165354D03*
X0101299Y0165354D03*
X0111299Y0165354D03*
X0120000Y0165354D03*
X0130000Y0165354D03*
X0139685Y0165354D03*
X0149685Y0165354D03*
X0159370Y0165354D03*
X0169370Y0165354D03*
X0179055Y0165354D03*
X0189055Y0165354D03*
X0232205Y0140748D03*
X0242205Y0140748D03*
X0230551Y0076772D03*
X0200551Y0076772D03*
X0210551Y0028543D03*
X0220551Y0028543D03*
X0300790Y0028813D03*
X0310790Y0028813D03*
X0311102Y0073819D03*
X0301102Y0073819D03*
X0385827Y0019764D03*
X0385827Y0009764D03*
X0137047Y0076772D03*
X0107047Y0076772D03*
X0051181Y0106220D03*
X0051181Y0116220D03*
D21*
X0402559Y0095472D03*
X0415354Y0095472D03*
D22*
X0415354Y0105472D03*
X0415354Y0115472D03*
X0415354Y0125472D03*
X0415354Y0135472D03*
X0415354Y0145472D03*
X0415354Y0155472D03*
X0415354Y0165472D03*
X0415354Y0175472D03*
X0402559Y0175472D03*
X0402559Y0165472D03*
X0402559Y0155472D03*
X0402559Y0145472D03*
X0402559Y0135472D03*
X0402559Y0125472D03*
X0402559Y0115472D03*
X0402559Y0105472D03*
D23*
X0396417Y0190630D03*
X0426417Y0190630D03*
X0426417Y0230630D03*
X0426417Y0265433D03*
X0396417Y0265433D03*
X0396417Y0230630D03*
X0396417Y0305433D03*
X0426417Y0305433D03*
X0037638Y0305433D03*
X0007638Y0305433D03*
X0007638Y0265433D03*
X0007638Y0230630D03*
X0037638Y0230630D03*
X0037638Y0265433D03*
X0037638Y0190630D03*
X0007638Y0190630D03*
D24*
X0363012Y0275394D02*
X0370886Y0275394D01*
X0386634Y0283268D02*
X0386634Y0291142D01*
X0370886Y0300197D02*
X0363012Y0300197D01*
D25*
X0125500Y0227795D03*
X0115500Y0227795D03*
X0105500Y0227795D03*
X0095500Y0227795D03*
X0085500Y0227795D03*
X0075500Y0227795D03*
X0065500Y0227795D03*
X0055500Y0227795D03*
D26*
X0059232Y0271575D03*
X0049626Y0281181D03*
X0099232Y0271575D03*
X0109232Y0281181D03*
X0129843Y0281181D03*
X0139449Y0271575D03*
X0179449Y0271575D03*
X0189449Y0281181D03*
X0210059Y0281181D03*
X0219665Y0271575D03*
X0259665Y0271575D03*
X0269665Y0281181D03*
X0290276Y0281181D03*
X0299882Y0271575D03*
X0339882Y0271575D03*
X0349882Y0281181D03*
D27*
X0319882Y0284687D02*
X0319882Y0276887D01*
X0239665Y0276887D02*
X0239665Y0284687D01*
X0159449Y0284687D02*
X0159449Y0276887D01*
X0079232Y0276887D02*
X0079232Y0284687D01*
D28*
X0205835Y0166339D03*
X0216535Y0166339D03*
X0227235Y0166339D03*
D29*
X0253386Y0179407D03*
X0346457Y0180118D03*
X0368110Y0195866D03*
X0090551Y0235236D03*
X0074803Y0185039D03*
X0047244Y0152559D03*
X0047244Y0235236D03*
D30*
X0043600Y0236584D02*
X0046000Y0238984D01*
X0065600Y0238984D01*
X0080400Y0253784D01*
X0083600Y0253784D01*
X0092000Y0245384D01*
X0092000Y0244584D01*
X0094800Y0241784D01*
X0154000Y0241784D01*
X0159600Y0247384D01*
X0235200Y0247384D01*
X0252400Y0230184D01*
X0256800Y0230184D01*
X0260800Y0226184D01*
X0260906Y0226142D01*
X0261200Y0225784D01*
X0261200Y0224584D01*
X0270400Y0215384D01*
X0270400Y0212984D01*
X0270709Y0212795D01*
X0259200Y0190184D02*
X0243200Y0174184D01*
X0206400Y0174184D01*
X0197600Y0165384D01*
X0189200Y0165384D01*
X0189055Y0165354D01*
X0184800Y0165384D02*
X0184800Y0163784D01*
X0196400Y0152184D01*
X0196536Y0152489D01*
X0201200Y0153784D02*
X0201200Y0150584D01*
X0198400Y0147784D01*
X0194400Y0147784D01*
X0191200Y0150984D01*
X0191200Y0154584D01*
X0184800Y0160984D01*
X0168000Y0160984D01*
X0163600Y0165384D01*
X0163600Y0173384D01*
X0156000Y0179784D02*
X0141200Y0164984D01*
X0140400Y0164984D01*
X0139685Y0165354D01*
X0140000Y0164984D01*
X0140000Y0155384D01*
X0141200Y0154184D01*
X0141200Y0150184D01*
X0136800Y0145784D01*
X0128000Y0145784D01*
X0120000Y0137784D01*
X0102400Y0137784D01*
X0098400Y0133784D01*
X0098400Y0117384D01*
X0122000Y0093784D01*
X0122000Y0090184D01*
X0126400Y0085784D01*
X0147200Y0085784D01*
X0154800Y0078184D01*
X0173600Y0078184D01*
X0178000Y0082584D01*
X0178150Y0082677D01*
X0182800Y0086184D02*
X0182800Y0078984D01*
X0181600Y0077784D01*
X0181600Y0061384D01*
X0173600Y0053384D01*
X0164000Y0053384D01*
X0154400Y0062984D01*
X0144800Y0062984D01*
X0126800Y0080984D01*
X0102000Y0080984D01*
X0092400Y0071384D01*
X0054800Y0071384D01*
X0058400Y0067784D02*
X0100800Y0067784D01*
X0104400Y0064584D02*
X0045600Y0064584D01*
X0043200Y0062184D01*
X0043200Y0060184D01*
X0038400Y0055384D01*
X0038400Y0052184D01*
X0038071Y0051811D01*
X0039600Y0046984D02*
X0036400Y0046984D01*
X0032800Y0050584D01*
X0032800Y0053784D01*
X0029600Y0056984D01*
X0026400Y0056984D01*
X0009600Y0073784D01*
X0009600Y0179784D01*
X0043600Y0213784D01*
X0043600Y0236584D01*
X0042000Y0242584D02*
X0048400Y0248984D01*
X0050000Y0248984D01*
X0053600Y0252584D01*
X0053600Y0273784D01*
X0070000Y0290184D01*
X0161200Y0290184D01*
X0170000Y0281384D01*
X0170000Y0266584D01*
X0174000Y0257784D02*
X0160000Y0271784D01*
X0147200Y0271784D01*
X0141600Y0277384D01*
X0134000Y0277384D01*
X0132000Y0275384D01*
X0103600Y0275384D01*
X0101600Y0277384D01*
X0087200Y0277384D01*
X0081600Y0271784D01*
X0066000Y0271784D01*
X0066000Y0258184D01*
X0065709Y0257874D01*
X0066000Y0271784D02*
X0059600Y0271784D01*
X0059232Y0271575D01*
X0044000Y0267384D02*
X0086800Y0310184D01*
X0086800Y0312984D01*
X0102000Y0328184D01*
X0325600Y0328184D01*
X0383200Y0270584D01*
X0383200Y0264584D01*
X0385827Y0242047D02*
X0386000Y0241784D01*
X0396800Y0230984D01*
X0396417Y0230630D01*
X0421260Y0252047D02*
X0421600Y0252184D01*
X0421600Y0260584D01*
X0426400Y0265384D01*
X0426417Y0265433D01*
X0426400Y0265784D01*
X0426400Y0305384D01*
X0426417Y0305433D01*
X0356800Y0240584D02*
X0246800Y0240584D01*
X0246800Y0251784D02*
X0250800Y0255784D01*
X0250906Y0256142D01*
X0246800Y0251784D02*
X0239600Y0251784D01*
X0232800Y0258584D01*
X0226000Y0258584D01*
X0225804Y0258847D01*
X0233600Y0253784D02*
X0208000Y0253784D01*
X0207200Y0258984D02*
X0219600Y0271384D01*
X0219665Y0271575D01*
X0220000Y0271384D01*
X0247200Y0271384D01*
X0260800Y0257784D01*
X0260800Y0256184D01*
X0260906Y0256142D01*
X0260000Y0271384D02*
X0259665Y0271575D01*
X0260000Y0271384D02*
X0267200Y0271384D01*
X0282000Y0256584D01*
X0282000Y0255784D01*
X0282081Y0255457D01*
X0292963Y0255368D02*
X0293200Y0255384D01*
X0293200Y0264984D01*
X0299600Y0271384D01*
X0299882Y0271575D01*
X0307600Y0271784D02*
X0281600Y0297784D01*
X0142000Y0297784D01*
X0136000Y0303784D01*
X0136000Y0313384D01*
X0133600Y0315784D01*
X0099600Y0315784D01*
X0096000Y0312184D01*
X0096000Y0302984D01*
X0086400Y0293384D01*
X0085200Y0293384D01*
X0099232Y0271575D02*
X0099600Y0271384D01*
X0102800Y0268184D01*
X0102800Y0256184D01*
X0096400Y0249784D01*
X0096400Y0246184D01*
X0096220Y0246063D01*
X0095200Y0238984D02*
X0156000Y0238984D01*
X0160000Y0230984D02*
X0160000Y0212584D01*
X0156000Y0208584D01*
X0150000Y0208584D01*
X0149600Y0208984D01*
X0091200Y0208984D01*
X0071200Y0188984D01*
X0043600Y0188984D01*
X0034400Y0196584D02*
X0076400Y0196584D01*
X0102800Y0222984D01*
X0110400Y0222984D01*
X0115200Y0227784D01*
X0115500Y0227795D01*
X0105500Y0227795D02*
X0105200Y0227784D01*
X0077200Y0199784D01*
X0071600Y0199784D01*
X0071600Y0204584D02*
X0079200Y0204584D01*
X0100400Y0225784D01*
X0100400Y0229384D01*
X0103600Y0232584D01*
X0127600Y0232584D01*
X0134800Y0225384D01*
X0142400Y0225384D01*
X0142717Y0225157D01*
X0154291Y0226142D02*
X0154400Y0225384D01*
X0154400Y0212984D01*
X0154291Y0212598D01*
X0162400Y0204984D02*
X0162400Y0195384D01*
X0156000Y0188984D01*
X0156000Y0179784D01*
X0172400Y0193784D02*
X0176800Y0189384D01*
X0176800Y0173384D01*
X0184800Y0165384D01*
X0181600Y0157384D02*
X0174800Y0157384D01*
X0171600Y0154184D01*
X0171600Y0150584D01*
X0173400Y0148784D01*
X0157200Y0132584D01*
X0155600Y0129384D02*
X0212800Y0129384D01*
X0226800Y0115384D01*
X0236400Y0115384D01*
X0243543Y0123268D02*
X0243600Y0123384D01*
X0243600Y0136184D01*
X0246400Y0138984D01*
X0246400Y0142584D01*
X0240400Y0148584D01*
X0219200Y0148584D01*
X0216800Y0146184D01*
X0182800Y0146184D01*
X0176800Y0152184D01*
X0176536Y0152419D01*
X0173400Y0148784D02*
X0177600Y0144584D01*
X0183200Y0144584D01*
X0193600Y0134184D01*
X0200800Y0134184D01*
X0199200Y0130984D02*
X0216000Y0130984D01*
X0216000Y0142984D01*
X0216800Y0152184D02*
X0216535Y0152559D01*
X0216800Y0152184D02*
X0247600Y0152184D01*
X0257600Y0142184D01*
X0257600Y0134584D01*
X0261600Y0130584D01*
X0274800Y0130584D01*
X0282000Y0123384D01*
X0283200Y0123384D01*
X0283543Y0123268D01*
X0281600Y0130584D02*
X0277600Y0134584D01*
X0277600Y0142184D01*
X0259200Y0160584D01*
X0209600Y0160584D01*
X0204800Y0157384D02*
X0201200Y0153784D01*
X0204800Y0157384D02*
X0252400Y0157384D01*
X0272000Y0137784D01*
X0273200Y0137784D01*
X0273386Y0137559D01*
X0281600Y0130584D02*
X0341600Y0130584D01*
X0351600Y0140584D01*
X0372000Y0140584D01*
X0383000Y0151584D01*
X0384400Y0150184D01*
X0385200Y0150184D01*
X0390000Y0145384D01*
X0390000Y0132184D01*
X0387200Y0129384D01*
X0386000Y0129384D01*
X0377200Y0120584D01*
X0364400Y0120584D01*
X0358800Y0114984D01*
X0337600Y0114984D01*
X0337362Y0114921D01*
X0333200Y0110584D02*
X0374400Y0110584D01*
X0380000Y0116184D01*
X0379600Y0120584D02*
X0390000Y0120584D01*
X0390000Y0104584D01*
X0384400Y0098984D01*
X0357600Y0098984D01*
X0347600Y0088984D01*
X0336800Y0088984D01*
X0314400Y0066584D01*
X0266800Y0066584D01*
X0265600Y0062984D02*
X0258800Y0056184D01*
X0258000Y0047384D02*
X0265200Y0040184D01*
X0268400Y0041784D02*
X0268400Y0038584D01*
X0266000Y0036184D01*
X0253200Y0036184D01*
X0234800Y0017784D01*
X0243200Y0028584D02*
X0254000Y0039384D01*
X0256400Y0039384D01*
X0256400Y0044184D02*
X0252000Y0044184D01*
X0249600Y0041784D01*
X0228400Y0041784D01*
X0210000Y0060184D01*
X0210000Y0080584D01*
X0206000Y0084584D01*
X0196400Y0084584D01*
X0196400Y0074984D01*
X0202000Y0069384D01*
X0202000Y0040584D01*
X0198400Y0036984D01*
X0181200Y0036984D01*
X0172000Y0027784D01*
X0178400Y0012184D02*
X0178071Y0011811D01*
X0178400Y0012184D02*
X0203600Y0037384D01*
X0203600Y0070184D01*
X0200800Y0072984D01*
X0200800Y0076584D01*
X0200551Y0076772D01*
X0206800Y0078984D02*
X0206800Y0040184D01*
X0196800Y0040184D02*
X0157600Y0040184D01*
X0133600Y0016184D01*
X0133600Y0008584D01*
X0129600Y0004584D01*
X0048000Y0004584D01*
X0043600Y0008984D01*
X0043600Y0012984D01*
X0040000Y0016584D01*
X0026800Y0016584D01*
X0023200Y0020184D01*
X0023200Y0023384D01*
X0026400Y0026584D01*
X0029600Y0026584D01*
X0034800Y0031784D01*
X0038000Y0031784D01*
X0038071Y0031811D01*
X0036800Y0026984D02*
X0032000Y0022184D01*
X0028400Y0022184D01*
X0028071Y0021811D01*
X0036800Y0026984D02*
X0059200Y0026984D01*
X0062400Y0030184D01*
X0098400Y0030184D01*
X0094800Y0038584D02*
X0048000Y0038584D01*
X0039600Y0046984D01*
X0038071Y0061811D02*
X0038400Y0062184D01*
X0040800Y0062184D01*
X0055200Y0076584D01*
X0088400Y0076584D01*
X0091600Y0079784D01*
X0094400Y0082984D02*
X0086000Y0082984D01*
X0085630Y0082677D01*
X0081200Y0079784D02*
X0081200Y0086584D01*
X0086400Y0091784D01*
X0086746Y0092106D01*
X0081600Y0090184D02*
X0078800Y0087384D01*
X0061200Y0087384D01*
X0046000Y0072184D01*
X0038400Y0072184D01*
X0038071Y0071811D01*
X0036800Y0066984D02*
X0043200Y0066984D01*
X0054400Y0078184D01*
X0079600Y0078184D01*
X0081200Y0079784D01*
X0081600Y0090184D02*
X0081600Y0140184D01*
X0071600Y0150184D01*
X0071600Y0153784D01*
X0074800Y0156984D01*
X0101600Y0156984D01*
X0106400Y0152184D01*
X0106536Y0152175D01*
X0110400Y0158584D02*
X0116400Y0152584D01*
X0116536Y0152210D01*
X0121200Y0154184D02*
X0115200Y0160184D01*
X0047600Y0160184D01*
X0039600Y0152184D01*
X0038400Y0152184D01*
X0038071Y0151811D01*
X0036800Y0146984D02*
X0040000Y0146984D01*
X0043600Y0150584D01*
X0043600Y0153784D01*
X0048400Y0158584D01*
X0110400Y0158584D01*
X0121200Y0154184D02*
X0121200Y0146184D01*
X0119600Y0142984D02*
X0117200Y0145384D01*
X0087600Y0145384D01*
X0091600Y0136584D02*
X0076400Y0151784D01*
X0076536Y0152070D01*
X0066536Y0152035D02*
X0064000Y0151384D01*
X0064000Y0121384D01*
X0064000Y0108184D02*
X0062400Y0106584D01*
X0051200Y0106584D01*
X0051181Y0106220D01*
X0050000Y0111384D02*
X0073200Y0111384D01*
X0076400Y0108184D01*
X0076400Y0092184D01*
X0076746Y0092071D01*
X0072800Y0096984D02*
X0062800Y0096984D01*
X0042800Y0076984D01*
X0036800Y0076984D01*
X0032000Y0072184D01*
X0028400Y0072184D01*
X0028071Y0071811D01*
X0036800Y0066984D02*
X0032000Y0062184D01*
X0028400Y0062184D01*
X0028071Y0061811D01*
X0028000Y0045384D02*
X0006400Y0066984D01*
X0006400Y0181384D01*
X0024400Y0199384D01*
X0024400Y0260184D01*
X0035600Y0271384D01*
X0022800Y0263384D02*
X0071200Y0311784D01*
X0083600Y0311784D01*
X0111535Y0308071D02*
X0111600Y0307784D01*
X0124800Y0294584D01*
X0164400Y0294584D01*
X0188400Y0270584D01*
X0188400Y0257784D01*
X0195600Y0250584D01*
X0234400Y0250584D01*
X0236400Y0248584D01*
X0304800Y0248584D01*
X0305200Y0248984D01*
X0335600Y0248984D01*
X0335677Y0249107D01*
X0346000Y0253784D02*
X0307600Y0253784D01*
X0304000Y0250184D01*
X0237200Y0250184D01*
X0233600Y0253784D01*
X0221200Y0280984D02*
X0202800Y0262584D01*
X0207200Y0258984D02*
X0196000Y0258984D01*
X0195804Y0258847D01*
X0201600Y0268584D02*
X0201600Y0281784D01*
X0174000Y0257784D02*
X0174000Y0256184D01*
X0174291Y0256142D01*
X0164291Y0256142D02*
X0164000Y0255784D01*
X0159600Y0255784D01*
X0150000Y0246184D01*
X0126400Y0246184D01*
X0126220Y0246063D01*
X0142400Y0255384D02*
X0142400Y0268584D01*
X0139600Y0271384D01*
X0139449Y0271575D01*
X0142400Y0255384D02*
X0142717Y0255157D01*
X0141200Y0296184D02*
X0243200Y0296184D01*
X0260400Y0278984D01*
X0303159Y0255368D02*
X0303200Y0255384D01*
X0323600Y0255384D01*
X0339600Y0271384D01*
X0339882Y0271575D01*
X0345600Y0273784D02*
X0342000Y0277384D01*
X0327600Y0277384D01*
X0322000Y0271784D01*
X0307600Y0271784D01*
X0325677Y0229107D02*
X0325600Y0228984D01*
X0322000Y0225384D01*
X0303200Y0225384D01*
X0303159Y0225368D01*
X0316800Y0190184D02*
X0323600Y0183384D01*
X0326800Y0183384D01*
X0327200Y0183784D01*
X0332000Y0183784D01*
X0330000Y0186584D02*
X0335200Y0191784D01*
X0387600Y0191784D01*
X0395600Y0189384D02*
X0396417Y0190630D01*
X0396400Y0190584D01*
X0377600Y0171784D01*
X0365600Y0171784D01*
X0362400Y0168584D01*
X0344800Y0168584D01*
X0337362Y0164921D02*
X0337200Y0164584D01*
X0333200Y0160584D01*
X0321600Y0160584D01*
X0314800Y0167384D01*
X0313600Y0167384D01*
X0313386Y0167559D01*
X0317200Y0159784D02*
X0319600Y0157384D01*
X0317200Y0159784D02*
X0292400Y0159784D01*
X0284800Y0167384D01*
X0283600Y0167384D01*
X0283386Y0167559D01*
X0273600Y0167384D02*
X0273600Y0150984D01*
X0278400Y0146184D01*
X0280800Y0148584D02*
X0276800Y0152584D01*
X0280800Y0148584D02*
X0300000Y0148584D01*
X0301600Y0145384D02*
X0292400Y0145384D01*
X0284800Y0137784D01*
X0283600Y0137784D01*
X0283386Y0137559D01*
X0301600Y0145384D02*
X0309200Y0152984D01*
X0309200Y0156584D01*
X0326000Y0158984D02*
X0304800Y0137784D01*
X0303600Y0137784D01*
X0303386Y0137559D01*
X0298400Y0109384D02*
X0183600Y0109384D01*
X0179200Y0113784D01*
X0148000Y0113784D01*
X0126800Y0092584D01*
X0126745Y0092245D01*
X0124800Y0084184D02*
X0116800Y0092184D01*
X0116745Y0092210D01*
X0116000Y0082584D02*
X0106800Y0091784D01*
X0106746Y0092175D01*
X0101600Y0090184D02*
X0094400Y0082984D01*
X0091600Y0088184D02*
X0091600Y0136584D01*
X0096800Y0134584D02*
X0096800Y0098984D01*
X0101600Y0094184D01*
X0101600Y0090184D01*
X0116000Y0082584D02*
X0137200Y0082584D01*
X0156000Y0063784D01*
X0172000Y0063784D01*
X0172000Y0056584D02*
X0168800Y0056584D01*
X0164800Y0060584D01*
X0172000Y0070984D02*
X0151200Y0070984D01*
X0138000Y0084184D01*
X0124800Y0084184D01*
X0136800Y0092184D02*
X0136745Y0092280D01*
X0136800Y0092184D02*
X0141600Y0087384D01*
X0148400Y0087384D01*
X0151600Y0090584D01*
X0151600Y0103384D01*
X0158800Y0110584D01*
X0165200Y0110584D01*
X0181600Y0094184D01*
X0181600Y0090984D01*
X0184400Y0088184D01*
X0184400Y0084584D01*
X0198800Y0070184D01*
X0198800Y0067784D01*
X0196400Y0084584D02*
X0194400Y0084584D01*
X0186800Y0092184D01*
X0186745Y0092455D01*
X0192000Y0090584D02*
X0196400Y0086184D01*
X0206800Y0086184D01*
X0219600Y0073384D01*
X0219600Y0052984D01*
X0229200Y0043384D01*
X0248800Y0043384D01*
X0252800Y0047384D01*
X0258000Y0047384D01*
X0268400Y0041784D02*
X0247200Y0062984D01*
X0228400Y0062984D01*
X0226000Y0060584D01*
X0222800Y0060584D01*
X0221200Y0062184D01*
X0221200Y0090184D01*
X0221600Y0090584D01*
X0221600Y0100984D01*
X0220800Y0101784D01*
X0217600Y0101784D01*
X0216000Y0103384D01*
X0207600Y0103384D01*
X0196800Y0092584D01*
X0196745Y0092490D01*
X0192000Y0090584D02*
X0192000Y0094584D01*
X0198400Y0100984D01*
X0206800Y0092584D02*
X0206745Y0092525D01*
X0206800Y0092584D02*
X0214400Y0100184D01*
X0228800Y0080984D02*
X0224400Y0076584D01*
X0224400Y0063784D01*
X0230800Y0076584D02*
X0230551Y0076772D01*
X0230800Y0076584D02*
X0244800Y0076584D01*
X0251600Y0069784D01*
X0315200Y0069784D01*
X0336000Y0090584D01*
X0346800Y0090584D01*
X0356800Y0100584D01*
X0380000Y0100584D01*
X0385600Y0106184D01*
X0385827Y0106220D01*
X0377600Y0108984D02*
X0384800Y0116184D01*
X0385600Y0116184D01*
X0385827Y0116220D01*
X0390000Y0120584D02*
X0391600Y0120584D01*
X0391600Y0146184D01*
X0386000Y0151784D01*
X0386000Y0154184D01*
X0385827Y0154449D01*
X0383000Y0151584D02*
X0381600Y0152984D01*
X0381600Y0156184D01*
X0384000Y0158584D01*
X0399600Y0158584D01*
X0402400Y0155784D01*
X0402559Y0155472D01*
X0392800Y0153384D02*
X0392800Y0147384D01*
X0398000Y0142184D01*
X0398000Y0140584D01*
X0417200Y0140584D01*
X0422400Y0145784D01*
X0422400Y0160984D01*
X0423200Y0161784D01*
X0423200Y0176584D01*
X0346000Y0253784D01*
X0345600Y0263784D02*
X0345600Y0273784D01*
X0345600Y0263784D02*
X0425600Y0183784D01*
X0425600Y0145784D01*
X0425600Y0118984D01*
X0416800Y0110184D01*
X0407200Y0110184D01*
X0402800Y0105784D01*
X0402559Y0105472D01*
X0415200Y0115784D02*
X0410400Y0120584D01*
X0391600Y0120584D01*
X0398000Y0130184D02*
X0402400Y0125784D01*
X0402559Y0125472D01*
X0398000Y0130184D02*
X0398000Y0140584D01*
X0402559Y0145472D02*
X0402800Y0145784D01*
X0409200Y0145784D01*
X0414000Y0150584D01*
X0417200Y0150584D01*
X0420800Y0154184D01*
X0420800Y0161784D01*
X0421600Y0162584D01*
X0421600Y0175784D01*
X0356800Y0240584D01*
X0354400Y0188584D02*
X0352400Y0186584D01*
X0354400Y0188584D02*
X0360000Y0188584D01*
X0350800Y0183384D02*
X0384400Y0183384D01*
X0395600Y0189384D02*
X0407200Y0177784D01*
X0407200Y0176984D01*
X0415200Y0168984D01*
X0415200Y0165784D01*
X0415354Y0165472D01*
X0420000Y0163384D02*
X0416800Y0160184D01*
X0383200Y0160184D01*
X0382000Y0158984D01*
X0326000Y0158984D01*
X0337362Y0134921D02*
X0337600Y0134984D01*
X0343600Y0134984D01*
X0359200Y0150584D01*
X0362800Y0138984D02*
X0382400Y0138984D01*
X0385827Y0133780D02*
X0385600Y0133384D01*
X0377200Y0124984D01*
X0367600Y0124984D01*
X0367362Y0124921D01*
X0367200Y0124584D01*
X0366000Y0124584D01*
X0362000Y0120584D01*
X0334400Y0120584D01*
X0330000Y0116184D01*
X0327200Y0116184D01*
X0330400Y0110984D02*
X0184400Y0110984D01*
X0167600Y0127784D01*
X0110800Y0127784D01*
X0104000Y0134584D01*
X0101600Y0139384D02*
X0096800Y0134584D01*
X0101600Y0139384D02*
X0101600Y0140984D01*
X0101600Y0124584D02*
X0125600Y0124584D01*
X0123200Y0133784D02*
X0151200Y0133784D01*
X0155600Y0129384D01*
X0157200Y0137384D02*
X0165600Y0145784D01*
X0181600Y0157384D02*
X0186400Y0152584D01*
X0186536Y0152454D01*
X0199200Y0142984D02*
X0194400Y0138184D01*
X0197600Y0132584D02*
X0190400Y0132584D01*
X0197600Y0132584D02*
X0199200Y0130984D01*
X0199200Y0142984D02*
X0208000Y0142984D01*
X0212000Y0175784D02*
X0191200Y0175784D01*
X0186800Y0180184D01*
X0186800Y0189384D01*
X0178400Y0197784D01*
X0178400Y0201784D01*
X0178071Y0201811D01*
X0180000Y0208584D02*
X0179600Y0208984D01*
X0166400Y0208984D01*
X0162400Y0204984D01*
X0172400Y0194584D02*
X0172400Y0193784D01*
X0180000Y0208584D02*
X0186000Y0208584D01*
X0188400Y0210984D01*
X0188400Y0220584D01*
X0196800Y0228984D01*
X0200000Y0228984D01*
X0200400Y0228584D01*
X0216000Y0228584D01*
X0198400Y0225784D02*
X0198400Y0202184D01*
X0198071Y0201811D01*
X0198400Y0201784D01*
X0198400Y0188184D01*
X0201200Y0185384D01*
X0201535Y0185039D01*
X0196800Y0189384D02*
X0196800Y0180184D01*
X0199600Y0177384D01*
X0203600Y0177384D01*
X0211200Y0184984D01*
X0211535Y0185039D01*
X0211600Y0185384D01*
X0212800Y0186584D01*
X0212800Y0208584D01*
X0196800Y0189384D02*
X0188400Y0197784D01*
X0188400Y0201784D01*
X0188071Y0201811D01*
X0184291Y0212598D02*
X0184000Y0212984D01*
X0184000Y0214984D01*
X0174400Y0224584D01*
X0174400Y0225784D01*
X0174291Y0226142D01*
X0141535Y0185039D02*
X0141200Y0184984D01*
X0135600Y0179384D01*
X0135600Y0164984D01*
X0131600Y0160984D01*
X0131600Y0150584D01*
X0128400Y0147384D01*
X0127200Y0147384D01*
X0122800Y0142984D01*
X0119600Y0142984D01*
X0127200Y0142584D02*
X0118400Y0133784D01*
X0127200Y0142584D02*
X0129600Y0142584D01*
X0158000Y0112184D02*
X0146800Y0100984D01*
X0146800Y0092584D01*
X0146745Y0092315D01*
X0158465Y0082677D02*
X0158800Y0082984D01*
X0161600Y0085784D01*
X0161600Y0094184D01*
X0161200Y0094584D01*
X0161200Y0100984D01*
X0160400Y0107384D02*
X0171600Y0096184D01*
X0171600Y0090984D01*
X0174800Y0087784D01*
X0181200Y0087784D01*
X0182800Y0086184D01*
X0180000Y0105784D02*
X0289600Y0105784D01*
X0302000Y0093384D01*
X0303200Y0093384D01*
X0303543Y0093268D01*
X0307600Y0097784D02*
X0297600Y0107784D01*
X0182800Y0107784D01*
X0178400Y0112184D01*
X0158000Y0112184D01*
X0118400Y0044584D02*
X0118400Y0012184D01*
X0118071Y0011811D01*
X0108071Y0011811D02*
X0108000Y0012184D01*
X0108000Y0025384D01*
X0094800Y0038584D01*
X0105200Y0041784D02*
X0082000Y0041784D01*
X0045600Y0082184D02*
X0071600Y0108184D01*
X0052400Y0136984D02*
X0060800Y0145384D01*
X0052400Y0136984D02*
X0036800Y0136984D01*
X0032000Y0132184D01*
X0028400Y0132184D01*
X0028071Y0131811D01*
X0023200Y0133384D02*
X0026800Y0136984D01*
X0030000Y0136984D01*
X0033200Y0140184D01*
X0033200Y0143384D01*
X0036800Y0146984D01*
X0039600Y0156584D02*
X0021600Y0156584D01*
X0021200Y0161384D02*
X0026400Y0166584D01*
X0039600Y0166584D01*
X0051200Y0178184D01*
X0052400Y0169384D02*
X0039600Y0156584D01*
X0038071Y0161811D02*
X0038400Y0162184D01*
X0042800Y0162184D01*
X0058000Y0177384D01*
X0093600Y0177384D01*
X0096000Y0179784D01*
X0096000Y0205784D01*
X0080400Y0222984D02*
X0085200Y0227784D01*
X0085500Y0227795D01*
X0080400Y0222984D02*
X0056000Y0222984D01*
X0031200Y0198184D01*
X0031200Y0194984D01*
X0032800Y0193384D01*
X0032800Y0180584D01*
X0038000Y0175384D01*
X0038000Y0172184D01*
X0038071Y0171811D01*
X0052400Y0169384D02*
X0074800Y0169384D01*
X0078800Y0165384D01*
X0082400Y0165384D01*
X0082598Y0165354D01*
X0044800Y0116584D02*
X0050000Y0111384D01*
X0044800Y0116584D02*
X0036800Y0116584D01*
X0031600Y0121784D01*
X0028400Y0121784D01*
X0028071Y0121811D01*
X0023200Y0133384D02*
X0023200Y0100184D01*
X0028000Y0095384D01*
X0028000Y0092184D01*
X0028071Y0091811D01*
X0038400Y0082184D02*
X0038071Y0081811D01*
X0038400Y0082184D02*
X0045600Y0082184D01*
X0028000Y0045384D02*
X0028000Y0042184D01*
X0028071Y0041811D01*
X0028000Y0035384D02*
X0003200Y0060184D01*
X0003200Y0218184D01*
X0022800Y0237784D01*
X0022800Y0263384D01*
X0012400Y0260984D02*
X0008000Y0265384D01*
X0007638Y0265433D01*
X0007600Y0265784D01*
X0007600Y0305384D01*
X0007638Y0305433D01*
X0012400Y0260984D02*
X0012400Y0253384D01*
X0012795Y0253031D01*
X0042000Y0242584D02*
X0042000Y0214584D01*
X0008000Y0180584D01*
X0008000Y0072984D01*
X0009600Y0071384D01*
X0009600Y0068984D01*
X0028000Y0035384D02*
X0028000Y0032184D01*
X0028071Y0031811D01*
X0028071Y0141811D02*
X0028000Y0142184D01*
X0012800Y0157384D01*
X0082000Y0250584D02*
X0083600Y0250584D01*
X0095200Y0238984D01*
X0132000Y0297784D02*
X0139600Y0297784D01*
X0141200Y0296184D01*
X0146800Y0300984D02*
X0146800Y0312584D01*
X0134400Y0324984D01*
X0221200Y0184984D02*
X0221535Y0185039D01*
X0221200Y0184984D02*
X0212000Y0175784D01*
X0264400Y0102584D02*
X0287600Y0102584D01*
X0285200Y0100184D02*
X0282000Y0100184D01*
X0279200Y0097384D01*
X0279200Y0088984D01*
X0285200Y0082984D01*
X0297600Y0082984D01*
X0301200Y0079784D02*
X0291200Y0079784D01*
X0289600Y0078184D01*
X0266800Y0078184D01*
X0266000Y0078984D01*
X0266000Y0085784D01*
X0263600Y0088184D01*
X0263600Y0092984D01*
X0263543Y0093268D01*
X0259200Y0090184D02*
X0259200Y0097384D01*
X0264400Y0102584D01*
X0259200Y0090184D02*
X0252000Y0082984D01*
X0251200Y0082984D01*
X0250984Y0082677D01*
X0252000Y0074184D02*
X0288000Y0074184D01*
X0292000Y0078184D01*
X0302000Y0078184D01*
X0313200Y0089384D01*
X0313200Y0092984D01*
X0313543Y0093268D01*
X0309200Y0098584D02*
X0309200Y0087784D01*
X0301200Y0079784D01*
X0301200Y0074184D02*
X0301102Y0073819D01*
X0301200Y0074184D02*
X0304000Y0074184D01*
X0322800Y0092984D01*
X0323543Y0093268D01*
X0337362Y0094921D02*
X0338000Y0095384D01*
X0351600Y0108984D01*
X0377600Y0108984D01*
X0374000Y0114984D02*
X0379600Y0120584D01*
X0374000Y0114984D02*
X0367600Y0114984D01*
X0367362Y0114921D01*
X0366400Y0105784D02*
X0357200Y0105784D01*
X0366400Y0105784D02*
X0367200Y0104984D01*
X0367362Y0104921D01*
X0367362Y0094921D02*
X0367200Y0094584D01*
X0355600Y0094584D01*
X0348400Y0087384D01*
X0340000Y0087384D01*
X0337600Y0084984D01*
X0337600Y0078584D01*
X0332800Y0080184D02*
X0332800Y0074184D01*
X0332600Y0073984D01*
X0332800Y0073784D01*
X0349600Y0073784D01*
X0332600Y0073984D02*
X0310800Y0052184D01*
X0310800Y0028984D01*
X0310790Y0028813D01*
X0296000Y0062984D02*
X0265600Y0062984D01*
X0283600Y0092984D02*
X0283543Y0093268D01*
X0283600Y0092984D02*
X0285200Y0092984D01*
X0292000Y0086184D01*
X0305200Y0086184D01*
X0307600Y0088584D01*
X0307600Y0097784D01*
X0309200Y0098584D02*
X0298400Y0109384D01*
X0285200Y0100184D02*
X0292000Y0093384D01*
X0293200Y0093384D01*
X0293543Y0093268D01*
X0330400Y0110984D02*
X0332800Y0110984D01*
X0333200Y0110584D01*
X0337362Y0124921D02*
X0337600Y0124984D01*
X0348800Y0124984D01*
X0362800Y0138984D01*
X0367362Y0134921D02*
X0367600Y0134584D01*
X0369600Y0132584D01*
X0380000Y0132584D01*
X0402559Y0095472D02*
X0402800Y0095384D01*
X0415200Y0095384D01*
X0415354Y0095472D01*
X0415354Y0115472D02*
X0415200Y0115784D01*
X0420000Y0163384D02*
X0420000Y0170984D01*
X0415600Y0175384D01*
X0415354Y0175472D01*
X0350800Y0183384D02*
X0347600Y0186584D01*
X0340800Y0186584D01*
X0330000Y0186584D02*
X0325200Y0186584D01*
X0292800Y0183784D02*
X0286400Y0190184D01*
X0282000Y0183784D02*
X0276000Y0183784D01*
X0274000Y0185784D01*
X0273701Y0186024D01*
X0273386Y0167559D02*
X0273600Y0167384D01*
X0243543Y0093268D02*
X0243200Y0092984D01*
X0242000Y0092984D01*
X0230000Y0080984D01*
X0228800Y0080984D01*
X0220800Y0028584D02*
X0220551Y0028543D01*
X0220800Y0028584D02*
X0243200Y0028584D01*
X0197200Y0024984D02*
X0197200Y0020984D01*
X0188400Y0012184D01*
X0188071Y0011811D01*
X0363200Y0047784D02*
X0363200Y0082584D01*
X0363189Y0082677D01*
X0363200Y0047784D02*
X0385600Y0025384D01*
X0385600Y0019784D01*
X0385827Y0019764D01*
D31*
X0349600Y0073784D03*
X0337600Y0078584D03*
X0332800Y0080184D03*
X0330400Y0110984D03*
X0327200Y0116184D03*
X0318800Y0114184D03*
X0297600Y0082984D03*
X0287600Y0102584D03*
X0266800Y0066584D03*
X0258800Y0056184D03*
X0256400Y0044184D03*
X0256400Y0039384D03*
X0265200Y0040184D03*
X0252000Y0074184D03*
X0224400Y0063784D03*
X0206800Y0078984D03*
X0198800Y0067784D03*
X0196800Y0040184D03*
X0206800Y0040184D03*
X0197200Y0024984D03*
X0172000Y0027784D03*
X0172000Y0056584D03*
X0172000Y0063784D03*
X0172000Y0070984D03*
X0164800Y0060584D03*
X0161200Y0100984D03*
X0160400Y0107384D03*
X0157200Y0132584D03*
X0157200Y0137384D03*
X0165600Y0145784D03*
X0163600Y0173384D03*
X0172400Y0194584D03*
X0160000Y0230984D03*
X0156000Y0238984D03*
X0170000Y0266584D03*
X0146800Y0300984D03*
X0132000Y0297784D03*
X0134400Y0324984D03*
X0083600Y0311784D03*
X0085200Y0293384D03*
X0082000Y0250584D03*
X0096000Y0205784D03*
X0071600Y0204584D03*
X0071600Y0199784D03*
X0051200Y0178184D03*
X0043600Y0188984D03*
X0034400Y0196584D03*
X0021200Y0161384D03*
X0021600Y0156584D03*
X0012800Y0157384D03*
X0060800Y0145384D03*
X0064000Y0121384D03*
X0064000Y0108184D03*
X0071600Y0108184D03*
X0072800Y0096984D03*
X0091600Y0088184D03*
X0091600Y0079784D03*
X0100000Y0074184D03*
X0100800Y0067784D03*
X0104400Y0064584D03*
X0105200Y0041784D03*
X0108800Y0029384D03*
X0104800Y0020984D03*
X0098400Y0030184D03*
X0082000Y0041784D03*
X0058400Y0067784D03*
X0054800Y0071384D03*
X0009600Y0068984D03*
X0087600Y0145384D03*
X0101600Y0140984D03*
X0104000Y0134584D03*
X0101600Y0124584D03*
X0118400Y0133784D03*
X0123200Y0133784D03*
X0125600Y0124584D03*
X0129600Y0142584D03*
X0121200Y0146184D03*
X0180000Y0105784D03*
X0198400Y0100984D03*
X0214400Y0100184D03*
X0220800Y0101784D03*
X0236400Y0115384D03*
X0216000Y0130984D03*
X0216000Y0142984D03*
X0208000Y0142984D03*
X0200800Y0134184D03*
X0194400Y0138184D03*
X0190400Y0132584D03*
X0209600Y0160584D03*
X0238400Y0145384D03*
X0259200Y0190184D03*
X0282000Y0183784D03*
X0287200Y0183784D03*
X0292800Y0183784D03*
X0286400Y0190184D03*
X0309200Y0156584D03*
X0319600Y0157384D03*
X0332000Y0183784D03*
X0340800Y0186584D03*
X0352400Y0186584D03*
X0360000Y0188584D03*
X0344800Y0168584D03*
X0359200Y0150584D03*
X0380000Y0132584D03*
X0382400Y0138984D03*
X0392800Y0153384D03*
X0384400Y0183384D03*
X0387600Y0191784D03*
X0425600Y0145784D03*
X0380000Y0116184D03*
X0357200Y0105784D03*
X0325200Y0186584D03*
X0316800Y0190184D03*
X0300000Y0148584D03*
X0278400Y0146184D03*
X0276800Y0152584D03*
X0216000Y0228584D03*
X0198400Y0225784D03*
X0212800Y0208584D03*
X0208000Y0253784D03*
X0202800Y0262584D03*
X0201600Y0268584D03*
X0201600Y0281784D03*
X0221200Y0280984D03*
X0246800Y0240584D03*
X0260400Y0278984D03*
X0383200Y0264584D03*
X0296000Y0062984D03*
X0234800Y0017784D03*
X0118400Y0044584D03*
X0044000Y0267384D03*
X0035600Y0271384D03*
D32*
X0367362Y0164921D02*
X0385354Y0164921D01*
X0385827Y0164449D01*
X0410433Y0211614D02*
X0410433Y0212598D01*
D33*
X0426400Y0230984D02*
X0421600Y0235784D01*
X0421600Y0241784D01*
X0421260Y0242047D01*
X0420800Y0242184D01*
X0419600Y0242184D01*
X0396800Y0264984D01*
X0396417Y0265433D01*
X0396400Y0265784D01*
X0396400Y0305384D01*
X0396417Y0305433D01*
X0396417Y0265433D02*
X0396400Y0265384D01*
X0386800Y0255784D01*
X0367200Y0275384D01*
X0366949Y0275394D01*
X0366400Y0275384D01*
X0347600Y0275384D01*
X0342400Y0280584D01*
X0320000Y0280584D01*
X0319882Y0280787D01*
X0386000Y0254984D02*
X0386000Y0252184D01*
X0385827Y0252047D01*
X0386000Y0254984D02*
X0386800Y0255784D01*
X0426400Y0230984D02*
X0426417Y0230630D01*
X0426400Y0230184D01*
X0426400Y0190984D01*
X0426417Y0190630D01*
X0385827Y0094567D02*
X0385600Y0094184D01*
X0375600Y0094184D01*
X0368800Y0087384D01*
X0358000Y0087384D01*
X0353600Y0082984D01*
X0353346Y0082677D01*
X0353200Y0082184D01*
X0353200Y0033384D01*
X0345600Y0025784D01*
X0343504Y0025591D01*
X0343200Y0024984D01*
X0342800Y0024584D01*
X0300800Y0024584D01*
X0300800Y0028584D01*
X0300790Y0028813D01*
X0300800Y0024584D02*
X0300800Y0020984D01*
X0266800Y0020984D01*
X0262400Y0025384D01*
X0251200Y0025384D01*
X0250984Y0025591D01*
X0210551Y0028543D02*
X0210400Y0028184D01*
X0203600Y0021384D01*
X0203600Y0008184D01*
X0200000Y0004584D01*
X0176000Y0004584D01*
X0173600Y0006984D01*
X0173600Y0015384D01*
X0163600Y0025384D01*
X0158800Y0025384D01*
X0158465Y0025591D01*
X0108800Y0029384D02*
X0108800Y0065384D01*
X0100000Y0074184D01*
X0077200Y0025384D02*
X0066000Y0025384D01*
X0065945Y0025591D01*
X0077200Y0025384D02*
X0081600Y0020984D01*
X0104800Y0020984D01*
X0166400Y0152184D02*
X0166536Y0152385D01*
X0166400Y0152184D02*
X0153600Y0164984D01*
X0150000Y0164984D01*
X0149685Y0165354D01*
X0169370Y0165354D02*
X0169600Y0165384D01*
X0178800Y0165384D01*
X0179055Y0165354D01*
X0131535Y0185039D02*
X0131200Y0184984D01*
X0130000Y0183784D01*
X0130000Y0169784D01*
X0109600Y0169784D01*
X0105200Y0165384D01*
X0101600Y0165384D01*
X0101299Y0165354D01*
X0130000Y0165354D02*
X0130000Y0169784D01*
X0184291Y0226142D02*
X0184400Y0226184D01*
X0191200Y0226184D01*
X0197200Y0232184D01*
X0217600Y0232184D01*
X0236400Y0213384D01*
X0236400Y0204184D01*
X0238000Y0202584D01*
X0238071Y0201811D01*
X0248000Y0201784D02*
X0248000Y0193898D01*
X0248000Y0201784D02*
X0248071Y0201811D01*
X0264000Y0193898D02*
X0264000Y0186184D01*
X0263701Y0186024D01*
X0282800Y0188184D02*
X0287200Y0183784D01*
X0282800Y0188184D02*
X0282800Y0193898D01*
X0323600Y0140184D02*
X0323600Y0137784D01*
X0323386Y0137559D01*
X0323600Y0140184D02*
X0337200Y0153784D01*
X0337200Y0154584D01*
X0337362Y0154921D01*
X0323543Y0123268D02*
X0323200Y0122984D01*
X0322000Y0122984D01*
X0316000Y0116984D01*
X0318800Y0114184D01*
X0316000Y0116984D02*
X0315200Y0116184D01*
X0240800Y0116184D01*
X0234000Y0122984D01*
X0233543Y0123268D01*
X0233200Y0123384D01*
X0232400Y0124184D01*
X0232400Y0140584D01*
X0232205Y0140748D01*
X0232800Y0140984D01*
X0237200Y0145384D01*
X0238400Y0145384D01*
X0300800Y0020984D02*
X0300800Y0015384D01*
X0304000Y0012184D01*
X0304071Y0011811D01*
X0343504Y0025591D02*
X0343600Y0025384D01*
X0345200Y0025384D01*
X0360800Y0009784D01*
X0385600Y0009784D01*
X0385827Y0009764D01*
X0048228Y0253031D02*
X0048000Y0253384D01*
X0048000Y0255384D01*
X0038000Y0265384D01*
X0037638Y0265433D01*
D34*
X0374016Y0175197D03*
M02*
