G75*
%MOIN*%
%OFA0B0*%
%FSLAX25Y25*%
%IPPOS*%
%LPD*%
%AMOC8*
5,1,8,0,0,1.08239X$1,22.5*
%
%ADD10C,0.00300*%
%ADD11C,0.00400*%
%ADD12C,0.00600*%
%ADD13C,0.00500*%
%ADD14C,0.01000*%
%ADD15R,0.02000X0.08000*%
%ADD16R,0.02500X0.02000*%
%ADD17C,0.00800*%
%ADD18C,0.00700*%
D10*
X0050051Y0215701D02*
X0048816Y0216936D01*
X0048816Y0219404D01*
X0051285Y0219404D02*
X0051285Y0216936D01*
X0050051Y0215701D01*
X0052499Y0216318D02*
X0053117Y0215701D01*
X0054351Y0215701D01*
X0054968Y0216318D01*
X0054968Y0217553D02*
X0053734Y0218170D01*
X0053117Y0218170D01*
X0052499Y0217553D01*
X0052499Y0216318D01*
X0054968Y0217553D02*
X0054968Y0219404D01*
X0052499Y0219404D01*
X0059643Y0219404D02*
X0059643Y0216936D01*
X0060877Y0215701D01*
X0062112Y0216936D01*
X0062112Y0219404D01*
X0063326Y0218787D02*
X0063326Y0218170D01*
X0063943Y0217553D01*
X0063326Y0216936D01*
X0063326Y0216318D01*
X0063943Y0215701D01*
X0065178Y0215701D01*
X0065795Y0216318D01*
X0064560Y0217553D02*
X0063943Y0217553D01*
X0063326Y0218787D02*
X0063943Y0219404D01*
X0065178Y0219404D01*
X0065795Y0218787D01*
X0069778Y0219104D02*
X0070262Y0219588D01*
X0071713Y0219588D01*
X0071713Y0216685D01*
X0070262Y0216685D01*
X0069778Y0217169D01*
X0069778Y0219104D01*
X0072724Y0219588D02*
X0072724Y0216685D01*
X0074659Y0219588D01*
X0074659Y0216685D01*
X0075671Y0217169D02*
X0075671Y0218137D01*
X0076638Y0218137D01*
X0075671Y0219104D02*
X0076155Y0219588D01*
X0077122Y0219588D01*
X0077606Y0219104D01*
X0077606Y0217169D01*
X0077122Y0216685D01*
X0076155Y0216685D01*
X0075671Y0217169D01*
X0079620Y0216685D02*
X0081072Y0218137D01*
X0081555Y0217653D02*
X0079620Y0219588D01*
X0081555Y0219588D02*
X0081555Y0216685D01*
X0082567Y0216685D02*
X0084502Y0216685D01*
X0084502Y0219588D01*
X0085513Y0219104D02*
X0085997Y0219588D01*
X0086965Y0219588D01*
X0087448Y0219104D01*
X0087448Y0217169D01*
X0086965Y0216685D01*
X0085997Y0216685D01*
X0085513Y0217169D01*
X0090155Y0217303D02*
X0090155Y0219771D01*
X0090772Y0220389D01*
X0092006Y0220389D01*
X0092624Y0219771D01*
X0092624Y0217303D01*
X0092006Y0216685D01*
X0090772Y0216685D01*
X0090155Y0217303D01*
X0093838Y0217303D02*
X0093838Y0219771D01*
X0094455Y0220389D01*
X0096307Y0220389D01*
X0096307Y0216685D01*
X0094455Y0216685D01*
X0093838Y0217303D01*
X0101232Y0216685D02*
X0102466Y0216685D01*
X0101849Y0216685D02*
X0101849Y0220389D01*
X0102466Y0220389D02*
X0101232Y0220389D01*
X0103680Y0219771D02*
X0104298Y0220389D01*
X0106149Y0220389D01*
X0106149Y0216685D01*
X0104298Y0216685D01*
X0103680Y0217303D01*
X0103680Y0219771D01*
X0110824Y0219771D02*
X0111441Y0220389D01*
X0112676Y0220389D01*
X0113293Y0219771D01*
X0113293Y0219154D01*
X0112676Y0218537D01*
X0111441Y0218537D01*
X0110824Y0217920D01*
X0110824Y0217303D01*
X0111441Y0216685D01*
X0112676Y0216685D01*
X0113293Y0217303D01*
X0114507Y0217303D02*
X0115124Y0216685D01*
X0116359Y0216685D01*
X0116976Y0217303D01*
X0116976Y0219771D01*
X0116359Y0220389D01*
X0115124Y0220389D01*
X0114507Y0219771D01*
X0120667Y0219771D02*
X0120667Y0217303D01*
X0121284Y0216685D01*
X0123135Y0216685D01*
X0123135Y0220389D01*
X0121284Y0220389D01*
X0120667Y0219771D01*
X0124350Y0219771D02*
X0124967Y0220389D01*
X0126201Y0220389D01*
X0126819Y0219771D01*
X0126819Y0217303D01*
X0126201Y0216685D01*
X0124967Y0216685D01*
X0124350Y0217303D01*
X0088433Y0235386D02*
X0088433Y0239089D01*
X0087198Y0237855D01*
X0085964Y0239089D01*
X0085964Y0235386D01*
X0084750Y0235386D02*
X0083515Y0235386D01*
X0084132Y0235386D02*
X0084132Y0237855D01*
X0084750Y0237855D01*
X0084132Y0239089D02*
X0084132Y0239707D01*
X0081677Y0237855D02*
X0082294Y0237238D01*
X0082294Y0236003D01*
X0081677Y0235386D01*
X0079825Y0235386D01*
X0078611Y0235386D02*
X0078611Y0237855D01*
X0079825Y0237855D02*
X0081677Y0237855D01*
X0078611Y0236621D02*
X0077377Y0237855D01*
X0076759Y0237855D01*
X0075542Y0237238D02*
X0075542Y0236003D01*
X0074924Y0235386D01*
X0073690Y0235386D01*
X0073073Y0236003D01*
X0073073Y0237238D01*
X0073690Y0237855D01*
X0074924Y0237855D01*
X0075542Y0237238D01*
X0068175Y0237855D02*
X0067558Y0237238D01*
X0066324Y0237238D01*
X0065707Y0236621D01*
X0065707Y0236003D01*
X0066324Y0235386D01*
X0067558Y0235386D01*
X0068175Y0236003D01*
X0068175Y0237855D02*
X0068175Y0238472D01*
X0067558Y0239089D01*
X0066324Y0239089D01*
X0065707Y0238472D01*
X0064492Y0239089D02*
X0062641Y0239089D01*
X0062023Y0238472D01*
X0062023Y0236003D01*
X0062641Y0235386D01*
X0064492Y0235386D01*
X0064492Y0239089D01*
D11*
X0360554Y0263763D02*
X0360554Y0266832D01*
X0361322Y0267599D01*
X0363624Y0267599D01*
X0363624Y0262995D01*
X0361322Y0262995D01*
X0360554Y0263763D01*
X0365158Y0262995D02*
X0365158Y0267599D01*
X0368228Y0267599D02*
X0365158Y0262995D01*
X0368228Y0262995D02*
X0368228Y0267599D01*
X0369762Y0266832D02*
X0370530Y0267599D01*
X0372064Y0267599D01*
X0372831Y0266832D01*
X0372831Y0263763D01*
X0372064Y0262995D01*
X0370530Y0262995D01*
X0369762Y0263763D01*
X0369762Y0265297D01*
X0371297Y0265297D01*
X0372281Y0306302D02*
X0370746Y0307837D01*
X0370746Y0310906D01*
X0369212Y0310906D02*
X0367677Y0310906D01*
X0368445Y0310906D02*
X0368445Y0306302D01*
X0369212Y0306302D02*
X0367677Y0306302D01*
X0366143Y0306302D02*
X0366143Y0310906D01*
X0363073Y0306302D01*
X0363073Y0310906D01*
X0372281Y0306302D02*
X0373816Y0307837D01*
X0373816Y0310906D01*
D12*
X0358382Y0307909D02*
X0358382Y0289409D01*
X0349882Y0289409D01*
X0349882Y0293909D01*
X0349882Y0289409D02*
X0327382Y0289409D01*
X0327382Y0281909D01*
X0332382Y0281909D01*
X0332382Y0274409D01*
X0327382Y0274409D01*
X0327382Y0271409D01*
X0322382Y0271409D01*
X0322382Y0265409D01*
X0317382Y0265409D01*
X0312382Y0265409D01*
X0312382Y0271409D01*
X0312382Y0273909D01*
X0312382Y0281409D01*
X0312382Y0289409D01*
X0289882Y0289409D01*
X0289882Y0293909D01*
X0289882Y0289409D02*
X0281382Y0289409D01*
X0285382Y0273909D01*
X0274165Y0274409D02*
X0278165Y0289409D01*
X0269665Y0289409D01*
X0269665Y0293909D01*
X0269665Y0289409D02*
X0247165Y0289409D01*
X0247165Y0281909D01*
X0252165Y0281909D01*
X0252165Y0274409D01*
X0247165Y0274409D01*
X0247165Y0271409D01*
X0242165Y0271409D01*
X0242165Y0265409D01*
X0237165Y0265409D01*
X0232165Y0265409D01*
X0232165Y0271409D01*
X0232165Y0273909D01*
X0232165Y0281409D01*
X0232165Y0289409D01*
X0209665Y0289409D01*
X0209665Y0293909D01*
X0209665Y0289409D02*
X0201165Y0289409D01*
X0205165Y0273909D01*
X0193949Y0274409D02*
X0197949Y0289409D01*
X0189449Y0289409D01*
X0189449Y0293909D01*
X0189449Y0289409D02*
X0166949Y0289409D01*
X0166949Y0281909D01*
X0171949Y0281909D01*
X0171949Y0274409D01*
X0166949Y0274409D01*
X0166949Y0271409D01*
X0161949Y0271409D01*
X0161949Y0265409D01*
X0156949Y0265409D01*
X0151949Y0265409D01*
X0151949Y0271409D01*
X0151949Y0273909D01*
X0151949Y0281409D01*
X0151949Y0289409D01*
X0129449Y0289409D01*
X0129449Y0293909D01*
X0129449Y0289409D02*
X0120949Y0289409D01*
X0124949Y0273909D01*
X0113732Y0274409D02*
X0117732Y0289409D01*
X0109232Y0289409D01*
X0109232Y0293909D01*
X0109232Y0289409D02*
X0086732Y0289409D01*
X0086732Y0281909D01*
X0091732Y0281909D01*
X0091732Y0274409D01*
X0086732Y0274409D01*
X0086732Y0271409D01*
X0081732Y0271409D01*
X0081732Y0265409D01*
X0076732Y0265409D01*
X0071732Y0265409D01*
X0071732Y0271409D01*
X0071732Y0273909D01*
X0071732Y0281409D01*
X0071732Y0289409D01*
X0049232Y0289409D01*
X0049232Y0293909D01*
X0049232Y0289409D02*
X0040732Y0289409D01*
X0044732Y0273909D01*
X0040732Y0289409D02*
X0040732Y0307909D01*
X0049232Y0307909D01*
X0049232Y0304909D01*
X0049232Y0307909D02*
X0049232Y0321909D01*
X0039594Y0321909D01*
X0039594Y0324409D01*
X0039764Y0324409D01*
X0039764Y0326409D01*
X0039594Y0326409D01*
X0039594Y0329409D01*
X0118520Y0329409D01*
X0118520Y0326409D01*
X0118476Y0326016D01*
X0118476Y0324016D01*
X0118520Y0324409D01*
X0118520Y0321909D01*
X0109232Y0321909D01*
X0093732Y0321909D01*
X0091235Y0322150D02*
X0091235Y0328556D01*
X0088033Y0328556D01*
X0086965Y0327488D01*
X0086965Y0325353D01*
X0088033Y0324286D01*
X0091235Y0324286D01*
X0089100Y0324286D02*
X0086965Y0322150D01*
X0084790Y0322150D02*
X0080520Y0328556D01*
X0078344Y0328556D02*
X0075142Y0328556D01*
X0074074Y0327488D01*
X0074074Y0323218D01*
X0075142Y0322150D01*
X0078344Y0322150D01*
X0078344Y0328556D01*
X0084790Y0328556D02*
X0080520Y0322150D01*
X0084732Y0321909D02*
X0073732Y0321909D01*
X0071899Y0322150D02*
X0067629Y0322150D01*
X0069764Y0322150D02*
X0069764Y0328556D01*
X0071899Y0326421D01*
X0064732Y0321909D02*
X0049732Y0321909D01*
X0071732Y0289409D02*
X0086732Y0289409D01*
X0086732Y0281909D02*
X0086732Y0274409D01*
X0086732Y0271409D02*
X0086732Y0265409D01*
X0081732Y0265409D01*
X0076732Y0265409D02*
X0076732Y0271409D01*
X0071732Y0271409D01*
X0071732Y0273909D02*
X0066732Y0273909D01*
X0066732Y0281409D01*
X0071732Y0281409D01*
X0078614Y0260890D02*
X0094614Y0260890D01*
X0094674Y0260888D01*
X0094735Y0260883D01*
X0094794Y0260874D01*
X0094853Y0260861D01*
X0094912Y0260845D01*
X0094969Y0260825D01*
X0095024Y0260802D01*
X0095079Y0260775D01*
X0095131Y0260746D01*
X0095182Y0260713D01*
X0095231Y0260677D01*
X0095277Y0260639D01*
X0095321Y0260597D01*
X0095363Y0260553D01*
X0095401Y0260507D01*
X0095437Y0260458D01*
X0095470Y0260407D01*
X0095499Y0260355D01*
X0095526Y0260300D01*
X0095549Y0260245D01*
X0095569Y0260188D01*
X0095585Y0260129D01*
X0095598Y0260070D01*
X0095607Y0260011D01*
X0095612Y0259950D01*
X0095614Y0259890D01*
X0095614Y0253890D01*
X0095612Y0253830D01*
X0095607Y0253769D01*
X0095598Y0253710D01*
X0095585Y0253651D01*
X0095569Y0253592D01*
X0095549Y0253535D01*
X0095526Y0253480D01*
X0095499Y0253425D01*
X0095470Y0253373D01*
X0095437Y0253322D01*
X0095401Y0253273D01*
X0095363Y0253227D01*
X0095321Y0253183D01*
X0095277Y0253141D01*
X0095231Y0253103D01*
X0095182Y0253067D01*
X0095131Y0253034D01*
X0095079Y0253005D01*
X0095024Y0252978D01*
X0094969Y0252955D01*
X0094912Y0252935D01*
X0094853Y0252919D01*
X0094794Y0252906D01*
X0094735Y0252897D01*
X0094674Y0252892D01*
X0094614Y0252890D01*
X0078614Y0252890D01*
X0078554Y0252892D01*
X0078493Y0252897D01*
X0078434Y0252906D01*
X0078375Y0252919D01*
X0078316Y0252935D01*
X0078259Y0252955D01*
X0078204Y0252978D01*
X0078149Y0253005D01*
X0078097Y0253034D01*
X0078046Y0253067D01*
X0077997Y0253103D01*
X0077951Y0253141D01*
X0077907Y0253183D01*
X0077865Y0253227D01*
X0077827Y0253273D01*
X0077791Y0253322D01*
X0077758Y0253373D01*
X0077729Y0253425D01*
X0077702Y0253480D01*
X0077679Y0253535D01*
X0077659Y0253592D01*
X0077643Y0253651D01*
X0077630Y0253710D01*
X0077621Y0253769D01*
X0077616Y0253830D01*
X0077614Y0253890D01*
X0077614Y0259890D01*
X0077616Y0259950D01*
X0077621Y0260011D01*
X0077630Y0260070D01*
X0077643Y0260129D01*
X0077659Y0260188D01*
X0077679Y0260245D01*
X0077702Y0260300D01*
X0077729Y0260355D01*
X0077758Y0260407D01*
X0077791Y0260458D01*
X0077827Y0260507D01*
X0077865Y0260553D01*
X0077907Y0260597D01*
X0077951Y0260639D01*
X0077997Y0260677D01*
X0078046Y0260713D01*
X0078097Y0260746D01*
X0078149Y0260775D01*
X0078204Y0260802D01*
X0078259Y0260825D01*
X0078316Y0260845D01*
X0078375Y0260861D01*
X0078434Y0260874D01*
X0078493Y0260883D01*
X0078554Y0260888D01*
X0078614Y0260890D01*
X0082614Y0259390D02*
X0086614Y0256890D01*
X0086614Y0254390D01*
X0086614Y0256890D02*
X0086614Y0259390D01*
X0086614Y0256890D02*
X0080614Y0256890D01*
X0082614Y0259390D02*
X0082614Y0254390D01*
X0086614Y0256890D01*
X0089114Y0256890D01*
X0104642Y0249579D02*
X0106142Y0249579D01*
X0106642Y0249079D01*
X0125642Y0249079D01*
X0126142Y0249579D01*
X0127642Y0249579D01*
X0127702Y0249577D01*
X0127763Y0249572D01*
X0127822Y0249563D01*
X0127881Y0249550D01*
X0127940Y0249534D01*
X0127997Y0249514D01*
X0128052Y0249491D01*
X0128107Y0249464D01*
X0128159Y0249435D01*
X0128210Y0249402D01*
X0128259Y0249366D01*
X0128305Y0249328D01*
X0128349Y0249286D01*
X0128391Y0249242D01*
X0128429Y0249196D01*
X0128465Y0249147D01*
X0128498Y0249096D01*
X0128527Y0249044D01*
X0128554Y0248989D01*
X0128577Y0248934D01*
X0128597Y0248877D01*
X0128613Y0248818D01*
X0128626Y0248759D01*
X0128635Y0248700D01*
X0128640Y0248639D01*
X0128642Y0248579D01*
X0128642Y0241579D02*
X0128640Y0241519D01*
X0128635Y0241458D01*
X0128626Y0241399D01*
X0128613Y0241340D01*
X0128597Y0241281D01*
X0128577Y0241224D01*
X0128554Y0241169D01*
X0128527Y0241114D01*
X0128498Y0241062D01*
X0128465Y0241011D01*
X0128429Y0240962D01*
X0128391Y0240916D01*
X0128349Y0240872D01*
X0128305Y0240830D01*
X0128259Y0240792D01*
X0128210Y0240756D01*
X0128159Y0240723D01*
X0128107Y0240694D01*
X0128052Y0240667D01*
X0127997Y0240644D01*
X0127940Y0240624D01*
X0127881Y0240608D01*
X0127822Y0240595D01*
X0127763Y0240586D01*
X0127702Y0240581D01*
X0127642Y0240579D01*
X0126142Y0240579D01*
X0125642Y0241079D01*
X0106642Y0241079D01*
X0106142Y0240579D01*
X0104642Y0240579D01*
X0104582Y0240581D01*
X0104521Y0240586D01*
X0104462Y0240595D01*
X0104403Y0240608D01*
X0104344Y0240624D01*
X0104287Y0240644D01*
X0104232Y0240667D01*
X0104177Y0240694D01*
X0104125Y0240723D01*
X0104074Y0240756D01*
X0104025Y0240792D01*
X0103979Y0240830D01*
X0103935Y0240872D01*
X0103893Y0240916D01*
X0103855Y0240962D01*
X0103819Y0241011D01*
X0103786Y0241062D01*
X0103757Y0241114D01*
X0103730Y0241169D01*
X0103707Y0241224D01*
X0103687Y0241281D01*
X0103671Y0241340D01*
X0103658Y0241399D01*
X0103649Y0241458D01*
X0103644Y0241519D01*
X0103642Y0241579D01*
X0103642Y0248579D02*
X0103644Y0248639D01*
X0103649Y0248700D01*
X0103658Y0248759D01*
X0103671Y0248818D01*
X0103687Y0248877D01*
X0103707Y0248934D01*
X0103730Y0248989D01*
X0103757Y0249044D01*
X0103786Y0249096D01*
X0103819Y0249147D01*
X0103855Y0249196D01*
X0103893Y0249242D01*
X0103935Y0249286D01*
X0103979Y0249328D01*
X0104025Y0249366D01*
X0104074Y0249402D01*
X0104125Y0249435D01*
X0104177Y0249464D01*
X0104232Y0249491D01*
X0104287Y0249514D01*
X0104344Y0249534D01*
X0104403Y0249550D01*
X0104462Y0249563D01*
X0104521Y0249572D01*
X0104582Y0249577D01*
X0104642Y0249579D01*
X0117732Y0289409D02*
X0117732Y0307909D01*
X0109232Y0307909D01*
X0109232Y0304909D01*
X0109232Y0307909D02*
X0109232Y0321909D01*
X0119811Y0321909D02*
X0129449Y0321909D01*
X0129449Y0307909D01*
X0129449Y0304909D01*
X0129449Y0307909D02*
X0120949Y0307909D01*
X0120949Y0289409D01*
X0146949Y0281409D02*
X0146949Y0273909D01*
X0151949Y0273909D01*
X0151949Y0271409D02*
X0156949Y0271409D01*
X0156949Y0265409D01*
X0161949Y0265409D02*
X0166949Y0265409D01*
X0166949Y0271409D01*
X0166949Y0274409D02*
X0166949Y0281909D01*
X0166949Y0289409D02*
X0151949Y0289409D01*
X0151949Y0281409D02*
X0146949Y0281409D01*
X0146232Y0252642D02*
X0146232Y0251142D01*
X0145732Y0250642D01*
X0145732Y0231642D01*
X0146232Y0231142D01*
X0146232Y0229642D01*
X0146230Y0229582D01*
X0146225Y0229521D01*
X0146216Y0229462D01*
X0146203Y0229403D01*
X0146187Y0229344D01*
X0146167Y0229287D01*
X0146144Y0229232D01*
X0146117Y0229177D01*
X0146088Y0229125D01*
X0146055Y0229074D01*
X0146019Y0229025D01*
X0145981Y0228979D01*
X0145939Y0228935D01*
X0145895Y0228893D01*
X0145849Y0228855D01*
X0145800Y0228819D01*
X0145749Y0228786D01*
X0145697Y0228757D01*
X0145642Y0228730D01*
X0145587Y0228707D01*
X0145530Y0228687D01*
X0145471Y0228671D01*
X0145412Y0228658D01*
X0145353Y0228649D01*
X0145292Y0228644D01*
X0145232Y0228642D01*
X0148307Y0228657D02*
X0148307Y0236157D01*
X0148433Y0236159D01*
X0148558Y0236165D01*
X0148683Y0236175D01*
X0148808Y0236189D01*
X0148933Y0236206D01*
X0149057Y0236228D01*
X0149180Y0236253D01*
X0149302Y0236283D01*
X0149423Y0236316D01*
X0149543Y0236353D01*
X0149662Y0236393D01*
X0149779Y0236438D01*
X0149896Y0236486D01*
X0150010Y0236538D01*
X0150123Y0236593D01*
X0150234Y0236652D01*
X0150343Y0236714D01*
X0150450Y0236780D01*
X0150555Y0236849D01*
X0150658Y0236921D01*
X0150759Y0236996D01*
X0150857Y0237075D01*
X0150952Y0237157D01*
X0151045Y0237241D01*
X0151135Y0237329D01*
X0151223Y0237419D01*
X0151307Y0237512D01*
X0151389Y0237607D01*
X0151468Y0237705D01*
X0151543Y0237806D01*
X0151615Y0237909D01*
X0151684Y0238014D01*
X0151750Y0238121D01*
X0151812Y0238230D01*
X0151871Y0238341D01*
X0151926Y0238454D01*
X0151978Y0238568D01*
X0152026Y0238685D01*
X0152071Y0238802D01*
X0152111Y0238921D01*
X0152148Y0239041D01*
X0152181Y0239162D01*
X0152211Y0239284D01*
X0152236Y0239407D01*
X0152258Y0239531D01*
X0152275Y0239656D01*
X0152289Y0239781D01*
X0152299Y0239906D01*
X0152305Y0240031D01*
X0152307Y0240157D01*
X0152305Y0240283D01*
X0152299Y0240408D01*
X0152289Y0240533D01*
X0152275Y0240658D01*
X0152258Y0240783D01*
X0152236Y0240907D01*
X0152211Y0241030D01*
X0152181Y0241152D01*
X0152148Y0241273D01*
X0152111Y0241393D01*
X0152071Y0241512D01*
X0152026Y0241629D01*
X0151978Y0241746D01*
X0151926Y0241860D01*
X0151871Y0241973D01*
X0151812Y0242084D01*
X0151750Y0242193D01*
X0151684Y0242300D01*
X0151615Y0242405D01*
X0151543Y0242508D01*
X0151468Y0242609D01*
X0151389Y0242707D01*
X0151307Y0242802D01*
X0151223Y0242895D01*
X0151135Y0242985D01*
X0151045Y0243073D01*
X0150952Y0243157D01*
X0150857Y0243239D01*
X0150759Y0243318D01*
X0150658Y0243393D01*
X0150555Y0243465D01*
X0150450Y0243534D01*
X0150343Y0243600D01*
X0150234Y0243662D01*
X0150123Y0243721D01*
X0150010Y0243776D01*
X0149896Y0243828D01*
X0149779Y0243876D01*
X0149662Y0243921D01*
X0149543Y0243961D01*
X0149423Y0243998D01*
X0149302Y0244031D01*
X0149180Y0244061D01*
X0149057Y0244086D01*
X0148933Y0244108D01*
X0148808Y0244125D01*
X0148683Y0244139D01*
X0148558Y0244149D01*
X0148433Y0244155D01*
X0148307Y0244157D01*
X0148307Y0251657D01*
X0188307Y0251657D01*
X0188307Y0228657D01*
X0148307Y0228657D01*
X0138232Y0228642D02*
X0138172Y0228644D01*
X0138111Y0228649D01*
X0138052Y0228658D01*
X0137993Y0228671D01*
X0137934Y0228687D01*
X0137877Y0228707D01*
X0137822Y0228730D01*
X0137767Y0228757D01*
X0137715Y0228786D01*
X0137664Y0228819D01*
X0137615Y0228855D01*
X0137569Y0228893D01*
X0137525Y0228935D01*
X0137483Y0228979D01*
X0137445Y0229025D01*
X0137409Y0229074D01*
X0137376Y0229125D01*
X0137347Y0229177D01*
X0137320Y0229232D01*
X0137297Y0229287D01*
X0137277Y0229344D01*
X0137261Y0229403D01*
X0137248Y0229462D01*
X0137239Y0229521D01*
X0137234Y0229582D01*
X0137232Y0229642D01*
X0137232Y0231142D01*
X0137732Y0231642D01*
X0137732Y0250642D01*
X0137232Y0251142D01*
X0137232Y0252642D01*
X0137234Y0252702D01*
X0137239Y0252763D01*
X0137248Y0252822D01*
X0137261Y0252881D01*
X0137277Y0252940D01*
X0137297Y0252997D01*
X0137320Y0253052D01*
X0137347Y0253107D01*
X0137376Y0253159D01*
X0137409Y0253210D01*
X0137445Y0253259D01*
X0137483Y0253305D01*
X0137525Y0253349D01*
X0137569Y0253391D01*
X0137615Y0253429D01*
X0137664Y0253465D01*
X0137715Y0253498D01*
X0137767Y0253527D01*
X0137822Y0253554D01*
X0137877Y0253577D01*
X0137934Y0253597D01*
X0137993Y0253613D01*
X0138052Y0253626D01*
X0138111Y0253635D01*
X0138172Y0253640D01*
X0138232Y0253642D01*
X0145232Y0253642D02*
X0145292Y0253640D01*
X0145353Y0253635D01*
X0145412Y0253626D01*
X0145471Y0253613D01*
X0145530Y0253597D01*
X0145587Y0253577D01*
X0145642Y0253554D01*
X0145697Y0253527D01*
X0145749Y0253498D01*
X0145800Y0253465D01*
X0145849Y0253429D01*
X0145895Y0253391D01*
X0145939Y0253349D01*
X0145981Y0253305D01*
X0146019Y0253259D01*
X0146055Y0253210D01*
X0146088Y0253159D01*
X0146117Y0253107D01*
X0146144Y0253052D01*
X0146167Y0252997D01*
X0146187Y0252940D01*
X0146203Y0252881D01*
X0146216Y0252822D01*
X0146225Y0252763D01*
X0146230Y0252702D01*
X0146232Y0252642D01*
X0161728Y0217098D02*
X0163228Y0217098D01*
X0163728Y0216598D01*
X0182728Y0216598D01*
X0183228Y0217098D01*
X0184728Y0217098D01*
X0184788Y0217096D01*
X0184849Y0217091D01*
X0184908Y0217082D01*
X0184967Y0217069D01*
X0185026Y0217053D01*
X0185083Y0217033D01*
X0185138Y0217010D01*
X0185193Y0216983D01*
X0185245Y0216954D01*
X0185296Y0216921D01*
X0185345Y0216885D01*
X0185391Y0216847D01*
X0185435Y0216805D01*
X0185477Y0216761D01*
X0185515Y0216715D01*
X0185551Y0216666D01*
X0185584Y0216615D01*
X0185613Y0216563D01*
X0185640Y0216508D01*
X0185663Y0216453D01*
X0185683Y0216396D01*
X0185699Y0216337D01*
X0185712Y0216278D01*
X0185721Y0216219D01*
X0185726Y0216158D01*
X0185728Y0216098D01*
X0185728Y0209098D02*
X0185726Y0209038D01*
X0185721Y0208977D01*
X0185712Y0208918D01*
X0185699Y0208859D01*
X0185683Y0208800D01*
X0185663Y0208743D01*
X0185640Y0208688D01*
X0185613Y0208633D01*
X0185584Y0208581D01*
X0185551Y0208530D01*
X0185515Y0208481D01*
X0185477Y0208435D01*
X0185435Y0208391D01*
X0185391Y0208349D01*
X0185345Y0208311D01*
X0185296Y0208275D01*
X0185245Y0208242D01*
X0185193Y0208213D01*
X0185138Y0208186D01*
X0185083Y0208163D01*
X0185026Y0208143D01*
X0184967Y0208127D01*
X0184908Y0208114D01*
X0184849Y0208105D01*
X0184788Y0208100D01*
X0184728Y0208098D01*
X0183228Y0208098D01*
X0182728Y0208598D01*
X0163728Y0208598D01*
X0163228Y0208098D01*
X0161728Y0208098D01*
X0161668Y0208100D01*
X0161607Y0208105D01*
X0161548Y0208114D01*
X0161489Y0208127D01*
X0161430Y0208143D01*
X0161373Y0208163D01*
X0161318Y0208186D01*
X0161263Y0208213D01*
X0161211Y0208242D01*
X0161160Y0208275D01*
X0161111Y0208311D01*
X0161065Y0208349D01*
X0161021Y0208391D01*
X0160979Y0208435D01*
X0160941Y0208481D01*
X0160905Y0208530D01*
X0160872Y0208581D01*
X0160843Y0208633D01*
X0160816Y0208688D01*
X0160793Y0208743D01*
X0160773Y0208800D01*
X0160757Y0208859D01*
X0160744Y0208918D01*
X0160735Y0208977D01*
X0160730Y0209038D01*
X0160728Y0209098D01*
X0160728Y0216098D02*
X0160730Y0216158D01*
X0160735Y0216219D01*
X0160744Y0216278D01*
X0160757Y0216337D01*
X0160773Y0216396D01*
X0160793Y0216453D01*
X0160816Y0216508D01*
X0160843Y0216563D01*
X0160872Y0216615D01*
X0160905Y0216666D01*
X0160941Y0216715D01*
X0160979Y0216761D01*
X0161021Y0216805D01*
X0161065Y0216847D01*
X0161111Y0216885D01*
X0161160Y0216921D01*
X0161211Y0216954D01*
X0161263Y0216983D01*
X0161318Y0217010D01*
X0161373Y0217033D01*
X0161430Y0217053D01*
X0161489Y0217069D01*
X0161548Y0217082D01*
X0161607Y0217091D01*
X0161668Y0217096D01*
X0161728Y0217098D01*
X0198146Y0237626D02*
X0199646Y0237626D01*
X0200146Y0238126D01*
X0219146Y0238126D01*
X0219646Y0237626D01*
X0221146Y0237626D01*
X0221206Y0237628D01*
X0221267Y0237633D01*
X0221326Y0237642D01*
X0221385Y0237655D01*
X0221444Y0237671D01*
X0221501Y0237691D01*
X0221556Y0237714D01*
X0221611Y0237741D01*
X0221663Y0237770D01*
X0221714Y0237803D01*
X0221763Y0237839D01*
X0221809Y0237877D01*
X0221853Y0237919D01*
X0221895Y0237963D01*
X0221933Y0238009D01*
X0221969Y0238058D01*
X0222002Y0238109D01*
X0222031Y0238161D01*
X0222058Y0238216D01*
X0222081Y0238271D01*
X0222101Y0238328D01*
X0222117Y0238387D01*
X0222130Y0238446D01*
X0222139Y0238505D01*
X0222144Y0238566D01*
X0222146Y0238626D01*
X0222146Y0245626D02*
X0222144Y0245686D01*
X0222139Y0245747D01*
X0222130Y0245806D01*
X0222117Y0245865D01*
X0222101Y0245924D01*
X0222081Y0245981D01*
X0222058Y0246036D01*
X0222031Y0246091D01*
X0222002Y0246143D01*
X0221969Y0246194D01*
X0221933Y0246243D01*
X0221895Y0246289D01*
X0221853Y0246333D01*
X0221809Y0246375D01*
X0221763Y0246413D01*
X0221714Y0246449D01*
X0221663Y0246482D01*
X0221611Y0246511D01*
X0221556Y0246538D01*
X0221501Y0246561D01*
X0221444Y0246581D01*
X0221385Y0246597D01*
X0221326Y0246610D01*
X0221267Y0246619D01*
X0221206Y0246624D01*
X0221146Y0246626D01*
X0219646Y0246626D01*
X0219146Y0246126D01*
X0200146Y0246126D01*
X0199646Y0246626D01*
X0198146Y0246626D01*
X0198086Y0246624D01*
X0198025Y0246619D01*
X0197966Y0246610D01*
X0197907Y0246597D01*
X0197848Y0246581D01*
X0197791Y0246561D01*
X0197736Y0246538D01*
X0197681Y0246511D01*
X0197629Y0246482D01*
X0197578Y0246449D01*
X0197529Y0246413D01*
X0197483Y0246375D01*
X0197439Y0246333D01*
X0197397Y0246289D01*
X0197359Y0246243D01*
X0197323Y0246194D01*
X0197290Y0246143D01*
X0197261Y0246091D01*
X0197234Y0246036D01*
X0197211Y0245981D01*
X0197191Y0245924D01*
X0197175Y0245865D01*
X0197162Y0245806D01*
X0197153Y0245747D01*
X0197148Y0245686D01*
X0197146Y0245626D01*
X0197146Y0238626D02*
X0197148Y0238566D01*
X0197153Y0238505D01*
X0197162Y0238446D01*
X0197175Y0238387D01*
X0197191Y0238328D01*
X0197211Y0238271D01*
X0197234Y0238216D01*
X0197261Y0238161D01*
X0197290Y0238109D01*
X0197323Y0238058D01*
X0197359Y0238009D01*
X0197397Y0237963D01*
X0197439Y0237919D01*
X0197483Y0237877D01*
X0197529Y0237839D01*
X0197578Y0237803D01*
X0197629Y0237770D01*
X0197681Y0237741D01*
X0197736Y0237714D01*
X0197791Y0237691D01*
X0197848Y0237671D01*
X0197907Y0237655D01*
X0197966Y0237642D01*
X0198025Y0237633D01*
X0198086Y0237628D01*
X0198146Y0237626D01*
X0227165Y0273909D02*
X0227165Y0281409D01*
X0232165Y0281409D01*
X0232165Y0273909D02*
X0227165Y0273909D01*
X0232165Y0271409D02*
X0237165Y0271409D01*
X0237165Y0265409D01*
X0242165Y0265409D02*
X0247165Y0265409D01*
X0247165Y0271409D01*
X0247165Y0274409D02*
X0247165Y0281909D01*
X0247165Y0289409D02*
X0232165Y0289409D01*
X0230363Y0260879D02*
X0246363Y0260879D01*
X0246423Y0260877D01*
X0246484Y0260872D01*
X0246543Y0260863D01*
X0246602Y0260850D01*
X0246661Y0260834D01*
X0246718Y0260814D01*
X0246773Y0260791D01*
X0246828Y0260764D01*
X0246880Y0260735D01*
X0246931Y0260702D01*
X0246980Y0260666D01*
X0247026Y0260628D01*
X0247070Y0260586D01*
X0247112Y0260542D01*
X0247150Y0260496D01*
X0247186Y0260447D01*
X0247219Y0260396D01*
X0247248Y0260344D01*
X0247275Y0260289D01*
X0247298Y0260234D01*
X0247318Y0260177D01*
X0247334Y0260118D01*
X0247347Y0260059D01*
X0247356Y0260000D01*
X0247361Y0259939D01*
X0247363Y0259879D01*
X0247363Y0253879D01*
X0247361Y0253819D01*
X0247356Y0253758D01*
X0247347Y0253699D01*
X0247334Y0253640D01*
X0247318Y0253581D01*
X0247298Y0253524D01*
X0247275Y0253469D01*
X0247248Y0253414D01*
X0247219Y0253362D01*
X0247186Y0253311D01*
X0247150Y0253262D01*
X0247112Y0253216D01*
X0247070Y0253172D01*
X0247026Y0253130D01*
X0246980Y0253092D01*
X0246931Y0253056D01*
X0246880Y0253023D01*
X0246828Y0252994D01*
X0246773Y0252967D01*
X0246718Y0252944D01*
X0246661Y0252924D01*
X0246602Y0252908D01*
X0246543Y0252895D01*
X0246484Y0252886D01*
X0246423Y0252881D01*
X0246363Y0252879D01*
X0230363Y0252879D01*
X0230303Y0252881D01*
X0230242Y0252886D01*
X0230183Y0252895D01*
X0230124Y0252908D01*
X0230065Y0252924D01*
X0230008Y0252944D01*
X0229953Y0252967D01*
X0229898Y0252994D01*
X0229846Y0253023D01*
X0229795Y0253056D01*
X0229746Y0253092D01*
X0229700Y0253130D01*
X0229656Y0253172D01*
X0229614Y0253216D01*
X0229576Y0253262D01*
X0229540Y0253311D01*
X0229507Y0253362D01*
X0229478Y0253414D01*
X0229451Y0253469D01*
X0229428Y0253524D01*
X0229408Y0253581D01*
X0229392Y0253640D01*
X0229379Y0253699D01*
X0229370Y0253758D01*
X0229365Y0253819D01*
X0229363Y0253879D01*
X0229363Y0259879D01*
X0229365Y0259939D01*
X0229370Y0260000D01*
X0229379Y0260059D01*
X0229392Y0260118D01*
X0229408Y0260177D01*
X0229428Y0260234D01*
X0229451Y0260289D01*
X0229478Y0260344D01*
X0229507Y0260396D01*
X0229540Y0260447D01*
X0229576Y0260496D01*
X0229614Y0260542D01*
X0229656Y0260586D01*
X0229700Y0260628D01*
X0229746Y0260666D01*
X0229795Y0260702D01*
X0229846Y0260735D01*
X0229898Y0260764D01*
X0229953Y0260791D01*
X0230008Y0260814D01*
X0230065Y0260834D01*
X0230124Y0260850D01*
X0230183Y0260863D01*
X0230242Y0260872D01*
X0230303Y0260877D01*
X0230363Y0260879D01*
X0234363Y0259379D02*
X0238363Y0256879D01*
X0238363Y0254379D01*
X0238363Y0256879D02*
X0238363Y0259379D01*
X0238363Y0256879D02*
X0232363Y0256879D01*
X0234363Y0259379D02*
X0234363Y0254379D01*
X0238363Y0256879D01*
X0240863Y0256879D01*
X0259528Y0252642D02*
X0259528Y0245142D01*
X0259654Y0245140D01*
X0259779Y0245134D01*
X0259904Y0245124D01*
X0260029Y0245110D01*
X0260154Y0245093D01*
X0260278Y0245071D01*
X0260401Y0245046D01*
X0260523Y0245016D01*
X0260644Y0244983D01*
X0260764Y0244946D01*
X0260883Y0244906D01*
X0261000Y0244861D01*
X0261117Y0244813D01*
X0261231Y0244761D01*
X0261344Y0244706D01*
X0261455Y0244647D01*
X0261564Y0244585D01*
X0261671Y0244519D01*
X0261776Y0244450D01*
X0261879Y0244378D01*
X0261980Y0244303D01*
X0262078Y0244224D01*
X0262173Y0244142D01*
X0262266Y0244058D01*
X0262356Y0243970D01*
X0262444Y0243880D01*
X0262528Y0243787D01*
X0262610Y0243692D01*
X0262689Y0243594D01*
X0262764Y0243493D01*
X0262836Y0243390D01*
X0262905Y0243285D01*
X0262971Y0243178D01*
X0263033Y0243069D01*
X0263092Y0242958D01*
X0263147Y0242845D01*
X0263199Y0242731D01*
X0263247Y0242614D01*
X0263292Y0242497D01*
X0263332Y0242378D01*
X0263369Y0242258D01*
X0263402Y0242137D01*
X0263432Y0242015D01*
X0263457Y0241892D01*
X0263479Y0241768D01*
X0263496Y0241643D01*
X0263510Y0241518D01*
X0263520Y0241393D01*
X0263526Y0241268D01*
X0263528Y0241142D01*
X0263526Y0241016D01*
X0263520Y0240891D01*
X0263510Y0240766D01*
X0263496Y0240641D01*
X0263479Y0240516D01*
X0263457Y0240392D01*
X0263432Y0240269D01*
X0263402Y0240147D01*
X0263369Y0240026D01*
X0263332Y0239906D01*
X0263292Y0239787D01*
X0263247Y0239670D01*
X0263199Y0239553D01*
X0263147Y0239439D01*
X0263092Y0239326D01*
X0263033Y0239215D01*
X0262971Y0239106D01*
X0262905Y0238999D01*
X0262836Y0238894D01*
X0262764Y0238791D01*
X0262689Y0238690D01*
X0262610Y0238592D01*
X0262528Y0238497D01*
X0262444Y0238404D01*
X0262356Y0238314D01*
X0262266Y0238226D01*
X0262173Y0238142D01*
X0262078Y0238060D01*
X0261980Y0237981D01*
X0261879Y0237906D01*
X0261776Y0237834D01*
X0261671Y0237765D01*
X0261564Y0237699D01*
X0261455Y0237637D01*
X0261344Y0237578D01*
X0261231Y0237523D01*
X0261117Y0237471D01*
X0261000Y0237423D01*
X0260883Y0237378D01*
X0260764Y0237338D01*
X0260644Y0237301D01*
X0260523Y0237268D01*
X0260401Y0237238D01*
X0260278Y0237213D01*
X0260154Y0237191D01*
X0260029Y0237174D01*
X0259904Y0237160D01*
X0259779Y0237150D01*
X0259654Y0237144D01*
X0259528Y0237142D01*
X0259528Y0229642D01*
X0299528Y0229642D01*
X0299528Y0252642D01*
X0259528Y0252642D01*
X0278165Y0289409D02*
X0278165Y0307909D01*
X0269665Y0307909D01*
X0269665Y0304909D01*
X0269665Y0307909D02*
X0269665Y0321909D01*
X0254165Y0321909D01*
X0253637Y0322150D02*
X0253637Y0328556D01*
X0250434Y0328556D01*
X0249367Y0327488D01*
X0249367Y0325353D01*
X0250434Y0324286D01*
X0253637Y0324286D01*
X0251502Y0324286D02*
X0249367Y0322150D01*
X0247192Y0322150D02*
X0242921Y0328556D01*
X0240746Y0328556D02*
X0237543Y0328556D01*
X0236476Y0327488D01*
X0236476Y0323218D01*
X0237543Y0322150D01*
X0240746Y0322150D01*
X0240746Y0328556D01*
X0247192Y0328556D02*
X0242921Y0322150D01*
X0245165Y0321909D02*
X0234165Y0321909D01*
X0234301Y0322150D02*
X0230030Y0326421D01*
X0230030Y0327488D01*
X0231098Y0328556D01*
X0233233Y0328556D01*
X0234301Y0327488D01*
X0234301Y0322150D02*
X0230030Y0322150D01*
X0225165Y0321909D02*
X0210165Y0321909D01*
X0209665Y0321909D02*
X0209665Y0307909D01*
X0209665Y0304909D01*
X0209665Y0307909D02*
X0201165Y0307909D01*
X0201165Y0289409D01*
X0197949Y0289409D02*
X0197949Y0307909D01*
X0189449Y0307909D01*
X0189449Y0304909D01*
X0189449Y0307909D02*
X0189449Y0321909D01*
X0173949Y0321909D01*
X0171777Y0322150D02*
X0171777Y0328556D01*
X0169642Y0328556D02*
X0173913Y0328556D01*
X0167467Y0328556D02*
X0163197Y0322150D01*
X0164949Y0321909D02*
X0153949Y0321909D01*
X0154576Y0322150D02*
X0150306Y0322150D01*
X0152441Y0322150D02*
X0152441Y0328556D01*
X0154576Y0326421D01*
X0156751Y0327488D02*
X0157819Y0328556D01*
X0161022Y0328556D01*
X0161022Y0322150D01*
X0157819Y0322150D01*
X0156751Y0323218D01*
X0156751Y0327488D01*
X0163197Y0328556D02*
X0167467Y0322150D01*
X0189449Y0321909D02*
X0198736Y0321909D01*
X0198736Y0324409D01*
X0198693Y0324016D01*
X0198693Y0326016D01*
X0198736Y0326409D01*
X0198736Y0329409D01*
X0119811Y0329409D01*
X0119811Y0326409D01*
X0119980Y0326409D01*
X0119980Y0324409D01*
X0119811Y0324409D01*
X0119811Y0321909D01*
X0129949Y0321909D02*
X0144949Y0321909D01*
X0200028Y0321909D02*
X0209665Y0321909D01*
X0200028Y0321909D02*
X0200028Y0324409D01*
X0200197Y0324409D01*
X0200197Y0326409D01*
X0200028Y0326409D01*
X0200028Y0329409D01*
X0278953Y0329409D01*
X0278953Y0326409D01*
X0278909Y0326016D01*
X0278909Y0324016D01*
X0278953Y0324409D01*
X0278953Y0321909D01*
X0269665Y0321909D01*
X0280244Y0321909D02*
X0289882Y0321909D01*
X0289882Y0307909D01*
X0289882Y0304909D01*
X0289882Y0307909D02*
X0281382Y0307909D01*
X0281382Y0289409D01*
X0280244Y0321909D02*
X0280244Y0324409D01*
X0280413Y0324409D01*
X0280413Y0326409D01*
X0280244Y0326409D01*
X0280244Y0329409D01*
X0359169Y0329409D01*
X0359169Y0326409D01*
X0359126Y0326016D01*
X0359126Y0324016D01*
X0359169Y0324409D01*
X0359169Y0321909D01*
X0349882Y0321909D01*
X0334382Y0321909D01*
X0333195Y0322150D02*
X0333195Y0328556D01*
X0335330Y0328556D02*
X0331060Y0328556D01*
X0328884Y0328556D02*
X0324614Y0322150D01*
X0325382Y0321909D02*
X0314382Y0321909D01*
X0315993Y0322150D02*
X0311723Y0326421D01*
X0311723Y0327488D01*
X0312791Y0328556D01*
X0314926Y0328556D01*
X0315993Y0327488D01*
X0318169Y0327488D02*
X0319236Y0328556D01*
X0322439Y0328556D01*
X0322439Y0322150D01*
X0319236Y0322150D01*
X0318169Y0323218D01*
X0318169Y0327488D01*
X0315993Y0322150D02*
X0311723Y0322150D01*
X0305382Y0321909D02*
X0290382Y0321909D01*
X0312382Y0289409D02*
X0327382Y0289409D01*
X0327382Y0281909D02*
X0327382Y0274409D01*
X0327382Y0271409D02*
X0327382Y0265409D01*
X0322382Y0265409D01*
X0317382Y0265409D02*
X0317382Y0271409D01*
X0312382Y0271409D01*
X0312382Y0273909D02*
X0307382Y0273909D01*
X0307382Y0281409D01*
X0312382Y0281409D01*
X0312920Y0250778D02*
X0312980Y0250776D01*
X0313041Y0250771D01*
X0313100Y0250762D01*
X0313159Y0250749D01*
X0313218Y0250733D01*
X0313275Y0250713D01*
X0313330Y0250690D01*
X0313385Y0250663D01*
X0313437Y0250634D01*
X0313488Y0250601D01*
X0313537Y0250565D01*
X0313583Y0250527D01*
X0313627Y0250485D01*
X0313669Y0250441D01*
X0313707Y0250395D01*
X0313743Y0250346D01*
X0313776Y0250295D01*
X0313805Y0250243D01*
X0313832Y0250188D01*
X0313855Y0250133D01*
X0313875Y0250076D01*
X0313891Y0250017D01*
X0313904Y0249958D01*
X0313913Y0249899D01*
X0313918Y0249838D01*
X0313920Y0249778D01*
X0313920Y0248278D01*
X0313420Y0247778D01*
X0313420Y0228778D01*
X0313920Y0228278D01*
X0313920Y0226778D01*
X0313918Y0226718D01*
X0313913Y0226657D01*
X0313904Y0226598D01*
X0313891Y0226539D01*
X0313875Y0226480D01*
X0313855Y0226423D01*
X0313832Y0226368D01*
X0313805Y0226313D01*
X0313776Y0226261D01*
X0313743Y0226210D01*
X0313707Y0226161D01*
X0313669Y0226115D01*
X0313627Y0226071D01*
X0313583Y0226029D01*
X0313537Y0225991D01*
X0313488Y0225955D01*
X0313437Y0225922D01*
X0313385Y0225893D01*
X0313330Y0225866D01*
X0313275Y0225843D01*
X0313218Y0225823D01*
X0313159Y0225807D01*
X0313100Y0225794D01*
X0313041Y0225785D01*
X0312980Y0225780D01*
X0312920Y0225778D01*
X0305920Y0225778D02*
X0305860Y0225780D01*
X0305799Y0225785D01*
X0305740Y0225794D01*
X0305681Y0225807D01*
X0305622Y0225823D01*
X0305565Y0225843D01*
X0305510Y0225866D01*
X0305455Y0225893D01*
X0305403Y0225922D01*
X0305352Y0225955D01*
X0305303Y0225991D01*
X0305257Y0226029D01*
X0305213Y0226071D01*
X0305171Y0226115D01*
X0305133Y0226161D01*
X0305097Y0226210D01*
X0305064Y0226261D01*
X0305035Y0226313D01*
X0305008Y0226368D01*
X0304985Y0226423D01*
X0304965Y0226480D01*
X0304949Y0226539D01*
X0304936Y0226598D01*
X0304927Y0226657D01*
X0304922Y0226718D01*
X0304920Y0226778D01*
X0304920Y0228278D01*
X0305420Y0228778D01*
X0305420Y0247778D01*
X0304920Y0248278D01*
X0304920Y0249778D01*
X0304922Y0249838D01*
X0304927Y0249899D01*
X0304936Y0249958D01*
X0304949Y0250017D01*
X0304965Y0250076D01*
X0304985Y0250133D01*
X0305008Y0250188D01*
X0305035Y0250243D01*
X0305064Y0250295D01*
X0305097Y0250346D01*
X0305133Y0250395D01*
X0305171Y0250441D01*
X0305213Y0250485D01*
X0305257Y0250527D01*
X0305303Y0250565D01*
X0305352Y0250601D01*
X0305403Y0250634D01*
X0305455Y0250663D01*
X0305510Y0250690D01*
X0305565Y0250713D01*
X0305622Y0250733D01*
X0305681Y0250749D01*
X0305740Y0250762D01*
X0305799Y0250771D01*
X0305860Y0250776D01*
X0305920Y0250778D01*
X0292012Y0217098D02*
X0290512Y0217098D01*
X0290012Y0216598D01*
X0271012Y0216598D01*
X0270512Y0217098D01*
X0269012Y0217098D01*
X0268952Y0217096D01*
X0268891Y0217091D01*
X0268832Y0217082D01*
X0268773Y0217069D01*
X0268714Y0217053D01*
X0268657Y0217033D01*
X0268602Y0217010D01*
X0268547Y0216983D01*
X0268495Y0216954D01*
X0268444Y0216921D01*
X0268395Y0216885D01*
X0268349Y0216847D01*
X0268305Y0216805D01*
X0268263Y0216761D01*
X0268225Y0216715D01*
X0268189Y0216666D01*
X0268156Y0216615D01*
X0268127Y0216563D01*
X0268100Y0216508D01*
X0268077Y0216453D01*
X0268057Y0216396D01*
X0268041Y0216337D01*
X0268028Y0216278D01*
X0268019Y0216219D01*
X0268014Y0216158D01*
X0268012Y0216098D01*
X0268012Y0209098D02*
X0268014Y0209038D01*
X0268019Y0208977D01*
X0268028Y0208918D01*
X0268041Y0208859D01*
X0268057Y0208800D01*
X0268077Y0208743D01*
X0268100Y0208688D01*
X0268127Y0208633D01*
X0268156Y0208581D01*
X0268189Y0208530D01*
X0268225Y0208481D01*
X0268263Y0208435D01*
X0268305Y0208391D01*
X0268349Y0208349D01*
X0268395Y0208311D01*
X0268444Y0208275D01*
X0268495Y0208242D01*
X0268547Y0208213D01*
X0268602Y0208186D01*
X0268657Y0208163D01*
X0268714Y0208143D01*
X0268773Y0208127D01*
X0268832Y0208114D01*
X0268891Y0208105D01*
X0268952Y0208100D01*
X0269012Y0208098D01*
X0270512Y0208098D01*
X0271012Y0208598D01*
X0290012Y0208598D01*
X0290512Y0208098D01*
X0292012Y0208098D01*
X0292072Y0208100D01*
X0292133Y0208105D01*
X0292192Y0208114D01*
X0292251Y0208127D01*
X0292310Y0208143D01*
X0292367Y0208163D01*
X0292422Y0208186D01*
X0292477Y0208213D01*
X0292529Y0208242D01*
X0292580Y0208275D01*
X0292629Y0208311D01*
X0292675Y0208349D01*
X0292719Y0208391D01*
X0292761Y0208435D01*
X0292799Y0208481D01*
X0292835Y0208530D01*
X0292868Y0208581D01*
X0292897Y0208633D01*
X0292924Y0208688D01*
X0292947Y0208743D01*
X0292967Y0208800D01*
X0292983Y0208859D01*
X0292996Y0208918D01*
X0293005Y0208977D01*
X0293010Y0209038D01*
X0293012Y0209098D01*
X0293012Y0216098D02*
X0293010Y0216158D01*
X0293005Y0216219D01*
X0292996Y0216278D01*
X0292983Y0216337D01*
X0292967Y0216396D01*
X0292947Y0216453D01*
X0292924Y0216508D01*
X0292897Y0216563D01*
X0292868Y0216615D01*
X0292835Y0216666D01*
X0292799Y0216715D01*
X0292761Y0216761D01*
X0292719Y0216805D01*
X0292675Y0216847D01*
X0292629Y0216885D01*
X0292580Y0216921D01*
X0292529Y0216954D01*
X0292477Y0216983D01*
X0292422Y0217010D01*
X0292367Y0217033D01*
X0292310Y0217053D01*
X0292251Y0217069D01*
X0292192Y0217082D01*
X0292133Y0217091D01*
X0292072Y0217096D01*
X0292012Y0217098D01*
X0273264Y0193055D02*
X0256264Y0193055D01*
X0256204Y0193053D01*
X0256143Y0193048D01*
X0256084Y0193039D01*
X0256025Y0193026D01*
X0255966Y0193010D01*
X0255909Y0192990D01*
X0255854Y0192967D01*
X0255799Y0192940D01*
X0255747Y0192911D01*
X0255696Y0192878D01*
X0255647Y0192842D01*
X0255601Y0192804D01*
X0255557Y0192762D01*
X0255515Y0192718D01*
X0255477Y0192672D01*
X0255441Y0192623D01*
X0255408Y0192572D01*
X0255379Y0192520D01*
X0255352Y0192465D01*
X0255329Y0192410D01*
X0255309Y0192353D01*
X0255293Y0192294D01*
X0255280Y0192235D01*
X0255271Y0192176D01*
X0255266Y0192115D01*
X0255264Y0192055D01*
X0255264Y0176055D01*
X0255266Y0175995D01*
X0255271Y0175934D01*
X0255280Y0175875D01*
X0255293Y0175816D01*
X0255309Y0175757D01*
X0255329Y0175700D01*
X0255352Y0175645D01*
X0255379Y0175590D01*
X0255408Y0175538D01*
X0255441Y0175487D01*
X0255477Y0175438D01*
X0255515Y0175392D01*
X0255557Y0175348D01*
X0255601Y0175306D01*
X0255647Y0175268D01*
X0255696Y0175232D01*
X0255747Y0175199D01*
X0255799Y0175170D01*
X0255854Y0175143D01*
X0255909Y0175120D01*
X0255966Y0175100D01*
X0256025Y0175084D01*
X0256084Y0175071D01*
X0256143Y0175062D01*
X0256204Y0175057D01*
X0256264Y0175055D01*
X0273264Y0175055D01*
X0273324Y0175057D01*
X0273385Y0175062D01*
X0273444Y0175071D01*
X0273503Y0175084D01*
X0273562Y0175100D01*
X0273619Y0175120D01*
X0273674Y0175143D01*
X0273729Y0175170D01*
X0273781Y0175199D01*
X0273832Y0175232D01*
X0273881Y0175268D01*
X0273927Y0175306D01*
X0273971Y0175348D01*
X0274013Y0175392D01*
X0274051Y0175438D01*
X0274087Y0175487D01*
X0274120Y0175538D01*
X0274149Y0175590D01*
X0274176Y0175645D01*
X0274199Y0175700D01*
X0274219Y0175757D01*
X0274235Y0175816D01*
X0274248Y0175875D01*
X0274257Y0175934D01*
X0274262Y0175995D01*
X0274264Y0176055D01*
X0274264Y0192055D01*
X0274262Y0192115D01*
X0274257Y0192176D01*
X0274248Y0192235D01*
X0274235Y0192294D01*
X0274219Y0192353D01*
X0274199Y0192410D01*
X0274176Y0192465D01*
X0274149Y0192520D01*
X0274120Y0192572D01*
X0274087Y0192623D01*
X0274051Y0192672D01*
X0274013Y0192718D01*
X0273971Y0192762D01*
X0273927Y0192804D01*
X0273881Y0192842D01*
X0273832Y0192878D01*
X0273781Y0192911D01*
X0273729Y0192940D01*
X0273674Y0192967D01*
X0273619Y0192990D01*
X0273562Y0193010D01*
X0273503Y0193026D01*
X0273444Y0193039D01*
X0273385Y0193048D01*
X0273324Y0193053D01*
X0273264Y0193055D01*
X0266264Y0184055D02*
X0265764Y0184055D01*
X0263764Y0184055D02*
X0263264Y0184055D01*
X0336925Y0232705D02*
X0338425Y0232705D01*
X0338925Y0233205D01*
X0357925Y0233205D01*
X0358425Y0232705D01*
X0359925Y0232705D01*
X0359985Y0232707D01*
X0360046Y0232712D01*
X0360105Y0232721D01*
X0360164Y0232734D01*
X0360223Y0232750D01*
X0360280Y0232770D01*
X0360335Y0232793D01*
X0360390Y0232820D01*
X0360442Y0232849D01*
X0360493Y0232882D01*
X0360542Y0232918D01*
X0360588Y0232956D01*
X0360632Y0232998D01*
X0360674Y0233042D01*
X0360712Y0233088D01*
X0360748Y0233137D01*
X0360781Y0233188D01*
X0360810Y0233240D01*
X0360837Y0233295D01*
X0360860Y0233350D01*
X0360880Y0233407D01*
X0360896Y0233466D01*
X0360909Y0233525D01*
X0360918Y0233584D01*
X0360923Y0233645D01*
X0360925Y0233705D01*
X0360925Y0240705D02*
X0360923Y0240765D01*
X0360918Y0240826D01*
X0360909Y0240885D01*
X0360896Y0240944D01*
X0360880Y0241003D01*
X0360860Y0241060D01*
X0360837Y0241115D01*
X0360810Y0241170D01*
X0360781Y0241222D01*
X0360748Y0241273D01*
X0360712Y0241322D01*
X0360674Y0241368D01*
X0360632Y0241412D01*
X0360588Y0241454D01*
X0360542Y0241492D01*
X0360493Y0241528D01*
X0360442Y0241561D01*
X0360390Y0241590D01*
X0360335Y0241617D01*
X0360280Y0241640D01*
X0360223Y0241660D01*
X0360164Y0241676D01*
X0360105Y0241689D01*
X0360046Y0241698D01*
X0359985Y0241703D01*
X0359925Y0241705D01*
X0358425Y0241705D01*
X0357925Y0241205D01*
X0338925Y0241205D01*
X0338425Y0241705D01*
X0336925Y0241705D01*
X0336865Y0241703D01*
X0336804Y0241698D01*
X0336745Y0241689D01*
X0336686Y0241676D01*
X0336627Y0241660D01*
X0336570Y0241640D01*
X0336515Y0241617D01*
X0336460Y0241590D01*
X0336408Y0241561D01*
X0336357Y0241528D01*
X0336308Y0241492D01*
X0336262Y0241454D01*
X0336218Y0241412D01*
X0336176Y0241368D01*
X0336138Y0241322D01*
X0336102Y0241273D01*
X0336069Y0241222D01*
X0336040Y0241170D01*
X0336013Y0241115D01*
X0335990Y0241060D01*
X0335970Y0241003D01*
X0335954Y0240944D01*
X0335941Y0240885D01*
X0335932Y0240826D01*
X0335927Y0240765D01*
X0335925Y0240705D01*
X0337909Y0246484D02*
X0339409Y0246484D01*
X0339909Y0246984D01*
X0358909Y0246984D01*
X0359409Y0246484D01*
X0360909Y0246484D01*
X0360969Y0246486D01*
X0361030Y0246491D01*
X0361089Y0246500D01*
X0361148Y0246513D01*
X0361207Y0246529D01*
X0361264Y0246549D01*
X0361319Y0246572D01*
X0361374Y0246599D01*
X0361426Y0246628D01*
X0361477Y0246661D01*
X0361526Y0246697D01*
X0361572Y0246735D01*
X0361616Y0246777D01*
X0361658Y0246821D01*
X0361696Y0246867D01*
X0361732Y0246916D01*
X0361765Y0246967D01*
X0361794Y0247019D01*
X0361821Y0247074D01*
X0361844Y0247129D01*
X0361864Y0247186D01*
X0361880Y0247245D01*
X0361893Y0247304D01*
X0361902Y0247363D01*
X0361907Y0247424D01*
X0361909Y0247484D01*
X0361909Y0254484D02*
X0361907Y0254544D01*
X0361902Y0254605D01*
X0361893Y0254664D01*
X0361880Y0254723D01*
X0361864Y0254782D01*
X0361844Y0254839D01*
X0361821Y0254894D01*
X0361794Y0254949D01*
X0361765Y0255001D01*
X0361732Y0255052D01*
X0361696Y0255101D01*
X0361658Y0255147D01*
X0361616Y0255191D01*
X0361572Y0255233D01*
X0361526Y0255271D01*
X0361477Y0255307D01*
X0361426Y0255340D01*
X0361374Y0255369D01*
X0361319Y0255396D01*
X0361264Y0255419D01*
X0361207Y0255439D01*
X0361148Y0255455D01*
X0361089Y0255468D01*
X0361030Y0255477D01*
X0360969Y0255482D01*
X0360909Y0255484D01*
X0359409Y0255484D01*
X0358909Y0254984D01*
X0339909Y0254984D01*
X0339409Y0255484D01*
X0337909Y0255484D01*
X0337849Y0255482D01*
X0337788Y0255477D01*
X0337729Y0255468D01*
X0337670Y0255455D01*
X0337611Y0255439D01*
X0337554Y0255419D01*
X0337499Y0255396D01*
X0337444Y0255369D01*
X0337392Y0255340D01*
X0337341Y0255307D01*
X0337292Y0255271D01*
X0337246Y0255233D01*
X0337202Y0255191D01*
X0337160Y0255147D01*
X0337122Y0255101D01*
X0337086Y0255052D01*
X0337053Y0255001D01*
X0337024Y0254949D01*
X0336997Y0254894D01*
X0336974Y0254839D01*
X0336954Y0254782D01*
X0336938Y0254723D01*
X0336925Y0254664D01*
X0336916Y0254605D01*
X0336911Y0254544D01*
X0336909Y0254484D01*
X0336909Y0247484D02*
X0336911Y0247424D01*
X0336916Y0247363D01*
X0336925Y0247304D01*
X0336938Y0247245D01*
X0336954Y0247186D01*
X0336974Y0247129D01*
X0336997Y0247074D01*
X0337024Y0247019D01*
X0337053Y0246967D01*
X0337086Y0246916D01*
X0337122Y0246867D01*
X0337160Y0246821D01*
X0337202Y0246777D01*
X0337246Y0246735D01*
X0337292Y0246697D01*
X0337341Y0246661D01*
X0337392Y0246628D01*
X0337444Y0246599D01*
X0337499Y0246572D01*
X0337554Y0246549D01*
X0337611Y0246529D01*
X0337670Y0246513D01*
X0337729Y0246500D01*
X0337788Y0246491D01*
X0337849Y0246486D01*
X0337909Y0246484D01*
X0335925Y0233705D02*
X0335927Y0233645D01*
X0335932Y0233584D01*
X0335941Y0233525D01*
X0335954Y0233466D01*
X0335970Y0233407D01*
X0335990Y0233350D01*
X0336013Y0233295D01*
X0336040Y0233240D01*
X0336069Y0233188D01*
X0336102Y0233137D01*
X0336138Y0233088D01*
X0336176Y0233042D01*
X0336218Y0232998D01*
X0336262Y0232956D01*
X0336308Y0232918D01*
X0336357Y0232882D01*
X0336408Y0232849D01*
X0336460Y0232820D01*
X0336515Y0232793D01*
X0336570Y0232770D01*
X0336627Y0232750D01*
X0336686Y0232734D01*
X0336745Y0232721D01*
X0336804Y0232712D01*
X0336865Y0232707D01*
X0336925Y0232705D01*
X0354382Y0274409D02*
X0358382Y0289409D01*
X0349882Y0304909D02*
X0349882Y0307909D01*
X0358382Y0307909D01*
X0349882Y0307909D02*
X0349882Y0321909D01*
X0328884Y0322150D02*
X0324614Y0328556D01*
D13*
X0316985Y0288163D02*
X0317736Y0287413D01*
X0316985Y0288163D02*
X0315484Y0288163D01*
X0314733Y0287413D01*
X0314733Y0286662D01*
X0317736Y0283659D01*
X0314733Y0283659D01*
X0299736Y0284410D02*
X0298985Y0283659D01*
X0297484Y0283659D01*
X0296733Y0284410D01*
X0296733Y0285161D01*
X0297484Y0285911D01*
X0298235Y0285911D01*
X0297484Y0285911D02*
X0296733Y0286662D01*
X0296733Y0287413D01*
X0297484Y0288163D01*
X0298985Y0288163D01*
X0299736Y0287413D01*
X0291736Y0271663D02*
X0288733Y0271663D01*
X0289484Y0270162D02*
X0288733Y0269411D01*
X0288733Y0267910D01*
X0289484Y0267159D01*
X0290985Y0267159D01*
X0291736Y0267910D01*
X0291736Y0269411D02*
X0290235Y0270162D01*
X0289484Y0270162D01*
X0291736Y0269411D02*
X0291736Y0271663D01*
X0272519Y0269411D02*
X0269517Y0269411D01*
X0270267Y0267159D02*
X0270267Y0271663D01*
X0272519Y0269411D01*
X0264019Y0283659D02*
X0261017Y0283659D01*
X0262518Y0283659D02*
X0262518Y0288163D01*
X0264019Y0286662D01*
X0237519Y0287413D02*
X0236769Y0288163D01*
X0235267Y0288163D01*
X0234517Y0287413D01*
X0234517Y0286662D01*
X0237519Y0283659D01*
X0234517Y0283659D01*
X0219519Y0284410D02*
X0218769Y0283659D01*
X0217267Y0283659D01*
X0216517Y0284410D01*
X0216517Y0285161D01*
X0217267Y0285911D01*
X0218018Y0285911D01*
X0217267Y0285911D02*
X0216517Y0286662D01*
X0216517Y0287413D01*
X0217267Y0288163D01*
X0218769Y0288163D01*
X0219519Y0287413D01*
X0211519Y0271663D02*
X0208517Y0271663D01*
X0209267Y0270162D02*
X0208517Y0269411D01*
X0208517Y0267910D01*
X0209267Y0267159D01*
X0210769Y0267159D01*
X0211519Y0267910D01*
X0211519Y0269411D02*
X0210018Y0270162D01*
X0209267Y0270162D01*
X0211519Y0269411D02*
X0211519Y0271663D01*
X0212380Y0258759D02*
X0214632Y0258759D01*
X0214632Y0254255D01*
X0212380Y0254255D01*
X0211630Y0255005D01*
X0211630Y0258008D01*
X0212380Y0258759D01*
X0210028Y0258008D02*
X0209278Y0258759D01*
X0207776Y0258759D01*
X0207026Y0258008D01*
X0207026Y0257257D01*
X0210028Y0254255D01*
X0207026Y0254255D01*
X0207352Y0244080D02*
X0208853Y0244080D01*
X0209604Y0243329D01*
X0211205Y0243329D02*
X0211956Y0244080D01*
X0213457Y0244080D01*
X0214207Y0243329D01*
X0211205Y0243329D02*
X0211205Y0242579D01*
X0214207Y0239576D01*
X0211205Y0239576D01*
X0209604Y0239576D02*
X0206601Y0242579D01*
X0206601Y0243329D01*
X0207352Y0244080D01*
X0205000Y0243329D02*
X0204249Y0244080D01*
X0202748Y0244080D01*
X0201997Y0243329D01*
X0205000Y0240327D01*
X0204249Y0239576D01*
X0202748Y0239576D01*
X0201997Y0240327D01*
X0201997Y0243329D01*
X0205000Y0243329D02*
X0205000Y0240327D01*
X0206601Y0239576D02*
X0209604Y0239576D01*
X0222075Y0247379D02*
X0222825Y0246629D01*
X0224327Y0246629D01*
X0225077Y0247379D01*
X0225077Y0248130D01*
X0224327Y0248881D01*
X0222825Y0248881D01*
X0222075Y0248130D01*
X0222075Y0247379D01*
X0222825Y0248881D02*
X0222075Y0249631D01*
X0222075Y0250382D01*
X0222825Y0251133D01*
X0224327Y0251133D01*
X0225077Y0250382D01*
X0225077Y0249631D01*
X0224327Y0248881D01*
X0226679Y0248881D02*
X0229681Y0248881D01*
X0227429Y0251133D01*
X0227429Y0246629D01*
X0231283Y0246629D02*
X0234285Y0246629D01*
X0232784Y0246629D02*
X0232784Y0251133D01*
X0234285Y0249631D01*
X0235886Y0248881D02*
X0238889Y0248881D01*
X0236637Y0251133D01*
X0236637Y0246629D01*
X0240490Y0246629D02*
X0240490Y0251133D01*
X0243493Y0251133D02*
X0240490Y0246629D01*
X0243493Y0246629D02*
X0243493Y0251133D01*
X0246596Y0251133D02*
X0246596Y0246629D01*
X0248097Y0246629D02*
X0245094Y0246629D01*
X0248097Y0249631D02*
X0246596Y0251133D01*
X0253778Y0251290D02*
X0253778Y0248288D01*
X0256780Y0251290D01*
X0257531Y0251290D01*
X0258281Y0250540D01*
X0258281Y0249038D01*
X0257531Y0248288D01*
X0258281Y0246686D02*
X0255279Y0243684D01*
X0256029Y0244434D02*
X0253778Y0246686D01*
X0253778Y0243684D02*
X0258281Y0243684D01*
X0257531Y0242082D02*
X0258281Y0241332D01*
X0258281Y0239831D01*
X0257531Y0239080D01*
X0254528Y0239080D01*
X0253778Y0239831D01*
X0253778Y0241332D01*
X0254528Y0242082D01*
X0257531Y0242082D01*
X0266879Y0242645D02*
X0269882Y0239642D01*
X0269882Y0238892D01*
X0271483Y0239642D02*
X0272234Y0238892D01*
X0273735Y0238892D01*
X0274485Y0239642D01*
X0276087Y0238892D02*
X0279089Y0238892D01*
X0277588Y0238892D02*
X0277588Y0243396D01*
X0279089Y0241894D01*
X0280691Y0243396D02*
X0280691Y0238892D01*
X0283693Y0243396D01*
X0283693Y0238892D01*
X0285295Y0239642D02*
X0285295Y0240393D01*
X0286045Y0241144D01*
X0288297Y0241144D01*
X0288297Y0239642D01*
X0287547Y0238892D01*
X0286045Y0238892D01*
X0285295Y0239642D01*
X0288297Y0241144D02*
X0286796Y0242645D01*
X0285295Y0243396D01*
X0274485Y0242645D02*
X0273735Y0243396D01*
X0272234Y0243396D01*
X0271483Y0242645D01*
X0271483Y0241894D01*
X0272234Y0241144D01*
X0271483Y0240393D01*
X0271483Y0239642D01*
X0272234Y0241144D02*
X0272984Y0241144D01*
X0269882Y0243396D02*
X0266879Y0243396D01*
X0266879Y0242645D01*
X0259750Y0217931D02*
X0257498Y0217931D01*
X0256747Y0217180D01*
X0256747Y0215679D01*
X0257498Y0214928D01*
X0259750Y0214928D01*
X0259750Y0213427D02*
X0259750Y0217931D01*
X0258249Y0214928D02*
X0256747Y0213427D01*
X0255146Y0213427D02*
X0252144Y0213427D01*
X0253645Y0213427D02*
X0253645Y0217931D01*
X0255146Y0216430D01*
X0250542Y0216430D02*
X0249041Y0217931D01*
X0249041Y0213427D01*
X0250542Y0213427D02*
X0247540Y0213427D01*
X0253178Y0192903D02*
X0256181Y0192903D01*
X0256181Y0188400D01*
X0257782Y0188400D02*
X0257782Y0191402D01*
X0256181Y0190652D02*
X0254679Y0190652D01*
X0257782Y0188400D02*
X0260034Y0188400D01*
X0260785Y0189150D01*
X0260785Y0191402D01*
X0262386Y0188400D02*
X0265389Y0188400D01*
X0263887Y0188400D02*
X0263887Y0192903D01*
X0265389Y0191402D01*
X0266940Y0189150D02*
X0266940Y0188400D01*
X0267691Y0188400D01*
X0267691Y0189150D01*
X0266940Y0189150D01*
X0269292Y0189150D02*
X0270043Y0188400D01*
X0271544Y0188400D01*
X0272294Y0189150D01*
X0269292Y0192153D01*
X0269292Y0189150D01*
X0272294Y0189150D02*
X0272294Y0192153D01*
X0271544Y0192903D01*
X0270043Y0192903D01*
X0269292Y0192153D01*
X0269042Y0180699D02*
X0270543Y0180699D01*
X0271294Y0179948D01*
X0271294Y0176946D01*
X0270543Y0176195D01*
X0269042Y0176195D01*
X0268292Y0176946D01*
X0266690Y0176195D02*
X0263688Y0176195D01*
X0265189Y0176195D02*
X0265189Y0180699D01*
X0266690Y0179197D01*
X0268292Y0179948D02*
X0269042Y0180699D01*
X0262086Y0179948D02*
X0261336Y0180699D01*
X0259834Y0180699D01*
X0259084Y0179948D01*
X0259084Y0179197D01*
X0262086Y0176195D01*
X0259084Y0176195D01*
X0282406Y0210648D02*
X0284658Y0212150D01*
X0282406Y0213651D01*
X0284658Y0215152D02*
X0284658Y0210648D01*
X0286259Y0210648D02*
X0289262Y0210648D01*
X0287761Y0210648D02*
X0287761Y0215152D01*
X0289262Y0213651D01*
X0306870Y0233717D02*
X0309873Y0236719D01*
X0310624Y0236719D01*
X0311374Y0235968D01*
X0311374Y0234467D01*
X0310624Y0233717D01*
X0306870Y0233717D02*
X0306870Y0236719D01*
X0306870Y0238320D02*
X0309873Y0241323D01*
X0310624Y0241323D01*
X0311374Y0240572D01*
X0311374Y0239071D01*
X0310624Y0238320D01*
X0306870Y0238320D02*
X0306870Y0241323D01*
X0307621Y0242924D02*
X0306870Y0243675D01*
X0306870Y0245176D01*
X0307621Y0245927D01*
X0310624Y0245927D01*
X0307621Y0242924D01*
X0310624Y0242924D01*
X0311374Y0243675D01*
X0311374Y0245176D01*
X0310624Y0245927D01*
X0315903Y0241255D02*
X0316653Y0242006D01*
X0317404Y0242006D01*
X0318155Y0241255D01*
X0318155Y0239003D01*
X0316653Y0239003D01*
X0315903Y0239754D01*
X0315903Y0241255D01*
X0318155Y0239003D02*
X0319656Y0240504D01*
X0320406Y0242006D01*
X0319656Y0237402D02*
X0318155Y0237402D01*
X0317404Y0236651D01*
X0317404Y0234399D01*
X0315903Y0234399D02*
X0320406Y0234399D01*
X0320406Y0236651D01*
X0319656Y0237402D01*
X0317404Y0235901D02*
X0315903Y0237402D01*
X0344965Y0236005D02*
X0345715Y0235255D01*
X0347217Y0235255D01*
X0347967Y0236005D01*
X0344965Y0239008D01*
X0344965Y0236005D01*
X0347967Y0236005D02*
X0347967Y0239008D01*
X0347217Y0239759D01*
X0345715Y0239759D01*
X0344965Y0239008D01*
X0349569Y0239008D02*
X0350319Y0239759D01*
X0351821Y0239759D01*
X0352571Y0239008D01*
X0354173Y0239008D02*
X0354923Y0239759D01*
X0356425Y0239759D01*
X0357175Y0239008D01*
X0354173Y0239008D02*
X0354173Y0238257D01*
X0357175Y0235255D01*
X0354173Y0235255D01*
X0352571Y0235255D02*
X0349569Y0238257D01*
X0349569Y0239008D01*
X0349569Y0235255D02*
X0352571Y0235255D01*
X0352821Y0242955D02*
X0351319Y0242955D01*
X0350569Y0243705D01*
X0350569Y0246708D01*
X0351319Y0247459D01*
X0352821Y0247459D01*
X0353571Y0246708D01*
X0353571Y0245957D01*
X0352821Y0245207D01*
X0350569Y0245207D01*
X0352821Y0242955D02*
X0353571Y0243705D01*
X0355173Y0242955D02*
X0356674Y0244456D01*
X0355923Y0244456D02*
X0358175Y0244456D01*
X0358175Y0242955D02*
X0358175Y0247459D01*
X0355923Y0247459D01*
X0355173Y0246708D01*
X0355173Y0245207D01*
X0355923Y0244456D01*
X0355157Y0249034D02*
X0358159Y0249034D01*
X0355157Y0252037D01*
X0355157Y0252787D01*
X0355908Y0253538D01*
X0357409Y0253538D01*
X0358159Y0252787D01*
X0359159Y0256734D02*
X0359159Y0261238D01*
X0356908Y0261238D01*
X0356157Y0260487D01*
X0356157Y0258986D01*
X0356908Y0258236D01*
X0359159Y0258236D01*
X0357658Y0258236D02*
X0356157Y0256734D01*
X0354556Y0256734D02*
X0351553Y0256734D01*
X0353054Y0256734D02*
X0353054Y0261238D01*
X0354556Y0259737D01*
X0349952Y0260487D02*
X0349201Y0261238D01*
X0347700Y0261238D01*
X0346949Y0260487D01*
X0349952Y0257485D01*
X0349201Y0256734D01*
X0347700Y0256734D01*
X0346949Y0257485D01*
X0346949Y0260487D01*
X0349952Y0260487D02*
X0349952Y0257485D01*
X0351304Y0253538D02*
X0352805Y0253538D01*
X0353556Y0252787D01*
X0351304Y0253538D02*
X0350553Y0252787D01*
X0350553Y0252037D01*
X0353556Y0249034D01*
X0350553Y0249034D01*
X0348952Y0249785D02*
X0345949Y0252787D01*
X0345949Y0249785D01*
X0346700Y0249034D01*
X0348201Y0249034D01*
X0348952Y0249785D01*
X0348952Y0252787D01*
X0348201Y0253538D01*
X0346700Y0253538D01*
X0345949Y0252787D01*
X0350484Y0267159D02*
X0350484Y0271663D01*
X0352736Y0269411D01*
X0349733Y0269411D01*
X0344236Y0283659D02*
X0341233Y0283659D01*
X0342735Y0283659D02*
X0342735Y0288163D01*
X0344236Y0286662D01*
X0206600Y0214978D02*
X0206600Y0210474D01*
X0206600Y0211976D02*
X0204348Y0211976D01*
X0203598Y0212726D01*
X0203598Y0214228D01*
X0204348Y0214978D01*
X0206600Y0214978D01*
X0205099Y0211976D02*
X0203598Y0210474D01*
X0201996Y0210474D02*
X0198994Y0210474D01*
X0200495Y0210474D02*
X0200495Y0214978D01*
X0201996Y0213477D01*
X0197393Y0214228D02*
X0196642Y0214978D01*
X0195141Y0214978D01*
X0194390Y0214228D01*
X0194390Y0213477D01*
X0197393Y0210474D01*
X0194390Y0210474D01*
X0181978Y0210648D02*
X0178976Y0210648D01*
X0180477Y0210648D02*
X0180477Y0215152D01*
X0181978Y0213651D01*
X0177374Y0215152D02*
X0177374Y0210648D01*
X0177374Y0212150D02*
X0175123Y0210648D01*
X0177374Y0212150D02*
X0175123Y0213651D01*
X0174825Y0237907D02*
X0174074Y0238658D01*
X0174074Y0239409D01*
X0174825Y0240159D01*
X0177077Y0240159D01*
X0177077Y0238658D01*
X0176326Y0237907D01*
X0174825Y0237907D01*
X0172473Y0237907D02*
X0172473Y0242411D01*
X0169470Y0237907D01*
X0169470Y0242411D01*
X0167869Y0240910D02*
X0166368Y0242411D01*
X0166368Y0237907D01*
X0167869Y0237907D02*
X0164866Y0237907D01*
X0163265Y0238658D02*
X0162514Y0237907D01*
X0161013Y0237907D01*
X0160262Y0238658D01*
X0160262Y0239409D01*
X0161013Y0240159D01*
X0161764Y0240159D01*
X0161013Y0240159D02*
X0160262Y0240910D01*
X0160262Y0241661D01*
X0161013Y0242411D01*
X0162514Y0242411D01*
X0163265Y0241661D01*
X0162613Y0244919D02*
X0162613Y0249423D01*
X0164114Y0247922D01*
X0165715Y0249423D02*
X0168718Y0246421D01*
X0167967Y0247171D02*
X0165715Y0244919D01*
X0164114Y0244919D02*
X0161111Y0244919D01*
X0158661Y0242411D02*
X0155659Y0242411D01*
X0155659Y0241661D01*
X0158661Y0238658D01*
X0158661Y0237907D01*
X0168718Y0244919D02*
X0168718Y0249423D01*
X0170319Y0248672D02*
X0171070Y0249423D01*
X0172571Y0249423D01*
X0173322Y0248672D01*
X0173322Y0245670D01*
X0172571Y0244919D01*
X0171070Y0244919D01*
X0170319Y0245670D01*
X0170319Y0248672D01*
X0174074Y0242411D02*
X0175575Y0241661D01*
X0177077Y0240159D01*
X0190051Y0267159D02*
X0190051Y0271663D01*
X0192303Y0269411D01*
X0189300Y0269411D01*
X0183803Y0283659D02*
X0180800Y0283659D01*
X0182301Y0283659D02*
X0182301Y0288163D01*
X0183803Y0286662D01*
X0157303Y0287413D02*
X0156552Y0288163D01*
X0155051Y0288163D01*
X0154300Y0287413D01*
X0154300Y0286662D01*
X0157303Y0283659D01*
X0154300Y0283659D01*
X0139303Y0284410D02*
X0138552Y0283659D01*
X0137051Y0283659D01*
X0136300Y0284410D01*
X0136300Y0285161D01*
X0137051Y0285911D01*
X0137801Y0285911D01*
X0137051Y0285911D02*
X0136300Y0286662D01*
X0136300Y0287413D01*
X0137051Y0288163D01*
X0138552Y0288163D01*
X0139303Y0287413D01*
X0131303Y0271663D02*
X0128300Y0271663D01*
X0129051Y0270162D02*
X0128300Y0269411D01*
X0128300Y0267910D01*
X0129051Y0267159D01*
X0130552Y0267159D01*
X0131303Y0267910D01*
X0131303Y0269411D02*
X0129801Y0270162D01*
X0129051Y0270162D01*
X0131303Y0269411D02*
X0131303Y0271663D01*
X0116033Y0258770D02*
X0113782Y0258770D01*
X0113031Y0258019D01*
X0113031Y0255016D01*
X0113782Y0254266D01*
X0116033Y0254266D01*
X0116033Y0258770D01*
X0111430Y0257268D02*
X0109928Y0258770D01*
X0109928Y0254266D01*
X0108427Y0254266D02*
X0111430Y0254266D01*
X0110745Y0247033D02*
X0109244Y0247033D01*
X0108493Y0246282D01*
X0111496Y0243279D01*
X0110745Y0242529D01*
X0109244Y0242529D01*
X0108493Y0243279D01*
X0108493Y0246282D01*
X0110745Y0247033D02*
X0111496Y0246282D01*
X0111496Y0243279D01*
X0113097Y0242529D02*
X0116100Y0242529D01*
X0113097Y0245531D01*
X0113097Y0246282D01*
X0113848Y0247033D01*
X0115349Y0247033D01*
X0116100Y0246282D01*
X0117701Y0246282D02*
X0118452Y0247033D01*
X0119953Y0247033D01*
X0120704Y0246282D01*
X0117701Y0246282D02*
X0117701Y0245531D01*
X0120704Y0242529D01*
X0117701Y0242529D01*
X0116084Y0239333D02*
X0113832Y0239333D01*
X0113081Y0238582D01*
X0113081Y0237081D01*
X0113832Y0236330D01*
X0116084Y0236330D01*
X0116084Y0234829D02*
X0116084Y0239333D01*
X0114583Y0236330D02*
X0113081Y0234829D01*
X0111480Y0235579D02*
X0110729Y0234829D01*
X0109228Y0234829D01*
X0108477Y0235579D01*
X0108477Y0237081D01*
X0109228Y0237831D01*
X0109979Y0237831D01*
X0111480Y0237081D01*
X0111480Y0239333D01*
X0108477Y0239333D01*
X0094380Y0245656D02*
X0091377Y0245656D01*
X0092879Y0245656D02*
X0092879Y0250159D01*
X0094380Y0248658D01*
X0089776Y0250159D02*
X0086773Y0245656D01*
X0086773Y0250159D01*
X0085172Y0247907D02*
X0082170Y0247907D01*
X0080568Y0248658D02*
X0079067Y0250159D01*
X0079067Y0245656D01*
X0080568Y0245656D02*
X0077566Y0245656D01*
X0075964Y0247907D02*
X0072962Y0247907D01*
X0071360Y0247157D02*
X0070610Y0247907D01*
X0069108Y0247907D01*
X0068358Y0247157D01*
X0068358Y0246406D01*
X0069108Y0245656D01*
X0070610Y0245656D01*
X0071360Y0246406D01*
X0071360Y0247157D01*
X0070610Y0247907D02*
X0071360Y0248658D01*
X0071360Y0249409D01*
X0070610Y0250159D01*
X0069108Y0250159D01*
X0068358Y0249409D01*
X0068358Y0248658D01*
X0069108Y0247907D01*
X0073712Y0245656D02*
X0073712Y0250159D01*
X0075964Y0247907D01*
X0082920Y0245656D02*
X0082920Y0250159D01*
X0085172Y0247907D01*
X0089776Y0245656D02*
X0089776Y0250159D01*
X0109834Y0267159D02*
X0109834Y0271663D01*
X0112086Y0269411D01*
X0109084Y0269411D01*
X0103586Y0283659D02*
X0100584Y0283659D01*
X0102085Y0283659D02*
X0102085Y0288163D01*
X0103586Y0286662D01*
X0077086Y0287413D02*
X0076336Y0288163D01*
X0074834Y0288163D01*
X0074084Y0287413D01*
X0074084Y0286662D01*
X0077086Y0283659D01*
X0074084Y0283659D01*
X0059086Y0284410D02*
X0058336Y0283659D01*
X0056834Y0283659D01*
X0056084Y0284410D01*
X0056084Y0285161D01*
X0056834Y0285911D01*
X0057585Y0285911D01*
X0056834Y0285911D02*
X0056084Y0286662D01*
X0056084Y0287413D01*
X0056834Y0288163D01*
X0058336Y0288163D01*
X0059086Y0287413D01*
X0051086Y0271663D02*
X0051086Y0269411D01*
X0049585Y0270162D01*
X0048834Y0270162D01*
X0048084Y0269411D01*
X0048084Y0267910D01*
X0048834Y0267159D01*
X0050336Y0267159D01*
X0051086Y0267910D01*
X0051086Y0271663D02*
X0048084Y0271663D01*
X0048531Y0231811D02*
X0048531Y0221811D01*
X0128531Y0221811D01*
X0128531Y0231811D01*
X0048531Y0231811D01*
X0131482Y0231407D02*
X0132984Y0229906D01*
X0132984Y0230656D02*
X0132984Y0228404D01*
X0131482Y0228404D02*
X0135986Y0228404D01*
X0135986Y0230656D01*
X0135235Y0231407D01*
X0133734Y0231407D01*
X0132984Y0230656D01*
X0132984Y0233008D02*
X0133734Y0233759D01*
X0133734Y0235260D01*
X0132984Y0236011D01*
X0132233Y0236011D01*
X0131482Y0235260D01*
X0131482Y0233759D01*
X0132233Y0233008D01*
X0132984Y0233008D01*
X0133734Y0233759D02*
X0134485Y0233008D01*
X0135235Y0233008D01*
X0135986Y0233759D01*
X0135986Y0235260D01*
X0135235Y0236011D01*
X0134485Y0236011D01*
X0133734Y0235260D01*
X0139182Y0236580D02*
X0142185Y0239582D01*
X0142935Y0239582D01*
X0143686Y0238832D01*
X0143686Y0237331D01*
X0142935Y0236580D01*
X0139182Y0236580D02*
X0139182Y0239582D01*
X0139182Y0241184D02*
X0142185Y0244186D01*
X0142935Y0244186D01*
X0143686Y0243436D01*
X0143686Y0241934D01*
X0142935Y0241184D01*
X0139182Y0241184D02*
X0139182Y0244186D01*
X0139933Y0245788D02*
X0142935Y0248790D01*
X0139933Y0248790D01*
X0139182Y0248040D01*
X0139182Y0246538D01*
X0139933Y0245788D01*
X0142935Y0245788D01*
X0143686Y0246538D01*
X0143686Y0248040D01*
X0142935Y0248790D01*
D14*
X0263764Y0187055D02*
X0263764Y0184055D01*
X0263764Y0181055D01*
X0265764Y0181055D02*
X0265764Y0184055D01*
X0265764Y0187055D01*
D15*
X0244863Y0256879D03*
X0093114Y0256890D03*
D16*
X0096864Y0256890D03*
X0076364Y0256890D03*
X0228113Y0256879D03*
X0248613Y0256879D03*
D17*
X0360059Y0278740D02*
X0360059Y0295669D01*
X0360059Y0303110D02*
X0360059Y0316535D01*
X0393524Y0316535D01*
X0393327Y0316535D01*
X0393524Y0316535D02*
X0393524Y0274803D01*
X0375807Y0274803D01*
D18*
X0346799Y0292759D02*
X0346799Y0299065D01*
X0344697Y0296963D01*
X0342595Y0299065D01*
X0342595Y0292759D01*
X0340353Y0292759D02*
X0338252Y0292759D01*
X0339303Y0292759D02*
X0339303Y0299065D01*
X0340353Y0299065D02*
X0338252Y0299065D01*
X0336056Y0299065D02*
X0336056Y0292759D01*
X0332904Y0292759D01*
X0331853Y0293810D01*
X0331853Y0298014D01*
X0332904Y0299065D01*
X0336056Y0299065D01*
X0329611Y0299065D02*
X0327509Y0299065D01*
X0328560Y0299065D02*
X0328560Y0292759D01*
X0329611Y0292759D02*
X0327509Y0292759D01*
X0325314Y0293810D02*
X0324263Y0292759D01*
X0323212Y0292759D01*
X0322161Y0293810D01*
X0322161Y0299065D01*
X0323212Y0299065D02*
X0321110Y0299065D01*
X0318868Y0296963D02*
X0318868Y0292759D01*
X0318868Y0295912D02*
X0314665Y0295912D01*
X0314665Y0296963D02*
X0314665Y0292759D01*
X0312423Y0293810D02*
X0311372Y0292759D01*
X0309270Y0292759D01*
X0308219Y0293810D01*
X0305977Y0292759D02*
X0305977Y0299065D01*
X0308219Y0298014D02*
X0309270Y0299065D01*
X0311372Y0299065D01*
X0312423Y0298014D01*
X0312423Y0293810D01*
X0314665Y0296963D02*
X0316767Y0299065D01*
X0318868Y0296963D01*
X0305977Y0294861D02*
X0301774Y0299065D01*
X0304927Y0295912D02*
X0301774Y0292759D01*
X0266582Y0292759D02*
X0266582Y0299065D01*
X0264481Y0296963D01*
X0262379Y0299065D01*
X0262379Y0292759D01*
X0260137Y0292759D02*
X0258035Y0292759D01*
X0259086Y0292759D02*
X0259086Y0299065D01*
X0260137Y0299065D02*
X0258035Y0299065D01*
X0255840Y0299065D02*
X0252687Y0299065D01*
X0251636Y0298014D01*
X0251636Y0293810D01*
X0252687Y0292759D01*
X0255840Y0292759D01*
X0255840Y0299065D01*
X0249394Y0299065D02*
X0247293Y0299065D01*
X0248344Y0299065D02*
X0248344Y0292759D01*
X0249394Y0292759D02*
X0247293Y0292759D01*
X0245097Y0293810D02*
X0244047Y0292759D01*
X0242996Y0292759D01*
X0241945Y0293810D01*
X0241945Y0299065D01*
X0242996Y0299065D02*
X0240894Y0299065D01*
X0238652Y0296963D02*
X0238652Y0292759D01*
X0238652Y0295912D02*
X0234448Y0295912D01*
X0234448Y0296963D02*
X0234448Y0292759D01*
X0232206Y0293810D02*
X0231156Y0292759D01*
X0229054Y0292759D01*
X0228003Y0293810D01*
X0225761Y0292759D02*
X0225761Y0299065D01*
X0228003Y0298014D02*
X0229054Y0299065D01*
X0231156Y0299065D01*
X0232206Y0298014D01*
X0232206Y0293810D01*
X0234448Y0296963D02*
X0236550Y0299065D01*
X0238652Y0296963D01*
X0225761Y0294861D02*
X0221557Y0299065D01*
X0224710Y0295912D02*
X0221557Y0292759D01*
X0186366Y0292759D02*
X0186366Y0299065D01*
X0184264Y0296963D01*
X0182162Y0299065D01*
X0182162Y0292759D01*
X0179920Y0292759D02*
X0177819Y0292759D01*
X0178869Y0292759D02*
X0178869Y0299065D01*
X0177819Y0299065D02*
X0179920Y0299065D01*
X0175623Y0299065D02*
X0175623Y0292759D01*
X0172471Y0292759D01*
X0171420Y0293810D01*
X0171420Y0298014D01*
X0172471Y0299065D01*
X0175623Y0299065D01*
X0169178Y0299065D02*
X0167076Y0299065D01*
X0168127Y0299065D02*
X0168127Y0292759D01*
X0169178Y0292759D02*
X0167076Y0292759D01*
X0164881Y0293810D02*
X0163830Y0292759D01*
X0162779Y0292759D01*
X0161728Y0293810D01*
X0161728Y0299065D01*
X0162779Y0299065D02*
X0160677Y0299065D01*
X0158435Y0296963D02*
X0156334Y0299065D01*
X0154232Y0296963D01*
X0154232Y0292759D01*
X0151990Y0293810D02*
X0150939Y0292759D01*
X0148837Y0292759D01*
X0147786Y0293810D01*
X0145544Y0292759D02*
X0145544Y0299065D01*
X0147786Y0298014D02*
X0148837Y0299065D01*
X0150939Y0299065D01*
X0151990Y0298014D01*
X0151990Y0293810D01*
X0154232Y0295912D02*
X0158435Y0295912D01*
X0158435Y0296963D02*
X0158435Y0292759D01*
X0145544Y0294861D02*
X0141341Y0299065D01*
X0144494Y0295912D02*
X0141341Y0292759D01*
X0106149Y0292759D02*
X0106149Y0299065D01*
X0104048Y0296963D01*
X0101946Y0299065D01*
X0101946Y0292759D01*
X0099704Y0292759D02*
X0097602Y0292759D01*
X0098653Y0292759D02*
X0098653Y0299065D01*
X0099704Y0299065D02*
X0097602Y0299065D01*
X0095407Y0299065D02*
X0092254Y0299065D01*
X0091203Y0298014D01*
X0091203Y0293810D01*
X0092254Y0292759D01*
X0095407Y0292759D01*
X0095407Y0299065D01*
X0088961Y0299065D02*
X0086860Y0299065D01*
X0087910Y0299065D02*
X0087910Y0292759D01*
X0086860Y0292759D02*
X0088961Y0292759D01*
X0084664Y0293810D02*
X0083613Y0292759D01*
X0082563Y0292759D01*
X0081512Y0293810D01*
X0081512Y0299065D01*
X0082563Y0299065D02*
X0080461Y0299065D01*
X0078219Y0296963D02*
X0076117Y0299065D01*
X0074015Y0296963D01*
X0074015Y0292759D01*
X0071773Y0293810D02*
X0070722Y0292759D01*
X0068621Y0292759D01*
X0067570Y0293810D01*
X0065328Y0292759D02*
X0065328Y0299065D01*
X0067570Y0298014D02*
X0068621Y0299065D01*
X0070722Y0299065D01*
X0071773Y0298014D01*
X0071773Y0293810D01*
X0074015Y0295912D02*
X0078219Y0295912D01*
X0078219Y0296963D02*
X0078219Y0292759D01*
X0065328Y0294861D02*
X0061124Y0299065D01*
X0064277Y0295912D02*
X0061124Y0292759D01*
M02*
