G75*
%MOIN*%
%OFA0B0*%
%FSLAX25Y25*%
%IPPOS*%
%LPD*%
%AMOC8*
5,1,8,0,0,1.08239X$1,22.5*
%
%ADD10C,0.00300*%
%ADD11C,0.00400*%
%ADD12C,0.00600*%
%ADD13C,0.00500*%
%ADD14C,0.01000*%
%ADD15R,0.02000X0.08000*%
%ADD16R,0.02500X0.02000*%
%ADD17C,0.00800*%
%ADD18C,0.00700*%
D10*
X0050051Y0216685D02*
X0048816Y0217920D01*
X0048816Y0220389D01*
X0051285Y0220389D02*
X0051285Y0217920D01*
X0050051Y0216685D01*
X0052499Y0217303D02*
X0053117Y0216685D01*
X0054351Y0216685D01*
X0054968Y0217303D01*
X0054968Y0218537D02*
X0053734Y0219154D01*
X0053117Y0219154D01*
X0052499Y0218537D01*
X0052499Y0217303D01*
X0054968Y0218537D02*
X0054968Y0220389D01*
X0052499Y0220389D01*
X0059643Y0220389D02*
X0059643Y0217920D01*
X0060877Y0216685D01*
X0062112Y0217920D01*
X0062112Y0220389D01*
X0063326Y0219771D02*
X0063326Y0219154D01*
X0063943Y0218537D01*
X0063326Y0217920D01*
X0063326Y0217303D01*
X0063943Y0216685D01*
X0065178Y0216685D01*
X0065795Y0217303D01*
X0064560Y0218537D02*
X0063943Y0218537D01*
X0063326Y0219771D02*
X0063943Y0220389D01*
X0065178Y0220389D01*
X0065795Y0219771D01*
X0069778Y0220088D02*
X0070262Y0220572D01*
X0071713Y0220572D01*
X0071713Y0217670D01*
X0070262Y0217670D01*
X0069778Y0218153D01*
X0069778Y0220088D01*
X0072724Y0220572D02*
X0072724Y0217670D01*
X0074659Y0220572D01*
X0074659Y0217670D01*
X0075671Y0218153D02*
X0075671Y0219121D01*
X0076638Y0219121D01*
X0075671Y0220088D02*
X0076155Y0220572D01*
X0077122Y0220572D01*
X0077606Y0220088D01*
X0077606Y0218153D01*
X0077122Y0217670D01*
X0076155Y0217670D01*
X0075671Y0218153D01*
X0079620Y0217670D02*
X0081072Y0219121D01*
X0081555Y0218637D02*
X0079620Y0220572D01*
X0081555Y0220572D02*
X0081555Y0217670D01*
X0082567Y0217670D02*
X0084502Y0217670D01*
X0084502Y0220572D01*
X0085513Y0220088D02*
X0085997Y0220572D01*
X0086965Y0220572D01*
X0087448Y0220088D01*
X0087448Y0218153D01*
X0086965Y0217670D01*
X0085997Y0217670D01*
X0085513Y0218153D01*
X0090155Y0218287D02*
X0090155Y0220756D01*
X0090772Y0221373D01*
X0092006Y0221373D01*
X0092624Y0220756D01*
X0092624Y0218287D01*
X0092006Y0217670D01*
X0090772Y0217670D01*
X0090155Y0218287D01*
X0093838Y0218287D02*
X0093838Y0220756D01*
X0094455Y0221373D01*
X0096307Y0221373D01*
X0096307Y0217670D01*
X0094455Y0217670D01*
X0093838Y0218287D01*
X0101232Y0217670D02*
X0102466Y0217670D01*
X0101849Y0217670D02*
X0101849Y0221373D01*
X0102466Y0221373D02*
X0101232Y0221373D01*
X0103680Y0220756D02*
X0104298Y0221373D01*
X0106149Y0221373D01*
X0106149Y0217670D01*
X0104298Y0217670D01*
X0103680Y0218287D01*
X0103680Y0220756D01*
X0110824Y0220756D02*
X0111441Y0221373D01*
X0112676Y0221373D01*
X0113293Y0220756D01*
X0113293Y0220138D01*
X0112676Y0219521D01*
X0111441Y0219521D01*
X0110824Y0218904D01*
X0110824Y0218287D01*
X0111441Y0217670D01*
X0112676Y0217670D01*
X0113293Y0218287D01*
X0114507Y0218287D02*
X0115124Y0217670D01*
X0116359Y0217670D01*
X0116976Y0218287D01*
X0116976Y0220756D01*
X0116359Y0221373D01*
X0115124Y0221373D01*
X0114507Y0220756D01*
X0120667Y0220756D02*
X0120667Y0218287D01*
X0121284Y0217670D01*
X0123135Y0217670D01*
X0123135Y0221373D01*
X0121284Y0221373D01*
X0120667Y0220756D01*
X0124350Y0220756D02*
X0124967Y0221373D01*
X0126201Y0221373D01*
X0126819Y0220756D01*
X0126819Y0218287D01*
X0126201Y0217670D01*
X0124967Y0217670D01*
X0124350Y0218287D01*
X0088433Y0236370D02*
X0088433Y0240074D01*
X0087198Y0238839D01*
X0085964Y0240074D01*
X0085964Y0236370D01*
X0084750Y0236370D02*
X0083515Y0236370D01*
X0084132Y0236370D02*
X0084132Y0238839D01*
X0084750Y0238839D01*
X0084132Y0240074D02*
X0084132Y0240691D01*
X0081677Y0238839D02*
X0082294Y0238222D01*
X0082294Y0236988D01*
X0081677Y0236370D01*
X0079825Y0236370D01*
X0078611Y0236370D02*
X0078611Y0238839D01*
X0079825Y0238839D02*
X0081677Y0238839D01*
X0078611Y0237605D02*
X0077377Y0238839D01*
X0076759Y0238839D01*
X0075542Y0238222D02*
X0075542Y0236988D01*
X0074924Y0236370D01*
X0073690Y0236370D01*
X0073073Y0236988D01*
X0073073Y0238222D01*
X0073690Y0238839D01*
X0074924Y0238839D01*
X0075542Y0238222D01*
X0068175Y0238839D02*
X0067558Y0238222D01*
X0066324Y0238222D01*
X0065707Y0237605D01*
X0065707Y0236988D01*
X0066324Y0236370D01*
X0067558Y0236370D01*
X0068175Y0236988D01*
X0068175Y0238839D02*
X0068175Y0239456D01*
X0067558Y0240074D01*
X0066324Y0240074D01*
X0065707Y0239456D01*
X0064492Y0240074D02*
X0062641Y0240074D01*
X0062023Y0239456D01*
X0062023Y0236988D01*
X0062641Y0236370D01*
X0064492Y0236370D01*
X0064492Y0240074D01*
D11*
X0360554Y0264747D02*
X0360554Y0267816D01*
X0361322Y0268583D01*
X0363624Y0268583D01*
X0363624Y0263980D01*
X0361322Y0263980D01*
X0360554Y0264747D01*
X0365158Y0263980D02*
X0365158Y0268583D01*
X0368228Y0268583D02*
X0365158Y0263980D01*
X0368228Y0263980D02*
X0368228Y0268583D01*
X0369762Y0267816D02*
X0370530Y0268583D01*
X0372064Y0268583D01*
X0372831Y0267816D01*
X0372831Y0264747D01*
X0372064Y0263980D01*
X0370530Y0263980D01*
X0369762Y0264747D01*
X0369762Y0266281D01*
X0371297Y0266281D01*
X0372281Y0307287D02*
X0370746Y0308821D01*
X0370746Y0311891D01*
X0369212Y0311891D02*
X0367677Y0311891D01*
X0368445Y0311891D02*
X0368445Y0307287D01*
X0369212Y0307287D02*
X0367677Y0307287D01*
X0366143Y0307287D02*
X0366143Y0311891D01*
X0363073Y0307287D01*
X0363073Y0311891D01*
X0372281Y0307287D02*
X0373816Y0308821D01*
X0373816Y0311891D01*
D12*
X0358382Y0308894D02*
X0358382Y0290394D01*
X0349882Y0290394D01*
X0349882Y0294894D01*
X0349882Y0290394D02*
X0327382Y0290394D01*
X0327382Y0282894D01*
X0332382Y0282894D01*
X0332382Y0275394D01*
X0327382Y0275394D01*
X0327382Y0272394D01*
X0322382Y0272394D01*
X0322382Y0266394D01*
X0317382Y0266394D01*
X0312382Y0266394D01*
X0312382Y0272394D01*
X0312382Y0274894D01*
X0312382Y0282394D01*
X0312382Y0290394D01*
X0289882Y0290394D01*
X0289882Y0294894D01*
X0289882Y0290394D02*
X0281382Y0290394D01*
X0285382Y0274894D01*
X0274165Y0275394D02*
X0278165Y0290394D01*
X0269665Y0290394D01*
X0269665Y0294894D01*
X0269665Y0290394D02*
X0247165Y0290394D01*
X0247165Y0282894D01*
X0252165Y0282894D01*
X0252165Y0275394D01*
X0247165Y0275394D01*
X0247165Y0272394D01*
X0242165Y0272394D01*
X0242165Y0266394D01*
X0237165Y0266394D01*
X0232165Y0266394D01*
X0232165Y0272394D01*
X0232165Y0274894D01*
X0232165Y0282394D01*
X0232165Y0290394D01*
X0209665Y0290394D01*
X0209665Y0294894D01*
X0209665Y0290394D02*
X0201165Y0290394D01*
X0205165Y0274894D01*
X0202804Y0262847D02*
X0218804Y0262847D01*
X0218864Y0262845D01*
X0218925Y0262840D01*
X0218984Y0262831D01*
X0219043Y0262818D01*
X0219102Y0262802D01*
X0219159Y0262782D01*
X0219214Y0262759D01*
X0219269Y0262732D01*
X0219321Y0262703D01*
X0219372Y0262670D01*
X0219421Y0262634D01*
X0219467Y0262596D01*
X0219511Y0262554D01*
X0219553Y0262510D01*
X0219591Y0262464D01*
X0219627Y0262415D01*
X0219660Y0262364D01*
X0219689Y0262312D01*
X0219716Y0262257D01*
X0219739Y0262202D01*
X0219759Y0262145D01*
X0219775Y0262086D01*
X0219788Y0262027D01*
X0219797Y0261968D01*
X0219802Y0261907D01*
X0219804Y0261847D01*
X0219804Y0255847D01*
X0219802Y0255787D01*
X0219797Y0255726D01*
X0219788Y0255667D01*
X0219775Y0255608D01*
X0219759Y0255549D01*
X0219739Y0255492D01*
X0219716Y0255437D01*
X0219689Y0255382D01*
X0219660Y0255330D01*
X0219627Y0255279D01*
X0219591Y0255230D01*
X0219553Y0255184D01*
X0219511Y0255140D01*
X0219467Y0255098D01*
X0219421Y0255060D01*
X0219372Y0255024D01*
X0219321Y0254991D01*
X0219269Y0254962D01*
X0219214Y0254935D01*
X0219159Y0254912D01*
X0219102Y0254892D01*
X0219043Y0254876D01*
X0218984Y0254863D01*
X0218925Y0254854D01*
X0218864Y0254849D01*
X0218804Y0254847D01*
X0202804Y0254847D01*
X0202744Y0254849D01*
X0202683Y0254854D01*
X0202624Y0254863D01*
X0202565Y0254876D01*
X0202506Y0254892D01*
X0202449Y0254912D01*
X0202394Y0254935D01*
X0202339Y0254962D01*
X0202287Y0254991D01*
X0202236Y0255024D01*
X0202187Y0255060D01*
X0202141Y0255098D01*
X0202097Y0255140D01*
X0202055Y0255184D01*
X0202017Y0255230D01*
X0201981Y0255279D01*
X0201948Y0255330D01*
X0201919Y0255382D01*
X0201892Y0255437D01*
X0201869Y0255492D01*
X0201849Y0255549D01*
X0201833Y0255608D01*
X0201820Y0255667D01*
X0201811Y0255726D01*
X0201806Y0255787D01*
X0201804Y0255847D01*
X0201804Y0261847D01*
X0201806Y0261907D01*
X0201811Y0261968D01*
X0201820Y0262027D01*
X0201833Y0262086D01*
X0201849Y0262145D01*
X0201869Y0262202D01*
X0201892Y0262257D01*
X0201919Y0262312D01*
X0201948Y0262364D01*
X0201981Y0262415D01*
X0202017Y0262464D01*
X0202055Y0262510D01*
X0202097Y0262554D01*
X0202141Y0262596D01*
X0202187Y0262634D01*
X0202236Y0262670D01*
X0202287Y0262703D01*
X0202339Y0262732D01*
X0202394Y0262759D01*
X0202449Y0262782D01*
X0202506Y0262802D01*
X0202565Y0262818D01*
X0202624Y0262831D01*
X0202683Y0262840D01*
X0202744Y0262845D01*
X0202804Y0262847D01*
X0206804Y0261347D02*
X0210804Y0258847D01*
X0210804Y0256347D01*
X0210804Y0258847D02*
X0210804Y0261347D01*
X0210804Y0258847D02*
X0204804Y0258847D01*
X0206804Y0256347D02*
X0210804Y0258847D01*
X0213304Y0258847D01*
X0206804Y0261347D02*
X0206804Y0256347D01*
X0199646Y0247610D02*
X0200146Y0247110D01*
X0219146Y0247110D01*
X0219646Y0247610D01*
X0221146Y0247610D01*
X0221206Y0247608D01*
X0221267Y0247603D01*
X0221326Y0247594D01*
X0221385Y0247581D01*
X0221444Y0247565D01*
X0221501Y0247545D01*
X0221556Y0247522D01*
X0221611Y0247495D01*
X0221663Y0247466D01*
X0221714Y0247433D01*
X0221763Y0247397D01*
X0221809Y0247359D01*
X0221853Y0247317D01*
X0221895Y0247273D01*
X0221933Y0247227D01*
X0221969Y0247178D01*
X0222002Y0247127D01*
X0222031Y0247075D01*
X0222058Y0247020D01*
X0222081Y0246965D01*
X0222101Y0246908D01*
X0222117Y0246849D01*
X0222130Y0246790D01*
X0222139Y0246731D01*
X0222144Y0246670D01*
X0222146Y0246610D01*
X0222146Y0239610D02*
X0222144Y0239550D01*
X0222139Y0239489D01*
X0222130Y0239430D01*
X0222117Y0239371D01*
X0222101Y0239312D01*
X0222081Y0239255D01*
X0222058Y0239200D01*
X0222031Y0239145D01*
X0222002Y0239093D01*
X0221969Y0239042D01*
X0221933Y0238993D01*
X0221895Y0238947D01*
X0221853Y0238903D01*
X0221809Y0238861D01*
X0221763Y0238823D01*
X0221714Y0238787D01*
X0221663Y0238754D01*
X0221611Y0238725D01*
X0221556Y0238698D01*
X0221501Y0238675D01*
X0221444Y0238655D01*
X0221385Y0238639D01*
X0221326Y0238626D01*
X0221267Y0238617D01*
X0221206Y0238612D01*
X0221146Y0238610D01*
X0219646Y0238610D01*
X0219146Y0239110D01*
X0200146Y0239110D01*
X0199646Y0238610D01*
X0198146Y0238610D01*
X0198086Y0238612D01*
X0198025Y0238617D01*
X0197966Y0238626D01*
X0197907Y0238639D01*
X0197848Y0238655D01*
X0197791Y0238675D01*
X0197736Y0238698D01*
X0197681Y0238725D01*
X0197629Y0238754D01*
X0197578Y0238787D01*
X0197529Y0238823D01*
X0197483Y0238861D01*
X0197439Y0238903D01*
X0197397Y0238947D01*
X0197359Y0238993D01*
X0197323Y0239042D01*
X0197290Y0239093D01*
X0197261Y0239145D01*
X0197234Y0239200D01*
X0197211Y0239255D01*
X0197191Y0239312D01*
X0197175Y0239371D01*
X0197162Y0239430D01*
X0197153Y0239489D01*
X0197148Y0239550D01*
X0197146Y0239610D01*
X0197146Y0246610D02*
X0197148Y0246670D01*
X0197153Y0246731D01*
X0197162Y0246790D01*
X0197175Y0246849D01*
X0197191Y0246908D01*
X0197211Y0246965D01*
X0197234Y0247020D01*
X0197261Y0247075D01*
X0197290Y0247127D01*
X0197323Y0247178D01*
X0197359Y0247227D01*
X0197397Y0247273D01*
X0197439Y0247317D01*
X0197483Y0247359D01*
X0197529Y0247397D01*
X0197578Y0247433D01*
X0197629Y0247466D01*
X0197681Y0247495D01*
X0197736Y0247522D01*
X0197791Y0247545D01*
X0197848Y0247565D01*
X0197907Y0247581D01*
X0197966Y0247594D01*
X0198025Y0247603D01*
X0198086Y0247608D01*
X0198146Y0247610D01*
X0199646Y0247610D01*
X0189291Y0252642D02*
X0189291Y0229642D01*
X0149291Y0229642D01*
X0149291Y0237142D01*
X0149417Y0237144D01*
X0149542Y0237150D01*
X0149667Y0237160D01*
X0149792Y0237174D01*
X0149917Y0237191D01*
X0150041Y0237213D01*
X0150164Y0237238D01*
X0150286Y0237268D01*
X0150407Y0237301D01*
X0150527Y0237338D01*
X0150646Y0237378D01*
X0150763Y0237423D01*
X0150880Y0237471D01*
X0150994Y0237523D01*
X0151107Y0237578D01*
X0151218Y0237637D01*
X0151327Y0237699D01*
X0151434Y0237765D01*
X0151539Y0237834D01*
X0151642Y0237906D01*
X0151743Y0237981D01*
X0151841Y0238060D01*
X0151936Y0238142D01*
X0152029Y0238226D01*
X0152119Y0238314D01*
X0152207Y0238404D01*
X0152291Y0238497D01*
X0152373Y0238592D01*
X0152452Y0238690D01*
X0152527Y0238791D01*
X0152599Y0238894D01*
X0152668Y0238999D01*
X0152734Y0239106D01*
X0152796Y0239215D01*
X0152855Y0239326D01*
X0152910Y0239439D01*
X0152962Y0239553D01*
X0153010Y0239670D01*
X0153055Y0239787D01*
X0153095Y0239906D01*
X0153132Y0240026D01*
X0153165Y0240147D01*
X0153195Y0240269D01*
X0153220Y0240392D01*
X0153242Y0240516D01*
X0153259Y0240641D01*
X0153273Y0240766D01*
X0153283Y0240891D01*
X0153289Y0241016D01*
X0153291Y0241142D01*
X0153289Y0241268D01*
X0153283Y0241393D01*
X0153273Y0241518D01*
X0153259Y0241643D01*
X0153242Y0241768D01*
X0153220Y0241892D01*
X0153195Y0242015D01*
X0153165Y0242137D01*
X0153132Y0242258D01*
X0153095Y0242378D01*
X0153055Y0242497D01*
X0153010Y0242614D01*
X0152962Y0242731D01*
X0152910Y0242845D01*
X0152855Y0242958D01*
X0152796Y0243069D01*
X0152734Y0243178D01*
X0152668Y0243285D01*
X0152599Y0243390D01*
X0152527Y0243493D01*
X0152452Y0243594D01*
X0152373Y0243692D01*
X0152291Y0243787D01*
X0152207Y0243880D01*
X0152119Y0243970D01*
X0152029Y0244058D01*
X0151936Y0244142D01*
X0151841Y0244224D01*
X0151743Y0244303D01*
X0151642Y0244378D01*
X0151539Y0244450D01*
X0151434Y0244519D01*
X0151327Y0244585D01*
X0151218Y0244647D01*
X0151107Y0244706D01*
X0150994Y0244761D01*
X0150880Y0244813D01*
X0150763Y0244861D01*
X0150646Y0244906D01*
X0150527Y0244946D01*
X0150407Y0244983D01*
X0150286Y0245016D01*
X0150164Y0245046D01*
X0150041Y0245071D01*
X0149917Y0245093D01*
X0149792Y0245110D01*
X0149667Y0245124D01*
X0149542Y0245134D01*
X0149417Y0245140D01*
X0149291Y0245142D01*
X0149291Y0252642D01*
X0189291Y0252642D01*
X0193949Y0275394D02*
X0197949Y0290394D01*
X0189449Y0290394D01*
X0189449Y0294894D01*
X0189449Y0290394D02*
X0166949Y0290394D01*
X0166949Y0282894D01*
X0171949Y0282894D01*
X0171949Y0275394D01*
X0166949Y0275394D01*
X0166949Y0272394D01*
X0161949Y0272394D01*
X0161949Y0266394D01*
X0156949Y0266394D01*
X0151949Y0266394D01*
X0151949Y0272394D01*
X0151949Y0274894D01*
X0151949Y0282394D01*
X0151949Y0290394D01*
X0129449Y0290394D01*
X0129449Y0294894D01*
X0129449Y0290394D02*
X0120949Y0290394D01*
X0124949Y0274894D01*
X0113732Y0275394D02*
X0117732Y0290394D01*
X0109232Y0290394D01*
X0109232Y0294894D01*
X0109232Y0290394D02*
X0086732Y0290394D01*
X0086732Y0282894D01*
X0091732Y0282894D01*
X0091732Y0275394D01*
X0086732Y0275394D01*
X0086732Y0272394D01*
X0081732Y0272394D01*
X0081732Y0266394D01*
X0076732Y0266394D01*
X0071732Y0266394D01*
X0071732Y0272394D01*
X0071732Y0274894D01*
X0071732Y0282394D01*
X0071732Y0290394D01*
X0049232Y0290394D01*
X0049232Y0294894D01*
X0049232Y0290394D02*
X0040732Y0290394D01*
X0044732Y0274894D01*
X0040732Y0290394D02*
X0040732Y0308894D01*
X0049232Y0308894D01*
X0049232Y0305894D01*
X0049232Y0308894D02*
X0049232Y0322894D01*
X0039594Y0322894D01*
X0039594Y0325394D01*
X0039764Y0325394D01*
X0039764Y0327394D01*
X0039594Y0327394D01*
X0039594Y0330394D01*
X0118520Y0330394D01*
X0118520Y0327394D01*
X0118476Y0327000D01*
X0118476Y0325000D01*
X0118520Y0325394D01*
X0118520Y0322894D01*
X0109232Y0322894D01*
X0093732Y0322894D01*
X0091235Y0322650D02*
X0088033Y0322650D01*
X0086965Y0321583D01*
X0086965Y0319448D01*
X0088033Y0318380D01*
X0091235Y0318380D01*
X0089100Y0318380D02*
X0086965Y0316245D01*
X0084790Y0316245D02*
X0080520Y0322650D01*
X0078344Y0322650D02*
X0075142Y0322650D01*
X0074074Y0321583D01*
X0074074Y0317312D01*
X0075142Y0316245D01*
X0078344Y0316245D01*
X0078344Y0322650D01*
X0073732Y0322894D02*
X0084732Y0322894D01*
X0084790Y0322650D02*
X0080520Y0316245D01*
X0071899Y0316245D02*
X0067629Y0316245D01*
X0069764Y0316245D02*
X0069764Y0322650D01*
X0071899Y0320515D01*
X0064732Y0322894D02*
X0049732Y0322894D01*
X0071732Y0290394D02*
X0086732Y0290394D01*
X0086732Y0282894D02*
X0086732Y0275394D01*
X0086732Y0272394D02*
X0086732Y0266394D01*
X0081732Y0266394D01*
X0076732Y0266394D02*
X0076732Y0272394D01*
X0071732Y0272394D01*
X0071732Y0274894D02*
X0066732Y0274894D01*
X0066732Y0282394D01*
X0071732Y0282394D01*
X0072709Y0261874D02*
X0088709Y0261874D01*
X0088769Y0261872D01*
X0088830Y0261867D01*
X0088889Y0261858D01*
X0088948Y0261845D01*
X0089007Y0261829D01*
X0089064Y0261809D01*
X0089119Y0261786D01*
X0089174Y0261759D01*
X0089226Y0261730D01*
X0089277Y0261697D01*
X0089326Y0261661D01*
X0089372Y0261623D01*
X0089416Y0261581D01*
X0089458Y0261537D01*
X0089496Y0261491D01*
X0089532Y0261442D01*
X0089565Y0261391D01*
X0089594Y0261339D01*
X0089621Y0261284D01*
X0089644Y0261229D01*
X0089664Y0261172D01*
X0089680Y0261113D01*
X0089693Y0261054D01*
X0089702Y0260995D01*
X0089707Y0260934D01*
X0089709Y0260874D01*
X0089709Y0254874D01*
X0089707Y0254814D01*
X0089702Y0254753D01*
X0089693Y0254694D01*
X0089680Y0254635D01*
X0089664Y0254576D01*
X0089644Y0254519D01*
X0089621Y0254464D01*
X0089594Y0254409D01*
X0089565Y0254357D01*
X0089532Y0254306D01*
X0089496Y0254257D01*
X0089458Y0254211D01*
X0089416Y0254167D01*
X0089372Y0254125D01*
X0089326Y0254087D01*
X0089277Y0254051D01*
X0089226Y0254018D01*
X0089174Y0253989D01*
X0089119Y0253962D01*
X0089064Y0253939D01*
X0089007Y0253919D01*
X0088948Y0253903D01*
X0088889Y0253890D01*
X0088830Y0253881D01*
X0088769Y0253876D01*
X0088709Y0253874D01*
X0072709Y0253874D01*
X0072649Y0253876D01*
X0072588Y0253881D01*
X0072529Y0253890D01*
X0072470Y0253903D01*
X0072411Y0253919D01*
X0072354Y0253939D01*
X0072299Y0253962D01*
X0072244Y0253989D01*
X0072192Y0254018D01*
X0072141Y0254051D01*
X0072092Y0254087D01*
X0072046Y0254125D01*
X0072002Y0254167D01*
X0071960Y0254211D01*
X0071922Y0254257D01*
X0071886Y0254306D01*
X0071853Y0254357D01*
X0071824Y0254409D01*
X0071797Y0254464D01*
X0071774Y0254519D01*
X0071754Y0254576D01*
X0071738Y0254635D01*
X0071725Y0254694D01*
X0071716Y0254753D01*
X0071711Y0254814D01*
X0071709Y0254874D01*
X0071709Y0260874D01*
X0071711Y0260934D01*
X0071716Y0260995D01*
X0071725Y0261054D01*
X0071738Y0261113D01*
X0071754Y0261172D01*
X0071774Y0261229D01*
X0071797Y0261284D01*
X0071824Y0261339D01*
X0071853Y0261391D01*
X0071886Y0261442D01*
X0071922Y0261491D01*
X0071960Y0261537D01*
X0072002Y0261581D01*
X0072046Y0261623D01*
X0072092Y0261661D01*
X0072141Y0261697D01*
X0072192Y0261730D01*
X0072244Y0261759D01*
X0072299Y0261786D01*
X0072354Y0261809D01*
X0072411Y0261829D01*
X0072470Y0261845D01*
X0072529Y0261858D01*
X0072588Y0261867D01*
X0072649Y0261872D01*
X0072709Y0261874D01*
X0076709Y0260374D02*
X0080709Y0257874D01*
X0080709Y0255374D01*
X0080709Y0257874D02*
X0080709Y0260374D01*
X0080709Y0257874D02*
X0074709Y0257874D01*
X0076709Y0255374D02*
X0080709Y0257874D01*
X0083209Y0257874D01*
X0076709Y0260374D02*
X0076709Y0255374D01*
X0099720Y0250563D02*
X0101220Y0250563D01*
X0101720Y0250063D01*
X0120720Y0250063D01*
X0121220Y0250563D01*
X0122720Y0250563D01*
X0122780Y0250561D01*
X0122841Y0250556D01*
X0122900Y0250547D01*
X0122959Y0250534D01*
X0123018Y0250518D01*
X0123075Y0250498D01*
X0123130Y0250475D01*
X0123185Y0250448D01*
X0123237Y0250419D01*
X0123288Y0250386D01*
X0123337Y0250350D01*
X0123383Y0250312D01*
X0123427Y0250270D01*
X0123469Y0250226D01*
X0123507Y0250180D01*
X0123543Y0250131D01*
X0123576Y0250080D01*
X0123605Y0250028D01*
X0123632Y0249973D01*
X0123655Y0249918D01*
X0123675Y0249861D01*
X0123691Y0249802D01*
X0123704Y0249743D01*
X0123713Y0249684D01*
X0123718Y0249623D01*
X0123720Y0249563D01*
X0123720Y0242563D02*
X0123718Y0242503D01*
X0123713Y0242442D01*
X0123704Y0242383D01*
X0123691Y0242324D01*
X0123675Y0242265D01*
X0123655Y0242208D01*
X0123632Y0242153D01*
X0123605Y0242098D01*
X0123576Y0242046D01*
X0123543Y0241995D01*
X0123507Y0241946D01*
X0123469Y0241900D01*
X0123427Y0241856D01*
X0123383Y0241814D01*
X0123337Y0241776D01*
X0123288Y0241740D01*
X0123237Y0241707D01*
X0123185Y0241678D01*
X0123130Y0241651D01*
X0123075Y0241628D01*
X0123018Y0241608D01*
X0122959Y0241592D01*
X0122900Y0241579D01*
X0122841Y0241570D01*
X0122780Y0241565D01*
X0122720Y0241563D01*
X0121220Y0241563D01*
X0120720Y0242063D01*
X0101720Y0242063D01*
X0101220Y0241563D01*
X0099720Y0241563D01*
X0099660Y0241565D01*
X0099599Y0241570D01*
X0099540Y0241579D01*
X0099481Y0241592D01*
X0099422Y0241608D01*
X0099365Y0241628D01*
X0099310Y0241651D01*
X0099255Y0241678D01*
X0099203Y0241707D01*
X0099152Y0241740D01*
X0099103Y0241776D01*
X0099057Y0241814D01*
X0099013Y0241856D01*
X0098971Y0241900D01*
X0098933Y0241946D01*
X0098897Y0241995D01*
X0098864Y0242046D01*
X0098835Y0242098D01*
X0098808Y0242153D01*
X0098785Y0242208D01*
X0098765Y0242265D01*
X0098749Y0242324D01*
X0098736Y0242383D01*
X0098727Y0242442D01*
X0098722Y0242503D01*
X0098720Y0242563D01*
X0098720Y0249563D02*
X0098722Y0249623D01*
X0098727Y0249684D01*
X0098736Y0249743D01*
X0098749Y0249802D01*
X0098765Y0249861D01*
X0098785Y0249918D01*
X0098808Y0249973D01*
X0098835Y0250028D01*
X0098864Y0250080D01*
X0098897Y0250131D01*
X0098933Y0250180D01*
X0098971Y0250226D01*
X0099013Y0250270D01*
X0099057Y0250312D01*
X0099103Y0250350D01*
X0099152Y0250386D01*
X0099203Y0250419D01*
X0099255Y0250448D01*
X0099310Y0250475D01*
X0099365Y0250498D01*
X0099422Y0250518D01*
X0099481Y0250534D01*
X0099540Y0250547D01*
X0099599Y0250556D01*
X0099660Y0250561D01*
X0099720Y0250563D01*
X0117732Y0290394D02*
X0117732Y0308894D01*
X0109232Y0308894D01*
X0109232Y0305894D01*
X0109232Y0308894D02*
X0109232Y0322894D01*
X0119811Y0322894D02*
X0129449Y0322894D01*
X0129449Y0308894D01*
X0129449Y0305894D01*
X0129449Y0308894D02*
X0120949Y0308894D01*
X0120949Y0290394D01*
X0146949Y0282394D02*
X0146949Y0274894D01*
X0151949Y0274894D01*
X0151949Y0272394D02*
X0156949Y0272394D01*
X0156949Y0266394D01*
X0161949Y0266394D02*
X0166949Y0266394D01*
X0166949Y0272394D01*
X0166949Y0275394D02*
X0166949Y0282894D01*
X0166949Y0290394D02*
X0151949Y0290394D01*
X0151949Y0282394D02*
X0146949Y0282394D01*
X0147217Y0251657D02*
X0147217Y0250157D01*
X0146717Y0249657D01*
X0146717Y0230657D01*
X0147217Y0230157D01*
X0147217Y0228657D01*
X0147215Y0228597D01*
X0147210Y0228536D01*
X0147201Y0228477D01*
X0147188Y0228418D01*
X0147172Y0228359D01*
X0147152Y0228302D01*
X0147129Y0228247D01*
X0147102Y0228192D01*
X0147073Y0228140D01*
X0147040Y0228089D01*
X0147004Y0228040D01*
X0146966Y0227994D01*
X0146924Y0227950D01*
X0146880Y0227908D01*
X0146834Y0227870D01*
X0146785Y0227834D01*
X0146734Y0227801D01*
X0146682Y0227772D01*
X0146627Y0227745D01*
X0146572Y0227722D01*
X0146515Y0227702D01*
X0146456Y0227686D01*
X0146397Y0227673D01*
X0146338Y0227664D01*
X0146277Y0227659D01*
X0146217Y0227657D01*
X0139217Y0227657D02*
X0139157Y0227659D01*
X0139096Y0227664D01*
X0139037Y0227673D01*
X0138978Y0227686D01*
X0138919Y0227702D01*
X0138862Y0227722D01*
X0138807Y0227745D01*
X0138752Y0227772D01*
X0138700Y0227801D01*
X0138649Y0227834D01*
X0138600Y0227870D01*
X0138554Y0227908D01*
X0138510Y0227950D01*
X0138468Y0227994D01*
X0138430Y0228040D01*
X0138394Y0228089D01*
X0138361Y0228140D01*
X0138332Y0228192D01*
X0138305Y0228247D01*
X0138282Y0228302D01*
X0138262Y0228359D01*
X0138246Y0228418D01*
X0138233Y0228477D01*
X0138224Y0228536D01*
X0138219Y0228597D01*
X0138217Y0228657D01*
X0138217Y0230157D01*
X0138717Y0230657D01*
X0138717Y0249657D01*
X0138217Y0250157D01*
X0138217Y0251657D01*
X0138219Y0251717D01*
X0138224Y0251778D01*
X0138233Y0251837D01*
X0138246Y0251896D01*
X0138262Y0251955D01*
X0138282Y0252012D01*
X0138305Y0252067D01*
X0138332Y0252122D01*
X0138361Y0252174D01*
X0138394Y0252225D01*
X0138430Y0252274D01*
X0138468Y0252320D01*
X0138510Y0252364D01*
X0138554Y0252406D01*
X0138600Y0252444D01*
X0138649Y0252480D01*
X0138700Y0252513D01*
X0138752Y0252542D01*
X0138807Y0252569D01*
X0138862Y0252592D01*
X0138919Y0252612D01*
X0138978Y0252628D01*
X0139037Y0252641D01*
X0139096Y0252650D01*
X0139157Y0252655D01*
X0139217Y0252657D01*
X0146217Y0252657D02*
X0146277Y0252655D01*
X0146338Y0252650D01*
X0146397Y0252641D01*
X0146456Y0252628D01*
X0146515Y0252612D01*
X0146572Y0252592D01*
X0146627Y0252569D01*
X0146682Y0252542D01*
X0146734Y0252513D01*
X0146785Y0252480D01*
X0146834Y0252444D01*
X0146880Y0252406D01*
X0146924Y0252364D01*
X0146966Y0252320D01*
X0147004Y0252274D01*
X0147040Y0252225D01*
X0147073Y0252174D01*
X0147102Y0252122D01*
X0147129Y0252067D01*
X0147152Y0252012D01*
X0147172Y0251955D01*
X0147188Y0251896D01*
X0147201Y0251837D01*
X0147210Y0251778D01*
X0147215Y0251717D01*
X0147217Y0251657D01*
X0157791Y0217098D02*
X0159291Y0217098D01*
X0159791Y0216598D01*
X0178791Y0216598D01*
X0179291Y0217098D01*
X0180791Y0217098D01*
X0180851Y0217096D01*
X0180912Y0217091D01*
X0180971Y0217082D01*
X0181030Y0217069D01*
X0181089Y0217053D01*
X0181146Y0217033D01*
X0181201Y0217010D01*
X0181256Y0216983D01*
X0181308Y0216954D01*
X0181359Y0216921D01*
X0181408Y0216885D01*
X0181454Y0216847D01*
X0181498Y0216805D01*
X0181540Y0216761D01*
X0181578Y0216715D01*
X0181614Y0216666D01*
X0181647Y0216615D01*
X0181676Y0216563D01*
X0181703Y0216508D01*
X0181726Y0216453D01*
X0181746Y0216396D01*
X0181762Y0216337D01*
X0181775Y0216278D01*
X0181784Y0216219D01*
X0181789Y0216158D01*
X0181791Y0216098D01*
X0181791Y0209098D02*
X0181789Y0209038D01*
X0181784Y0208977D01*
X0181775Y0208918D01*
X0181762Y0208859D01*
X0181746Y0208800D01*
X0181726Y0208743D01*
X0181703Y0208688D01*
X0181676Y0208633D01*
X0181647Y0208581D01*
X0181614Y0208530D01*
X0181578Y0208481D01*
X0181540Y0208435D01*
X0181498Y0208391D01*
X0181454Y0208349D01*
X0181408Y0208311D01*
X0181359Y0208275D01*
X0181308Y0208242D01*
X0181256Y0208213D01*
X0181201Y0208186D01*
X0181146Y0208163D01*
X0181089Y0208143D01*
X0181030Y0208127D01*
X0180971Y0208114D01*
X0180912Y0208105D01*
X0180851Y0208100D01*
X0180791Y0208098D01*
X0179291Y0208098D01*
X0178791Y0208598D01*
X0159791Y0208598D01*
X0159291Y0208098D01*
X0157791Y0208098D01*
X0157731Y0208100D01*
X0157670Y0208105D01*
X0157611Y0208114D01*
X0157552Y0208127D01*
X0157493Y0208143D01*
X0157436Y0208163D01*
X0157381Y0208186D01*
X0157326Y0208213D01*
X0157274Y0208242D01*
X0157223Y0208275D01*
X0157174Y0208311D01*
X0157128Y0208349D01*
X0157084Y0208391D01*
X0157042Y0208435D01*
X0157004Y0208481D01*
X0156968Y0208530D01*
X0156935Y0208581D01*
X0156906Y0208633D01*
X0156879Y0208688D01*
X0156856Y0208743D01*
X0156836Y0208800D01*
X0156820Y0208859D01*
X0156807Y0208918D01*
X0156798Y0208977D01*
X0156793Y0209038D01*
X0156791Y0209098D01*
X0156791Y0216098D02*
X0156793Y0216158D01*
X0156798Y0216219D01*
X0156807Y0216278D01*
X0156820Y0216337D01*
X0156836Y0216396D01*
X0156856Y0216453D01*
X0156879Y0216508D01*
X0156906Y0216563D01*
X0156935Y0216615D01*
X0156968Y0216666D01*
X0157004Y0216715D01*
X0157042Y0216761D01*
X0157084Y0216805D01*
X0157128Y0216847D01*
X0157174Y0216885D01*
X0157223Y0216921D01*
X0157274Y0216954D01*
X0157326Y0216983D01*
X0157381Y0217010D01*
X0157436Y0217033D01*
X0157493Y0217053D01*
X0157552Y0217069D01*
X0157611Y0217082D01*
X0157670Y0217091D01*
X0157731Y0217096D01*
X0157791Y0217098D01*
X0197949Y0290394D02*
X0197949Y0308894D01*
X0189449Y0308894D01*
X0189449Y0305894D01*
X0189449Y0308894D02*
X0189449Y0322894D01*
X0173949Y0322894D01*
X0173913Y0322650D02*
X0169642Y0322650D01*
X0171777Y0322650D02*
X0171777Y0316245D01*
X0167467Y0316245D02*
X0163197Y0322650D01*
X0164949Y0322894D02*
X0153949Y0322894D01*
X0152441Y0322650D02*
X0152441Y0316245D01*
X0154576Y0316245D02*
X0150306Y0316245D01*
X0154576Y0320515D02*
X0152441Y0322650D01*
X0156751Y0321583D02*
X0156751Y0317312D01*
X0157819Y0316245D01*
X0161022Y0316245D01*
X0161022Y0322650D01*
X0157819Y0322650D01*
X0156751Y0321583D01*
X0163197Y0316245D02*
X0167467Y0322650D01*
X0189449Y0322894D02*
X0198736Y0322894D01*
X0198736Y0325394D01*
X0198693Y0325000D01*
X0198693Y0327000D01*
X0198736Y0327394D01*
X0198736Y0330394D01*
X0119811Y0330394D01*
X0119811Y0327394D01*
X0119980Y0327394D01*
X0119980Y0325394D01*
X0119811Y0325394D01*
X0119811Y0322894D01*
X0129949Y0322894D02*
X0144949Y0322894D01*
X0091235Y0322650D02*
X0091235Y0316245D01*
X0200028Y0322894D02*
X0209665Y0322894D01*
X0209665Y0308894D01*
X0209665Y0305894D01*
X0209665Y0308894D02*
X0201165Y0308894D01*
X0201165Y0290394D01*
X0227165Y0282394D02*
X0227165Y0274894D01*
X0232165Y0274894D01*
X0232165Y0272394D02*
X0237165Y0272394D01*
X0237165Y0266394D01*
X0242165Y0266394D02*
X0247165Y0266394D01*
X0247165Y0272394D01*
X0247165Y0275394D02*
X0247165Y0282894D01*
X0247165Y0290394D02*
X0232165Y0290394D01*
X0232165Y0282394D02*
X0227165Y0282394D01*
X0235906Y0252642D02*
X0235906Y0245142D01*
X0236032Y0245140D01*
X0236157Y0245134D01*
X0236282Y0245124D01*
X0236407Y0245110D01*
X0236532Y0245093D01*
X0236656Y0245071D01*
X0236779Y0245046D01*
X0236901Y0245016D01*
X0237022Y0244983D01*
X0237142Y0244946D01*
X0237261Y0244906D01*
X0237378Y0244861D01*
X0237495Y0244813D01*
X0237609Y0244761D01*
X0237722Y0244706D01*
X0237833Y0244647D01*
X0237942Y0244585D01*
X0238049Y0244519D01*
X0238154Y0244450D01*
X0238257Y0244378D01*
X0238358Y0244303D01*
X0238456Y0244224D01*
X0238551Y0244142D01*
X0238644Y0244058D01*
X0238734Y0243970D01*
X0238822Y0243880D01*
X0238906Y0243787D01*
X0238988Y0243692D01*
X0239067Y0243594D01*
X0239142Y0243493D01*
X0239214Y0243390D01*
X0239283Y0243285D01*
X0239349Y0243178D01*
X0239411Y0243069D01*
X0239470Y0242958D01*
X0239525Y0242845D01*
X0239577Y0242731D01*
X0239625Y0242614D01*
X0239670Y0242497D01*
X0239710Y0242378D01*
X0239747Y0242258D01*
X0239780Y0242137D01*
X0239810Y0242015D01*
X0239835Y0241892D01*
X0239857Y0241768D01*
X0239874Y0241643D01*
X0239888Y0241518D01*
X0239898Y0241393D01*
X0239904Y0241268D01*
X0239906Y0241142D01*
X0239904Y0241016D01*
X0239898Y0240891D01*
X0239888Y0240766D01*
X0239874Y0240641D01*
X0239857Y0240516D01*
X0239835Y0240392D01*
X0239810Y0240269D01*
X0239780Y0240147D01*
X0239747Y0240026D01*
X0239710Y0239906D01*
X0239670Y0239787D01*
X0239625Y0239670D01*
X0239577Y0239553D01*
X0239525Y0239439D01*
X0239470Y0239326D01*
X0239411Y0239215D01*
X0239349Y0239106D01*
X0239283Y0238999D01*
X0239214Y0238894D01*
X0239142Y0238791D01*
X0239067Y0238690D01*
X0238988Y0238592D01*
X0238906Y0238497D01*
X0238822Y0238404D01*
X0238734Y0238314D01*
X0238644Y0238226D01*
X0238551Y0238142D01*
X0238456Y0238060D01*
X0238358Y0237981D01*
X0238257Y0237906D01*
X0238154Y0237834D01*
X0238049Y0237765D01*
X0237942Y0237699D01*
X0237833Y0237637D01*
X0237722Y0237578D01*
X0237609Y0237523D01*
X0237495Y0237471D01*
X0237378Y0237423D01*
X0237261Y0237378D01*
X0237142Y0237338D01*
X0237022Y0237301D01*
X0236901Y0237268D01*
X0236779Y0237238D01*
X0236656Y0237213D01*
X0236532Y0237191D01*
X0236407Y0237174D01*
X0236282Y0237160D01*
X0236157Y0237150D01*
X0236032Y0237144D01*
X0235906Y0237142D01*
X0235906Y0229642D01*
X0275906Y0229642D01*
X0275906Y0252642D01*
X0235906Y0252642D01*
X0244209Y0217295D02*
X0245709Y0217295D01*
X0246209Y0216795D01*
X0265209Y0216795D01*
X0265709Y0217295D01*
X0267209Y0217295D01*
X0267269Y0217293D01*
X0267330Y0217288D01*
X0267389Y0217279D01*
X0267448Y0217266D01*
X0267507Y0217250D01*
X0267564Y0217230D01*
X0267619Y0217207D01*
X0267674Y0217180D01*
X0267726Y0217151D01*
X0267777Y0217118D01*
X0267826Y0217082D01*
X0267872Y0217044D01*
X0267916Y0217002D01*
X0267958Y0216958D01*
X0267996Y0216912D01*
X0268032Y0216863D01*
X0268065Y0216812D01*
X0268094Y0216760D01*
X0268121Y0216705D01*
X0268144Y0216650D01*
X0268164Y0216593D01*
X0268180Y0216534D01*
X0268193Y0216475D01*
X0268202Y0216416D01*
X0268207Y0216355D01*
X0268209Y0216295D01*
X0268209Y0209295D02*
X0268207Y0209235D01*
X0268202Y0209174D01*
X0268193Y0209115D01*
X0268180Y0209056D01*
X0268164Y0208997D01*
X0268144Y0208940D01*
X0268121Y0208885D01*
X0268094Y0208830D01*
X0268065Y0208778D01*
X0268032Y0208727D01*
X0267996Y0208678D01*
X0267958Y0208632D01*
X0267916Y0208588D01*
X0267872Y0208546D01*
X0267826Y0208508D01*
X0267777Y0208472D01*
X0267726Y0208439D01*
X0267674Y0208410D01*
X0267619Y0208383D01*
X0267564Y0208360D01*
X0267507Y0208340D01*
X0267448Y0208324D01*
X0267389Y0208311D01*
X0267330Y0208302D01*
X0267269Y0208297D01*
X0267209Y0208295D01*
X0265709Y0208295D01*
X0265209Y0208795D01*
X0246209Y0208795D01*
X0245709Y0208295D01*
X0244209Y0208295D01*
X0244149Y0208297D01*
X0244088Y0208302D01*
X0244029Y0208311D01*
X0243970Y0208324D01*
X0243911Y0208340D01*
X0243854Y0208360D01*
X0243799Y0208383D01*
X0243744Y0208410D01*
X0243692Y0208439D01*
X0243641Y0208472D01*
X0243592Y0208508D01*
X0243546Y0208546D01*
X0243502Y0208588D01*
X0243460Y0208632D01*
X0243422Y0208678D01*
X0243386Y0208727D01*
X0243353Y0208778D01*
X0243324Y0208830D01*
X0243297Y0208885D01*
X0243274Y0208940D01*
X0243254Y0208997D01*
X0243238Y0209056D01*
X0243225Y0209115D01*
X0243216Y0209174D01*
X0243211Y0209235D01*
X0243209Y0209295D01*
X0243209Y0216295D02*
X0243211Y0216355D01*
X0243216Y0216416D01*
X0243225Y0216475D01*
X0243238Y0216534D01*
X0243254Y0216593D01*
X0243274Y0216650D01*
X0243297Y0216705D01*
X0243324Y0216760D01*
X0243353Y0216812D01*
X0243386Y0216863D01*
X0243422Y0216912D01*
X0243460Y0216958D01*
X0243502Y0217002D01*
X0243546Y0217044D01*
X0243592Y0217082D01*
X0243641Y0217118D01*
X0243692Y0217151D01*
X0243744Y0217180D01*
X0243799Y0217207D01*
X0243854Y0217230D01*
X0243911Y0217250D01*
X0243970Y0217266D01*
X0244029Y0217279D01*
X0244088Y0217288D01*
X0244149Y0217293D01*
X0244209Y0217295D01*
X0260201Y0195024D02*
X0277201Y0195024D01*
X0277261Y0195022D01*
X0277322Y0195017D01*
X0277381Y0195008D01*
X0277440Y0194995D01*
X0277499Y0194979D01*
X0277556Y0194959D01*
X0277611Y0194936D01*
X0277666Y0194909D01*
X0277718Y0194880D01*
X0277769Y0194847D01*
X0277818Y0194811D01*
X0277864Y0194773D01*
X0277908Y0194731D01*
X0277950Y0194687D01*
X0277988Y0194641D01*
X0278024Y0194592D01*
X0278057Y0194541D01*
X0278086Y0194489D01*
X0278113Y0194434D01*
X0278136Y0194379D01*
X0278156Y0194322D01*
X0278172Y0194263D01*
X0278185Y0194204D01*
X0278194Y0194145D01*
X0278199Y0194084D01*
X0278201Y0194024D01*
X0278201Y0178024D01*
X0278199Y0177964D01*
X0278194Y0177903D01*
X0278185Y0177844D01*
X0278172Y0177785D01*
X0278156Y0177726D01*
X0278136Y0177669D01*
X0278113Y0177614D01*
X0278086Y0177559D01*
X0278057Y0177507D01*
X0278024Y0177456D01*
X0277988Y0177407D01*
X0277950Y0177361D01*
X0277908Y0177317D01*
X0277864Y0177275D01*
X0277818Y0177237D01*
X0277769Y0177201D01*
X0277718Y0177168D01*
X0277666Y0177139D01*
X0277611Y0177112D01*
X0277556Y0177089D01*
X0277499Y0177069D01*
X0277440Y0177053D01*
X0277381Y0177040D01*
X0277322Y0177031D01*
X0277261Y0177026D01*
X0277201Y0177024D01*
X0260201Y0177024D01*
X0260141Y0177026D01*
X0260080Y0177031D01*
X0260021Y0177040D01*
X0259962Y0177053D01*
X0259903Y0177069D01*
X0259846Y0177089D01*
X0259791Y0177112D01*
X0259736Y0177139D01*
X0259684Y0177168D01*
X0259633Y0177201D01*
X0259584Y0177237D01*
X0259538Y0177275D01*
X0259494Y0177317D01*
X0259452Y0177361D01*
X0259414Y0177407D01*
X0259378Y0177456D01*
X0259345Y0177507D01*
X0259316Y0177559D01*
X0259289Y0177614D01*
X0259266Y0177669D01*
X0259246Y0177726D01*
X0259230Y0177785D01*
X0259217Y0177844D01*
X0259208Y0177903D01*
X0259203Y0177964D01*
X0259201Y0178024D01*
X0259201Y0194024D01*
X0259203Y0194084D01*
X0259208Y0194145D01*
X0259217Y0194204D01*
X0259230Y0194263D01*
X0259246Y0194322D01*
X0259266Y0194379D01*
X0259289Y0194434D01*
X0259316Y0194489D01*
X0259345Y0194541D01*
X0259378Y0194592D01*
X0259414Y0194641D01*
X0259452Y0194687D01*
X0259494Y0194731D01*
X0259538Y0194773D01*
X0259584Y0194811D01*
X0259633Y0194847D01*
X0259684Y0194880D01*
X0259736Y0194909D01*
X0259791Y0194936D01*
X0259846Y0194959D01*
X0259903Y0194979D01*
X0259962Y0194995D01*
X0260021Y0195008D01*
X0260080Y0195017D01*
X0260141Y0195022D01*
X0260201Y0195024D01*
X0267201Y0186024D02*
X0267701Y0186024D01*
X0269701Y0186024D02*
X0270201Y0186024D01*
X0277581Y0228957D02*
X0277581Y0230457D01*
X0278081Y0230957D01*
X0278081Y0249957D01*
X0277581Y0250457D01*
X0277581Y0251957D01*
X0277583Y0252017D01*
X0277588Y0252078D01*
X0277597Y0252137D01*
X0277610Y0252196D01*
X0277626Y0252255D01*
X0277646Y0252312D01*
X0277669Y0252367D01*
X0277696Y0252422D01*
X0277725Y0252474D01*
X0277758Y0252525D01*
X0277794Y0252574D01*
X0277832Y0252620D01*
X0277874Y0252664D01*
X0277918Y0252706D01*
X0277964Y0252744D01*
X0278013Y0252780D01*
X0278064Y0252813D01*
X0278116Y0252842D01*
X0278171Y0252869D01*
X0278226Y0252892D01*
X0278283Y0252912D01*
X0278342Y0252928D01*
X0278401Y0252941D01*
X0278460Y0252950D01*
X0278521Y0252955D01*
X0278581Y0252957D01*
X0285581Y0252957D02*
X0285641Y0252955D01*
X0285702Y0252950D01*
X0285761Y0252941D01*
X0285820Y0252928D01*
X0285879Y0252912D01*
X0285936Y0252892D01*
X0285991Y0252869D01*
X0286046Y0252842D01*
X0286098Y0252813D01*
X0286149Y0252780D01*
X0286198Y0252744D01*
X0286244Y0252706D01*
X0286288Y0252664D01*
X0286330Y0252620D01*
X0286368Y0252574D01*
X0286404Y0252525D01*
X0286437Y0252474D01*
X0286466Y0252422D01*
X0286493Y0252367D01*
X0286516Y0252312D01*
X0286536Y0252255D01*
X0286552Y0252196D01*
X0286565Y0252137D01*
X0286574Y0252078D01*
X0286579Y0252017D01*
X0286581Y0251957D01*
X0286581Y0250457D01*
X0286081Y0249957D01*
X0286081Y0230957D01*
X0286581Y0230457D01*
X0286581Y0228957D01*
X0286579Y0228897D01*
X0286574Y0228836D01*
X0286565Y0228777D01*
X0286552Y0228718D01*
X0286536Y0228659D01*
X0286516Y0228602D01*
X0286493Y0228547D01*
X0286466Y0228492D01*
X0286437Y0228440D01*
X0286404Y0228389D01*
X0286368Y0228340D01*
X0286330Y0228294D01*
X0286288Y0228250D01*
X0286244Y0228208D01*
X0286198Y0228170D01*
X0286149Y0228134D01*
X0286098Y0228101D01*
X0286046Y0228072D01*
X0285991Y0228045D01*
X0285936Y0228022D01*
X0285879Y0228002D01*
X0285820Y0227986D01*
X0285761Y0227973D01*
X0285702Y0227964D01*
X0285641Y0227959D01*
X0285581Y0227957D01*
X0288463Y0228868D02*
X0288463Y0230368D01*
X0288963Y0230868D01*
X0288963Y0249868D01*
X0288463Y0250368D01*
X0288463Y0251868D01*
X0288465Y0251928D01*
X0288470Y0251989D01*
X0288479Y0252048D01*
X0288492Y0252107D01*
X0288508Y0252166D01*
X0288528Y0252223D01*
X0288551Y0252278D01*
X0288578Y0252333D01*
X0288607Y0252385D01*
X0288640Y0252436D01*
X0288676Y0252485D01*
X0288714Y0252531D01*
X0288756Y0252575D01*
X0288800Y0252617D01*
X0288846Y0252655D01*
X0288895Y0252691D01*
X0288946Y0252724D01*
X0288998Y0252753D01*
X0289053Y0252780D01*
X0289108Y0252803D01*
X0289165Y0252823D01*
X0289224Y0252839D01*
X0289283Y0252852D01*
X0289342Y0252861D01*
X0289403Y0252866D01*
X0289463Y0252868D01*
X0296463Y0252868D02*
X0296523Y0252866D01*
X0296584Y0252861D01*
X0296643Y0252852D01*
X0296702Y0252839D01*
X0296761Y0252823D01*
X0296818Y0252803D01*
X0296873Y0252780D01*
X0296928Y0252753D01*
X0296980Y0252724D01*
X0297031Y0252691D01*
X0297080Y0252655D01*
X0297126Y0252617D01*
X0297170Y0252575D01*
X0297212Y0252531D01*
X0297250Y0252485D01*
X0297286Y0252436D01*
X0297319Y0252385D01*
X0297348Y0252333D01*
X0297375Y0252278D01*
X0297398Y0252223D01*
X0297418Y0252166D01*
X0297434Y0252107D01*
X0297447Y0252048D01*
X0297456Y0251989D01*
X0297461Y0251928D01*
X0297463Y0251868D01*
X0297463Y0250368D01*
X0296963Y0249868D01*
X0296963Y0230868D01*
X0297463Y0230368D01*
X0297463Y0228868D01*
X0297461Y0228808D01*
X0297456Y0228747D01*
X0297447Y0228688D01*
X0297434Y0228629D01*
X0297418Y0228570D01*
X0297398Y0228513D01*
X0297375Y0228458D01*
X0297348Y0228403D01*
X0297319Y0228351D01*
X0297286Y0228300D01*
X0297250Y0228251D01*
X0297212Y0228205D01*
X0297170Y0228161D01*
X0297126Y0228119D01*
X0297080Y0228081D01*
X0297031Y0228045D01*
X0296980Y0228012D01*
X0296928Y0227983D01*
X0296873Y0227956D01*
X0296818Y0227933D01*
X0296761Y0227913D01*
X0296702Y0227897D01*
X0296643Y0227884D01*
X0296584Y0227875D01*
X0296523Y0227870D01*
X0296463Y0227868D01*
X0298659Y0228868D02*
X0298659Y0230368D01*
X0299159Y0230868D01*
X0299159Y0249868D01*
X0298659Y0250368D01*
X0298659Y0251868D01*
X0298661Y0251928D01*
X0298666Y0251989D01*
X0298675Y0252048D01*
X0298688Y0252107D01*
X0298704Y0252166D01*
X0298724Y0252223D01*
X0298747Y0252278D01*
X0298774Y0252333D01*
X0298803Y0252385D01*
X0298836Y0252436D01*
X0298872Y0252485D01*
X0298910Y0252531D01*
X0298952Y0252575D01*
X0298996Y0252617D01*
X0299042Y0252655D01*
X0299091Y0252691D01*
X0299142Y0252724D01*
X0299194Y0252753D01*
X0299249Y0252780D01*
X0299304Y0252803D01*
X0299361Y0252823D01*
X0299420Y0252839D01*
X0299479Y0252852D01*
X0299538Y0252861D01*
X0299599Y0252866D01*
X0299659Y0252868D01*
X0306659Y0252868D02*
X0306719Y0252866D01*
X0306780Y0252861D01*
X0306839Y0252852D01*
X0306898Y0252839D01*
X0306957Y0252823D01*
X0307014Y0252803D01*
X0307069Y0252780D01*
X0307124Y0252753D01*
X0307176Y0252724D01*
X0307227Y0252691D01*
X0307276Y0252655D01*
X0307322Y0252617D01*
X0307366Y0252575D01*
X0307408Y0252531D01*
X0307446Y0252485D01*
X0307482Y0252436D01*
X0307515Y0252385D01*
X0307544Y0252333D01*
X0307571Y0252278D01*
X0307594Y0252223D01*
X0307614Y0252166D01*
X0307630Y0252107D01*
X0307643Y0252048D01*
X0307652Y0251989D01*
X0307657Y0251928D01*
X0307659Y0251868D01*
X0307659Y0250368D01*
X0307159Y0249868D01*
X0307159Y0230868D01*
X0307659Y0230368D01*
X0307659Y0228868D01*
X0307657Y0228808D01*
X0307652Y0228747D01*
X0307643Y0228688D01*
X0307630Y0228629D01*
X0307614Y0228570D01*
X0307594Y0228513D01*
X0307571Y0228458D01*
X0307544Y0228403D01*
X0307515Y0228351D01*
X0307482Y0228300D01*
X0307446Y0228251D01*
X0307408Y0228205D01*
X0307366Y0228161D01*
X0307322Y0228119D01*
X0307276Y0228081D01*
X0307227Y0228045D01*
X0307176Y0228012D01*
X0307124Y0227983D01*
X0307069Y0227956D01*
X0307014Y0227933D01*
X0306957Y0227913D01*
X0306898Y0227897D01*
X0306839Y0227884D01*
X0306780Y0227875D01*
X0306719Y0227870D01*
X0306659Y0227868D01*
X0299659Y0227868D02*
X0299599Y0227870D01*
X0299538Y0227875D01*
X0299479Y0227884D01*
X0299420Y0227897D01*
X0299361Y0227913D01*
X0299304Y0227933D01*
X0299249Y0227956D01*
X0299194Y0227983D01*
X0299142Y0228012D01*
X0299091Y0228045D01*
X0299042Y0228081D01*
X0298996Y0228119D01*
X0298952Y0228161D01*
X0298910Y0228205D01*
X0298872Y0228251D01*
X0298836Y0228300D01*
X0298803Y0228351D01*
X0298774Y0228403D01*
X0298747Y0228458D01*
X0298724Y0228513D01*
X0298704Y0228570D01*
X0298688Y0228629D01*
X0298675Y0228688D01*
X0298666Y0228747D01*
X0298661Y0228808D01*
X0298659Y0228868D01*
X0289463Y0227868D02*
X0289403Y0227870D01*
X0289342Y0227875D01*
X0289283Y0227884D01*
X0289224Y0227897D01*
X0289165Y0227913D01*
X0289108Y0227933D01*
X0289053Y0227956D01*
X0288998Y0227983D01*
X0288946Y0228012D01*
X0288895Y0228045D01*
X0288846Y0228081D01*
X0288800Y0228119D01*
X0288756Y0228161D01*
X0288714Y0228205D01*
X0288676Y0228251D01*
X0288640Y0228300D01*
X0288607Y0228351D01*
X0288578Y0228403D01*
X0288551Y0228458D01*
X0288528Y0228513D01*
X0288508Y0228570D01*
X0288492Y0228629D01*
X0288479Y0228688D01*
X0288470Y0228747D01*
X0288465Y0228808D01*
X0288463Y0228868D01*
X0278581Y0227957D02*
X0278521Y0227959D01*
X0278460Y0227964D01*
X0278401Y0227973D01*
X0278342Y0227986D01*
X0278283Y0228002D01*
X0278226Y0228022D01*
X0278171Y0228045D01*
X0278116Y0228072D01*
X0278064Y0228101D01*
X0278013Y0228134D01*
X0277964Y0228170D01*
X0277918Y0228208D01*
X0277874Y0228250D01*
X0277832Y0228294D01*
X0277794Y0228340D01*
X0277758Y0228389D01*
X0277725Y0228440D01*
X0277696Y0228492D01*
X0277669Y0228547D01*
X0277646Y0228602D01*
X0277626Y0228659D01*
X0277610Y0228718D01*
X0277597Y0228777D01*
X0277588Y0228836D01*
X0277583Y0228897D01*
X0277581Y0228957D01*
X0307382Y0274894D02*
X0307382Y0282394D01*
X0312382Y0282394D01*
X0312382Y0274894D02*
X0307382Y0274894D01*
X0312382Y0272394D02*
X0317382Y0272394D01*
X0317382Y0266394D01*
X0322382Y0266394D02*
X0327382Y0266394D01*
X0327382Y0272394D01*
X0327382Y0275394D02*
X0327382Y0282894D01*
X0327382Y0290394D02*
X0312382Y0290394D01*
X0311723Y0316245D02*
X0315993Y0316245D01*
X0311723Y0320515D01*
X0311723Y0321583D01*
X0312791Y0322650D01*
X0314926Y0322650D01*
X0315993Y0321583D01*
X0314382Y0322894D02*
X0325382Y0322894D01*
X0324614Y0322650D02*
X0328884Y0316245D01*
X0324614Y0316245D02*
X0328884Y0322650D01*
X0331060Y0322650D02*
X0335330Y0322650D01*
X0334382Y0322894D02*
X0349882Y0322894D01*
X0359169Y0322894D01*
X0359169Y0325394D01*
X0359126Y0325000D01*
X0359126Y0327000D01*
X0359169Y0327394D01*
X0359169Y0330394D01*
X0280244Y0330394D01*
X0280244Y0327394D01*
X0280413Y0327394D01*
X0280413Y0325394D01*
X0280244Y0325394D01*
X0280244Y0322894D01*
X0289882Y0322894D01*
X0289882Y0308894D01*
X0289882Y0305894D01*
X0289882Y0308894D02*
X0281382Y0308894D01*
X0281382Y0290394D01*
X0278165Y0290394D02*
X0278165Y0308894D01*
X0269665Y0308894D01*
X0269665Y0305894D01*
X0269665Y0308894D02*
X0269665Y0322894D01*
X0254165Y0322894D01*
X0253637Y0322650D02*
X0250434Y0322650D01*
X0249367Y0321583D01*
X0249367Y0319448D01*
X0250434Y0318380D01*
X0253637Y0318380D01*
X0253637Y0316245D02*
X0253637Y0322650D01*
X0251502Y0318380D02*
X0249367Y0316245D01*
X0247192Y0316245D02*
X0242921Y0322650D01*
X0240746Y0322650D02*
X0237543Y0322650D01*
X0236476Y0321583D01*
X0236476Y0317312D01*
X0237543Y0316245D01*
X0240746Y0316245D01*
X0240746Y0322650D01*
X0245165Y0322894D02*
X0234165Y0322894D01*
X0233233Y0322650D02*
X0234301Y0321583D01*
X0233233Y0322650D02*
X0231098Y0322650D01*
X0230030Y0321583D01*
X0230030Y0320515D01*
X0234301Y0316245D01*
X0230030Y0316245D01*
X0225165Y0322894D02*
X0210165Y0322894D01*
X0200028Y0322894D02*
X0200028Y0325394D01*
X0200197Y0325394D01*
X0200197Y0327394D01*
X0200028Y0327394D01*
X0200028Y0330394D01*
X0278953Y0330394D01*
X0278953Y0327394D01*
X0278909Y0327000D01*
X0278909Y0325000D01*
X0278953Y0325394D01*
X0278953Y0322894D01*
X0269665Y0322894D01*
X0247192Y0322650D02*
X0242921Y0316245D01*
X0290382Y0322894D02*
X0305382Y0322894D01*
X0318169Y0321583D02*
X0318169Y0317312D01*
X0319236Y0316245D01*
X0322439Y0316245D01*
X0322439Y0322650D01*
X0319236Y0322650D01*
X0318169Y0321583D01*
X0333195Y0322650D02*
X0333195Y0316245D01*
X0349882Y0322894D02*
X0349882Y0308894D01*
X0349882Y0305894D01*
X0349882Y0308894D02*
X0358382Y0308894D01*
X0358382Y0290394D02*
X0354382Y0275394D01*
X0349177Y0254107D02*
X0339177Y0254107D01*
X0332177Y0254107D02*
X0322177Y0254107D01*
X0322101Y0254105D01*
X0322025Y0254099D01*
X0321950Y0254090D01*
X0321875Y0254076D01*
X0321801Y0254059D01*
X0321728Y0254038D01*
X0321656Y0254014D01*
X0321585Y0253985D01*
X0321516Y0253954D01*
X0321449Y0253919D01*
X0321384Y0253880D01*
X0321320Y0253838D01*
X0321259Y0253793D01*
X0321200Y0253745D01*
X0321144Y0253694D01*
X0321090Y0253640D01*
X0321039Y0253584D01*
X0320991Y0253525D01*
X0320946Y0253464D01*
X0320904Y0253400D01*
X0320865Y0253335D01*
X0320830Y0253268D01*
X0320799Y0253199D01*
X0320770Y0253128D01*
X0320746Y0253056D01*
X0320725Y0252983D01*
X0320708Y0252909D01*
X0320694Y0252834D01*
X0320685Y0252759D01*
X0320679Y0252683D01*
X0320677Y0252607D01*
X0320677Y0233107D01*
X0320677Y0225607D02*
X0320679Y0225531D01*
X0320685Y0225455D01*
X0320694Y0225380D01*
X0320708Y0225305D01*
X0320725Y0225231D01*
X0320746Y0225158D01*
X0320770Y0225086D01*
X0320799Y0225015D01*
X0320830Y0224946D01*
X0320865Y0224879D01*
X0320904Y0224814D01*
X0320946Y0224750D01*
X0320991Y0224689D01*
X0321039Y0224630D01*
X0321090Y0224574D01*
X0321144Y0224520D01*
X0321200Y0224469D01*
X0321259Y0224421D01*
X0321320Y0224376D01*
X0321384Y0224334D01*
X0321449Y0224295D01*
X0321516Y0224260D01*
X0321585Y0224229D01*
X0321656Y0224200D01*
X0321728Y0224176D01*
X0321801Y0224155D01*
X0321875Y0224138D01*
X0321950Y0224124D01*
X0322025Y0224115D01*
X0322101Y0224109D01*
X0322177Y0224107D01*
X0329177Y0224107D02*
X0342177Y0224107D01*
X0349177Y0224107D02*
X0349253Y0224109D01*
X0349329Y0224115D01*
X0349404Y0224124D01*
X0349479Y0224138D01*
X0349553Y0224155D01*
X0349626Y0224176D01*
X0349698Y0224200D01*
X0349769Y0224229D01*
X0349838Y0224260D01*
X0349905Y0224295D01*
X0349970Y0224334D01*
X0350034Y0224376D01*
X0350095Y0224421D01*
X0350154Y0224469D01*
X0350210Y0224520D01*
X0350264Y0224574D01*
X0350315Y0224630D01*
X0350363Y0224689D01*
X0350408Y0224750D01*
X0350450Y0224814D01*
X0350489Y0224879D01*
X0350524Y0224946D01*
X0350555Y0225015D01*
X0350584Y0225086D01*
X0350608Y0225158D01*
X0350629Y0225231D01*
X0350646Y0225305D01*
X0350660Y0225380D01*
X0350669Y0225455D01*
X0350675Y0225531D01*
X0350677Y0225607D01*
X0350677Y0233107D02*
X0350677Y0252607D01*
X0350675Y0252683D01*
X0350669Y0252759D01*
X0350660Y0252834D01*
X0350646Y0252909D01*
X0350629Y0252983D01*
X0350608Y0253056D01*
X0350584Y0253128D01*
X0350555Y0253199D01*
X0350524Y0253268D01*
X0350489Y0253335D01*
X0350450Y0253400D01*
X0350408Y0253464D01*
X0350363Y0253525D01*
X0350315Y0253584D01*
X0350264Y0253640D01*
X0350210Y0253694D01*
X0350154Y0253745D01*
X0350095Y0253793D01*
X0350034Y0253838D01*
X0349970Y0253880D01*
X0349905Y0253919D01*
X0349838Y0253954D01*
X0349769Y0253985D01*
X0349698Y0254014D01*
X0349626Y0254038D01*
X0349553Y0254059D01*
X0349479Y0254076D01*
X0349404Y0254090D01*
X0349329Y0254099D01*
X0349253Y0254105D01*
X0349177Y0254107D01*
X0340677Y0244107D02*
X0339677Y0243107D01*
X0336677Y0242607D02*
X0334677Y0242607D01*
X0334677Y0240107D01*
X0332177Y0240107D01*
X0332177Y0238107D01*
X0334677Y0238107D01*
X0334677Y0235607D01*
X0336677Y0235607D01*
X0336677Y0238107D01*
X0339177Y0238107D01*
X0339177Y0240107D01*
X0336677Y0240107D01*
X0336677Y0242607D01*
X0331677Y0243107D02*
X0330677Y0244107D01*
X0330177Y0239107D02*
X0328177Y0239107D01*
X0332177Y0235607D02*
X0330177Y0233607D01*
X0339177Y0235607D02*
X0341177Y0233607D01*
X0341177Y0239107D02*
X0343177Y0239107D01*
D13*
X0338099Y0222360D02*
X0338099Y0217857D01*
X0339600Y0217857D02*
X0336598Y0217857D01*
X0334996Y0218607D02*
X0331994Y0221610D01*
X0331994Y0218607D01*
X0332744Y0217857D01*
X0334246Y0217857D01*
X0334996Y0218607D01*
X0334996Y0221610D01*
X0334246Y0222360D01*
X0332744Y0222360D01*
X0331994Y0221610D01*
X0330392Y0222360D02*
X0330392Y0217857D01*
X0330392Y0219358D02*
X0328141Y0220859D01*
X0330392Y0219358D02*
X0328141Y0217857D01*
X0338099Y0222360D02*
X0339600Y0220859D01*
X0338487Y0256841D02*
X0339989Y0258342D01*
X0339238Y0258342D02*
X0341490Y0258342D01*
X0341490Y0256841D02*
X0341490Y0261345D01*
X0339238Y0261345D01*
X0338487Y0260594D01*
X0338487Y0259093D01*
X0339238Y0258342D01*
X0336886Y0256841D02*
X0333884Y0256841D01*
X0335385Y0256841D02*
X0335385Y0261345D01*
X0336886Y0259843D01*
X0332282Y0260594D02*
X0331532Y0261345D01*
X0330030Y0261345D01*
X0329280Y0260594D01*
X0329280Y0259843D01*
X0330030Y0259093D01*
X0329280Y0258342D01*
X0329280Y0257591D01*
X0330030Y0256841D01*
X0331532Y0256841D01*
X0332282Y0257591D01*
X0330781Y0259093D02*
X0330030Y0259093D01*
X0311642Y0259645D02*
X0311642Y0264149D01*
X0309391Y0264149D01*
X0308640Y0263398D01*
X0308640Y0261897D01*
X0309391Y0261146D01*
X0311642Y0261146D01*
X0310141Y0261146D02*
X0308640Y0259645D01*
X0307039Y0259645D02*
X0304036Y0259645D01*
X0305537Y0259645D02*
X0305537Y0264149D01*
X0307039Y0262648D01*
X0302435Y0263398D02*
X0301684Y0264149D01*
X0300183Y0264149D01*
X0299432Y0263398D01*
X0302435Y0260396D01*
X0301684Y0259645D01*
X0300183Y0259645D01*
X0299432Y0260396D01*
X0299432Y0263398D01*
X0302435Y0263398D02*
X0302435Y0260396D01*
X0295824Y0259897D02*
X0295824Y0264401D01*
X0293572Y0264401D01*
X0292821Y0263650D01*
X0292821Y0262149D01*
X0293572Y0261398D01*
X0295824Y0261398D01*
X0294322Y0261398D02*
X0292821Y0259897D01*
X0291220Y0260648D02*
X0290469Y0259897D01*
X0288968Y0259897D01*
X0288217Y0260648D01*
X0288217Y0263650D01*
X0288968Y0264401D01*
X0290469Y0264401D01*
X0291220Y0263650D01*
X0291220Y0262900D01*
X0290469Y0262149D01*
X0288217Y0262149D01*
X0285506Y0261512D02*
X0283254Y0261512D01*
X0282503Y0262262D01*
X0282503Y0263764D01*
X0283254Y0264514D01*
X0285506Y0264514D01*
X0285506Y0260010D01*
X0284005Y0261512D02*
X0282503Y0260010D01*
X0280902Y0260761D02*
X0280151Y0260010D01*
X0278650Y0260010D01*
X0277899Y0260761D01*
X0277899Y0261512D01*
X0278650Y0262262D01*
X0280902Y0262262D01*
X0280902Y0260761D01*
X0280902Y0262262D02*
X0279401Y0263764D01*
X0277899Y0264514D01*
X0272519Y0270396D02*
X0269517Y0270396D01*
X0270267Y0272648D02*
X0272519Y0270396D01*
X0270267Y0268144D02*
X0270267Y0272648D01*
X0264019Y0284644D02*
X0261017Y0284644D01*
X0262518Y0284644D02*
X0262518Y0289148D01*
X0264019Y0287646D01*
X0237519Y0288397D02*
X0236769Y0289148D01*
X0235267Y0289148D01*
X0234517Y0288397D01*
X0234517Y0287646D01*
X0237519Y0284644D01*
X0234517Y0284644D01*
X0219519Y0285394D02*
X0218769Y0284644D01*
X0217267Y0284644D01*
X0216517Y0285394D01*
X0216517Y0286145D01*
X0217267Y0286896D01*
X0218018Y0286896D01*
X0217267Y0286896D02*
X0216517Y0287646D01*
X0216517Y0288397D01*
X0217267Y0289148D01*
X0218769Y0289148D01*
X0219519Y0288397D01*
X0211519Y0272648D02*
X0208517Y0272648D01*
X0209267Y0271146D02*
X0208517Y0270396D01*
X0208517Y0268894D01*
X0209267Y0268144D01*
X0210769Y0268144D01*
X0211519Y0268894D01*
X0211519Y0270396D02*
X0210018Y0271146D01*
X0209267Y0271146D01*
X0211519Y0270396D02*
X0211519Y0272648D01*
X0200853Y0268601D02*
X0198601Y0268601D01*
X0197850Y0267851D01*
X0197850Y0264848D01*
X0198601Y0264097D01*
X0200853Y0264097D01*
X0200853Y0268601D01*
X0196249Y0267851D02*
X0195498Y0268601D01*
X0193997Y0268601D01*
X0193246Y0267851D01*
X0193246Y0267100D01*
X0196249Y0264097D01*
X0193246Y0264097D01*
X0190051Y0268144D02*
X0190051Y0272648D01*
X0192303Y0270396D01*
X0189300Y0270396D01*
X0183803Y0284644D02*
X0180800Y0284644D01*
X0182301Y0284644D02*
X0182301Y0289148D01*
X0183803Y0287646D01*
X0157303Y0288397D02*
X0156552Y0289148D01*
X0155051Y0289148D01*
X0154300Y0288397D01*
X0154300Y0287646D01*
X0157303Y0284644D01*
X0154300Y0284644D01*
X0139303Y0285394D02*
X0138552Y0284644D01*
X0137051Y0284644D01*
X0136300Y0285394D01*
X0136300Y0286145D01*
X0137051Y0286896D01*
X0137801Y0286896D01*
X0137051Y0286896D02*
X0136300Y0287646D01*
X0136300Y0288397D01*
X0137051Y0289148D01*
X0138552Y0289148D01*
X0139303Y0288397D01*
X0131303Y0272648D02*
X0128300Y0272648D01*
X0129051Y0271146D02*
X0128300Y0270396D01*
X0128300Y0268894D01*
X0129051Y0268144D01*
X0130552Y0268144D01*
X0131303Y0268894D01*
X0131303Y0270396D02*
X0129801Y0271146D01*
X0129051Y0271146D01*
X0131303Y0270396D02*
X0131303Y0272648D01*
X0140917Y0247806D02*
X0140167Y0247055D01*
X0140167Y0245554D01*
X0140917Y0244804D01*
X0143920Y0247806D01*
X0140917Y0247806D01*
X0140917Y0244804D02*
X0143920Y0244804D01*
X0144670Y0245554D01*
X0144670Y0247055D01*
X0143920Y0247806D01*
X0143920Y0243202D02*
X0144670Y0242452D01*
X0144670Y0240950D01*
X0143920Y0240200D01*
X0143920Y0238598D02*
X0144670Y0237848D01*
X0144670Y0236346D01*
X0143920Y0235596D01*
X0143920Y0238598D02*
X0143169Y0238598D01*
X0140167Y0235596D01*
X0140167Y0238598D01*
X0140167Y0240200D02*
X0143169Y0243202D01*
X0143920Y0243202D01*
X0140167Y0243202D02*
X0140167Y0240200D01*
X0130500Y0232795D02*
X0130500Y0222795D01*
X0050500Y0222795D01*
X0050500Y0232795D01*
X0130500Y0232795D01*
X0134201Y0226168D02*
X0133451Y0225418D01*
X0133451Y0223916D01*
X0134201Y0223166D01*
X0134952Y0223166D01*
X0135703Y0223916D01*
X0135703Y0225418D01*
X0134952Y0226168D01*
X0134201Y0226168D01*
X0135703Y0225418D02*
X0136453Y0226168D01*
X0137204Y0226168D01*
X0137955Y0225418D01*
X0137955Y0223916D01*
X0137204Y0223166D01*
X0136453Y0223166D01*
X0135703Y0223916D01*
X0135703Y0221564D02*
X0134952Y0220814D01*
X0134952Y0218562D01*
X0134952Y0220063D02*
X0133451Y0221564D01*
X0135703Y0221564D02*
X0137204Y0221564D01*
X0137955Y0220814D01*
X0137955Y0218562D01*
X0133451Y0218562D01*
X0115782Y0243513D02*
X0112780Y0246516D01*
X0112780Y0247266D01*
X0113530Y0248017D01*
X0115032Y0248017D01*
X0115782Y0247266D01*
X0115782Y0243513D02*
X0112780Y0243513D01*
X0111178Y0243513D02*
X0108176Y0246516D01*
X0108176Y0247266D01*
X0108926Y0248017D01*
X0110428Y0248017D01*
X0111178Y0247266D01*
X0111178Y0243513D02*
X0108176Y0243513D01*
X0106574Y0244264D02*
X0103572Y0247266D01*
X0103572Y0244264D01*
X0104323Y0243513D01*
X0105824Y0243513D01*
X0106574Y0244264D01*
X0106574Y0247266D01*
X0105824Y0248017D01*
X0104323Y0248017D01*
X0103572Y0247266D01*
X0103556Y0240317D02*
X0106559Y0240317D01*
X0106559Y0238065D01*
X0105057Y0238816D01*
X0104307Y0238816D01*
X0103556Y0238065D01*
X0103556Y0236564D01*
X0104307Y0235813D01*
X0105808Y0235813D01*
X0106559Y0236564D01*
X0108160Y0235813D02*
X0109661Y0237314D01*
X0108911Y0237314D02*
X0111163Y0237314D01*
X0111163Y0235813D02*
X0111163Y0240317D01*
X0108911Y0240317D01*
X0108160Y0239566D01*
X0108160Y0238065D01*
X0108911Y0237314D01*
X0107876Y0255250D02*
X0107125Y0256001D01*
X0107125Y0259003D01*
X0107876Y0259754D01*
X0110128Y0259754D01*
X0110128Y0255250D01*
X0107876Y0255250D01*
X0105524Y0255250D02*
X0102521Y0255250D01*
X0104023Y0255250D02*
X0104023Y0259754D01*
X0105524Y0258253D01*
X0109834Y0268144D02*
X0109834Y0272648D01*
X0112086Y0270396D01*
X0109084Y0270396D01*
X0103586Y0284644D02*
X0100584Y0284644D01*
X0102085Y0284644D02*
X0102085Y0289148D01*
X0103586Y0287646D01*
X0077086Y0288397D02*
X0076336Y0289148D01*
X0074834Y0289148D01*
X0074084Y0288397D01*
X0074084Y0287646D01*
X0077086Y0284644D01*
X0074084Y0284644D01*
X0059086Y0285394D02*
X0058336Y0284644D01*
X0056834Y0284644D01*
X0056084Y0285394D01*
X0056084Y0286145D01*
X0056834Y0286896D01*
X0057585Y0286896D01*
X0056834Y0286896D02*
X0056084Y0287646D01*
X0056084Y0288397D01*
X0056834Y0289148D01*
X0058336Y0289148D01*
X0059086Y0288397D01*
X0051086Y0272648D02*
X0051086Y0270396D01*
X0049585Y0271146D01*
X0048834Y0271146D01*
X0048084Y0270396D01*
X0048084Y0268894D01*
X0048834Y0268144D01*
X0050336Y0268144D01*
X0051086Y0268894D01*
X0051086Y0272648D02*
X0048084Y0272648D01*
X0063203Y0251144D02*
X0062452Y0250393D01*
X0062452Y0249642D01*
X0063203Y0248892D01*
X0064704Y0248892D01*
X0065455Y0249642D01*
X0065455Y0250393D01*
X0064704Y0251144D01*
X0063203Y0251144D01*
X0063203Y0248892D02*
X0062452Y0248141D01*
X0062452Y0247390D01*
X0063203Y0246640D01*
X0064704Y0246640D01*
X0065455Y0247390D01*
X0065455Y0248141D01*
X0064704Y0248892D01*
X0067056Y0248892D02*
X0070059Y0248892D01*
X0067807Y0251144D01*
X0067807Y0246640D01*
X0071660Y0246640D02*
X0074663Y0246640D01*
X0073161Y0246640D02*
X0073161Y0251144D01*
X0074663Y0249642D01*
X0076264Y0248892D02*
X0079267Y0248892D01*
X0077015Y0251144D01*
X0077015Y0246640D01*
X0080868Y0246640D02*
X0080868Y0251144D01*
X0083870Y0251144D02*
X0080868Y0246640D01*
X0083870Y0246640D02*
X0083870Y0251144D01*
X0086973Y0251144D02*
X0086973Y0246640D01*
X0088474Y0246640D02*
X0085472Y0246640D01*
X0088474Y0249642D02*
X0086973Y0251144D01*
X0156643Y0243396D02*
X0156643Y0242645D01*
X0159645Y0239642D01*
X0159645Y0238892D01*
X0161247Y0239642D02*
X0161997Y0238892D01*
X0163499Y0238892D01*
X0164249Y0239642D01*
X0165851Y0238892D02*
X0168853Y0238892D01*
X0167352Y0238892D02*
X0167352Y0243396D01*
X0168853Y0241894D01*
X0170455Y0243396D02*
X0170455Y0238892D01*
X0173457Y0243396D01*
X0173457Y0238892D01*
X0175058Y0239642D02*
X0175058Y0240393D01*
X0175809Y0241144D01*
X0178061Y0241144D01*
X0178061Y0239642D01*
X0177310Y0238892D01*
X0175809Y0238892D01*
X0175058Y0239642D01*
X0176560Y0242645D02*
X0178061Y0241144D01*
X0176560Y0242645D02*
X0175058Y0243396D01*
X0173555Y0245904D02*
X0172054Y0245904D01*
X0171303Y0246654D01*
X0171303Y0249657D01*
X0172054Y0250407D01*
X0173555Y0250407D01*
X0174306Y0249657D01*
X0174306Y0246654D01*
X0173555Y0245904D01*
X0169702Y0245904D02*
X0169702Y0250407D01*
X0168951Y0248155D02*
X0166699Y0245904D01*
X0165098Y0245904D02*
X0162095Y0245904D01*
X0163597Y0245904D02*
X0163597Y0250407D01*
X0165098Y0248906D01*
X0166699Y0250407D02*
X0169702Y0247405D01*
X0164249Y0242645D02*
X0163499Y0243396D01*
X0161997Y0243396D01*
X0161247Y0242645D01*
X0161247Y0241894D01*
X0161997Y0241144D01*
X0161247Y0240393D01*
X0161247Y0239642D01*
X0161997Y0241144D02*
X0162748Y0241144D01*
X0159645Y0243396D02*
X0156643Y0243396D01*
X0158723Y0214978D02*
X0160225Y0214978D01*
X0160975Y0214228D01*
X0158723Y0214978D02*
X0157973Y0214228D01*
X0157973Y0213477D01*
X0160975Y0210474D01*
X0157973Y0210474D01*
X0162577Y0210474D02*
X0165579Y0210474D01*
X0164078Y0210474D02*
X0164078Y0214978D01*
X0165579Y0213477D01*
X0167181Y0214228D02*
X0167181Y0212726D01*
X0167931Y0211976D01*
X0170183Y0211976D01*
X0168682Y0211976D02*
X0167181Y0210474D01*
X0170183Y0210474D02*
X0170183Y0214978D01*
X0167931Y0214978D01*
X0167181Y0214228D01*
X0172170Y0213651D02*
X0174422Y0212150D01*
X0172170Y0210648D01*
X0174422Y0210648D02*
X0174422Y0215152D01*
X0177524Y0215152D02*
X0177524Y0210648D01*
X0176023Y0210648D02*
X0179026Y0210648D01*
X0179026Y0213651D02*
X0177524Y0215152D01*
X0202748Y0240560D02*
X0204249Y0240560D01*
X0205000Y0241311D01*
X0201997Y0244313D01*
X0201997Y0241311D01*
X0202748Y0240560D01*
X0205000Y0241311D02*
X0205000Y0244313D01*
X0204249Y0245064D01*
X0202748Y0245064D01*
X0201997Y0244313D01*
X0206601Y0244313D02*
X0207352Y0245064D01*
X0208853Y0245064D01*
X0209604Y0244313D01*
X0211205Y0244313D02*
X0211956Y0245064D01*
X0213457Y0245064D01*
X0214207Y0244313D01*
X0211205Y0244313D02*
X0211205Y0243563D01*
X0214207Y0240560D01*
X0211205Y0240560D01*
X0209604Y0240560D02*
X0206601Y0243563D01*
X0206601Y0244313D01*
X0206601Y0240560D02*
X0209604Y0240560D01*
X0209078Y0248597D02*
X0209078Y0253101D01*
X0211330Y0250849D01*
X0208327Y0250849D01*
X0206726Y0251600D02*
X0205225Y0253101D01*
X0205225Y0248597D01*
X0206726Y0248597D02*
X0203724Y0248597D01*
X0202122Y0250849D02*
X0199120Y0250849D01*
X0197518Y0250099D02*
X0196768Y0250849D01*
X0195266Y0250849D01*
X0194516Y0250099D01*
X0194516Y0249348D01*
X0195266Y0248597D01*
X0196768Y0248597D01*
X0197518Y0249348D01*
X0197518Y0250099D01*
X0196768Y0250849D02*
X0197518Y0251600D01*
X0197518Y0252351D01*
X0196768Y0253101D01*
X0195266Y0253101D01*
X0194516Y0252351D01*
X0194516Y0251600D01*
X0195266Y0250849D01*
X0199870Y0248597D02*
X0199870Y0253101D01*
X0202122Y0250849D01*
X0212931Y0248597D02*
X0212931Y0253101D01*
X0215934Y0253101D02*
X0212931Y0248597D01*
X0215934Y0248597D02*
X0215934Y0253101D01*
X0219037Y0253101D02*
X0219037Y0248597D01*
X0220538Y0248597D02*
X0217535Y0248597D01*
X0220538Y0251600D02*
X0219037Y0253101D01*
X0230156Y0251290D02*
X0230156Y0248288D01*
X0233158Y0251290D01*
X0233909Y0251290D01*
X0234659Y0250540D01*
X0234659Y0249038D01*
X0233909Y0248288D01*
X0234659Y0246686D02*
X0231657Y0243684D01*
X0232407Y0244434D02*
X0230156Y0246686D01*
X0230156Y0243684D02*
X0234659Y0243684D01*
X0233909Y0242082D02*
X0234659Y0241332D01*
X0234659Y0239831D01*
X0233909Y0239080D01*
X0230906Y0239080D01*
X0230156Y0239831D01*
X0230156Y0241332D01*
X0230906Y0242082D01*
X0233909Y0242082D01*
X0243257Y0242645D02*
X0246259Y0239642D01*
X0246259Y0238892D01*
X0247861Y0239642D02*
X0248611Y0238892D01*
X0250113Y0238892D01*
X0250863Y0239642D01*
X0252465Y0238892D02*
X0255467Y0238892D01*
X0253966Y0238892D02*
X0253966Y0243396D01*
X0255467Y0241894D01*
X0257069Y0243396D02*
X0257069Y0238892D01*
X0260071Y0243396D01*
X0260071Y0238892D01*
X0261673Y0239642D02*
X0261673Y0240393D01*
X0262423Y0241144D01*
X0264675Y0241144D01*
X0264675Y0239642D01*
X0263925Y0238892D01*
X0262423Y0238892D01*
X0261673Y0239642D01*
X0264675Y0241144D02*
X0263174Y0242645D01*
X0261673Y0243396D01*
X0250863Y0242645D02*
X0250113Y0243396D01*
X0248611Y0243396D01*
X0247861Y0242645D01*
X0247861Y0241894D01*
X0248611Y0241144D01*
X0247861Y0240393D01*
X0247861Y0239642D01*
X0248611Y0241144D02*
X0249362Y0241144D01*
X0246259Y0243396D02*
X0243257Y0243396D01*
X0243257Y0242645D01*
X0246876Y0215175D02*
X0246876Y0210671D01*
X0248377Y0210671D02*
X0245374Y0210671D01*
X0248377Y0213674D02*
X0246876Y0215175D01*
X0251479Y0215175D02*
X0251479Y0210671D01*
X0249978Y0210671D02*
X0252981Y0210671D01*
X0254582Y0210671D02*
X0256083Y0212173D01*
X0255333Y0212173D02*
X0257585Y0212173D01*
X0257585Y0210671D02*
X0257585Y0215175D01*
X0255333Y0215175D01*
X0254582Y0214424D01*
X0254582Y0212923D01*
X0255333Y0212173D01*
X0252981Y0213674D02*
X0251479Y0215175D01*
X0260556Y0213848D02*
X0262807Y0212347D01*
X0260556Y0210845D01*
X0262807Y0210845D02*
X0262807Y0215349D01*
X0265910Y0215349D02*
X0265910Y0210845D01*
X0267411Y0210845D02*
X0264409Y0210845D01*
X0267411Y0213848D02*
X0265910Y0215349D01*
X0267824Y0194872D02*
X0267824Y0190368D01*
X0266323Y0190368D02*
X0269326Y0190368D01*
X0270877Y0190368D02*
X0271628Y0190368D01*
X0271628Y0191119D01*
X0270877Y0191119D01*
X0270877Y0190368D01*
X0273229Y0191119D02*
X0273980Y0190368D01*
X0275481Y0190368D01*
X0276231Y0191119D01*
X0273229Y0194121D01*
X0273229Y0191119D01*
X0273229Y0194121D02*
X0273980Y0194872D01*
X0275481Y0194872D01*
X0276231Y0194121D01*
X0276231Y0191119D01*
X0269326Y0193371D02*
X0267824Y0194872D01*
X0264722Y0193371D02*
X0264722Y0191119D01*
X0263971Y0190368D01*
X0261719Y0190368D01*
X0261719Y0193371D01*
X0260118Y0192620D02*
X0258616Y0192620D01*
X0260118Y0194872D02*
X0257115Y0194872D01*
X0260118Y0194872D02*
X0260118Y0190368D01*
X0263771Y0182667D02*
X0265273Y0182667D01*
X0266023Y0181917D01*
X0263771Y0182667D02*
X0263021Y0181917D01*
X0263021Y0181166D01*
X0266023Y0178163D01*
X0263021Y0178163D01*
X0267625Y0178163D02*
X0270627Y0178163D01*
X0269126Y0178163D02*
X0269126Y0182667D01*
X0270627Y0181166D01*
X0272229Y0181917D02*
X0272979Y0182667D01*
X0274480Y0182667D01*
X0275231Y0181917D01*
X0275231Y0178914D01*
X0274480Y0178163D01*
X0272979Y0178163D01*
X0272229Y0178914D01*
X0300609Y0234822D02*
X0303612Y0237824D01*
X0304363Y0237824D01*
X0305113Y0237074D01*
X0305113Y0235572D01*
X0304363Y0234822D01*
X0300609Y0234822D02*
X0300609Y0237824D01*
X0300609Y0239426D02*
X0303612Y0242428D01*
X0304363Y0242428D01*
X0305113Y0241677D01*
X0305113Y0240176D01*
X0304363Y0239426D01*
X0300609Y0239426D02*
X0300609Y0242428D01*
X0301360Y0244029D02*
X0300609Y0244780D01*
X0300609Y0246281D01*
X0301360Y0247032D01*
X0304363Y0247032D01*
X0301360Y0244029D01*
X0304363Y0244029D01*
X0305113Y0244780D01*
X0305113Y0246281D01*
X0304363Y0247032D01*
X0294917Y0245614D02*
X0294917Y0244113D01*
X0294166Y0243363D01*
X0294166Y0241761D02*
X0294917Y0241011D01*
X0294917Y0239509D01*
X0294166Y0238759D01*
X0294166Y0241761D02*
X0293416Y0241761D01*
X0290413Y0238759D01*
X0290413Y0241761D01*
X0290413Y0243363D02*
X0293416Y0246365D01*
X0294166Y0246365D01*
X0294917Y0245614D01*
X0294166Y0247966D02*
X0294917Y0248717D01*
X0294917Y0250218D01*
X0294166Y0250969D01*
X0291164Y0247966D01*
X0290413Y0248717D01*
X0290413Y0250218D01*
X0291164Y0250969D01*
X0294166Y0250969D01*
X0294166Y0247966D02*
X0291164Y0247966D01*
X0290413Y0246365D02*
X0290413Y0243363D01*
X0284035Y0244203D02*
X0284035Y0245704D01*
X0283285Y0246454D01*
X0282534Y0246454D01*
X0279531Y0243452D01*
X0279531Y0246454D01*
X0280282Y0248056D02*
X0283285Y0251058D01*
X0280282Y0251058D01*
X0279531Y0250308D01*
X0279531Y0248806D01*
X0280282Y0248056D01*
X0283285Y0248056D01*
X0284035Y0248806D01*
X0284035Y0250308D01*
X0283285Y0251058D01*
X0284035Y0244203D02*
X0283285Y0243452D01*
X0283285Y0241851D02*
X0284035Y0241100D01*
X0284035Y0239599D01*
X0283285Y0238848D01*
X0283285Y0241851D02*
X0282534Y0241851D01*
X0279531Y0238848D01*
X0279531Y0241851D01*
X0289484Y0268144D02*
X0288733Y0268894D01*
X0288733Y0270396D01*
X0289484Y0271146D01*
X0290235Y0271146D01*
X0291736Y0270396D01*
X0291736Y0272648D01*
X0288733Y0272648D01*
X0289484Y0268144D02*
X0290985Y0268144D01*
X0291736Y0268894D01*
X0297484Y0284644D02*
X0298985Y0284644D01*
X0299736Y0285394D01*
X0298235Y0286896D02*
X0297484Y0286896D01*
X0296733Y0286145D01*
X0296733Y0285394D01*
X0297484Y0284644D01*
X0297484Y0286896D02*
X0296733Y0287646D01*
X0296733Y0288397D01*
X0297484Y0289148D01*
X0298985Y0289148D01*
X0299736Y0288397D01*
X0314733Y0288397D02*
X0315484Y0289148D01*
X0316985Y0289148D01*
X0317736Y0288397D01*
X0314733Y0288397D02*
X0314733Y0287646D01*
X0317736Y0284644D01*
X0314733Y0284644D01*
X0341233Y0284644D02*
X0344236Y0284644D01*
X0342735Y0284644D02*
X0342735Y0289148D01*
X0344236Y0287646D01*
X0350484Y0272648D02*
X0352736Y0270396D01*
X0349733Y0270396D01*
X0350484Y0268144D02*
X0350484Y0272648D01*
D14*
X0269701Y0189024D02*
X0269701Y0186024D01*
X0269701Y0183024D01*
X0267701Y0183024D02*
X0267701Y0186024D01*
X0267701Y0189024D01*
D15*
X0217304Y0258847D03*
X0087209Y0257874D03*
D16*
X0090959Y0257874D03*
X0070459Y0257874D03*
X0200554Y0258847D03*
X0221054Y0258847D03*
D17*
X0360059Y0279724D02*
X0360059Y0296654D01*
X0360059Y0304094D02*
X0360059Y0317520D01*
X0393524Y0317520D01*
X0393327Y0317520D01*
X0393524Y0317520D02*
X0393524Y0275787D01*
X0375807Y0275787D01*
D18*
X0346799Y0293744D02*
X0346799Y0300049D01*
X0344697Y0297947D01*
X0342595Y0300049D01*
X0342595Y0293744D01*
X0340353Y0293744D02*
X0338252Y0293744D01*
X0339303Y0293744D02*
X0339303Y0300049D01*
X0340353Y0300049D02*
X0338252Y0300049D01*
X0336056Y0300049D02*
X0336056Y0293744D01*
X0332904Y0293744D01*
X0331853Y0294795D01*
X0331853Y0298998D01*
X0332904Y0300049D01*
X0336056Y0300049D01*
X0329611Y0300049D02*
X0327509Y0300049D01*
X0328560Y0300049D02*
X0328560Y0293744D01*
X0329611Y0293744D02*
X0327509Y0293744D01*
X0325314Y0294795D02*
X0324263Y0293744D01*
X0323212Y0293744D01*
X0322161Y0294795D01*
X0322161Y0300049D01*
X0323212Y0300049D02*
X0321110Y0300049D01*
X0318868Y0297947D02*
X0318868Y0293744D01*
X0318868Y0296896D02*
X0314665Y0296896D01*
X0314665Y0297947D02*
X0314665Y0293744D01*
X0312423Y0294795D02*
X0311372Y0293744D01*
X0309270Y0293744D01*
X0308219Y0294795D01*
X0305977Y0295845D02*
X0301774Y0300049D01*
X0305977Y0300049D02*
X0305977Y0293744D01*
X0304927Y0296896D02*
X0301774Y0293744D01*
X0308219Y0298998D02*
X0309270Y0300049D01*
X0311372Y0300049D01*
X0312423Y0298998D01*
X0312423Y0294795D01*
X0314665Y0297947D02*
X0316767Y0300049D01*
X0318868Y0297947D01*
X0266582Y0300049D02*
X0266582Y0293744D01*
X0262379Y0293744D02*
X0262379Y0300049D01*
X0264481Y0297947D01*
X0266582Y0300049D01*
X0260137Y0300049D02*
X0258035Y0300049D01*
X0259086Y0300049D02*
X0259086Y0293744D01*
X0260137Y0293744D02*
X0258035Y0293744D01*
X0255840Y0293744D02*
X0252687Y0293744D01*
X0251636Y0294795D01*
X0251636Y0298998D01*
X0252687Y0300049D01*
X0255840Y0300049D01*
X0255840Y0293744D01*
X0249394Y0293744D02*
X0247293Y0293744D01*
X0248344Y0293744D02*
X0248344Y0300049D01*
X0249394Y0300049D02*
X0247293Y0300049D01*
X0242996Y0300049D02*
X0240894Y0300049D01*
X0241945Y0300049D02*
X0241945Y0294795D01*
X0242996Y0293744D01*
X0244047Y0293744D01*
X0245097Y0294795D01*
X0238652Y0293744D02*
X0238652Y0297947D01*
X0236550Y0300049D01*
X0234448Y0297947D01*
X0234448Y0293744D01*
X0232206Y0294795D02*
X0231156Y0293744D01*
X0229054Y0293744D01*
X0228003Y0294795D01*
X0225761Y0295845D02*
X0221557Y0300049D01*
X0225761Y0300049D02*
X0225761Y0293744D01*
X0224710Y0296896D02*
X0221557Y0293744D01*
X0228003Y0298998D02*
X0229054Y0300049D01*
X0231156Y0300049D01*
X0232206Y0298998D01*
X0232206Y0294795D01*
X0234448Y0296896D02*
X0238652Y0296896D01*
X0186366Y0293744D02*
X0186366Y0300049D01*
X0184264Y0297947D01*
X0182162Y0300049D01*
X0182162Y0293744D01*
X0179920Y0293744D02*
X0177819Y0293744D01*
X0178869Y0293744D02*
X0178869Y0300049D01*
X0177819Y0300049D02*
X0179920Y0300049D01*
X0175623Y0300049D02*
X0175623Y0293744D01*
X0172471Y0293744D01*
X0171420Y0294795D01*
X0171420Y0298998D01*
X0172471Y0300049D01*
X0175623Y0300049D01*
X0169178Y0300049D02*
X0167076Y0300049D01*
X0168127Y0300049D02*
X0168127Y0293744D01*
X0169178Y0293744D02*
X0167076Y0293744D01*
X0164881Y0294795D02*
X0163830Y0293744D01*
X0162779Y0293744D01*
X0161728Y0294795D01*
X0161728Y0300049D01*
X0162779Y0300049D02*
X0160677Y0300049D01*
X0158435Y0297947D02*
X0156334Y0300049D01*
X0154232Y0297947D01*
X0154232Y0293744D01*
X0151990Y0294795D02*
X0150939Y0293744D01*
X0148837Y0293744D01*
X0147786Y0294795D01*
X0145544Y0295845D02*
X0141341Y0300049D01*
X0145544Y0300049D02*
X0145544Y0293744D01*
X0144494Y0296896D02*
X0141341Y0293744D01*
X0147786Y0298998D02*
X0148837Y0300049D01*
X0150939Y0300049D01*
X0151990Y0298998D01*
X0151990Y0294795D01*
X0154232Y0296896D02*
X0158435Y0296896D01*
X0158435Y0297947D02*
X0158435Y0293744D01*
X0106149Y0293744D02*
X0106149Y0300049D01*
X0104048Y0297947D01*
X0101946Y0300049D01*
X0101946Y0293744D01*
X0099704Y0293744D02*
X0097602Y0293744D01*
X0098653Y0293744D02*
X0098653Y0300049D01*
X0099704Y0300049D02*
X0097602Y0300049D01*
X0095407Y0300049D02*
X0092254Y0300049D01*
X0091203Y0298998D01*
X0091203Y0294795D01*
X0092254Y0293744D01*
X0095407Y0293744D01*
X0095407Y0300049D01*
X0088961Y0300049D02*
X0086860Y0300049D01*
X0087910Y0300049D02*
X0087910Y0293744D01*
X0086860Y0293744D02*
X0088961Y0293744D01*
X0084664Y0294795D02*
X0083613Y0293744D01*
X0082563Y0293744D01*
X0081512Y0294795D01*
X0081512Y0300049D01*
X0082563Y0300049D02*
X0080461Y0300049D01*
X0078219Y0297947D02*
X0076117Y0300049D01*
X0074015Y0297947D01*
X0074015Y0293744D01*
X0071773Y0294795D02*
X0070722Y0293744D01*
X0068621Y0293744D01*
X0067570Y0294795D01*
X0065328Y0295845D02*
X0061124Y0300049D01*
X0065328Y0300049D02*
X0065328Y0293744D01*
X0064277Y0296896D02*
X0061124Y0293744D01*
X0067570Y0298998D02*
X0068621Y0300049D01*
X0070722Y0300049D01*
X0071773Y0298998D01*
X0071773Y0294795D01*
X0074015Y0296896D02*
X0078219Y0296896D01*
X0078219Y0297947D02*
X0078219Y0293744D01*
M02*
