G75*
%MOIN*%
%OFA0B0*%
%FSLAX25Y25*%
%IPPOS*%
%LPD*%
%AMOC8*
5,1,8,0,0,1.08239X$1,22.5*
%
%ADD10C,0.05746*%
%ADD11OC8,0.06600*%
%ADD12R,0.06800X0.06800*%
%ADD13C,0.06800*%
%ADD14C,0.05600*%
%ADD15C,0.06400*%
%ADD16R,0.06337X0.06337*%
%ADD17R,0.16598X0.16598*%
%ADD18OC8,0.05600*%
%ADD19R,0.06600X0.06600*%
%ADD20C,0.06600*%
%ADD21R,0.05943X0.05943*%
%ADD22C,0.07874*%
%ADD23OC8,0.07000*%
%ADD24OC8,0.08600*%
%ADD25C,0.07800*%
%ADD26C,0.07400*%
%ADD27C,0.04362*%
%ADD28C,0.01600*%
%ADD29C,0.01000*%
%ADD30C,0.00800*%
%ADD31C,0.04000*%
%ADD32C,0.01200*%
%ADD33R,0.04362X0.04362*%
D10*
X0068071Y0008938D02*
X0068071Y0014684D01*
X0078071Y0014684D02*
X0078071Y0008938D01*
X0088071Y0008938D02*
X0088071Y0014684D01*
X0098071Y0014684D02*
X0098071Y0008938D01*
X0108071Y0008938D02*
X0108071Y0014684D01*
X0118071Y0014684D02*
X0118071Y0008938D01*
X0128071Y0008938D02*
X0128071Y0014684D01*
X0138071Y0014684D02*
X0138071Y0008938D01*
X0158071Y0008938D02*
X0158071Y0014684D01*
X0168071Y0014684D02*
X0168071Y0008938D01*
X0178071Y0008938D02*
X0178071Y0014684D01*
X0188071Y0014684D02*
X0188071Y0008938D01*
X0198071Y0008938D02*
X0198071Y0014684D01*
X0208071Y0014684D02*
X0208071Y0008938D01*
X0218071Y0008938D02*
X0218071Y0014684D01*
X0228071Y0014684D02*
X0228071Y0008938D01*
X0244071Y0008938D02*
X0244071Y0014684D01*
X0254071Y0014684D02*
X0254071Y0008938D01*
X0264071Y0008938D02*
X0264071Y0014684D01*
X0274071Y0014684D02*
X0274071Y0008938D01*
X0284071Y0008938D02*
X0284071Y0014684D01*
X0294071Y0014684D02*
X0294071Y0008938D01*
X0304071Y0008938D02*
X0304071Y0014684D01*
X0314071Y0014684D02*
X0314071Y0008938D01*
X0324071Y0008938D02*
X0324071Y0014684D01*
X0334071Y0014684D02*
X0334071Y0008938D01*
X0298071Y0198938D02*
X0298071Y0204684D01*
X0288071Y0204684D02*
X0288071Y0198938D01*
X0278071Y0198938D02*
X0278071Y0204684D01*
X0268071Y0204684D02*
X0268071Y0198938D01*
X0258071Y0198938D02*
X0258071Y0204684D01*
X0248071Y0204684D02*
X0248071Y0198938D01*
X0238071Y0198938D02*
X0238071Y0204684D01*
X0228071Y0204684D02*
X0228071Y0198938D01*
X0208071Y0198938D02*
X0208071Y0204684D01*
X0198071Y0204684D02*
X0198071Y0198938D01*
X0188071Y0198938D02*
X0188071Y0204684D01*
X0178071Y0204684D02*
X0178071Y0198938D01*
X0168071Y0198938D02*
X0168071Y0204684D01*
X0158071Y0204684D02*
X0158071Y0198938D01*
X0148071Y0198938D02*
X0148071Y0204684D01*
X0138071Y0204684D02*
X0138071Y0198938D01*
D11*
X0038071Y0181811D03*
X0038071Y0171811D03*
X0028071Y0171811D03*
X0028071Y0181811D03*
X0028071Y0161811D03*
X0038071Y0161811D03*
X0038071Y0151811D03*
X0038071Y0141811D03*
X0038071Y0131811D03*
X0038071Y0121811D03*
X0028071Y0121811D03*
X0028071Y0131811D03*
X0028071Y0141811D03*
X0028071Y0151811D03*
X0028071Y0111811D03*
X0038071Y0111811D03*
X0038071Y0101811D03*
X0038071Y0091811D03*
X0038071Y0081811D03*
X0038071Y0071811D03*
X0028071Y0071811D03*
X0028071Y0081811D03*
X0028071Y0091811D03*
X0028071Y0101811D03*
X0028071Y0061811D03*
X0038071Y0061811D03*
X0038071Y0051811D03*
X0038071Y0041811D03*
X0038071Y0031811D03*
X0028071Y0031811D03*
X0028071Y0041811D03*
X0028071Y0051811D03*
X0028071Y0021811D03*
X0038071Y0021811D03*
X0038071Y0011811D03*
X0028071Y0011811D03*
D12*
G36*
X0070134Y0095447D02*
X0070157Y0088648D01*
X0063358Y0088625D01*
X0063335Y0095424D01*
X0070134Y0095447D01*
G37*
D13*
X0076746Y0092071D03*
X0086746Y0092106D03*
X0096746Y0092141D03*
X0106746Y0092175D03*
X0116745Y0092210D03*
X0126745Y0092245D03*
X0136745Y0092280D03*
X0146745Y0092315D03*
X0156745Y0092350D03*
X0166745Y0092385D03*
X0176745Y0092420D03*
X0186745Y0092455D03*
X0196745Y0092490D03*
X0206745Y0092525D03*
X0216745Y0092559D03*
X0216535Y0152559D03*
X0206535Y0152524D03*
X0196536Y0152489D03*
X0186536Y0152454D03*
X0176536Y0152419D03*
X0166536Y0152385D03*
X0156536Y0152350D03*
X0146536Y0152315D03*
X0136536Y0152280D03*
X0126536Y0152245D03*
X0116536Y0152210D03*
X0106536Y0152175D03*
X0096536Y0152140D03*
X0086536Y0152105D03*
X0076536Y0152070D03*
X0066536Y0152035D03*
D14*
X0068509Y0257874D02*
X0062909Y0257874D01*
X0092909Y0257874D02*
X0098509Y0257874D01*
X0154291Y0256142D02*
X0154291Y0261742D01*
X0164291Y0261742D02*
X0164291Y0256142D01*
X0174291Y0256142D02*
X0174291Y0261742D01*
X0184291Y0261742D02*
X0184291Y0256142D01*
X0193004Y0258847D02*
X0198604Y0258847D01*
X0223004Y0258847D02*
X0228604Y0258847D01*
X0240906Y0256142D02*
X0240906Y0261742D01*
X0250906Y0261742D02*
X0250906Y0256142D01*
X0260906Y0256142D02*
X0260906Y0261742D01*
X0270906Y0261742D02*
X0270906Y0256142D01*
X0270906Y0226142D02*
X0270906Y0220542D01*
X0260906Y0220542D02*
X0260906Y0226142D01*
X0250906Y0226142D02*
X0250906Y0220542D01*
X0240906Y0220542D02*
X0240906Y0226142D01*
X0253386Y0170359D02*
X0253386Y0164759D01*
X0263386Y0164759D02*
X0263386Y0170359D01*
X0273386Y0170359D02*
X0273386Y0164759D01*
X0283386Y0164759D02*
X0283386Y0170359D01*
X0293386Y0170359D02*
X0293386Y0164759D01*
X0303386Y0164759D02*
X0303386Y0170359D01*
X0313386Y0170359D02*
X0313386Y0164759D01*
X0323386Y0164759D02*
X0323386Y0170359D01*
X0334562Y0164921D02*
X0340162Y0164921D01*
X0340162Y0154921D02*
X0334562Y0154921D01*
X0334562Y0144921D02*
X0340162Y0144921D01*
X0340162Y0134921D02*
X0334562Y0134921D01*
X0334562Y0124921D02*
X0340162Y0124921D01*
X0340162Y0114921D02*
X0334562Y0114921D01*
X0334562Y0104921D02*
X0340162Y0104921D01*
X0340162Y0094921D02*
X0334562Y0094921D01*
X0323543Y0096068D02*
X0323543Y0090468D01*
X0313543Y0090468D02*
X0313543Y0096068D01*
X0303543Y0096068D02*
X0303543Y0090468D01*
X0293543Y0090468D02*
X0293543Y0096068D01*
X0283543Y0096068D02*
X0283543Y0090468D01*
X0273543Y0090468D02*
X0273543Y0096068D01*
X0263543Y0096068D02*
X0263543Y0090468D01*
X0253543Y0090468D02*
X0253543Y0096068D01*
X0243543Y0096068D02*
X0243543Y0090468D01*
X0233543Y0090468D02*
X0233543Y0096068D01*
X0233543Y0120468D02*
X0233543Y0126068D01*
X0243543Y0126068D02*
X0243543Y0120468D01*
X0253543Y0120468D02*
X0253543Y0126068D01*
X0253386Y0134759D02*
X0253386Y0140359D01*
X0263386Y0140359D02*
X0263386Y0134759D01*
X0263543Y0126068D02*
X0263543Y0120468D01*
X0273543Y0120468D02*
X0273543Y0126068D01*
X0273386Y0134759D02*
X0273386Y0140359D01*
X0283386Y0140359D02*
X0283386Y0134759D01*
X0283543Y0126068D02*
X0283543Y0120468D01*
X0293543Y0120468D02*
X0293543Y0126068D01*
X0293386Y0134759D02*
X0293386Y0140359D01*
X0303386Y0140359D02*
X0303386Y0134759D01*
X0303543Y0126068D02*
X0303543Y0120468D01*
X0313543Y0120468D02*
X0313543Y0126068D01*
X0313386Y0134759D02*
X0313386Y0140359D01*
X0323386Y0140359D02*
X0323386Y0134759D01*
X0323543Y0126068D02*
X0323543Y0120468D01*
X0364562Y0124921D02*
X0370162Y0124921D01*
X0370162Y0114921D02*
X0364562Y0114921D01*
X0364562Y0104921D02*
X0370162Y0104921D01*
X0370162Y0094921D02*
X0364562Y0094921D01*
X0364562Y0134921D02*
X0370162Y0134921D01*
X0370162Y0144921D02*
X0364562Y0144921D01*
X0364562Y0154921D02*
X0370162Y0154921D01*
X0370162Y0164921D02*
X0364562Y0164921D01*
X0184291Y0220542D02*
X0184291Y0226142D01*
X0174291Y0226142D02*
X0174291Y0220542D01*
X0164291Y0220542D02*
X0164291Y0226142D01*
X0154291Y0226142D02*
X0154291Y0220542D01*
D15*
X0151535Y0188239D02*
X0151535Y0181839D01*
X0141535Y0181839D02*
X0141535Y0188239D01*
X0131535Y0188239D02*
X0131535Y0181839D01*
X0121535Y0181839D02*
X0121535Y0188239D01*
X0111535Y0188239D02*
X0111535Y0181839D01*
X0101535Y0181839D02*
X0101535Y0188239D01*
X0091535Y0188239D02*
X0091535Y0181839D01*
X0161535Y0181839D02*
X0161535Y0188239D01*
X0171535Y0188239D02*
X0171535Y0181839D01*
X0181535Y0181839D02*
X0181535Y0188239D01*
X0191535Y0188239D02*
X0191535Y0181839D01*
X0201535Y0181839D02*
X0201535Y0188239D01*
X0211535Y0188239D02*
X0211535Y0181839D01*
X0221535Y0181839D02*
X0221535Y0188239D01*
X0231535Y0188239D02*
X0231535Y0181839D01*
X0241535Y0181839D02*
X0241535Y0188239D01*
X0325677Y0225907D02*
X0325677Y0232307D01*
X0335677Y0232307D02*
X0335677Y0225907D01*
X0345677Y0225907D02*
X0345677Y0232307D01*
X0338877Y0249107D02*
X0332477Y0249107D01*
X0241535Y0304871D02*
X0241535Y0311271D01*
X0231535Y0311271D02*
X0231535Y0304871D01*
X0221535Y0304871D02*
X0221535Y0311271D01*
X0211535Y0311271D02*
X0211535Y0304871D01*
X0201535Y0304871D02*
X0201535Y0311271D01*
X0191535Y0311271D02*
X0191535Y0304871D01*
X0181535Y0304871D02*
X0181535Y0311271D01*
X0171535Y0311271D02*
X0171535Y0304871D01*
X0161535Y0304871D02*
X0161535Y0311271D01*
X0151535Y0311271D02*
X0151535Y0304871D01*
X0141535Y0304871D02*
X0141535Y0311271D01*
X0131535Y0311271D02*
X0131535Y0304871D01*
X0121535Y0304871D02*
X0121535Y0311271D01*
X0111535Y0311271D02*
X0111535Y0304871D01*
X0101535Y0304871D02*
X0101535Y0311271D01*
X0091535Y0311271D02*
X0091535Y0304871D01*
D16*
X0085630Y0082677D03*
X0075787Y0082677D03*
X0065945Y0082677D03*
X0065945Y0025591D03*
X0085630Y0025591D03*
X0158465Y0025591D03*
X0178150Y0025591D03*
X0178150Y0082677D03*
X0168307Y0082677D03*
X0158465Y0082677D03*
X0250984Y0082677D03*
X0260827Y0082677D03*
X0270669Y0082677D03*
X0270669Y0025591D03*
X0250984Y0025591D03*
X0343504Y0025591D03*
X0363189Y0025591D03*
X0363189Y0082677D03*
X0353346Y0082677D03*
X0343504Y0082677D03*
D17*
X0330315Y0053150D03*
X0283858Y0053150D03*
X0237795Y0053150D03*
X0191339Y0053150D03*
X0145276Y0053150D03*
X0098819Y0053150D03*
X0052756Y0053150D03*
X0376378Y0053150D03*
D18*
X0385827Y0084567D03*
X0385827Y0094567D03*
X0385827Y0106220D03*
X0385827Y0116220D03*
X0385827Y0133780D03*
X0385827Y0143780D03*
X0385827Y0154449D03*
X0385827Y0164449D03*
X0385827Y0242047D03*
X0385827Y0252047D03*
X0421260Y0252047D03*
X0421260Y0242047D03*
X0303159Y0255368D03*
X0292963Y0255368D03*
X0282081Y0255457D03*
X0282081Y0225457D03*
X0270709Y0212795D03*
X0292963Y0225368D03*
X0303159Y0225368D03*
X0273701Y0186024D03*
X0263701Y0186024D03*
X0240709Y0212795D03*
X0224646Y0243110D03*
X0194646Y0243110D03*
X0184291Y0212598D03*
X0154291Y0212598D03*
X0142717Y0225157D03*
X0126220Y0246063D03*
X0142717Y0255157D03*
X0096220Y0246063D03*
X0048228Y0243031D03*
X0048228Y0253031D03*
X0012795Y0253031D03*
X0012795Y0243031D03*
X0062913Y0165354D03*
X0072913Y0165354D03*
X0082598Y0165354D03*
X0092598Y0165354D03*
X0101299Y0165354D03*
X0111299Y0165354D03*
X0120000Y0165354D03*
X0130000Y0165354D03*
X0139685Y0165354D03*
X0149685Y0165354D03*
X0159370Y0165354D03*
X0169370Y0165354D03*
X0179055Y0165354D03*
X0189055Y0165354D03*
X0232205Y0140748D03*
X0242205Y0140748D03*
X0230551Y0076772D03*
X0200551Y0076772D03*
X0210551Y0028543D03*
X0220551Y0028543D03*
X0300790Y0028813D03*
X0310790Y0028813D03*
X0311102Y0073819D03*
X0301102Y0073819D03*
X0385827Y0019764D03*
X0385827Y0009764D03*
X0137047Y0076772D03*
X0107047Y0076772D03*
X0051181Y0106220D03*
X0051181Y0116220D03*
D19*
X0402559Y0095472D03*
X0415354Y0095472D03*
D20*
X0415354Y0105472D03*
X0415354Y0115472D03*
X0415354Y0125472D03*
X0415354Y0135472D03*
X0415354Y0145472D03*
X0415354Y0155472D03*
X0415354Y0165472D03*
X0415354Y0175472D03*
X0402559Y0175472D03*
X0402559Y0165472D03*
X0402559Y0155472D03*
X0402559Y0145472D03*
X0402559Y0135472D03*
X0402559Y0125472D03*
X0402559Y0115472D03*
X0402559Y0105472D03*
D21*
X0396417Y0190630D03*
X0426417Y0190630D03*
X0426417Y0230630D03*
X0426417Y0265433D03*
X0396417Y0265433D03*
X0396417Y0230630D03*
X0396417Y0305433D03*
X0426417Y0305433D03*
X0037638Y0305433D03*
X0007638Y0305433D03*
X0007638Y0265433D03*
X0007638Y0230630D03*
X0037638Y0230630D03*
X0037638Y0265433D03*
X0037638Y0190630D03*
X0007638Y0190630D03*
D22*
X0363012Y0275394D02*
X0370886Y0275394D01*
X0386634Y0283268D02*
X0386634Y0291142D01*
X0370886Y0300197D02*
X0363012Y0300197D01*
D23*
X0125500Y0227795D03*
X0115500Y0227795D03*
X0105500Y0227795D03*
X0095500Y0227795D03*
X0085500Y0227795D03*
X0075500Y0227795D03*
X0065500Y0227795D03*
X0055500Y0227795D03*
D24*
X0059232Y0271575D03*
X0049626Y0281181D03*
X0099232Y0271575D03*
X0109232Y0281181D03*
X0129843Y0281181D03*
X0139449Y0271575D03*
X0179449Y0271575D03*
X0189449Y0281181D03*
X0210059Y0281181D03*
X0219665Y0271575D03*
X0259665Y0271575D03*
X0269665Y0281181D03*
X0290276Y0281181D03*
X0299882Y0271575D03*
X0339882Y0271575D03*
X0349882Y0281181D03*
D25*
X0319882Y0284687D02*
X0319882Y0276887D01*
X0239665Y0276887D02*
X0239665Y0284687D01*
X0159449Y0284687D02*
X0159449Y0276887D01*
X0079232Y0276887D02*
X0079232Y0284687D01*
D26*
X0205835Y0166339D03*
X0216535Y0166339D03*
X0227235Y0166339D03*
D27*
X0253386Y0179407D03*
X0346457Y0180118D03*
X0368110Y0195866D03*
X0090551Y0235236D03*
X0074803Y0185039D03*
X0047244Y0152559D03*
X0047244Y0235236D03*
D28*
X0047244Y0152559D01*
X0062913Y0155658D02*
X0062913Y0165354D01*
X0062913Y0155658D02*
X0066536Y0152035D01*
X0092598Y0165354D02*
X0092598Y0183976D01*
X0091535Y0185039D01*
X0075500Y0185736D02*
X0075500Y0227795D01*
X0075787Y0227508D01*
X0075787Y0227362D01*
X0087598Y0238189D02*
X0087598Y0290354D01*
X0101535Y0304291D01*
X0101535Y0308071D01*
X0091535Y0308071D02*
X0089567Y0308071D01*
X0077756Y0296260D01*
X0072835Y0296260D01*
X0072835Y0318898D01*
X0131890Y0318898D01*
X0156800Y0318898D01*
X0242126Y0318898D01*
X0267717Y0318898D01*
X0285433Y0301181D01*
X0319882Y0301181D01*
X0319882Y0280787D01*
X0366949Y0275394D02*
X0368110Y0274232D01*
X0368110Y0195866D01*
X0368110Y0165669D01*
X0367362Y0164921D01*
X0374016Y0175197D02*
X0375984Y0177165D01*
X0375984Y0264764D01*
X0377953Y0266732D01*
X0377953Y0291339D01*
X0382087Y0287205D01*
X0386634Y0287205D01*
X0377953Y0291339D02*
X0369094Y0300197D01*
X0366949Y0300197D01*
X0346457Y0180118D02*
X0348425Y0177165D01*
X0348425Y0100394D01*
X0342953Y0094921D01*
X0337362Y0094921D01*
X0253386Y0167559D02*
X0253386Y0179407D01*
X0249176Y0175197D01*
X0231299Y0175197D01*
X0231535Y0175433D01*
X0231535Y0185039D01*
X0228071Y0201811D02*
X0216535Y0201811D01*
X0216535Y0166339D01*
X0253386Y0179407D02*
X0253386Y0197126D01*
X0258071Y0201811D01*
X0241535Y0308071D02*
X0241535Y0318307D01*
X0242126Y0318898D01*
X0131890Y0318898D02*
X0131535Y0318543D01*
X0131535Y0308071D01*
X0087598Y0238189D02*
X0090551Y0235236D01*
X0075500Y0185736D02*
X0074803Y0185039D01*
X0028071Y0181811D02*
X0023622Y0185276D01*
X0023575Y0190592D01*
X0023107Y0243391D01*
X0022912Y0265378D01*
X0022638Y0296260D01*
X0037402Y0296260D01*
X0037402Y0302165D01*
X0038386Y0303150D01*
X0038386Y0304685D01*
X0037638Y0305433D01*
X0037402Y0296260D02*
X0072835Y0296260D01*
D29*
X0090551Y0235236D02*
X0090551Y0196850D01*
X0101535Y0185866D01*
X0101535Y0185039D01*
D30*
X0009600Y0043784D02*
X0026400Y0026984D01*
X0050400Y0026984D01*
X0056400Y0020984D01*
X0077600Y0020984D01*
X0086400Y0012184D01*
X0088000Y0012184D01*
X0088071Y0011811D01*
X0091200Y0018984D02*
X0084000Y0018984D01*
X0066400Y0036584D01*
X0026800Y0036584D01*
X0018400Y0044984D01*
X0018400Y0158584D01*
X0021200Y0161384D01*
X0021600Y0156584D02*
X0021600Y0051784D01*
X0026800Y0046584D01*
X0040800Y0046584D01*
X0044000Y0043384D01*
X0078800Y0043384D01*
X0080400Y0044984D01*
X0083600Y0044984D01*
X0085600Y0042984D01*
X0085600Y0025784D01*
X0085630Y0025591D01*
X0091200Y0018984D02*
X0098000Y0012184D01*
X0098071Y0011811D01*
X0098400Y0030184D02*
X0104800Y0030184D01*
X0107200Y0032584D01*
X0182400Y0032584D01*
X0196000Y0018984D01*
X0233600Y0018984D01*
X0234800Y0017784D01*
X0254800Y0020984D02*
X0196400Y0020984D01*
X0178800Y0038584D01*
X0092400Y0038584D01*
X0044000Y0086984D01*
X0036400Y0086984D01*
X0032800Y0090584D01*
X0032800Y0097384D01*
X0028400Y0101784D01*
X0028071Y0101811D01*
X0028071Y0111811D02*
X0028400Y0112184D01*
X0032000Y0112184D01*
X0036800Y0116984D01*
X0040800Y0116984D01*
X0064400Y0140584D01*
X0090000Y0140584D01*
X0096400Y0146984D01*
X0096400Y0151784D01*
X0096536Y0152140D01*
X0094800Y0156984D02*
X0091200Y0153384D01*
X0091200Y0144184D01*
X0089200Y0142184D01*
X0038400Y0142184D01*
X0038071Y0141811D01*
X0028071Y0151811D02*
X0028400Y0152184D01*
X0032800Y0156584D01*
X0032800Y0162984D01*
X0036400Y0166584D01*
X0039600Y0166584D01*
X0043600Y0170584D01*
X0043600Y0188984D01*
X0037638Y0190630D02*
X0037600Y0190984D01*
X0037600Y0230584D01*
X0037638Y0230630D01*
X0038000Y0230984D01*
X0048000Y0240984D01*
X0048000Y0242984D01*
X0048228Y0243031D01*
X0048000Y0243384D01*
X0048000Y0247384D01*
X0044000Y0251384D01*
X0044000Y0267384D01*
X0051600Y0271384D02*
X0035600Y0271384D01*
X0051600Y0271384D02*
X0060800Y0262184D01*
X0070400Y0262184D01*
X0082000Y0250584D01*
X0085200Y0234184D02*
X0080800Y0229784D01*
X0080800Y0166984D01*
X0082400Y0165384D01*
X0082598Y0165354D01*
X0082800Y0151784D02*
X0078400Y0147384D01*
X0071600Y0147384D01*
X0067200Y0151784D01*
X0066536Y0152035D01*
X0060800Y0145384D02*
X0087600Y0145384D01*
X0086400Y0151784D02*
X0086536Y0152105D01*
X0086400Y0151784D02*
X0082800Y0151784D01*
X0094800Y0156984D02*
X0098800Y0156984D01*
X0105600Y0163784D01*
X0105600Y0165384D01*
X0121200Y0180984D01*
X0121200Y0184984D01*
X0121535Y0185039D01*
X0121600Y0185384D01*
X0132000Y0195784D01*
X0132000Y0252184D01*
X0121600Y0262584D01*
X0121600Y0307784D01*
X0121535Y0308071D01*
X0126800Y0312584D02*
X0123600Y0315784D01*
X0089600Y0315784D01*
X0085600Y0311784D01*
X0083600Y0311784D01*
X0072000Y0320984D02*
X0303200Y0320984D01*
X0334000Y0290184D01*
X0334000Y0260584D01*
X0360000Y0234584D01*
X0360000Y0188584D01*
X0360400Y0183384D02*
X0360400Y0163384D01*
X0363600Y0160184D01*
X0417200Y0160184D01*
X0420000Y0157384D01*
X0420000Y0152584D01*
X0417400Y0149984D01*
X0420000Y0147384D01*
X0420000Y0146584D01*
X0423200Y0143384D01*
X0423200Y0077384D01*
X0350400Y0004584D01*
X0196400Y0004584D01*
X0193600Y0007384D01*
X0193600Y0014984D01*
X0183200Y0025384D01*
X0178400Y0025384D01*
X0178150Y0025591D01*
X0172000Y0027784D02*
X0165200Y0020984D01*
X0158400Y0020984D01*
X0142000Y0004584D01*
X0066400Y0004584D01*
X0063600Y0007384D01*
X0063600Y0011384D01*
X0053200Y0021784D01*
X0038400Y0021784D01*
X0038071Y0021811D01*
X0038400Y0041784D02*
X0038071Y0041811D01*
X0038400Y0041784D02*
X0082000Y0041784D01*
X0069600Y0070984D02*
X0107200Y0070984D01*
X0112000Y0075784D01*
X0112000Y0117784D01*
X0126400Y0132184D01*
X0126400Y0152184D01*
X0126536Y0152245D01*
X0129600Y0145384D02*
X0136400Y0152184D01*
X0136536Y0152280D01*
X0142000Y0156984D02*
X0146400Y0152584D01*
X0146536Y0152315D01*
X0151200Y0154184D02*
X0147800Y0157584D01*
X0154000Y0163784D01*
X0154000Y0165784D01*
X0157600Y0169384D01*
X0165600Y0169384D01*
X0176000Y0179784D01*
X0176000Y0188984D01*
X0182400Y0195384D01*
X0182400Y0204984D01*
X0208000Y0230584D01*
X0208000Y0253784D01*
X0206000Y0256584D02*
X0204400Y0254984D01*
X0204400Y0231784D01*
X0198400Y0225784D01*
X0187600Y0230184D02*
X0182400Y0230184D01*
X0178400Y0226184D01*
X0178400Y0202184D01*
X0178071Y0201811D01*
X0172400Y0206184D02*
X0172400Y0194584D01*
X0172400Y0206184D02*
X0160000Y0218584D01*
X0160000Y0226184D01*
X0156000Y0230184D01*
X0156000Y0238984D01*
X0160000Y0230984D02*
X0160000Y0263384D01*
X0186000Y0289384D01*
X0186000Y0312184D01*
X0189600Y0315784D01*
X0233600Y0315784D01*
X0236000Y0313384D01*
X0236000Y0303784D01*
X0239600Y0300184D01*
X0244000Y0300184D01*
X0263600Y0280584D01*
X0263600Y0279384D01*
X0267600Y0275384D01*
X0268000Y0275384D01*
X0286400Y0256984D01*
X0286400Y0256184D01*
X0316800Y0225784D01*
X0316800Y0190184D01*
X0317600Y0183784D02*
X0323600Y0189784D01*
X0354000Y0189784D01*
X0360400Y0183384D01*
X0356000Y0177784D02*
X0356000Y0106984D01*
X0357200Y0105784D01*
X0350800Y0098184D02*
X0332800Y0080184D01*
X0329600Y0078584D02*
X0331200Y0076984D01*
X0334400Y0076984D01*
X0336000Y0078584D01*
X0337600Y0078584D01*
X0343504Y0082677D02*
X0343600Y0082984D01*
X0348000Y0087384D01*
X0356800Y0087384D01*
X0358000Y0086184D01*
X0358000Y0079784D01*
X0359600Y0078184D01*
X0366800Y0078184D01*
X0372800Y0084184D01*
X0374400Y0084184D01*
X0374400Y0144984D01*
X0367600Y0144984D01*
X0367362Y0144921D01*
X0359200Y0150584D02*
X0376000Y0150584D01*
X0384000Y0158584D01*
X0387600Y0158584D01*
X0392800Y0153384D01*
X0402400Y0145384D02*
X0396000Y0138984D01*
X0382400Y0138984D01*
X0385827Y0133780D02*
X0386000Y0133384D01*
X0389600Y0133384D01*
X0392400Y0130584D01*
X0404000Y0130584D01*
X0408800Y0125784D01*
X0415200Y0125784D01*
X0415354Y0125472D01*
X0414000Y0130184D02*
X0417200Y0130184D01*
X0420000Y0127384D01*
X0420000Y0123384D01*
X0417200Y0120584D01*
X0400000Y0120584D01*
X0391200Y0129384D01*
X0383200Y0129384D01*
X0380000Y0132584D01*
X0380400Y0144984D02*
X0374400Y0144984D01*
X0380400Y0144984D02*
X0385600Y0150184D01*
X0410000Y0150184D01*
X0415200Y0155384D01*
X0415354Y0155472D01*
X0413600Y0150184D02*
X0407200Y0143784D01*
X0407200Y0140184D01*
X0402800Y0135784D01*
X0402559Y0135472D01*
X0402400Y0145384D02*
X0402559Y0145472D01*
X0410800Y0137384D02*
X0410800Y0133384D01*
X0414000Y0130184D01*
X0415600Y0135384D02*
X0415354Y0135472D01*
X0415600Y0135384D02*
X0421600Y0129384D01*
X0421600Y0079784D01*
X0367600Y0025784D01*
X0363200Y0025784D01*
X0363189Y0025591D01*
X0362800Y0025784D01*
X0348400Y0040184D01*
X0265200Y0040184D01*
X0256400Y0039384D02*
X0274000Y0056984D01*
X0274000Y0061784D01*
X0286000Y0073784D01*
X0300800Y0073784D01*
X0301102Y0073819D01*
X0305200Y0075384D02*
X0305200Y0072184D01*
X0296000Y0062984D01*
X0305200Y0075384D02*
X0297600Y0082984D01*
X0297600Y0087784D02*
X0256400Y0046584D01*
X0256400Y0044184D01*
X0253200Y0045784D02*
X0253200Y0031784D01*
X0255600Y0029384D01*
X0255600Y0021784D01*
X0254800Y0020984D01*
X0270669Y0025591D02*
X0270800Y0025384D01*
X0298400Y0025384D01*
X0299200Y0024584D01*
X0306400Y0024584D01*
X0310400Y0028584D01*
X0310790Y0028813D01*
X0277600Y0070184D02*
X0253200Y0045784D01*
X0247600Y0044984D02*
X0247600Y0044584D01*
X0246400Y0043384D01*
X0182800Y0043384D01*
X0172000Y0054184D01*
X0172000Y0056584D01*
X0172000Y0063784D02*
X0224400Y0063784D01*
X0225200Y0067784D02*
X0198800Y0067784D01*
X0196400Y0072584D02*
X0176800Y0092184D01*
X0176745Y0092420D01*
X0166800Y0092584D02*
X0180000Y0105784D01*
X0163600Y0100984D02*
X0193600Y0130984D01*
X0193600Y0134184D01*
X0192000Y0135784D01*
X0194400Y0138184D01*
X0192000Y0135784D02*
X0170800Y0135784D01*
X0162400Y0144184D01*
X0162400Y0148984D01*
X0161600Y0149784D01*
X0161600Y0154184D01*
X0159600Y0156184D01*
X0159600Y0164984D01*
X0159370Y0165354D01*
X0163600Y0173384D02*
X0156000Y0180984D01*
X0156000Y0194984D01*
X0152400Y0198584D01*
X0152400Y0208584D01*
X0148400Y0212584D01*
X0148400Y0299384D01*
X0146800Y0300984D01*
X0146800Y0296184D02*
X0141600Y0301384D01*
X0141600Y0307784D01*
X0141535Y0308071D01*
X0146800Y0296184D02*
X0146800Y0223384D01*
X0143600Y0220184D01*
X0143600Y0198584D01*
X0141600Y0196584D01*
X0141600Y0185384D01*
X0141535Y0185039D01*
X0124400Y0164984D02*
X0130800Y0158584D01*
X0146800Y0158584D01*
X0147800Y0157584D01*
X0151200Y0154184D02*
X0151200Y0150184D01*
X0125600Y0124584D01*
X0123200Y0133784D02*
X0121200Y0135784D01*
X0121200Y0146184D01*
X0129600Y0145384D02*
X0129600Y0142584D01*
X0118400Y0133784D02*
X0092800Y0108184D01*
X0071600Y0108184D01*
X0064000Y0108184D02*
X0064000Y0121384D01*
X0053600Y0124584D02*
X0046800Y0117784D01*
X0046800Y0101784D01*
X0065600Y0082984D01*
X0065945Y0082677D01*
X0069600Y0070984D02*
X0048800Y0091784D01*
X0038400Y0091784D01*
X0038071Y0091811D01*
X0031600Y0081784D02*
X0036800Y0076584D01*
X0049600Y0076584D01*
X0054800Y0071384D01*
X0058400Y0067784D02*
X0048800Y0067784D01*
X0043200Y0062184D01*
X0043200Y0060184D01*
X0040000Y0056984D01*
X0036800Y0056984D01*
X0032000Y0052184D01*
X0028400Y0052184D01*
X0028071Y0051811D01*
X0009600Y0043784D02*
X0009600Y0068984D01*
X0028071Y0081811D02*
X0028400Y0081784D01*
X0031600Y0081784D01*
X0038071Y0111811D02*
X0038400Y0112184D01*
X0057600Y0131384D01*
X0105600Y0131384D01*
X0111600Y0137384D01*
X0111600Y0154184D01*
X0114400Y0156984D01*
X0142000Y0156984D01*
X0156536Y0152350D02*
X0156800Y0152184D01*
X0160400Y0148584D01*
X0160400Y0107384D01*
X0162000Y0104184D02*
X0152000Y0104184D01*
X0142000Y0094184D01*
X0142000Y0090984D01*
X0132800Y0081784D01*
X0132800Y0068584D01*
X0106000Y0041784D01*
X0105200Y0041784D01*
X0115200Y0042984D02*
X0118000Y0040184D01*
X0180400Y0040184D01*
X0195600Y0024984D01*
X0197200Y0024984D01*
X0196800Y0040184D02*
X0206800Y0040184D01*
X0229600Y0063384D02*
X0225200Y0067784D01*
X0229600Y0063384D02*
X0268400Y0063384D01*
X0275200Y0070184D01*
X0275200Y0086184D01*
X0273600Y0087784D01*
X0273600Y0092984D01*
X0273543Y0093268D01*
X0277600Y0097784D02*
X0273600Y0101784D01*
X0243600Y0101784D01*
X0235200Y0093384D01*
X0233600Y0093384D01*
X0233543Y0093268D01*
X0222400Y0103384D02*
X0220800Y0101784D01*
X0222400Y0103384D02*
X0282000Y0103384D01*
X0286000Y0099384D01*
X0289200Y0099384D01*
X0303200Y0113384D01*
X0303200Y0122984D01*
X0303543Y0123268D01*
X0299200Y0120184D02*
X0299200Y0127384D01*
X0302000Y0130184D01*
X0315200Y0130184D01*
X0319200Y0126184D01*
X0319200Y0118984D01*
X0322000Y0116184D01*
X0327200Y0116184D01*
X0330400Y0110984D02*
X0330400Y0136584D01*
X0337200Y0143384D01*
X0337200Y0144584D01*
X0337362Y0144921D01*
X0342000Y0148984D02*
X0300400Y0148984D01*
X0300000Y0148584D01*
X0298400Y0151784D02*
X0325600Y0151784D01*
X0334400Y0160584D01*
X0341600Y0160584D01*
X0344800Y0163784D01*
X0344800Y0168584D01*
X0350800Y0180584D02*
X0347600Y0183784D01*
X0345200Y0183784D01*
X0330400Y0168984D01*
X0330400Y0163384D01*
X0324400Y0157384D01*
X0319600Y0157384D01*
X0318000Y0160584D02*
X0325200Y0160584D01*
X0328800Y0164184D01*
X0328800Y0169784D01*
X0344400Y0185384D01*
X0348400Y0185384D01*
X0349800Y0183984D01*
X0352400Y0186584D01*
X0349800Y0183984D02*
X0356000Y0177784D01*
X0350800Y0180584D02*
X0350800Y0098184D01*
X0344400Y0103384D02*
X0344400Y0146584D01*
X0342000Y0148984D01*
X0323386Y0167559D02*
X0323600Y0167784D01*
X0323600Y0175384D01*
X0332000Y0183784D01*
X0330400Y0186984D02*
X0340400Y0186984D01*
X0340800Y0186584D01*
X0330400Y0186984D02*
X0319200Y0175784D01*
X0319200Y0164584D01*
X0311200Y0156584D01*
X0309200Y0156584D01*
X0310800Y0153384D02*
X0318000Y0160584D01*
X0310800Y0153384D02*
X0297600Y0153384D01*
X0293600Y0149384D01*
X0276400Y0149384D01*
X0264800Y0137784D01*
X0263600Y0137784D01*
X0263386Y0137559D01*
X0264800Y0130584D02*
X0261200Y0130584D01*
X0254000Y0137784D01*
X0253386Y0137559D01*
X0253600Y0137784D01*
X0268400Y0152584D01*
X0276800Y0152584D01*
X0278400Y0146184D02*
X0278400Y0119384D01*
X0265600Y0106584D01*
X0204000Y0106584D01*
X0198400Y0100984D01*
X0206745Y0092525D02*
X0206800Y0092184D01*
X0206800Y0078984D01*
X0196400Y0072584D02*
X0232400Y0072584D01*
X0234000Y0074184D01*
X0252000Y0074184D01*
X0257200Y0070984D02*
X0172000Y0070984D01*
X0164800Y0077784D02*
X0164800Y0060584D01*
X0164800Y0077784D02*
X0163200Y0079384D01*
X0163200Y0086184D01*
X0156800Y0092584D01*
X0156745Y0092350D01*
X0154800Y0096984D02*
X0151600Y0093784D01*
X0151600Y0077784D01*
X0118400Y0044584D01*
X0115200Y0042984D02*
X0115200Y0046184D01*
X0136800Y0067784D01*
X0136800Y0076584D01*
X0137047Y0076772D01*
X0132000Y0090984D02*
X0132000Y0107384D01*
X0157200Y0132584D01*
X0157200Y0137384D02*
X0122000Y0102184D01*
X0122000Y0083384D01*
X0106400Y0067784D01*
X0100800Y0067784D01*
X0104400Y0064584D02*
X0105600Y0064584D01*
X0132000Y0090984D01*
X0154800Y0096984D02*
X0162000Y0096984D01*
X0197600Y0132584D01*
X0197600Y0139784D01*
X0191600Y0145784D01*
X0191600Y0159384D01*
X0206000Y0173784D01*
X0206000Y0188984D01*
X0212400Y0195384D01*
X0212400Y0203384D01*
X0239200Y0230184D01*
X0272800Y0230184D01*
X0275200Y0227784D01*
X0275200Y0226584D01*
X0280400Y0221384D01*
X0284000Y0221384D01*
X0287600Y0224984D01*
X0292800Y0224984D01*
X0292963Y0225368D01*
X0298400Y0224984D02*
X0282400Y0208984D01*
X0276400Y0208984D01*
X0272400Y0204984D01*
X0272400Y0197384D01*
X0269600Y0194584D01*
X0266000Y0194584D01*
X0258800Y0201784D01*
X0258071Y0201811D01*
X0259200Y0190184D02*
X0286400Y0190184D01*
X0288000Y0186984D02*
X0280400Y0186984D01*
X0268000Y0174584D01*
X0261600Y0174584D01*
X0257600Y0170584D01*
X0257600Y0162984D01*
X0247200Y0152584D01*
X0216800Y0152584D01*
X0216535Y0152559D01*
X0211600Y0154184D02*
X0222000Y0164584D01*
X0222000Y0168184D01*
X0228400Y0174584D01*
X0230800Y0174584D01*
X0231299Y0175197D01*
X0231200Y0147784D02*
X0214400Y0147784D01*
X0211600Y0150584D01*
X0211600Y0154184D01*
X0206800Y0152184D02*
X0206535Y0152524D01*
X0206800Y0152184D02*
X0216000Y0142984D01*
X0216000Y0130984D02*
X0234800Y0112184D01*
X0263600Y0112184D01*
X0273200Y0121784D01*
X0273200Y0122984D01*
X0273543Y0123268D01*
X0267600Y0127784D02*
X0267600Y0118584D01*
X0264400Y0115384D01*
X0236400Y0115384D01*
X0252000Y0123384D02*
X0241200Y0134184D01*
X0200800Y0134184D01*
X0209600Y0136584D02*
X0196800Y0149384D01*
X0196800Y0152184D01*
X0196536Y0152489D01*
X0201600Y0154184D02*
X0201600Y0149384D01*
X0208000Y0142984D01*
X0209600Y0136584D02*
X0241200Y0136584D01*
X0247200Y0130584D01*
X0254800Y0130584D01*
X0262000Y0123384D01*
X0263200Y0123384D01*
X0263543Y0123268D01*
X0267600Y0127784D02*
X0264800Y0130584D01*
X0253543Y0123268D02*
X0253200Y0123384D01*
X0252000Y0123384D01*
X0242205Y0140748D02*
X0242000Y0140984D01*
X0238000Y0140984D01*
X0231200Y0147784D01*
X0209600Y0160584D02*
X0208000Y0160584D01*
X0201600Y0154184D01*
X0190400Y0132584D02*
X0162000Y0104184D01*
X0161200Y0100984D02*
X0163600Y0100984D01*
X0166800Y0092584D02*
X0166745Y0092385D01*
X0165600Y0145784D02*
X0170000Y0145784D01*
X0176400Y0152184D01*
X0176536Y0152419D01*
X0191535Y0185039D02*
X0191600Y0185384D01*
X0208000Y0201784D01*
X0208071Y0201811D01*
X0208400Y0202184D01*
X0208400Y0208984D01*
X0211200Y0211784D01*
X0211200Y0267384D01*
X0191600Y0286984D01*
X0191600Y0307784D01*
X0191535Y0308071D01*
X0201535Y0308071D02*
X0201600Y0307784D01*
X0201600Y0281784D01*
X0211600Y0287784D02*
X0215600Y0283784D01*
X0215600Y0275384D01*
X0212800Y0272584D01*
X0212800Y0208584D01*
X0216000Y0228584D02*
X0228000Y0240584D01*
X0246800Y0240584D01*
X0251200Y0255784D02*
X0250906Y0256142D01*
X0251200Y0255784D02*
X0281200Y0225784D01*
X0282000Y0225784D01*
X0282081Y0225457D01*
X0292400Y0204984D02*
X0292400Y0191384D01*
X0288000Y0186984D01*
X0292800Y0183784D02*
X0317600Y0183784D01*
X0323600Y0186584D02*
X0325200Y0186584D01*
X0323600Y0186584D02*
X0304800Y0167784D01*
X0303600Y0167784D01*
X0303386Y0167559D01*
X0293386Y0167559D02*
X0293200Y0167784D01*
X0292800Y0168184D01*
X0292800Y0183784D01*
X0282000Y0183784D02*
X0273600Y0175384D01*
X0273600Y0167784D01*
X0273386Y0167559D01*
X0293600Y0146984D02*
X0293600Y0137784D01*
X0293386Y0137559D01*
X0293543Y0123268D02*
X0293200Y0122984D01*
X0292000Y0122984D01*
X0274000Y0104984D01*
X0219200Y0104984D01*
X0214400Y0100184D01*
X0253543Y0093268D02*
X0253600Y0093384D01*
X0255200Y0093384D01*
X0262000Y0100184D01*
X0265200Y0100184D01*
X0267600Y0097784D01*
X0267600Y0087784D01*
X0265200Y0085384D01*
X0265200Y0078984D01*
X0257200Y0070984D01*
X0258800Y0056184D02*
X0247600Y0044984D01*
X0266800Y0066584D02*
X0270400Y0070184D01*
X0270400Y0082584D01*
X0270669Y0082677D01*
X0277600Y0070184D02*
X0277600Y0097784D01*
X0287600Y0102584D02*
X0287600Y0108584D01*
X0299200Y0120184D01*
X0313200Y0122984D02*
X0313200Y0111384D01*
X0297600Y0095784D01*
X0297600Y0087784D01*
X0329600Y0086584D02*
X0329600Y0078584D01*
X0329600Y0086584D02*
X0330400Y0087384D01*
X0330400Y0096584D01*
X0334400Y0100584D01*
X0341600Y0100584D01*
X0344400Y0103384D01*
X0360400Y0085384D02*
X0362800Y0082984D01*
X0363189Y0082677D01*
X0360400Y0085384D02*
X0360400Y0126584D01*
X0367200Y0133384D01*
X0367200Y0134584D01*
X0367362Y0134921D01*
X0384400Y0120584D02*
X0380000Y0116184D01*
X0385827Y0116220D02*
X0386000Y0116184D01*
X0386000Y0112184D01*
X0402400Y0095784D01*
X0402559Y0095472D01*
X0407200Y0095784D02*
X0407200Y0091784D01*
X0389200Y0073784D01*
X0349600Y0073784D01*
X0374400Y0084184D02*
X0385600Y0084184D01*
X0385827Y0084567D01*
X0407200Y0095784D02*
X0415200Y0103784D01*
X0415200Y0105384D01*
X0415354Y0105472D01*
X0402559Y0115472D02*
X0402400Y0115784D01*
X0397600Y0120584D01*
X0384400Y0120584D01*
X0410800Y0137384D02*
X0415200Y0141784D01*
X0415200Y0145384D01*
X0415354Y0145472D01*
X0417400Y0149984D02*
X0417200Y0150184D01*
X0413600Y0150184D01*
X0425600Y0145784D02*
X0425600Y0161784D01*
X0417200Y0170184D01*
X0414000Y0170184D01*
X0410800Y0173384D01*
X0410800Y0173784D01*
X0399600Y0184984D01*
X0394400Y0184984D01*
X0387600Y0191784D01*
X0381600Y0186184D02*
X0384400Y0183384D01*
X0394800Y0183384D01*
X0402400Y0175784D01*
X0402559Y0175472D01*
X0402400Y0165784D02*
X0397200Y0165784D01*
X0380000Y0182984D01*
X0380000Y0268984D01*
X0392000Y0280984D01*
X0392000Y0293384D01*
X0360400Y0324984D01*
X0134400Y0324984D01*
X0035600Y0324984D01*
X0034800Y0325784D01*
X0029200Y0325784D01*
X0023200Y0319784D01*
X0023200Y0311384D01*
X0017600Y0305784D01*
X0008000Y0305784D01*
X0007638Y0305433D01*
X0003200Y0279784D02*
X0033600Y0310184D01*
X0061200Y0310184D01*
X0072000Y0320984D01*
X0085200Y0293384D02*
X0085200Y0234184D01*
X0095500Y0227795D02*
X0095600Y0227784D01*
X0096000Y0227384D01*
X0096000Y0205784D01*
X0111600Y0206984D02*
X0130400Y0225784D01*
X0130400Y0251384D01*
X0114800Y0266984D01*
X0114800Y0304584D01*
X0111600Y0307784D01*
X0111535Y0308071D01*
X0126800Y0312584D02*
X0126800Y0302984D01*
X0132000Y0297784D01*
X0170000Y0266584D02*
X0170000Y0230184D01*
X0174000Y0226184D01*
X0174291Y0226142D01*
X0187600Y0230184D02*
X0202800Y0245384D01*
X0202800Y0262584D01*
X0206000Y0264184D02*
X0201600Y0268584D01*
X0206000Y0264184D02*
X0206000Y0256584D01*
X0194400Y0251784D02*
X0194400Y0243384D01*
X0194646Y0243110D01*
X0194400Y0251784D02*
X0188400Y0257784D01*
X0188400Y0263384D01*
X0180400Y0271384D01*
X0179600Y0271384D01*
X0179449Y0271575D01*
X0211600Y0287784D02*
X0211600Y0307784D01*
X0211535Y0308071D01*
X0221200Y0307784D02*
X0221535Y0308071D01*
X0221200Y0307784D02*
X0221200Y0280984D01*
X0231600Y0261784D02*
X0232800Y0260584D01*
X0232800Y0251384D01*
X0224800Y0243384D01*
X0224646Y0243110D01*
X0231600Y0261784D02*
X0231600Y0307784D01*
X0231535Y0308071D01*
X0260400Y0278984D02*
X0278000Y0261384D01*
X0278000Y0253784D01*
X0302400Y0229384D01*
X0304800Y0229384D01*
X0307200Y0226984D01*
X0307200Y0219784D01*
X0292400Y0204984D01*
X0298400Y0224984D02*
X0302800Y0224984D01*
X0303159Y0225368D01*
X0335677Y0229107D02*
X0336000Y0229384D01*
X0336000Y0248984D01*
X0335677Y0249107D01*
X0381600Y0253784D02*
X0381600Y0186184D01*
X0396417Y0190630D02*
X0396400Y0190984D01*
X0396400Y0230584D01*
X0396417Y0230630D01*
X0415600Y0242184D02*
X0415600Y0175784D01*
X0415354Y0175472D01*
X0402400Y0165784D02*
X0402559Y0165472D01*
X0415600Y0242184D02*
X0421200Y0247784D01*
X0421200Y0251784D01*
X0421260Y0252047D01*
X0383200Y0255384D02*
X0381600Y0253784D01*
X0383200Y0255384D02*
X0383200Y0264584D01*
X0298400Y0151784D02*
X0293600Y0146984D01*
X0313200Y0122984D02*
X0313543Y0123268D01*
X0126220Y0246063D02*
X0126000Y0246184D01*
X0107600Y0246184D01*
X0096000Y0257784D01*
X0095709Y0257874D01*
X0111600Y0206984D02*
X0111600Y0185384D01*
X0111535Y0185039D01*
X0111299Y0165354D02*
X0111200Y0164984D01*
X0111200Y0163384D01*
X0101600Y0153784D01*
X0101600Y0140984D01*
X0104000Y0138584D01*
X0104000Y0134584D01*
X0101600Y0124584D02*
X0053600Y0124584D01*
X0051181Y0116220D02*
X0051200Y0116184D01*
X0062400Y0104984D01*
X0090800Y0104984D01*
X0101600Y0094184D01*
X0101600Y0090584D01*
X0106800Y0085384D01*
X0106800Y0076984D01*
X0107047Y0076772D01*
X0096746Y0092141D02*
X0096400Y0092184D01*
X0091600Y0096984D01*
X0072800Y0096984D01*
X0091600Y0088184D02*
X0091600Y0079784D01*
X0046800Y0146984D02*
X0058800Y0158984D01*
X0058800Y0186984D01*
X0071600Y0199784D01*
X0071600Y0204584D02*
X0051200Y0184184D01*
X0051200Y0178184D01*
X0033200Y0180184D02*
X0033200Y0195384D01*
X0034400Y0196584D01*
X0033200Y0180184D02*
X0028400Y0175384D01*
X0028400Y0172184D01*
X0028071Y0171811D01*
X0028071Y0161811D02*
X0028000Y0161784D01*
X0028000Y0158184D01*
X0023200Y0153384D01*
X0023200Y0150184D01*
X0026400Y0146984D01*
X0046800Y0146984D01*
X0012800Y0157384D02*
X0012800Y0177784D01*
X0003200Y0187384D01*
X0003200Y0279784D01*
X0120000Y0165354D02*
X0120000Y0164984D01*
X0124400Y0164984D01*
D31*
X0121200Y0146184D03*
X0129600Y0142584D03*
X0123200Y0133784D03*
X0118400Y0133784D03*
X0125600Y0124584D03*
X0104000Y0134584D03*
X0101600Y0140984D03*
X0101600Y0124584D03*
X0087600Y0145384D03*
X0064000Y0121384D03*
X0064000Y0108184D03*
X0071600Y0108184D03*
X0072800Y0096984D03*
X0091600Y0088184D03*
X0091600Y0079784D03*
X0100000Y0074184D03*
X0100800Y0067784D03*
X0104400Y0064584D03*
X0105200Y0041784D03*
X0108800Y0029384D03*
X0104800Y0020984D03*
X0098400Y0030184D03*
X0082000Y0041784D03*
X0058400Y0067784D03*
X0054800Y0071384D03*
X0009600Y0068984D03*
X0060800Y0145384D03*
X0051200Y0178184D03*
X0043600Y0188984D03*
X0034400Y0196584D03*
X0021200Y0161384D03*
X0021600Y0156584D03*
X0012800Y0157384D03*
X0071600Y0199784D03*
X0071600Y0204584D03*
X0096000Y0205784D03*
X0082000Y0250584D03*
X0085200Y0293384D03*
X0083600Y0311784D03*
X0044000Y0267384D03*
X0035600Y0271384D03*
X0132000Y0297784D03*
X0146800Y0300984D03*
X0134400Y0324984D03*
X0170000Y0266584D03*
X0156000Y0238984D03*
X0160000Y0230984D03*
X0172400Y0194584D03*
X0163600Y0173384D03*
X0165600Y0145784D03*
X0157200Y0137384D03*
X0157200Y0132584D03*
X0160400Y0107384D03*
X0161200Y0100984D03*
X0180000Y0105784D03*
X0198400Y0100984D03*
X0214400Y0100184D03*
X0220800Y0101784D03*
X0236400Y0115384D03*
X0216000Y0130984D03*
X0216000Y0142984D03*
X0208000Y0142984D03*
X0200800Y0134184D03*
X0194400Y0138184D03*
X0190400Y0132584D03*
X0209600Y0160584D03*
X0238400Y0145384D03*
X0259200Y0190184D03*
X0282000Y0183784D03*
X0287200Y0183784D03*
X0292800Y0183784D03*
X0286400Y0190184D03*
X0309200Y0156584D03*
X0319600Y0157384D03*
X0332000Y0183784D03*
X0340800Y0186584D03*
X0352400Y0186584D03*
X0360000Y0188584D03*
X0344800Y0168584D03*
X0359200Y0150584D03*
X0380000Y0132584D03*
X0382400Y0138984D03*
X0392800Y0153384D03*
X0384400Y0183384D03*
X0387600Y0191784D03*
X0425600Y0145784D03*
X0380000Y0116184D03*
X0357200Y0105784D03*
X0349600Y0073784D03*
X0337600Y0078584D03*
X0332800Y0080184D03*
X0330400Y0110984D03*
X0327200Y0116184D03*
X0318800Y0114184D03*
X0297600Y0082984D03*
X0287600Y0102584D03*
X0266800Y0066584D03*
X0258800Y0056184D03*
X0256400Y0044184D03*
X0256400Y0039384D03*
X0265200Y0040184D03*
X0252000Y0074184D03*
X0224400Y0063784D03*
X0206800Y0078984D03*
X0198800Y0067784D03*
X0196800Y0040184D03*
X0206800Y0040184D03*
X0197200Y0024984D03*
X0172000Y0027784D03*
X0172000Y0056584D03*
X0172000Y0063784D03*
X0172000Y0070984D03*
X0164800Y0060584D03*
X0118400Y0044584D03*
X0234800Y0017784D03*
X0296000Y0062984D03*
X0278400Y0146184D03*
X0276800Y0152584D03*
X0300000Y0148584D03*
X0325200Y0186584D03*
X0316800Y0190184D03*
X0246800Y0240584D03*
X0216000Y0228584D03*
X0198400Y0225784D03*
X0212800Y0208584D03*
X0208000Y0253784D03*
X0202800Y0262584D03*
X0201600Y0268584D03*
X0201600Y0281784D03*
X0221200Y0280984D03*
X0260400Y0278984D03*
X0383200Y0264584D03*
D32*
X0385827Y0143780D02*
X0385600Y0143384D01*
X0381600Y0143384D01*
X0376400Y0138184D01*
X0376400Y0103784D01*
X0385600Y0094584D01*
X0385827Y0094567D01*
X0353346Y0082677D02*
X0353200Y0082584D01*
X0344800Y0074184D01*
X0327600Y0074184D01*
X0327600Y0087384D01*
X0328000Y0087784D01*
X0328000Y0096984D01*
X0332000Y0100984D01*
X0318800Y0114184D01*
X0323543Y0123268D02*
X0323600Y0123384D01*
X0323600Y0137384D01*
X0323386Y0137559D01*
X0335600Y0104584D02*
X0332000Y0100984D01*
X0335600Y0104584D02*
X0337200Y0104584D01*
X0337362Y0104921D01*
X0327600Y0074184D02*
X0311200Y0074184D01*
X0311102Y0073819D01*
X0260827Y0082677D02*
X0260800Y0082584D01*
X0259600Y0082584D01*
X0254800Y0077784D01*
X0235600Y0077784D01*
X0221200Y0092184D01*
X0217200Y0092184D01*
X0216745Y0092559D01*
X0216400Y0092584D01*
X0211600Y0097384D01*
X0174800Y0097384D01*
X0171600Y0094184D01*
X0171600Y0090184D01*
X0168400Y0086984D01*
X0168400Y0082984D01*
X0168307Y0082677D01*
X0168400Y0082184D01*
X0168400Y0054984D01*
X0194800Y0028584D01*
X0210000Y0028584D01*
X0210551Y0028543D01*
X0210800Y0028184D01*
X0214800Y0028184D01*
X0218800Y0024184D01*
X0249600Y0024184D01*
X0250800Y0025384D01*
X0250984Y0025591D01*
X0242800Y0145384D02*
X0238400Y0145384D01*
X0242800Y0145384D02*
X0263200Y0165784D01*
X0263200Y0167384D01*
X0263386Y0167559D01*
X0263600Y0165384D01*
X0266800Y0165384D01*
X0272000Y0160184D01*
X0274800Y0160184D01*
X0278800Y0164184D01*
X0278800Y0175384D01*
X0287200Y0183784D01*
X0169370Y0165354D02*
X0169200Y0164984D01*
X0169200Y0154984D01*
X0166800Y0152584D01*
X0166536Y0152385D01*
X0149600Y0164984D02*
X0149685Y0165354D01*
X0149600Y0164984D02*
X0145600Y0160984D01*
X0138000Y0160984D01*
X0134000Y0164984D01*
X0130000Y0164984D01*
X0130000Y0165354D01*
X0101299Y0165354D02*
X0101200Y0165384D01*
X0093200Y0165384D01*
X0092598Y0165354D01*
X0073200Y0165384D02*
X0072913Y0165354D01*
X0073200Y0165384D02*
X0073200Y0183384D01*
X0074400Y0184584D01*
X0074803Y0185039D01*
X0075500Y0227795D02*
X0074800Y0228184D01*
X0073200Y0228184D01*
X0048400Y0252984D01*
X0048228Y0253031D01*
X0037600Y0265384D02*
X0037638Y0265433D01*
X0037600Y0265384D02*
X0023600Y0265384D01*
X0022912Y0265378D01*
X0023107Y0243391D02*
X0022400Y0243384D01*
X0012800Y0243384D01*
X0012795Y0243031D01*
X0012400Y0242584D01*
X0008000Y0238184D01*
X0008000Y0230984D01*
X0007638Y0230630D01*
X0007638Y0190630D02*
X0008000Y0190584D01*
X0022800Y0190584D01*
X0023575Y0190592D01*
X0075787Y0082677D02*
X0076000Y0082584D01*
X0077200Y0082584D01*
X0085600Y0074184D01*
X0100000Y0074184D01*
X0108800Y0029384D02*
X0108800Y0020984D01*
X0104800Y0020984D01*
X0108800Y0020984D02*
X0154000Y0020984D01*
X0158400Y0025384D01*
X0158465Y0025591D01*
X0159449Y0280787D02*
X0159200Y0280984D01*
X0159200Y0300584D01*
X0156800Y0302984D01*
X0156800Y0318898D01*
D33*
X0374016Y0175197D03*
M02*
