G75*
%MOIN*%
%OFA0B0*%
%FSLAX25Y25*%
%IPPOS*%
%LPD*%
%AMOC8*
5,1,8,0,0,1.08239X$1,22.5*
%
%ADD10C,0.00000*%
%ADD11C,0.01600*%
%ADD12C,0.05746*%
%ADD13OC8,0.06600*%
%ADD14R,0.06800X0.06800*%
%ADD15C,0.06800*%
%ADD16C,0.05600*%
%ADD17R,0.06400X0.06400*%
%ADD18C,0.06400*%
%ADD19R,0.06337X0.06337*%
%ADD20R,0.12661X0.12661*%
%ADD21OC8,0.05600*%
%ADD22R,0.06600X0.06600*%
%ADD23C,0.06600*%
%ADD24R,0.05943X0.05943*%
%ADD25C,0.06400*%
%ADD26C,0.07874*%
%ADD27OC8,0.07000*%
%ADD28OC8,0.08600*%
%ADD29C,0.07800*%
%ADD30C,0.07400*%
%ADD31C,0.02000*%
%ADD32C,0.04000*%
%ADD33C,0.02400*%
%ADD34C,0.01200*%
%ADD35C,0.00800*%
%ADD36C,0.04362*%
%ADD37C,0.01000*%
D10*
X0045059Y0011516D02*
X0045061Y0011674D01*
X0045067Y0011832D01*
X0045077Y0011990D01*
X0045091Y0012148D01*
X0045109Y0012305D01*
X0045130Y0012462D01*
X0045156Y0012618D01*
X0045186Y0012774D01*
X0045219Y0012929D01*
X0045257Y0013082D01*
X0045298Y0013235D01*
X0045343Y0013387D01*
X0045392Y0013538D01*
X0045445Y0013687D01*
X0045501Y0013835D01*
X0045561Y0013981D01*
X0045625Y0014126D01*
X0045693Y0014269D01*
X0045764Y0014411D01*
X0045838Y0014551D01*
X0045916Y0014688D01*
X0045998Y0014824D01*
X0046082Y0014958D01*
X0046171Y0015089D01*
X0046262Y0015218D01*
X0046357Y0015345D01*
X0046454Y0015470D01*
X0046555Y0015592D01*
X0046659Y0015711D01*
X0046766Y0015828D01*
X0046876Y0015942D01*
X0046989Y0016053D01*
X0047104Y0016162D01*
X0047222Y0016267D01*
X0047343Y0016369D01*
X0047466Y0016469D01*
X0047592Y0016565D01*
X0047720Y0016658D01*
X0047850Y0016748D01*
X0047983Y0016834D01*
X0048118Y0016918D01*
X0048254Y0016997D01*
X0048393Y0017074D01*
X0048534Y0017146D01*
X0048676Y0017216D01*
X0048820Y0017281D01*
X0048966Y0017343D01*
X0049113Y0017401D01*
X0049262Y0017456D01*
X0049412Y0017507D01*
X0049563Y0017554D01*
X0049715Y0017597D01*
X0049868Y0017636D01*
X0050023Y0017672D01*
X0050178Y0017703D01*
X0050334Y0017731D01*
X0050490Y0017755D01*
X0050647Y0017775D01*
X0050805Y0017791D01*
X0050962Y0017803D01*
X0051121Y0017811D01*
X0051279Y0017815D01*
X0051437Y0017815D01*
X0051595Y0017811D01*
X0051754Y0017803D01*
X0051911Y0017791D01*
X0052069Y0017775D01*
X0052226Y0017755D01*
X0052382Y0017731D01*
X0052538Y0017703D01*
X0052693Y0017672D01*
X0052848Y0017636D01*
X0053001Y0017597D01*
X0053153Y0017554D01*
X0053304Y0017507D01*
X0053454Y0017456D01*
X0053603Y0017401D01*
X0053750Y0017343D01*
X0053896Y0017281D01*
X0054040Y0017216D01*
X0054182Y0017146D01*
X0054323Y0017074D01*
X0054462Y0016997D01*
X0054598Y0016918D01*
X0054733Y0016834D01*
X0054866Y0016748D01*
X0054996Y0016658D01*
X0055124Y0016565D01*
X0055250Y0016469D01*
X0055373Y0016369D01*
X0055494Y0016267D01*
X0055612Y0016162D01*
X0055727Y0016053D01*
X0055840Y0015942D01*
X0055950Y0015828D01*
X0056057Y0015711D01*
X0056161Y0015592D01*
X0056262Y0015470D01*
X0056359Y0015345D01*
X0056454Y0015218D01*
X0056545Y0015089D01*
X0056634Y0014958D01*
X0056718Y0014824D01*
X0056800Y0014688D01*
X0056878Y0014551D01*
X0056952Y0014411D01*
X0057023Y0014269D01*
X0057091Y0014126D01*
X0057155Y0013981D01*
X0057215Y0013835D01*
X0057271Y0013687D01*
X0057324Y0013538D01*
X0057373Y0013387D01*
X0057418Y0013235D01*
X0057459Y0013082D01*
X0057497Y0012929D01*
X0057530Y0012774D01*
X0057560Y0012618D01*
X0057586Y0012462D01*
X0057607Y0012305D01*
X0057625Y0012148D01*
X0057639Y0011990D01*
X0057649Y0011832D01*
X0057655Y0011674D01*
X0057657Y0011516D01*
X0057655Y0011358D01*
X0057649Y0011200D01*
X0057639Y0011042D01*
X0057625Y0010884D01*
X0057607Y0010727D01*
X0057586Y0010570D01*
X0057560Y0010414D01*
X0057530Y0010258D01*
X0057497Y0010103D01*
X0057459Y0009950D01*
X0057418Y0009797D01*
X0057373Y0009645D01*
X0057324Y0009494D01*
X0057271Y0009345D01*
X0057215Y0009197D01*
X0057155Y0009051D01*
X0057091Y0008906D01*
X0057023Y0008763D01*
X0056952Y0008621D01*
X0056878Y0008481D01*
X0056800Y0008344D01*
X0056718Y0008208D01*
X0056634Y0008074D01*
X0056545Y0007943D01*
X0056454Y0007814D01*
X0056359Y0007687D01*
X0056262Y0007562D01*
X0056161Y0007440D01*
X0056057Y0007321D01*
X0055950Y0007204D01*
X0055840Y0007090D01*
X0055727Y0006979D01*
X0055612Y0006870D01*
X0055494Y0006765D01*
X0055373Y0006663D01*
X0055250Y0006563D01*
X0055124Y0006467D01*
X0054996Y0006374D01*
X0054866Y0006284D01*
X0054733Y0006198D01*
X0054598Y0006114D01*
X0054462Y0006035D01*
X0054323Y0005958D01*
X0054182Y0005886D01*
X0054040Y0005816D01*
X0053896Y0005751D01*
X0053750Y0005689D01*
X0053603Y0005631D01*
X0053454Y0005576D01*
X0053304Y0005525D01*
X0053153Y0005478D01*
X0053001Y0005435D01*
X0052848Y0005396D01*
X0052693Y0005360D01*
X0052538Y0005329D01*
X0052382Y0005301D01*
X0052226Y0005277D01*
X0052069Y0005257D01*
X0051911Y0005241D01*
X0051754Y0005229D01*
X0051595Y0005221D01*
X0051437Y0005217D01*
X0051279Y0005217D01*
X0051121Y0005221D01*
X0050962Y0005229D01*
X0050805Y0005241D01*
X0050647Y0005257D01*
X0050490Y0005277D01*
X0050334Y0005301D01*
X0050178Y0005329D01*
X0050023Y0005360D01*
X0049868Y0005396D01*
X0049715Y0005435D01*
X0049563Y0005478D01*
X0049412Y0005525D01*
X0049262Y0005576D01*
X0049113Y0005631D01*
X0048966Y0005689D01*
X0048820Y0005751D01*
X0048676Y0005816D01*
X0048534Y0005886D01*
X0048393Y0005958D01*
X0048254Y0006035D01*
X0048118Y0006114D01*
X0047983Y0006198D01*
X0047850Y0006284D01*
X0047720Y0006374D01*
X0047592Y0006467D01*
X0047466Y0006563D01*
X0047343Y0006663D01*
X0047222Y0006765D01*
X0047104Y0006870D01*
X0046989Y0006979D01*
X0046876Y0007090D01*
X0046766Y0007204D01*
X0046659Y0007321D01*
X0046555Y0007440D01*
X0046454Y0007562D01*
X0046357Y0007687D01*
X0046262Y0007814D01*
X0046171Y0007943D01*
X0046082Y0008074D01*
X0045998Y0008208D01*
X0045916Y0008344D01*
X0045838Y0008481D01*
X0045764Y0008621D01*
X0045693Y0008763D01*
X0045625Y0008906D01*
X0045561Y0009051D01*
X0045501Y0009197D01*
X0045445Y0009345D01*
X0045392Y0009494D01*
X0045343Y0009645D01*
X0045298Y0009797D01*
X0045257Y0009950D01*
X0045219Y0010103D01*
X0045186Y0010258D01*
X0045156Y0010414D01*
X0045130Y0010570D01*
X0045109Y0010727D01*
X0045091Y0010884D01*
X0045077Y0011042D01*
X0045067Y0011200D01*
X0045061Y0011358D01*
X0045059Y0011516D01*
X0026181Y0250984D02*
X0026183Y0251142D01*
X0026189Y0251300D01*
X0026199Y0251458D01*
X0026213Y0251616D01*
X0026231Y0251773D01*
X0026252Y0251930D01*
X0026278Y0252086D01*
X0026308Y0252242D01*
X0026341Y0252397D01*
X0026379Y0252550D01*
X0026420Y0252703D01*
X0026465Y0252855D01*
X0026514Y0253006D01*
X0026567Y0253155D01*
X0026623Y0253303D01*
X0026683Y0253449D01*
X0026747Y0253594D01*
X0026815Y0253737D01*
X0026886Y0253879D01*
X0026960Y0254019D01*
X0027038Y0254156D01*
X0027120Y0254292D01*
X0027204Y0254426D01*
X0027293Y0254557D01*
X0027384Y0254686D01*
X0027479Y0254813D01*
X0027576Y0254938D01*
X0027677Y0255060D01*
X0027781Y0255179D01*
X0027888Y0255296D01*
X0027998Y0255410D01*
X0028111Y0255521D01*
X0028226Y0255630D01*
X0028344Y0255735D01*
X0028465Y0255837D01*
X0028588Y0255937D01*
X0028714Y0256033D01*
X0028842Y0256126D01*
X0028972Y0256216D01*
X0029105Y0256302D01*
X0029240Y0256386D01*
X0029376Y0256465D01*
X0029515Y0256542D01*
X0029656Y0256614D01*
X0029798Y0256684D01*
X0029942Y0256749D01*
X0030088Y0256811D01*
X0030235Y0256869D01*
X0030384Y0256924D01*
X0030534Y0256975D01*
X0030685Y0257022D01*
X0030837Y0257065D01*
X0030990Y0257104D01*
X0031145Y0257140D01*
X0031300Y0257171D01*
X0031456Y0257199D01*
X0031612Y0257223D01*
X0031769Y0257243D01*
X0031927Y0257259D01*
X0032084Y0257271D01*
X0032243Y0257279D01*
X0032401Y0257283D01*
X0032559Y0257283D01*
X0032717Y0257279D01*
X0032876Y0257271D01*
X0033033Y0257259D01*
X0033191Y0257243D01*
X0033348Y0257223D01*
X0033504Y0257199D01*
X0033660Y0257171D01*
X0033815Y0257140D01*
X0033970Y0257104D01*
X0034123Y0257065D01*
X0034275Y0257022D01*
X0034426Y0256975D01*
X0034576Y0256924D01*
X0034725Y0256869D01*
X0034872Y0256811D01*
X0035018Y0256749D01*
X0035162Y0256684D01*
X0035304Y0256614D01*
X0035445Y0256542D01*
X0035584Y0256465D01*
X0035720Y0256386D01*
X0035855Y0256302D01*
X0035988Y0256216D01*
X0036118Y0256126D01*
X0036246Y0256033D01*
X0036372Y0255937D01*
X0036495Y0255837D01*
X0036616Y0255735D01*
X0036734Y0255630D01*
X0036849Y0255521D01*
X0036962Y0255410D01*
X0037072Y0255296D01*
X0037179Y0255179D01*
X0037283Y0255060D01*
X0037384Y0254938D01*
X0037481Y0254813D01*
X0037576Y0254686D01*
X0037667Y0254557D01*
X0037756Y0254426D01*
X0037840Y0254292D01*
X0037922Y0254156D01*
X0038000Y0254019D01*
X0038074Y0253879D01*
X0038145Y0253737D01*
X0038213Y0253594D01*
X0038277Y0253449D01*
X0038337Y0253303D01*
X0038393Y0253155D01*
X0038446Y0253006D01*
X0038495Y0252855D01*
X0038540Y0252703D01*
X0038581Y0252550D01*
X0038619Y0252397D01*
X0038652Y0252242D01*
X0038682Y0252086D01*
X0038708Y0251930D01*
X0038729Y0251773D01*
X0038747Y0251616D01*
X0038761Y0251458D01*
X0038771Y0251300D01*
X0038777Y0251142D01*
X0038779Y0250984D01*
X0038777Y0250826D01*
X0038771Y0250668D01*
X0038761Y0250510D01*
X0038747Y0250352D01*
X0038729Y0250195D01*
X0038708Y0250038D01*
X0038682Y0249882D01*
X0038652Y0249726D01*
X0038619Y0249571D01*
X0038581Y0249418D01*
X0038540Y0249265D01*
X0038495Y0249113D01*
X0038446Y0248962D01*
X0038393Y0248813D01*
X0038337Y0248665D01*
X0038277Y0248519D01*
X0038213Y0248374D01*
X0038145Y0248231D01*
X0038074Y0248089D01*
X0038000Y0247949D01*
X0037922Y0247812D01*
X0037840Y0247676D01*
X0037756Y0247542D01*
X0037667Y0247411D01*
X0037576Y0247282D01*
X0037481Y0247155D01*
X0037384Y0247030D01*
X0037283Y0246908D01*
X0037179Y0246789D01*
X0037072Y0246672D01*
X0036962Y0246558D01*
X0036849Y0246447D01*
X0036734Y0246338D01*
X0036616Y0246233D01*
X0036495Y0246131D01*
X0036372Y0246031D01*
X0036246Y0245935D01*
X0036118Y0245842D01*
X0035988Y0245752D01*
X0035855Y0245666D01*
X0035720Y0245582D01*
X0035584Y0245503D01*
X0035445Y0245426D01*
X0035304Y0245354D01*
X0035162Y0245284D01*
X0035018Y0245219D01*
X0034872Y0245157D01*
X0034725Y0245099D01*
X0034576Y0245044D01*
X0034426Y0244993D01*
X0034275Y0244946D01*
X0034123Y0244903D01*
X0033970Y0244864D01*
X0033815Y0244828D01*
X0033660Y0244797D01*
X0033504Y0244769D01*
X0033348Y0244745D01*
X0033191Y0244725D01*
X0033033Y0244709D01*
X0032876Y0244697D01*
X0032717Y0244689D01*
X0032559Y0244685D01*
X0032401Y0244685D01*
X0032243Y0244689D01*
X0032084Y0244697D01*
X0031927Y0244709D01*
X0031769Y0244725D01*
X0031612Y0244745D01*
X0031456Y0244769D01*
X0031300Y0244797D01*
X0031145Y0244828D01*
X0030990Y0244864D01*
X0030837Y0244903D01*
X0030685Y0244946D01*
X0030534Y0244993D01*
X0030384Y0245044D01*
X0030235Y0245099D01*
X0030088Y0245157D01*
X0029942Y0245219D01*
X0029798Y0245284D01*
X0029656Y0245354D01*
X0029515Y0245426D01*
X0029376Y0245503D01*
X0029240Y0245582D01*
X0029105Y0245666D01*
X0028972Y0245752D01*
X0028842Y0245842D01*
X0028714Y0245935D01*
X0028588Y0246031D01*
X0028465Y0246131D01*
X0028344Y0246233D01*
X0028226Y0246338D01*
X0028111Y0246447D01*
X0027998Y0246558D01*
X0027888Y0246672D01*
X0027781Y0246789D01*
X0027677Y0246908D01*
X0027576Y0247030D01*
X0027479Y0247155D01*
X0027384Y0247282D01*
X0027293Y0247411D01*
X0027204Y0247542D01*
X0027120Y0247676D01*
X0027038Y0247812D01*
X0026960Y0247949D01*
X0026886Y0248089D01*
X0026815Y0248231D01*
X0026747Y0248374D01*
X0026683Y0248519D01*
X0026623Y0248665D01*
X0026567Y0248813D01*
X0026514Y0248962D01*
X0026465Y0249113D01*
X0026420Y0249265D01*
X0026379Y0249418D01*
X0026341Y0249571D01*
X0026308Y0249726D01*
X0026278Y0249882D01*
X0026252Y0250038D01*
X0026231Y0250195D01*
X0026213Y0250352D01*
X0026199Y0250510D01*
X0026189Y0250668D01*
X0026183Y0250826D01*
X0026181Y0250984D01*
X0026181Y0316929D02*
X0026183Y0317087D01*
X0026189Y0317245D01*
X0026199Y0317403D01*
X0026213Y0317561D01*
X0026231Y0317718D01*
X0026252Y0317875D01*
X0026278Y0318031D01*
X0026308Y0318187D01*
X0026341Y0318342D01*
X0026379Y0318495D01*
X0026420Y0318648D01*
X0026465Y0318800D01*
X0026514Y0318951D01*
X0026567Y0319100D01*
X0026623Y0319248D01*
X0026683Y0319394D01*
X0026747Y0319539D01*
X0026815Y0319682D01*
X0026886Y0319824D01*
X0026960Y0319964D01*
X0027038Y0320101D01*
X0027120Y0320237D01*
X0027204Y0320371D01*
X0027293Y0320502D01*
X0027384Y0320631D01*
X0027479Y0320758D01*
X0027576Y0320883D01*
X0027677Y0321005D01*
X0027781Y0321124D01*
X0027888Y0321241D01*
X0027998Y0321355D01*
X0028111Y0321466D01*
X0028226Y0321575D01*
X0028344Y0321680D01*
X0028465Y0321782D01*
X0028588Y0321882D01*
X0028714Y0321978D01*
X0028842Y0322071D01*
X0028972Y0322161D01*
X0029105Y0322247D01*
X0029240Y0322331D01*
X0029376Y0322410D01*
X0029515Y0322487D01*
X0029656Y0322559D01*
X0029798Y0322629D01*
X0029942Y0322694D01*
X0030088Y0322756D01*
X0030235Y0322814D01*
X0030384Y0322869D01*
X0030534Y0322920D01*
X0030685Y0322967D01*
X0030837Y0323010D01*
X0030990Y0323049D01*
X0031145Y0323085D01*
X0031300Y0323116D01*
X0031456Y0323144D01*
X0031612Y0323168D01*
X0031769Y0323188D01*
X0031927Y0323204D01*
X0032084Y0323216D01*
X0032243Y0323224D01*
X0032401Y0323228D01*
X0032559Y0323228D01*
X0032717Y0323224D01*
X0032876Y0323216D01*
X0033033Y0323204D01*
X0033191Y0323188D01*
X0033348Y0323168D01*
X0033504Y0323144D01*
X0033660Y0323116D01*
X0033815Y0323085D01*
X0033970Y0323049D01*
X0034123Y0323010D01*
X0034275Y0322967D01*
X0034426Y0322920D01*
X0034576Y0322869D01*
X0034725Y0322814D01*
X0034872Y0322756D01*
X0035018Y0322694D01*
X0035162Y0322629D01*
X0035304Y0322559D01*
X0035445Y0322487D01*
X0035584Y0322410D01*
X0035720Y0322331D01*
X0035855Y0322247D01*
X0035988Y0322161D01*
X0036118Y0322071D01*
X0036246Y0321978D01*
X0036372Y0321882D01*
X0036495Y0321782D01*
X0036616Y0321680D01*
X0036734Y0321575D01*
X0036849Y0321466D01*
X0036962Y0321355D01*
X0037072Y0321241D01*
X0037179Y0321124D01*
X0037283Y0321005D01*
X0037384Y0320883D01*
X0037481Y0320758D01*
X0037576Y0320631D01*
X0037667Y0320502D01*
X0037756Y0320371D01*
X0037840Y0320237D01*
X0037922Y0320101D01*
X0038000Y0319964D01*
X0038074Y0319824D01*
X0038145Y0319682D01*
X0038213Y0319539D01*
X0038277Y0319394D01*
X0038337Y0319248D01*
X0038393Y0319100D01*
X0038446Y0318951D01*
X0038495Y0318800D01*
X0038540Y0318648D01*
X0038581Y0318495D01*
X0038619Y0318342D01*
X0038652Y0318187D01*
X0038682Y0318031D01*
X0038708Y0317875D01*
X0038729Y0317718D01*
X0038747Y0317561D01*
X0038761Y0317403D01*
X0038771Y0317245D01*
X0038777Y0317087D01*
X0038779Y0316929D01*
X0038777Y0316771D01*
X0038771Y0316613D01*
X0038761Y0316455D01*
X0038747Y0316297D01*
X0038729Y0316140D01*
X0038708Y0315983D01*
X0038682Y0315827D01*
X0038652Y0315671D01*
X0038619Y0315516D01*
X0038581Y0315363D01*
X0038540Y0315210D01*
X0038495Y0315058D01*
X0038446Y0314907D01*
X0038393Y0314758D01*
X0038337Y0314610D01*
X0038277Y0314464D01*
X0038213Y0314319D01*
X0038145Y0314176D01*
X0038074Y0314034D01*
X0038000Y0313894D01*
X0037922Y0313757D01*
X0037840Y0313621D01*
X0037756Y0313487D01*
X0037667Y0313356D01*
X0037576Y0313227D01*
X0037481Y0313100D01*
X0037384Y0312975D01*
X0037283Y0312853D01*
X0037179Y0312734D01*
X0037072Y0312617D01*
X0036962Y0312503D01*
X0036849Y0312392D01*
X0036734Y0312283D01*
X0036616Y0312178D01*
X0036495Y0312076D01*
X0036372Y0311976D01*
X0036246Y0311880D01*
X0036118Y0311787D01*
X0035988Y0311697D01*
X0035855Y0311611D01*
X0035720Y0311527D01*
X0035584Y0311448D01*
X0035445Y0311371D01*
X0035304Y0311299D01*
X0035162Y0311229D01*
X0035018Y0311164D01*
X0034872Y0311102D01*
X0034725Y0311044D01*
X0034576Y0310989D01*
X0034426Y0310938D01*
X0034275Y0310891D01*
X0034123Y0310848D01*
X0033970Y0310809D01*
X0033815Y0310773D01*
X0033660Y0310742D01*
X0033504Y0310714D01*
X0033348Y0310690D01*
X0033191Y0310670D01*
X0033033Y0310654D01*
X0032876Y0310642D01*
X0032717Y0310634D01*
X0032559Y0310630D01*
X0032401Y0310630D01*
X0032243Y0310634D01*
X0032084Y0310642D01*
X0031927Y0310654D01*
X0031769Y0310670D01*
X0031612Y0310690D01*
X0031456Y0310714D01*
X0031300Y0310742D01*
X0031145Y0310773D01*
X0030990Y0310809D01*
X0030837Y0310848D01*
X0030685Y0310891D01*
X0030534Y0310938D01*
X0030384Y0310989D01*
X0030235Y0311044D01*
X0030088Y0311102D01*
X0029942Y0311164D01*
X0029798Y0311229D01*
X0029656Y0311299D01*
X0029515Y0311371D01*
X0029376Y0311448D01*
X0029240Y0311527D01*
X0029105Y0311611D01*
X0028972Y0311697D01*
X0028842Y0311787D01*
X0028714Y0311880D01*
X0028588Y0311976D01*
X0028465Y0312076D01*
X0028344Y0312178D01*
X0028226Y0312283D01*
X0028111Y0312392D01*
X0027998Y0312503D01*
X0027888Y0312617D01*
X0027781Y0312734D01*
X0027677Y0312853D01*
X0027576Y0312975D01*
X0027479Y0313100D01*
X0027384Y0313227D01*
X0027293Y0313356D01*
X0027204Y0313487D01*
X0027120Y0313621D01*
X0027038Y0313757D01*
X0026960Y0313894D01*
X0026886Y0314034D01*
X0026815Y0314176D01*
X0026747Y0314319D01*
X0026683Y0314464D01*
X0026623Y0314610D01*
X0026567Y0314758D01*
X0026514Y0314907D01*
X0026465Y0315058D01*
X0026420Y0315210D01*
X0026379Y0315363D01*
X0026341Y0315516D01*
X0026308Y0315671D01*
X0026278Y0315827D01*
X0026252Y0315983D01*
X0026231Y0316140D01*
X0026213Y0316297D01*
X0026199Y0316455D01*
X0026189Y0316613D01*
X0026183Y0316771D01*
X0026181Y0316929D01*
X0340243Y0011606D02*
X0340245Y0011764D01*
X0340251Y0011922D01*
X0340261Y0012080D01*
X0340275Y0012238D01*
X0340293Y0012395D01*
X0340314Y0012552D01*
X0340340Y0012708D01*
X0340370Y0012864D01*
X0340403Y0013019D01*
X0340441Y0013172D01*
X0340482Y0013325D01*
X0340527Y0013477D01*
X0340576Y0013628D01*
X0340629Y0013777D01*
X0340685Y0013925D01*
X0340745Y0014071D01*
X0340809Y0014216D01*
X0340877Y0014359D01*
X0340948Y0014501D01*
X0341022Y0014641D01*
X0341100Y0014778D01*
X0341182Y0014914D01*
X0341266Y0015048D01*
X0341355Y0015179D01*
X0341446Y0015308D01*
X0341541Y0015435D01*
X0341638Y0015560D01*
X0341739Y0015682D01*
X0341843Y0015801D01*
X0341950Y0015918D01*
X0342060Y0016032D01*
X0342173Y0016143D01*
X0342288Y0016252D01*
X0342406Y0016357D01*
X0342527Y0016459D01*
X0342650Y0016559D01*
X0342776Y0016655D01*
X0342904Y0016748D01*
X0343034Y0016838D01*
X0343167Y0016924D01*
X0343302Y0017008D01*
X0343438Y0017087D01*
X0343577Y0017164D01*
X0343718Y0017236D01*
X0343860Y0017306D01*
X0344004Y0017371D01*
X0344150Y0017433D01*
X0344297Y0017491D01*
X0344446Y0017546D01*
X0344596Y0017597D01*
X0344747Y0017644D01*
X0344899Y0017687D01*
X0345052Y0017726D01*
X0345207Y0017762D01*
X0345362Y0017793D01*
X0345518Y0017821D01*
X0345674Y0017845D01*
X0345831Y0017865D01*
X0345989Y0017881D01*
X0346146Y0017893D01*
X0346305Y0017901D01*
X0346463Y0017905D01*
X0346621Y0017905D01*
X0346779Y0017901D01*
X0346938Y0017893D01*
X0347095Y0017881D01*
X0347253Y0017865D01*
X0347410Y0017845D01*
X0347566Y0017821D01*
X0347722Y0017793D01*
X0347877Y0017762D01*
X0348032Y0017726D01*
X0348185Y0017687D01*
X0348337Y0017644D01*
X0348488Y0017597D01*
X0348638Y0017546D01*
X0348787Y0017491D01*
X0348934Y0017433D01*
X0349080Y0017371D01*
X0349224Y0017306D01*
X0349366Y0017236D01*
X0349507Y0017164D01*
X0349646Y0017087D01*
X0349782Y0017008D01*
X0349917Y0016924D01*
X0350050Y0016838D01*
X0350180Y0016748D01*
X0350308Y0016655D01*
X0350434Y0016559D01*
X0350557Y0016459D01*
X0350678Y0016357D01*
X0350796Y0016252D01*
X0350911Y0016143D01*
X0351024Y0016032D01*
X0351134Y0015918D01*
X0351241Y0015801D01*
X0351345Y0015682D01*
X0351446Y0015560D01*
X0351543Y0015435D01*
X0351638Y0015308D01*
X0351729Y0015179D01*
X0351818Y0015048D01*
X0351902Y0014914D01*
X0351984Y0014778D01*
X0352062Y0014641D01*
X0352136Y0014501D01*
X0352207Y0014359D01*
X0352275Y0014216D01*
X0352339Y0014071D01*
X0352399Y0013925D01*
X0352455Y0013777D01*
X0352508Y0013628D01*
X0352557Y0013477D01*
X0352602Y0013325D01*
X0352643Y0013172D01*
X0352681Y0013019D01*
X0352714Y0012864D01*
X0352744Y0012708D01*
X0352770Y0012552D01*
X0352791Y0012395D01*
X0352809Y0012238D01*
X0352823Y0012080D01*
X0352833Y0011922D01*
X0352839Y0011764D01*
X0352841Y0011606D01*
X0352839Y0011448D01*
X0352833Y0011290D01*
X0352823Y0011132D01*
X0352809Y0010974D01*
X0352791Y0010817D01*
X0352770Y0010660D01*
X0352744Y0010504D01*
X0352714Y0010348D01*
X0352681Y0010193D01*
X0352643Y0010040D01*
X0352602Y0009887D01*
X0352557Y0009735D01*
X0352508Y0009584D01*
X0352455Y0009435D01*
X0352399Y0009287D01*
X0352339Y0009141D01*
X0352275Y0008996D01*
X0352207Y0008853D01*
X0352136Y0008711D01*
X0352062Y0008571D01*
X0351984Y0008434D01*
X0351902Y0008298D01*
X0351818Y0008164D01*
X0351729Y0008033D01*
X0351638Y0007904D01*
X0351543Y0007777D01*
X0351446Y0007652D01*
X0351345Y0007530D01*
X0351241Y0007411D01*
X0351134Y0007294D01*
X0351024Y0007180D01*
X0350911Y0007069D01*
X0350796Y0006960D01*
X0350678Y0006855D01*
X0350557Y0006753D01*
X0350434Y0006653D01*
X0350308Y0006557D01*
X0350180Y0006464D01*
X0350050Y0006374D01*
X0349917Y0006288D01*
X0349782Y0006204D01*
X0349646Y0006125D01*
X0349507Y0006048D01*
X0349366Y0005976D01*
X0349224Y0005906D01*
X0349080Y0005841D01*
X0348934Y0005779D01*
X0348787Y0005721D01*
X0348638Y0005666D01*
X0348488Y0005615D01*
X0348337Y0005568D01*
X0348185Y0005525D01*
X0348032Y0005486D01*
X0347877Y0005450D01*
X0347722Y0005419D01*
X0347566Y0005391D01*
X0347410Y0005367D01*
X0347253Y0005347D01*
X0347095Y0005331D01*
X0346938Y0005319D01*
X0346779Y0005311D01*
X0346621Y0005307D01*
X0346463Y0005307D01*
X0346305Y0005311D01*
X0346146Y0005319D01*
X0345989Y0005331D01*
X0345831Y0005347D01*
X0345674Y0005367D01*
X0345518Y0005391D01*
X0345362Y0005419D01*
X0345207Y0005450D01*
X0345052Y0005486D01*
X0344899Y0005525D01*
X0344747Y0005568D01*
X0344596Y0005615D01*
X0344446Y0005666D01*
X0344297Y0005721D01*
X0344150Y0005779D01*
X0344004Y0005841D01*
X0343860Y0005906D01*
X0343718Y0005976D01*
X0343577Y0006048D01*
X0343438Y0006125D01*
X0343302Y0006204D01*
X0343167Y0006288D01*
X0343034Y0006374D01*
X0342904Y0006464D01*
X0342776Y0006557D01*
X0342650Y0006653D01*
X0342527Y0006753D01*
X0342406Y0006855D01*
X0342288Y0006960D01*
X0342173Y0007069D01*
X0342060Y0007180D01*
X0341950Y0007294D01*
X0341843Y0007411D01*
X0341739Y0007530D01*
X0341638Y0007652D01*
X0341541Y0007777D01*
X0341446Y0007904D01*
X0341355Y0008033D01*
X0341266Y0008164D01*
X0341182Y0008298D01*
X0341100Y0008434D01*
X0341022Y0008571D01*
X0340948Y0008711D01*
X0340877Y0008853D01*
X0340809Y0008996D01*
X0340745Y0009141D01*
X0340685Y0009287D01*
X0340629Y0009435D01*
X0340576Y0009584D01*
X0340527Y0009735D01*
X0340482Y0009887D01*
X0340441Y0010040D01*
X0340403Y0010193D01*
X0340370Y0010348D01*
X0340340Y0010504D01*
X0340314Y0010660D01*
X0340293Y0010817D01*
X0340275Y0010974D01*
X0340261Y0011132D01*
X0340251Y0011290D01*
X0340245Y0011448D01*
X0340243Y0011606D01*
X0396260Y0247047D02*
X0396262Y0247205D01*
X0396268Y0247363D01*
X0396278Y0247521D01*
X0396292Y0247679D01*
X0396310Y0247836D01*
X0396331Y0247993D01*
X0396357Y0248149D01*
X0396387Y0248305D01*
X0396420Y0248460D01*
X0396458Y0248613D01*
X0396499Y0248766D01*
X0396544Y0248918D01*
X0396593Y0249069D01*
X0396646Y0249218D01*
X0396702Y0249366D01*
X0396762Y0249512D01*
X0396826Y0249657D01*
X0396894Y0249800D01*
X0396965Y0249942D01*
X0397039Y0250082D01*
X0397117Y0250219D01*
X0397199Y0250355D01*
X0397283Y0250489D01*
X0397372Y0250620D01*
X0397463Y0250749D01*
X0397558Y0250876D01*
X0397655Y0251001D01*
X0397756Y0251123D01*
X0397860Y0251242D01*
X0397967Y0251359D01*
X0398077Y0251473D01*
X0398190Y0251584D01*
X0398305Y0251693D01*
X0398423Y0251798D01*
X0398544Y0251900D01*
X0398667Y0252000D01*
X0398793Y0252096D01*
X0398921Y0252189D01*
X0399051Y0252279D01*
X0399184Y0252365D01*
X0399319Y0252449D01*
X0399455Y0252528D01*
X0399594Y0252605D01*
X0399735Y0252677D01*
X0399877Y0252747D01*
X0400021Y0252812D01*
X0400167Y0252874D01*
X0400314Y0252932D01*
X0400463Y0252987D01*
X0400613Y0253038D01*
X0400764Y0253085D01*
X0400916Y0253128D01*
X0401069Y0253167D01*
X0401224Y0253203D01*
X0401379Y0253234D01*
X0401535Y0253262D01*
X0401691Y0253286D01*
X0401848Y0253306D01*
X0402006Y0253322D01*
X0402163Y0253334D01*
X0402322Y0253342D01*
X0402480Y0253346D01*
X0402638Y0253346D01*
X0402796Y0253342D01*
X0402955Y0253334D01*
X0403112Y0253322D01*
X0403270Y0253306D01*
X0403427Y0253286D01*
X0403583Y0253262D01*
X0403739Y0253234D01*
X0403894Y0253203D01*
X0404049Y0253167D01*
X0404202Y0253128D01*
X0404354Y0253085D01*
X0404505Y0253038D01*
X0404655Y0252987D01*
X0404804Y0252932D01*
X0404951Y0252874D01*
X0405097Y0252812D01*
X0405241Y0252747D01*
X0405383Y0252677D01*
X0405524Y0252605D01*
X0405663Y0252528D01*
X0405799Y0252449D01*
X0405934Y0252365D01*
X0406067Y0252279D01*
X0406197Y0252189D01*
X0406325Y0252096D01*
X0406451Y0252000D01*
X0406574Y0251900D01*
X0406695Y0251798D01*
X0406813Y0251693D01*
X0406928Y0251584D01*
X0407041Y0251473D01*
X0407151Y0251359D01*
X0407258Y0251242D01*
X0407362Y0251123D01*
X0407463Y0251001D01*
X0407560Y0250876D01*
X0407655Y0250749D01*
X0407746Y0250620D01*
X0407835Y0250489D01*
X0407919Y0250355D01*
X0408001Y0250219D01*
X0408079Y0250082D01*
X0408153Y0249942D01*
X0408224Y0249800D01*
X0408292Y0249657D01*
X0408356Y0249512D01*
X0408416Y0249366D01*
X0408472Y0249218D01*
X0408525Y0249069D01*
X0408574Y0248918D01*
X0408619Y0248766D01*
X0408660Y0248613D01*
X0408698Y0248460D01*
X0408731Y0248305D01*
X0408761Y0248149D01*
X0408787Y0247993D01*
X0408808Y0247836D01*
X0408826Y0247679D01*
X0408840Y0247521D01*
X0408850Y0247363D01*
X0408856Y0247205D01*
X0408858Y0247047D01*
X0408856Y0246889D01*
X0408850Y0246731D01*
X0408840Y0246573D01*
X0408826Y0246415D01*
X0408808Y0246258D01*
X0408787Y0246101D01*
X0408761Y0245945D01*
X0408731Y0245789D01*
X0408698Y0245634D01*
X0408660Y0245481D01*
X0408619Y0245328D01*
X0408574Y0245176D01*
X0408525Y0245025D01*
X0408472Y0244876D01*
X0408416Y0244728D01*
X0408356Y0244582D01*
X0408292Y0244437D01*
X0408224Y0244294D01*
X0408153Y0244152D01*
X0408079Y0244012D01*
X0408001Y0243875D01*
X0407919Y0243739D01*
X0407835Y0243605D01*
X0407746Y0243474D01*
X0407655Y0243345D01*
X0407560Y0243218D01*
X0407463Y0243093D01*
X0407362Y0242971D01*
X0407258Y0242852D01*
X0407151Y0242735D01*
X0407041Y0242621D01*
X0406928Y0242510D01*
X0406813Y0242401D01*
X0406695Y0242296D01*
X0406574Y0242194D01*
X0406451Y0242094D01*
X0406325Y0241998D01*
X0406197Y0241905D01*
X0406067Y0241815D01*
X0405934Y0241729D01*
X0405799Y0241645D01*
X0405663Y0241566D01*
X0405524Y0241489D01*
X0405383Y0241417D01*
X0405241Y0241347D01*
X0405097Y0241282D01*
X0404951Y0241220D01*
X0404804Y0241162D01*
X0404655Y0241107D01*
X0404505Y0241056D01*
X0404354Y0241009D01*
X0404202Y0240966D01*
X0404049Y0240927D01*
X0403894Y0240891D01*
X0403739Y0240860D01*
X0403583Y0240832D01*
X0403427Y0240808D01*
X0403270Y0240788D01*
X0403112Y0240772D01*
X0402955Y0240760D01*
X0402796Y0240752D01*
X0402638Y0240748D01*
X0402480Y0240748D01*
X0402322Y0240752D01*
X0402163Y0240760D01*
X0402006Y0240772D01*
X0401848Y0240788D01*
X0401691Y0240808D01*
X0401535Y0240832D01*
X0401379Y0240860D01*
X0401224Y0240891D01*
X0401069Y0240927D01*
X0400916Y0240966D01*
X0400764Y0241009D01*
X0400613Y0241056D01*
X0400463Y0241107D01*
X0400314Y0241162D01*
X0400167Y0241220D01*
X0400021Y0241282D01*
X0399877Y0241347D01*
X0399735Y0241417D01*
X0399594Y0241489D01*
X0399455Y0241566D01*
X0399319Y0241645D01*
X0399184Y0241729D01*
X0399051Y0241815D01*
X0398921Y0241905D01*
X0398793Y0241998D01*
X0398667Y0242094D01*
X0398544Y0242194D01*
X0398423Y0242296D01*
X0398305Y0242401D01*
X0398190Y0242510D01*
X0398077Y0242621D01*
X0397967Y0242735D01*
X0397860Y0242852D01*
X0397756Y0242971D01*
X0397655Y0243093D01*
X0397558Y0243218D01*
X0397463Y0243345D01*
X0397372Y0243474D01*
X0397283Y0243605D01*
X0397199Y0243739D01*
X0397117Y0243875D01*
X0397039Y0244012D01*
X0396965Y0244152D01*
X0396894Y0244294D01*
X0396826Y0244437D01*
X0396762Y0244582D01*
X0396702Y0244728D01*
X0396646Y0244876D01*
X0396593Y0245025D01*
X0396544Y0245176D01*
X0396499Y0245328D01*
X0396458Y0245481D01*
X0396420Y0245634D01*
X0396387Y0245789D01*
X0396357Y0245945D01*
X0396331Y0246101D01*
X0396310Y0246258D01*
X0396292Y0246415D01*
X0396278Y0246573D01*
X0396268Y0246731D01*
X0396262Y0246889D01*
X0396260Y0247047D01*
X0396260Y0316929D02*
X0396262Y0317087D01*
X0396268Y0317245D01*
X0396278Y0317403D01*
X0396292Y0317561D01*
X0396310Y0317718D01*
X0396331Y0317875D01*
X0396357Y0318031D01*
X0396387Y0318187D01*
X0396420Y0318342D01*
X0396458Y0318495D01*
X0396499Y0318648D01*
X0396544Y0318800D01*
X0396593Y0318951D01*
X0396646Y0319100D01*
X0396702Y0319248D01*
X0396762Y0319394D01*
X0396826Y0319539D01*
X0396894Y0319682D01*
X0396965Y0319824D01*
X0397039Y0319964D01*
X0397117Y0320101D01*
X0397199Y0320237D01*
X0397283Y0320371D01*
X0397372Y0320502D01*
X0397463Y0320631D01*
X0397558Y0320758D01*
X0397655Y0320883D01*
X0397756Y0321005D01*
X0397860Y0321124D01*
X0397967Y0321241D01*
X0398077Y0321355D01*
X0398190Y0321466D01*
X0398305Y0321575D01*
X0398423Y0321680D01*
X0398544Y0321782D01*
X0398667Y0321882D01*
X0398793Y0321978D01*
X0398921Y0322071D01*
X0399051Y0322161D01*
X0399184Y0322247D01*
X0399319Y0322331D01*
X0399455Y0322410D01*
X0399594Y0322487D01*
X0399735Y0322559D01*
X0399877Y0322629D01*
X0400021Y0322694D01*
X0400167Y0322756D01*
X0400314Y0322814D01*
X0400463Y0322869D01*
X0400613Y0322920D01*
X0400764Y0322967D01*
X0400916Y0323010D01*
X0401069Y0323049D01*
X0401224Y0323085D01*
X0401379Y0323116D01*
X0401535Y0323144D01*
X0401691Y0323168D01*
X0401848Y0323188D01*
X0402006Y0323204D01*
X0402163Y0323216D01*
X0402322Y0323224D01*
X0402480Y0323228D01*
X0402638Y0323228D01*
X0402796Y0323224D01*
X0402955Y0323216D01*
X0403112Y0323204D01*
X0403270Y0323188D01*
X0403427Y0323168D01*
X0403583Y0323144D01*
X0403739Y0323116D01*
X0403894Y0323085D01*
X0404049Y0323049D01*
X0404202Y0323010D01*
X0404354Y0322967D01*
X0404505Y0322920D01*
X0404655Y0322869D01*
X0404804Y0322814D01*
X0404951Y0322756D01*
X0405097Y0322694D01*
X0405241Y0322629D01*
X0405383Y0322559D01*
X0405524Y0322487D01*
X0405663Y0322410D01*
X0405799Y0322331D01*
X0405934Y0322247D01*
X0406067Y0322161D01*
X0406197Y0322071D01*
X0406325Y0321978D01*
X0406451Y0321882D01*
X0406574Y0321782D01*
X0406695Y0321680D01*
X0406813Y0321575D01*
X0406928Y0321466D01*
X0407041Y0321355D01*
X0407151Y0321241D01*
X0407258Y0321124D01*
X0407362Y0321005D01*
X0407463Y0320883D01*
X0407560Y0320758D01*
X0407655Y0320631D01*
X0407746Y0320502D01*
X0407835Y0320371D01*
X0407919Y0320237D01*
X0408001Y0320101D01*
X0408079Y0319964D01*
X0408153Y0319824D01*
X0408224Y0319682D01*
X0408292Y0319539D01*
X0408356Y0319394D01*
X0408416Y0319248D01*
X0408472Y0319100D01*
X0408525Y0318951D01*
X0408574Y0318800D01*
X0408619Y0318648D01*
X0408660Y0318495D01*
X0408698Y0318342D01*
X0408731Y0318187D01*
X0408761Y0318031D01*
X0408787Y0317875D01*
X0408808Y0317718D01*
X0408826Y0317561D01*
X0408840Y0317403D01*
X0408850Y0317245D01*
X0408856Y0317087D01*
X0408858Y0316929D01*
X0408856Y0316771D01*
X0408850Y0316613D01*
X0408840Y0316455D01*
X0408826Y0316297D01*
X0408808Y0316140D01*
X0408787Y0315983D01*
X0408761Y0315827D01*
X0408731Y0315671D01*
X0408698Y0315516D01*
X0408660Y0315363D01*
X0408619Y0315210D01*
X0408574Y0315058D01*
X0408525Y0314907D01*
X0408472Y0314758D01*
X0408416Y0314610D01*
X0408356Y0314464D01*
X0408292Y0314319D01*
X0408224Y0314176D01*
X0408153Y0314034D01*
X0408079Y0313894D01*
X0408001Y0313757D01*
X0407919Y0313621D01*
X0407835Y0313487D01*
X0407746Y0313356D01*
X0407655Y0313227D01*
X0407560Y0313100D01*
X0407463Y0312975D01*
X0407362Y0312853D01*
X0407258Y0312734D01*
X0407151Y0312617D01*
X0407041Y0312503D01*
X0406928Y0312392D01*
X0406813Y0312283D01*
X0406695Y0312178D01*
X0406574Y0312076D01*
X0406451Y0311976D01*
X0406325Y0311880D01*
X0406197Y0311787D01*
X0406067Y0311697D01*
X0405934Y0311611D01*
X0405799Y0311527D01*
X0405663Y0311448D01*
X0405524Y0311371D01*
X0405383Y0311299D01*
X0405241Y0311229D01*
X0405097Y0311164D01*
X0404951Y0311102D01*
X0404804Y0311044D01*
X0404655Y0310989D01*
X0404505Y0310938D01*
X0404354Y0310891D01*
X0404202Y0310848D01*
X0404049Y0310809D01*
X0403894Y0310773D01*
X0403739Y0310742D01*
X0403583Y0310714D01*
X0403427Y0310690D01*
X0403270Y0310670D01*
X0403112Y0310654D01*
X0402955Y0310642D01*
X0402796Y0310634D01*
X0402638Y0310630D01*
X0402480Y0310630D01*
X0402322Y0310634D01*
X0402163Y0310642D01*
X0402006Y0310654D01*
X0401848Y0310670D01*
X0401691Y0310690D01*
X0401535Y0310714D01*
X0401379Y0310742D01*
X0401224Y0310773D01*
X0401069Y0310809D01*
X0400916Y0310848D01*
X0400764Y0310891D01*
X0400613Y0310938D01*
X0400463Y0310989D01*
X0400314Y0311044D01*
X0400167Y0311102D01*
X0400021Y0311164D01*
X0399877Y0311229D01*
X0399735Y0311299D01*
X0399594Y0311371D01*
X0399455Y0311448D01*
X0399319Y0311527D01*
X0399184Y0311611D01*
X0399051Y0311697D01*
X0398921Y0311787D01*
X0398793Y0311880D01*
X0398667Y0311976D01*
X0398544Y0312076D01*
X0398423Y0312178D01*
X0398305Y0312283D01*
X0398190Y0312392D01*
X0398077Y0312503D01*
X0397967Y0312617D01*
X0397860Y0312734D01*
X0397756Y0312853D01*
X0397655Y0312975D01*
X0397558Y0313100D01*
X0397463Y0313227D01*
X0397372Y0313356D01*
X0397283Y0313487D01*
X0397199Y0313621D01*
X0397117Y0313757D01*
X0397039Y0313894D01*
X0396965Y0314034D01*
X0396894Y0314176D01*
X0396826Y0314319D01*
X0396762Y0314464D01*
X0396702Y0314610D01*
X0396646Y0314758D01*
X0396593Y0314907D01*
X0396544Y0315058D01*
X0396499Y0315210D01*
X0396458Y0315363D01*
X0396420Y0315516D01*
X0396387Y0315671D01*
X0396357Y0315827D01*
X0396331Y0315983D01*
X0396310Y0316140D01*
X0396292Y0316297D01*
X0396278Y0316455D01*
X0396268Y0316613D01*
X0396262Y0316771D01*
X0396260Y0316929D01*
D11*
X0020669Y0018701D02*
X0000984Y0018701D01*
X0000984Y0311024D01*
X0020669Y0311024D01*
X0020669Y0327756D01*
X0414370Y0327756D01*
X0414370Y0311024D01*
X0433071Y0311024D01*
X0433071Y0018701D01*
X0414370Y0018701D01*
X0414370Y0000984D01*
X0020669Y0000984D01*
X0020669Y0018701D01*
D12*
X0068071Y0013700D02*
X0068071Y0007954D01*
X0078071Y0007954D02*
X0078071Y0013700D01*
X0088071Y0013700D02*
X0088071Y0007954D01*
X0098071Y0007954D02*
X0098071Y0013700D01*
X0108071Y0013700D02*
X0108071Y0007954D01*
X0118071Y0007954D02*
X0118071Y0013700D01*
X0128071Y0013700D02*
X0128071Y0007954D01*
X0138071Y0007954D02*
X0138071Y0013700D01*
X0158071Y0013700D02*
X0158071Y0007954D01*
X0168071Y0007954D02*
X0168071Y0013700D01*
X0178071Y0013700D02*
X0178071Y0007954D01*
X0188071Y0007954D02*
X0188071Y0013700D01*
X0198071Y0013700D02*
X0198071Y0007954D01*
X0208071Y0007954D02*
X0208071Y0013700D01*
X0218071Y0013700D02*
X0218071Y0007954D01*
X0228071Y0007954D02*
X0228071Y0013700D01*
X0244071Y0013700D02*
X0244071Y0007954D01*
X0254071Y0007954D02*
X0254071Y0013700D01*
X0264071Y0013700D02*
X0264071Y0007954D01*
X0274071Y0007954D02*
X0274071Y0013700D01*
X0284071Y0013700D02*
X0284071Y0007954D01*
X0294071Y0007954D02*
X0294071Y0013700D01*
X0304071Y0013700D02*
X0304071Y0007954D01*
X0314071Y0007954D02*
X0314071Y0013700D01*
X0324071Y0013700D02*
X0324071Y0007954D01*
X0334071Y0007954D02*
X0334071Y0013700D01*
X0298071Y0197954D02*
X0298071Y0203700D01*
X0288071Y0203700D02*
X0288071Y0197954D01*
X0278071Y0197954D02*
X0278071Y0203700D01*
X0268071Y0203700D02*
X0268071Y0197954D01*
X0258071Y0197954D02*
X0258071Y0203700D01*
X0248071Y0203700D02*
X0248071Y0197954D01*
X0238071Y0197954D02*
X0238071Y0203700D01*
X0228071Y0203700D02*
X0228071Y0197954D01*
X0208071Y0197954D02*
X0208071Y0203700D01*
X0198071Y0203700D02*
X0198071Y0197954D01*
X0188071Y0197954D02*
X0188071Y0203700D01*
X0178071Y0203700D02*
X0178071Y0197954D01*
X0168071Y0197954D02*
X0168071Y0203700D01*
X0158071Y0203700D02*
X0158071Y0197954D01*
X0148071Y0197954D02*
X0148071Y0203700D01*
X0138071Y0203700D02*
X0138071Y0197954D01*
D13*
X0038071Y0180827D03*
X0028071Y0180827D03*
X0028071Y0170827D03*
X0038071Y0170827D03*
X0038071Y0160827D03*
X0028071Y0160827D03*
X0028071Y0150827D03*
X0038071Y0150827D03*
X0038071Y0140827D03*
X0028071Y0140827D03*
X0028071Y0130827D03*
X0038071Y0130827D03*
X0038071Y0120827D03*
X0028071Y0120827D03*
X0028071Y0110827D03*
X0038071Y0110827D03*
X0038071Y0100827D03*
X0028071Y0100827D03*
X0028071Y0090827D03*
X0038071Y0090827D03*
X0038071Y0080827D03*
X0028071Y0080827D03*
X0028071Y0070827D03*
X0038071Y0070827D03*
X0038071Y0060827D03*
X0028071Y0060827D03*
X0028071Y0050827D03*
X0038071Y0050827D03*
X0038071Y0040827D03*
X0028071Y0040827D03*
X0028071Y0030827D03*
X0038071Y0030827D03*
X0038071Y0020827D03*
X0028071Y0020827D03*
X0028071Y0010827D03*
X0038071Y0010827D03*
D14*
G36*
X0059307Y0094463D02*
X0059330Y0087664D01*
X0052531Y0087641D01*
X0052508Y0094440D01*
X0059307Y0094463D01*
G37*
D15*
X0065919Y0091086D03*
X0075919Y0091121D03*
X0085919Y0091156D03*
X0095919Y0091191D03*
X0105919Y0091226D03*
X0115919Y0091261D03*
X0125919Y0091296D03*
X0135919Y0091331D03*
X0145918Y0091366D03*
X0155918Y0091401D03*
X0165918Y0091436D03*
X0175918Y0091470D03*
X0185918Y0091505D03*
X0195918Y0091540D03*
X0205918Y0091575D03*
X0205709Y0151575D03*
X0195709Y0151540D03*
X0185709Y0151505D03*
X0175709Y0151470D03*
X0165709Y0151435D03*
X0155709Y0151400D03*
X0145709Y0151365D03*
X0135709Y0151330D03*
X0125709Y0151296D03*
X0115709Y0151261D03*
X0105709Y0151226D03*
X0095709Y0151191D03*
X0085709Y0151156D03*
X0075709Y0151121D03*
X0065710Y0151086D03*
X0055710Y0151051D03*
D16*
X0068814Y0256890D02*
X0074414Y0256890D01*
X0098814Y0256890D02*
X0104414Y0256890D01*
X0153307Y0255157D02*
X0153307Y0260757D01*
X0163307Y0260757D02*
X0163307Y0255157D01*
X0173307Y0255157D02*
X0173307Y0260757D01*
X0183307Y0260757D02*
X0183307Y0255157D01*
X0183307Y0225157D02*
X0183307Y0219557D01*
X0173307Y0219557D02*
X0173307Y0225157D01*
X0163307Y0225157D02*
X0163307Y0219557D01*
X0153307Y0219557D02*
X0153307Y0225157D01*
X0220563Y0256879D02*
X0226163Y0256879D01*
X0250563Y0256879D02*
X0256163Y0256879D01*
X0264528Y0256142D02*
X0264528Y0261742D01*
X0274528Y0261742D02*
X0274528Y0256142D01*
X0284528Y0256142D02*
X0284528Y0261742D01*
X0294528Y0261742D02*
X0294528Y0256142D01*
X0294528Y0226142D02*
X0294528Y0220542D01*
X0284528Y0220542D02*
X0284528Y0226142D01*
X0274528Y0226142D02*
X0274528Y0220542D01*
X0264528Y0220542D02*
X0264528Y0226142D01*
X0260433Y0168391D02*
X0260433Y0162791D01*
X0270433Y0162791D02*
X0270433Y0168391D01*
X0280433Y0168391D02*
X0280433Y0162791D01*
X0290433Y0162791D02*
X0290433Y0168391D01*
X0300433Y0168391D02*
X0300433Y0162791D01*
X0310433Y0162791D02*
X0310433Y0168391D01*
X0320433Y0168391D02*
X0320433Y0162791D01*
X0336531Y0163937D02*
X0342131Y0163937D01*
X0342131Y0153937D02*
X0336531Y0153937D01*
X0336531Y0143937D02*
X0342131Y0143937D01*
X0342131Y0133937D02*
X0336531Y0133937D01*
X0336531Y0123937D02*
X0342131Y0123937D01*
X0342131Y0113937D02*
X0336531Y0113937D01*
X0336531Y0103937D02*
X0342131Y0103937D01*
X0342131Y0093937D02*
X0336531Y0093937D01*
X0320591Y0095083D02*
X0320591Y0089483D01*
X0310591Y0089483D02*
X0310591Y0095083D01*
X0300591Y0095083D02*
X0300591Y0089483D01*
X0290591Y0089483D02*
X0290591Y0095083D01*
X0280591Y0095083D02*
X0280591Y0089483D01*
X0270591Y0089483D02*
X0270591Y0095083D01*
X0260591Y0095083D02*
X0260591Y0089483D01*
X0250591Y0089483D02*
X0250591Y0095083D01*
X0240591Y0095083D02*
X0240591Y0089483D01*
X0230591Y0089483D02*
X0230591Y0095083D01*
X0230591Y0119483D02*
X0230591Y0125083D01*
X0240591Y0125083D02*
X0240591Y0119483D01*
X0250591Y0119483D02*
X0250591Y0125083D01*
X0250433Y0132791D02*
X0250433Y0138391D01*
X0260433Y0138391D02*
X0260433Y0132791D01*
X0260591Y0125083D02*
X0260591Y0119483D01*
X0270591Y0119483D02*
X0270591Y0125083D01*
X0270433Y0132791D02*
X0270433Y0138391D01*
X0280433Y0138391D02*
X0280433Y0132791D01*
X0280591Y0125083D02*
X0280591Y0119483D01*
X0290591Y0119483D02*
X0290591Y0125083D01*
X0290433Y0132791D02*
X0290433Y0138391D01*
X0300433Y0138391D02*
X0300433Y0132791D01*
X0300591Y0125083D02*
X0300591Y0119483D01*
X0310591Y0119483D02*
X0310591Y0125083D01*
X0310433Y0132791D02*
X0310433Y0138391D01*
X0320433Y0138391D02*
X0320433Y0132791D01*
X0320591Y0125083D02*
X0320591Y0119483D01*
X0366531Y0123937D02*
X0372131Y0123937D01*
X0372131Y0113937D02*
X0366531Y0113937D01*
X0366531Y0103937D02*
X0372131Y0103937D01*
X0372131Y0093937D02*
X0366531Y0093937D01*
X0366531Y0133937D02*
X0372131Y0133937D01*
X0372131Y0143937D02*
X0366531Y0143937D01*
X0366531Y0153937D02*
X0372131Y0153937D01*
X0372131Y0163937D02*
X0366531Y0163937D01*
X0250433Y0162791D02*
X0250433Y0168391D01*
D17*
X0091535Y0184055D03*
X0091535Y0307087D03*
D18*
X0101535Y0307087D03*
X0111535Y0307087D03*
X0121535Y0307087D03*
X0131535Y0307087D03*
X0141535Y0307087D03*
X0151535Y0307087D03*
X0161535Y0307087D03*
X0171535Y0307087D03*
X0181535Y0307087D03*
X0191535Y0307087D03*
X0201535Y0307087D03*
X0211535Y0307087D03*
X0221535Y0307087D03*
X0231535Y0307087D03*
X0241535Y0307087D03*
X0241535Y0184055D03*
X0231535Y0184055D03*
X0221535Y0184055D03*
X0211535Y0184055D03*
X0201535Y0184055D03*
X0191535Y0184055D03*
X0181535Y0184055D03*
X0171535Y0184055D03*
X0161535Y0184055D03*
X0151535Y0184055D03*
X0141535Y0184055D03*
X0131535Y0184055D03*
X0121535Y0184055D03*
X0111535Y0184055D03*
X0101535Y0184055D03*
D19*
X0085630Y0081693D03*
X0075787Y0081693D03*
X0065945Y0081693D03*
X0065945Y0024606D03*
X0085630Y0024606D03*
X0158465Y0024606D03*
X0178150Y0024606D03*
X0178150Y0081693D03*
X0168307Y0081693D03*
X0158465Y0081693D03*
X0250984Y0081693D03*
X0260827Y0081693D03*
X0270669Y0081693D03*
X0270669Y0024606D03*
X0250984Y0024606D03*
X0343504Y0024606D03*
X0363189Y0024606D03*
X0363189Y0081693D03*
X0353346Y0081693D03*
X0343504Y0081693D03*
D20*
X0329331Y0052165D03*
X0284843Y0052165D03*
X0236811Y0052165D03*
X0192323Y0052165D03*
X0144291Y0052165D03*
X0099803Y0052165D03*
X0051772Y0052165D03*
X0377362Y0052165D03*
D21*
X0392638Y0051181D03*
X0402638Y0051181D03*
X0402495Y0032750D03*
X0392495Y0032750D03*
X0392638Y0013780D03*
X0402638Y0013780D03*
X0402950Y0069612D03*
X0392950Y0069612D03*
X0322913Y0069882D03*
X0312913Y0069882D03*
X0302244Y0069882D03*
X0292244Y0069882D03*
X0231378Y0139764D03*
X0221378Y0139764D03*
X0183150Y0164370D03*
X0173150Y0164370D03*
X0164449Y0164370D03*
X0154449Y0164370D03*
X0144764Y0164370D03*
X0134764Y0164370D03*
X0125079Y0164370D03*
X0115079Y0164370D03*
X0105394Y0164370D03*
X0095394Y0164370D03*
X0085709Y0164370D03*
X0075709Y0164370D03*
X0066024Y0164370D03*
X0056024Y0164370D03*
X0052165Y0180039D03*
X0052165Y0190039D03*
X0048228Y0242047D03*
X0048228Y0252047D03*
X0012795Y0252047D03*
X0012795Y0242047D03*
X0101142Y0245079D03*
X0131142Y0245079D03*
X0141732Y0256142D03*
X0141732Y0226142D03*
X0158228Y0212598D03*
X0188228Y0212598D03*
X0194646Y0242126D03*
X0224646Y0242126D03*
X0265512Y0212598D03*
X0269764Y0184055D03*
X0259764Y0184055D03*
X0295512Y0212598D03*
X0309420Y0223278D03*
X0333425Y0237205D03*
X0334409Y0250984D03*
X0309420Y0253278D03*
X0364409Y0250984D03*
X0363425Y0237205D03*
X0385827Y0238110D03*
X0385827Y0248110D03*
X0421260Y0251063D03*
X0421260Y0241063D03*
X0382874Y0190039D03*
X0382874Y0180039D03*
X0419826Y0176456D03*
X0419826Y0166456D03*
X0213583Y0073071D03*
X0213583Y0043071D03*
X0009843Y0056339D03*
X0009843Y0026339D03*
D22*
X0386811Y0087598D03*
X0401575Y0087598D03*
D23*
X0401575Y0097598D03*
X0401575Y0107598D03*
X0401575Y0117598D03*
X0401575Y0127598D03*
X0401575Y0137598D03*
X0401575Y0147598D03*
X0401575Y0157598D03*
X0401575Y0167598D03*
X0386811Y0167598D03*
X0386811Y0157598D03*
X0386811Y0147598D03*
X0386811Y0137598D03*
X0386811Y0127598D03*
X0386811Y0117598D03*
X0386811Y0107598D03*
X0386811Y0097598D03*
D24*
X0396417Y0189646D03*
X0426417Y0189646D03*
X0426417Y0229646D03*
X0426417Y0264449D03*
X0396417Y0264449D03*
X0396417Y0229646D03*
X0396417Y0304449D03*
X0426417Y0304449D03*
X0037638Y0304449D03*
X0007638Y0304449D03*
X0007638Y0264449D03*
X0007638Y0229646D03*
X0037638Y0229646D03*
X0037638Y0264449D03*
X0037638Y0189646D03*
X0007638Y0189646D03*
D25*
X0297087Y0026665D02*
X0297087Y0020265D01*
X0317087Y0020265D02*
X0317087Y0026665D01*
X0310287Y0043465D02*
X0303887Y0043465D01*
D26*
X0363012Y0274409D02*
X0370886Y0274409D01*
X0386634Y0282283D02*
X0386634Y0290157D01*
X0370886Y0299213D02*
X0363012Y0299213D01*
D27*
X0123531Y0226811D03*
X0113531Y0226811D03*
X0103531Y0226811D03*
X0093531Y0226811D03*
X0083531Y0226811D03*
X0073531Y0226811D03*
X0063531Y0226811D03*
X0053531Y0226811D03*
D28*
X0059232Y0270591D03*
X0049626Y0280197D03*
X0099232Y0270591D03*
X0109232Y0280197D03*
X0129843Y0280197D03*
X0139449Y0270591D03*
X0179449Y0270591D03*
X0189449Y0280197D03*
X0210059Y0280197D03*
X0219665Y0270591D03*
X0259665Y0270591D03*
X0269665Y0280197D03*
X0290276Y0280197D03*
X0299882Y0270591D03*
X0339882Y0270591D03*
X0349882Y0280197D03*
D29*
X0319882Y0283703D02*
X0319882Y0275903D01*
X0239665Y0275903D02*
X0239665Y0283703D01*
X0159449Y0283703D02*
X0159449Y0275903D01*
X0079232Y0275903D02*
X0079232Y0283703D01*
D30*
X0206820Y0165354D03*
X0217520Y0165354D03*
X0228220Y0165354D03*
D31*
X0246184Y0161200D02*
X0250184Y0165200D01*
X0250433Y0165591D01*
X0250984Y0166400D01*
X0250984Y0168400D01*
X0264584Y0182000D01*
X0264584Y0194000D01*
X0258584Y0200000D01*
X0258071Y0200827D01*
X0258184Y0201200D01*
X0258184Y0205200D01*
X0264984Y0212000D01*
X0265512Y0212598D01*
X0265384Y0212800D01*
X0265384Y0225200D01*
X0264584Y0226000D01*
X0264528Y0226142D01*
X0264584Y0227200D01*
X0269384Y0232000D01*
X0269384Y0263200D01*
X0272584Y0266400D01*
X0276584Y0266400D01*
X0279384Y0263600D01*
X0279384Y0254400D01*
X0285384Y0248400D01*
X0311384Y0248400D01*
X0313784Y0250800D01*
X0334184Y0250800D01*
X0334409Y0250984D01*
X0334584Y0250000D01*
X0379384Y0205200D01*
X0386811Y0087598D02*
X0386984Y0087600D01*
X0401384Y0087600D01*
X0401575Y0087598D01*
X0322913Y0069882D02*
X0322584Y0070800D01*
X0320984Y0072400D01*
X0320984Y0092000D01*
X0320591Y0092283D01*
X0322913Y0069882D02*
X0322584Y0069600D01*
X0317384Y0064400D01*
X0317384Y0058400D01*
X0242984Y0111200D02*
X0232184Y0111200D01*
X0225784Y0117600D01*
X0225784Y0134400D01*
X0230984Y0139600D01*
X0231378Y0139764D01*
X0246184Y0154800D02*
X0246184Y0161200D01*
X0231535Y0184055D02*
X0231384Y0184400D01*
X0229384Y0184400D01*
X0223384Y0190400D01*
X0223384Y0206000D01*
X0224584Y0207200D01*
X0224584Y0242000D01*
X0224646Y0242126D01*
X0231535Y0307087D02*
X0231384Y0307200D01*
X0224184Y0314400D01*
X0111384Y0314400D01*
X0104584Y0307600D01*
X0102184Y0307600D01*
X0101535Y0307087D01*
X0101384Y0306800D01*
X0101384Y0281600D01*
X0079384Y0259600D01*
X0079384Y0252800D01*
X0054184Y0227600D01*
X0053531Y0226811D01*
X0053784Y0226800D01*
X0059784Y0220800D01*
X0059784Y0190800D01*
X0052184Y0183200D01*
X0052184Y0180400D01*
X0052165Y0180039D01*
X0056184Y0170400D02*
X0066184Y0180400D01*
X0056184Y0170400D02*
X0056184Y0164400D01*
X0056024Y0164370D01*
X0101535Y0184055D02*
X0101784Y0184400D01*
X0101784Y0186000D01*
X0111384Y0195600D01*
X0111384Y0206400D01*
X0153384Y0224800D02*
X0153307Y0225157D01*
X0153384Y0224800D02*
X0158184Y0220000D01*
X0158184Y0212800D01*
X0158228Y0212598D01*
X0038071Y0010827D02*
X0037784Y0010800D01*
X0028184Y0010800D01*
X0028071Y0010827D01*
D32*
X0047784Y0029200D03*
X0062584Y0038800D03*
X0064184Y0068000D03*
X0057384Y0072400D03*
X0059784Y0081200D03*
X0070584Y0102000D03*
X0062584Y0108800D03*
X0059384Y0105200D03*
X0086184Y0064800D03*
X0101784Y0080400D03*
X0108984Y0078000D03*
X0110984Y0084800D03*
X0117384Y0071600D03*
X0132584Y0074800D03*
X0136184Y0078000D03*
X0144984Y0071600D03*
X0152184Y0066800D03*
X0148984Y0082000D03*
X0156184Y0098000D03*
X0148584Y0104800D03*
X0148584Y0112000D03*
X0143784Y0110400D03*
X0146984Y0116800D03*
X0130584Y0118400D03*
X0122184Y0101600D03*
X0117384Y0101600D03*
X0100584Y0102400D03*
X0110584Y0122400D03*
X0123784Y0143200D03*
X0124184Y0171600D03*
X0117784Y0178000D03*
X0105784Y0179600D03*
X0096184Y0170000D03*
X0111384Y0206400D03*
X0133784Y0171600D03*
X0150984Y0178000D03*
X0152184Y0208000D03*
X0186984Y0173200D03*
X0166584Y0136400D03*
X0184184Y0115600D03*
X0194984Y0112400D03*
X0201384Y0107600D03*
X0198184Y0099600D03*
X0202184Y0081200D03*
X0202184Y0076400D03*
X0184984Y0073200D03*
X0178584Y0071600D03*
X0168984Y0071600D03*
X0168984Y0066800D03*
X0164984Y0053200D03*
X0168984Y0049200D03*
X0148184Y0035200D03*
X0138584Y0031600D03*
X0113384Y0029200D03*
X0107384Y0035200D03*
X0046984Y0152800D03*
X0066184Y0180400D03*
X0055784Y0216800D03*
X0034584Y0206400D03*
X0028584Y0205600D03*
X0030984Y0190800D03*
X0016984Y0175200D03*
X0018584Y0168000D03*
X0016184Y0218000D03*
X0031784Y0228800D03*
X0040184Y0256800D03*
X0144984Y0276800D03*
X0229784Y0154800D03*
X0232984Y0151200D03*
X0246184Y0154800D03*
X0244584Y0169600D03*
X0263384Y0156000D03*
X0263384Y0151200D03*
X0246184Y0142400D03*
X0234584Y0115200D03*
X0242984Y0111200D03*
X0274584Y0101600D03*
X0283384Y0104800D03*
X0310184Y0110400D03*
X0328984Y0102800D03*
X0330584Y0114000D03*
X0332184Y0127600D03*
X0328984Y0133600D03*
X0307784Y0146400D03*
X0322984Y0179200D03*
X0332584Y0193600D03*
X0342184Y0198400D03*
X0305384Y0204000D03*
X0300584Y0190400D03*
X0286184Y0179200D03*
X0281384Y0179200D03*
X0275384Y0214000D03*
X0262184Y0295600D03*
X0379384Y0205200D03*
X0394584Y0159600D03*
X0406984Y0151200D03*
X0417784Y0160000D03*
X0393384Y0122800D03*
X0414984Y0118800D03*
X0421384Y0110800D03*
X0407784Y0097200D03*
X0418184Y0071600D03*
X0408584Y0066800D03*
X0368984Y0086400D03*
X0359384Y0074400D03*
X0333784Y0079600D03*
X0334984Y0085600D03*
X0317384Y0058400D03*
X0288584Y0065600D03*
X0277384Y0074000D03*
X0272584Y0074000D03*
X0244184Y0043200D03*
X0222184Y0057200D03*
X0349384Y0038800D03*
X0360984Y0111600D03*
X0360984Y0116400D03*
X0348984Y0114800D03*
D33*
X0249016Y0175197D02*
X0217520Y0175197D01*
X0217520Y0165354D01*
X0227362Y0190945D02*
X0249016Y0190945D01*
X0249016Y0175197D01*
X0238071Y0200827D02*
X0238071Y0211732D01*
X0231299Y0218504D01*
X0231299Y0291339D01*
X0241784Y0291339D01*
X0319784Y0291339D01*
X0363189Y0291339D01*
X0367126Y0287402D01*
X0367126Y0274587D01*
X0366949Y0274409D01*
X0228071Y0200827D02*
X0227362Y0200118D01*
X0227362Y0190945D01*
D34*
X0238071Y0200827D02*
X0238984Y0200800D01*
X0247784Y0200800D01*
X0248071Y0200827D01*
X0248184Y0200800D01*
X0259384Y0189600D01*
X0259384Y0184400D01*
X0259764Y0184055D01*
X0221378Y0139764D02*
X0220984Y0140000D01*
X0167384Y0140000D01*
X0156184Y0151200D01*
X0155709Y0151400D01*
X0155384Y0151600D01*
X0144984Y0162000D01*
X0144984Y0164000D01*
X0144764Y0164370D01*
X0133784Y0171600D02*
X0131784Y0173600D01*
X0131384Y0173600D01*
X0131384Y0184000D01*
X0131535Y0184055D01*
X0131384Y0173600D02*
X0125384Y0167600D01*
X0125384Y0164400D01*
X0125079Y0164370D01*
X0095394Y0164370D02*
X0095384Y0164400D01*
X0091784Y0164400D01*
X0091784Y0184000D01*
X0091535Y0184055D01*
X0091784Y0164400D02*
X0086184Y0164400D01*
X0085709Y0164370D01*
X0085384Y0164000D01*
X0081384Y0160000D01*
X0073784Y0160000D01*
X0069784Y0164000D01*
X0066184Y0164000D01*
X0066024Y0164370D01*
X0038071Y0180827D02*
X0037784Y0180800D01*
X0028184Y0180800D01*
X0028071Y0180827D01*
X0027784Y0180400D01*
X0018984Y0171600D01*
X0015384Y0171600D01*
X0007784Y0179200D01*
X0007784Y0189200D01*
X0007638Y0189646D01*
X0007784Y0190000D01*
X0007784Y0229200D01*
X0007638Y0229646D01*
X0007784Y0230000D01*
X0012584Y0234800D01*
X0012584Y0242000D01*
X0012795Y0242047D01*
X0012584Y0242400D01*
X0034184Y0264000D01*
X0037384Y0264000D01*
X0037638Y0264449D01*
X0037784Y0264800D01*
X0037784Y0304400D01*
X0037638Y0304449D01*
X0038184Y0304800D01*
X0040184Y0306800D01*
X0091384Y0306800D01*
X0091535Y0307087D01*
X0131535Y0307087D02*
X0131784Y0307200D01*
X0136584Y0312000D01*
X0143384Y0312000D01*
X0146184Y0309200D01*
X0146184Y0305600D01*
X0159384Y0292400D01*
X0159384Y0280400D01*
X0159449Y0279803D01*
X0159784Y0279600D01*
X0167784Y0271600D01*
X0167784Y0254400D01*
X0182984Y0239200D01*
X0182984Y0225200D01*
X0183307Y0225157D01*
X0172984Y0164400D02*
X0164584Y0164400D01*
X0164449Y0164370D01*
X0172984Y0164400D02*
X0173150Y0164370D01*
X0205918Y0091575D02*
X0205784Y0091200D01*
X0200984Y0086400D01*
X0174184Y0086400D01*
X0169784Y0082000D01*
X0168584Y0082000D01*
X0168307Y0081693D01*
X0189384Y0044400D02*
X0208584Y0044400D01*
X0211784Y0047600D01*
X0224184Y0047600D01*
X0246984Y0024800D01*
X0250984Y0024800D01*
X0250984Y0024606D01*
X0251384Y0024400D01*
X0255784Y0020000D01*
X0274584Y0020000D01*
X0277784Y0023200D01*
X0296584Y0023200D01*
X0297087Y0023465D01*
X0297384Y0023200D01*
X0302184Y0018400D01*
X0315384Y0031600D01*
X0318984Y0031600D01*
X0325784Y0024800D01*
X0343384Y0024800D01*
X0343504Y0024606D01*
X0308584Y0065600D02*
X0312584Y0069600D01*
X0312913Y0069882D01*
X0312184Y0070000D01*
X0306184Y0076000D01*
X0306184Y0097200D01*
X0324184Y0115200D01*
X0335384Y0104000D01*
X0338984Y0104000D01*
X0339331Y0103937D01*
X0334984Y0103600D01*
X0332184Y0100800D01*
X0332184Y0092000D01*
X0334984Y0089200D01*
X0334984Y0085600D01*
X0324184Y0115200D02*
X0320984Y0118400D01*
X0320984Y0122000D01*
X0320591Y0122283D01*
X0320584Y0122400D01*
X0320584Y0135200D01*
X0320433Y0135591D01*
X0339331Y0153937D02*
X0339384Y0154000D01*
X0352584Y0154000D01*
X0362184Y0163600D01*
X0368984Y0163600D01*
X0369331Y0163937D01*
X0419826Y0176456D02*
X0420184Y0176800D01*
X0420184Y0183600D01*
X0426184Y0189600D01*
X0426417Y0189646D01*
X0426584Y0190000D01*
X0426584Y0229200D01*
X0426417Y0229646D01*
X0426184Y0230000D01*
X0421384Y0234800D01*
X0421384Y0240800D01*
X0421260Y0241063D01*
X0420984Y0241200D01*
X0420184Y0241200D01*
X0396984Y0264400D01*
X0396417Y0264449D01*
X0396184Y0264400D01*
X0386984Y0255200D01*
X0368184Y0274000D01*
X0366949Y0274409D01*
X0367126Y0287402D02*
X0368184Y0288000D01*
X0384584Y0304400D01*
X0396184Y0304400D01*
X0396417Y0304449D01*
X0386984Y0255200D02*
X0386184Y0254400D01*
X0386184Y0248400D01*
X0385827Y0248110D01*
X0319882Y0279803D02*
X0319784Y0280000D01*
X0319784Y0291339D01*
X0241784Y0291339D02*
X0241784Y0306800D01*
X0241535Y0307087D01*
X0260827Y0081693D02*
X0260984Y0081600D01*
X0260984Y0080400D01*
X0271384Y0070000D01*
X0291784Y0070000D01*
X0292244Y0069882D01*
X0292584Y0069600D01*
X0296584Y0069600D01*
X0300584Y0065600D01*
X0308584Y0065600D01*
X0302184Y0018400D02*
X0303784Y0016800D01*
X0303784Y0011200D01*
X0304071Y0010827D01*
X0402638Y0051181D02*
X0402984Y0051200D01*
X0402984Y0069600D01*
X0402950Y0069612D01*
X0189384Y0044400D02*
X0169784Y0024800D01*
X0158584Y0024800D01*
X0158465Y0024606D01*
X0158184Y0025200D01*
X0148184Y0035200D01*
X0107384Y0035200D02*
X0066184Y0035200D01*
X0066184Y0024800D01*
X0065945Y0024606D01*
X0066184Y0035200D02*
X0066184Y0064800D01*
X0075784Y0074400D01*
X0075784Y0081600D01*
X0075787Y0081693D01*
X0048228Y0252047D02*
X0048184Y0252400D01*
X0048184Y0254000D01*
X0037784Y0264400D01*
X0037638Y0264449D01*
D35*
X0040184Y0256800D02*
X0040184Y0247600D01*
X0012984Y0220400D01*
X0012984Y0216400D01*
X0016984Y0212400D01*
X0016984Y0175200D01*
X0018584Y0168000D02*
X0010184Y0159600D01*
X0010184Y0056400D01*
X0009843Y0056339D01*
X0023384Y0058800D02*
X0023384Y0072800D01*
X0026584Y0076000D01*
X0029784Y0076000D01*
X0033384Y0079600D01*
X0033384Y0082800D01*
X0036584Y0086000D01*
X0039784Y0086000D01*
X0055784Y0102000D01*
X0070584Y0102000D01*
X0079384Y0098800D02*
X0123784Y0143200D01*
X0122184Y0146400D02*
X0130584Y0146400D01*
X0135384Y0151200D01*
X0135709Y0151330D01*
X0143784Y0149600D02*
X0145384Y0151200D01*
X0145709Y0151365D01*
X0143784Y0149600D02*
X0143784Y0110400D01*
X0148584Y0112000D02*
X0152184Y0115600D01*
X0184184Y0115600D01*
X0190184Y0112400D02*
X0213384Y0135600D01*
X0222984Y0135600D01*
X0225384Y0138000D01*
X0225384Y0141600D01*
X0220184Y0146800D01*
X0200184Y0146800D01*
X0195784Y0151200D01*
X0195709Y0151540D01*
X0190984Y0150000D02*
X0190984Y0153600D01*
X0193784Y0156400D01*
X0200584Y0156400D01*
X0205384Y0151600D01*
X0205709Y0151575D01*
X0204584Y0160400D02*
X0186984Y0178000D01*
X0150984Y0178000D01*
X0146984Y0186000D02*
X0146984Y0168000D01*
X0150184Y0164800D01*
X0150184Y0162800D01*
X0156584Y0156400D01*
X0167384Y0156400D01*
X0170984Y0152800D01*
X0170984Y0149600D01*
X0173784Y0146800D01*
X0187784Y0146800D01*
X0190984Y0150000D01*
X0182184Y0158000D02*
X0175784Y0151600D01*
X0175709Y0151470D01*
X0182184Y0158000D02*
X0218984Y0158000D01*
X0250584Y0126400D01*
X0250584Y0122400D01*
X0250591Y0122283D01*
X0260584Y0126800D02*
X0254584Y0132800D01*
X0254584Y0140000D01*
X0252184Y0142400D01*
X0246184Y0142400D01*
X0231384Y0148000D02*
X0218984Y0160400D01*
X0204584Y0160400D01*
X0215384Y0178000D02*
X0221384Y0184000D01*
X0221535Y0184055D01*
X0221384Y0184400D01*
X0213784Y0192000D01*
X0213784Y0272800D01*
X0221384Y0280400D01*
X0221384Y0306800D01*
X0221535Y0307087D01*
X0211784Y0306800D02*
X0211535Y0307087D01*
X0211784Y0306800D02*
X0211784Y0286400D01*
X0215784Y0282400D01*
X0215784Y0277200D01*
X0212184Y0273600D01*
X0212184Y0184800D01*
X0211784Y0184400D01*
X0211535Y0184055D01*
X0211384Y0184000D01*
X0206984Y0179600D01*
X0199384Y0179600D01*
X0196984Y0182000D01*
X0196984Y0185200D01*
X0188184Y0194000D01*
X0188184Y0200800D01*
X0188071Y0200827D01*
X0178184Y0200800D02*
X0178184Y0194000D01*
X0186984Y0185200D01*
X0186984Y0182000D01*
X0190984Y0178000D01*
X0215384Y0178000D01*
X0201535Y0184055D02*
X0201384Y0184400D01*
X0198184Y0187600D01*
X0198184Y0200800D01*
X0198071Y0200827D01*
X0198184Y0201200D01*
X0201384Y0204400D01*
X0201384Y0306800D01*
X0201535Y0307087D01*
X0219665Y0270591D02*
X0219784Y0270400D01*
X0219784Y0260400D01*
X0222984Y0257200D01*
X0223363Y0256879D01*
X0194584Y0255600D02*
X0194584Y0242400D01*
X0194646Y0242126D01*
X0194584Y0255600D02*
X0179784Y0270400D01*
X0179449Y0270591D01*
X0144984Y0276800D02*
X0144984Y0258800D01*
X0145784Y0258000D01*
X0145784Y0236000D01*
X0126184Y0216400D01*
X0126184Y0173600D01*
X0124184Y0171600D01*
X0117784Y0172800D02*
X0109784Y0164800D01*
X0109784Y0162800D01*
X0102984Y0156000D01*
X0093784Y0156000D01*
X0090584Y0152800D01*
X0090584Y0149200D01*
X0047384Y0106000D01*
X0026184Y0106000D01*
X0023384Y0108800D01*
X0023384Y0146400D01*
X0027784Y0150800D01*
X0028071Y0150827D01*
X0036184Y0156000D02*
X0031384Y0160800D01*
X0028184Y0160800D01*
X0028071Y0160827D01*
X0026584Y0166000D02*
X0029784Y0166000D01*
X0033384Y0169600D01*
X0033384Y0172800D01*
X0036584Y0176000D01*
X0053784Y0176000D01*
X0059784Y0182000D01*
X0059784Y0187600D01*
X0078584Y0206400D01*
X0078584Y0228800D01*
X0081384Y0231600D01*
X0108584Y0231600D01*
X0108584Y0224800D01*
X0114584Y0218800D01*
X0114584Y0195600D01*
X0111784Y0192800D01*
X0111784Y0184400D01*
X0111535Y0184055D01*
X0116184Y0182400D02*
X0116184Y0224400D01*
X0113784Y0226800D01*
X0113531Y0226811D01*
X0118584Y0224800D02*
X0118584Y0304000D01*
X0121384Y0306800D01*
X0121535Y0307087D01*
X0114984Y0303600D02*
X0111784Y0306800D01*
X0111535Y0307087D01*
X0114984Y0303600D02*
X0114984Y0278000D01*
X0108584Y0271600D01*
X0108584Y0231600D01*
X0103531Y0226811D02*
X0103384Y0226800D01*
X0103384Y0212800D01*
X0061784Y0171200D01*
X0061784Y0164400D01*
X0053384Y0156000D01*
X0036184Y0156000D01*
X0038071Y0160827D02*
X0038184Y0161200D01*
X0043784Y0161200D01*
X0062984Y0180400D01*
X0062984Y0186000D01*
X0093384Y0216400D01*
X0093384Y0226800D01*
X0093531Y0226811D01*
X0083531Y0226811D02*
X0083384Y0226800D01*
X0083384Y0208800D01*
X0061384Y0186800D01*
X0061384Y0181200D01*
X0051384Y0171200D01*
X0038184Y0171200D01*
X0038071Y0170827D01*
X0026584Y0166000D02*
X0021784Y0161200D01*
X0021784Y0040400D01*
X0026184Y0036000D01*
X0039384Y0036000D01*
X0046184Y0029200D01*
X0047784Y0029200D01*
X0044984Y0021200D02*
X0062584Y0038800D01*
X0055384Y0041200D02*
X0064184Y0050000D01*
X0064184Y0068000D01*
X0057384Y0072400D02*
X0044184Y0059200D01*
X0044184Y0050400D01*
X0039784Y0046000D01*
X0036584Y0046000D01*
X0031784Y0041200D01*
X0028184Y0041200D01*
X0028071Y0040827D01*
X0038071Y0040827D02*
X0038184Y0041200D01*
X0055384Y0041200D01*
X0039784Y0061200D02*
X0059784Y0081200D01*
X0060184Y0086400D02*
X0068184Y0086400D01*
X0072584Y0090800D01*
X0075784Y0090800D01*
X0075919Y0091121D01*
X0080584Y0092400D02*
X0080584Y0089200D01*
X0077784Y0086400D01*
X0070584Y0086400D01*
X0066184Y0082000D01*
X0065945Y0081693D01*
X0060184Y0086400D02*
X0039784Y0066000D01*
X0036584Y0066000D01*
X0031784Y0061200D01*
X0028184Y0061200D01*
X0028071Y0060827D01*
X0029384Y0056000D02*
X0026184Y0056000D01*
X0023384Y0058800D01*
X0029384Y0056000D02*
X0034184Y0051200D01*
X0037784Y0051200D01*
X0038071Y0050827D01*
X0038071Y0060827D02*
X0038184Y0061200D01*
X0039784Y0061200D01*
X0038071Y0080827D02*
X0038184Y0081200D01*
X0038184Y0082000D01*
X0054984Y0098800D01*
X0079384Y0098800D01*
X0080584Y0092400D02*
X0105984Y0117800D01*
X0122184Y0101600D01*
X0117384Y0101600D02*
X0110984Y0095200D01*
X0110984Y0084800D01*
X0110184Y0081600D02*
X0108984Y0081600D01*
X0100584Y0090000D01*
X0100584Y0093200D01*
X0095984Y0097800D01*
X0100584Y0102400D01*
X0095984Y0097800D02*
X0090584Y0092400D01*
X0090584Y0086800D01*
X0085784Y0082000D01*
X0085630Y0081693D01*
X0096184Y0090800D02*
X0095919Y0091191D01*
X0096184Y0090800D02*
X0108984Y0078000D01*
X0110184Y0081600D02*
X0117384Y0074400D01*
X0117384Y0071600D01*
X0120584Y0070000D02*
X0110584Y0060000D01*
X0110584Y0033600D01*
X0101784Y0024800D01*
X0085784Y0024800D01*
X0085630Y0024606D01*
X0098184Y0018800D02*
X0098184Y0011200D01*
X0098071Y0010827D01*
X0098184Y0018800D02*
X0112184Y0032800D01*
X0112184Y0059200D01*
X0130584Y0077600D01*
X0130584Y0092800D01*
X0140584Y0102800D01*
X0140584Y0164400D01*
X0136984Y0168000D01*
X0136984Y0186000D01*
X0142184Y0191200D01*
X0142184Y0205600D01*
X0141784Y0206000D01*
X0141784Y0226000D01*
X0141732Y0226142D01*
X0143784Y0222400D02*
X0148184Y0226800D01*
X0148184Y0300400D01*
X0141784Y0306800D01*
X0141535Y0307087D01*
X0139449Y0270591D02*
X0139784Y0270400D01*
X0141384Y0268800D01*
X0141384Y0256400D01*
X0141732Y0256142D01*
X0143784Y0222400D02*
X0143784Y0190400D01*
X0141784Y0188400D01*
X0141784Y0184400D01*
X0141535Y0184055D01*
X0146984Y0186000D02*
X0152184Y0191200D01*
X0152184Y0208000D01*
X0173384Y0223600D02*
X0173384Y0224800D01*
X0173307Y0225157D01*
X0173384Y0223600D02*
X0184184Y0212800D01*
X0188184Y0212800D01*
X0188228Y0212598D01*
X0178184Y0200800D02*
X0178071Y0200827D01*
X0186984Y0173200D02*
X0163384Y0173200D01*
X0154584Y0164400D01*
X0154449Y0164370D01*
X0166584Y0136400D02*
X0146984Y0116800D01*
X0148584Y0104800D02*
X0160184Y0104800D01*
X0167784Y0112400D01*
X0190184Y0112400D01*
X0194984Y0112400D02*
X0203784Y0112400D01*
X0208184Y0108000D01*
X0274984Y0108000D01*
X0288984Y0122000D01*
X0290584Y0122000D01*
X0290591Y0122283D01*
X0300584Y0122000D02*
X0300591Y0122283D01*
X0300584Y0122000D02*
X0283384Y0104800D01*
X0288584Y0101600D02*
X0274584Y0101600D01*
X0278984Y0092400D02*
X0264984Y0106400D01*
X0207384Y0106400D01*
X0202984Y0110800D01*
X0198184Y0110800D01*
X0191784Y0104400D01*
X0162184Y0104400D01*
X0158984Y0101200D01*
X0145784Y0101200D01*
X0136184Y0091600D01*
X0135919Y0091331D01*
X0130584Y0102800D02*
X0120584Y0092800D01*
X0120584Y0070000D01*
X0132584Y0074800D02*
X0181784Y0074800D01*
X0183384Y0076400D01*
X0202184Y0076400D01*
X0203784Y0073200D02*
X0198984Y0073200D01*
X0174984Y0049200D01*
X0168984Y0049200D01*
X0164984Y0053200D02*
X0184984Y0073200D01*
X0181784Y0077200D02*
X0136984Y0077200D01*
X0136184Y0078000D01*
X0144984Y0071600D02*
X0168984Y0071600D01*
X0168984Y0066800D02*
X0152184Y0066800D01*
X0148984Y0082000D02*
X0148984Y0088400D01*
X0146184Y0091200D01*
X0145918Y0091366D01*
X0156184Y0098000D02*
X0160584Y0093600D01*
X0160584Y0084000D01*
X0158584Y0082000D01*
X0158465Y0081693D01*
X0165918Y0091436D02*
X0166184Y0091600D01*
X0177384Y0102800D01*
X0203784Y0102800D01*
X0244184Y0062400D01*
X0311384Y0062400D01*
X0316984Y0068000D01*
X0316984Y0071600D01*
X0310984Y0077600D01*
X0310984Y0092000D01*
X0310591Y0092283D01*
X0294984Y0095200D02*
X0310184Y0110400D01*
X0310584Y0122000D02*
X0310591Y0122283D01*
X0310584Y0122000D02*
X0308984Y0122000D01*
X0288584Y0101600D01*
X0290591Y0092283D02*
X0290584Y0092000D01*
X0272584Y0074000D01*
X0277384Y0074000D02*
X0280984Y0074000D01*
X0294984Y0088000D01*
X0294984Y0095200D01*
X0280584Y0092400D02*
X0280591Y0092283D01*
X0280584Y0092400D02*
X0278984Y0092400D01*
X0272184Y0115200D02*
X0234584Y0115200D01*
X0236584Y0104800D02*
X0204184Y0104800D01*
X0201384Y0107600D01*
X0198184Y0099600D02*
X0194184Y0099600D01*
X0186184Y0091600D01*
X0185918Y0091505D01*
X0185784Y0081200D02*
X0181784Y0077200D01*
X0185784Y0081200D02*
X0202184Y0081200D01*
X0203784Y0073200D02*
X0210584Y0080000D01*
X0210584Y0093600D01*
X0204584Y0099600D01*
X0198184Y0099600D01*
X0213583Y0073071D02*
X0213784Y0072800D01*
X0213784Y0060800D01*
X0235784Y0038800D01*
X0349384Y0038800D01*
X0363189Y0024606D02*
X0363384Y0024400D01*
X0376184Y0024400D01*
X0390984Y0009600D01*
X0404184Y0009600D01*
X0411784Y0017200D01*
X0411784Y0094000D01*
X0412584Y0094800D01*
X0412584Y0116400D01*
X0401784Y0127200D01*
X0401575Y0127598D01*
X0402984Y0132400D02*
X0399784Y0132400D01*
X0393384Y0126000D01*
X0393384Y0122800D01*
X0388984Y0122400D02*
X0393784Y0117600D01*
X0401384Y0117600D01*
X0401575Y0117598D01*
X0401784Y0117200D01*
X0410984Y0108000D01*
X0410984Y0095600D01*
X0408584Y0093200D01*
X0408584Y0066800D01*
X0418184Y0071600D02*
X0418184Y0140400D01*
X0412984Y0145600D01*
X0412984Y0160000D01*
X0411384Y0161600D01*
X0411384Y0187200D01*
X0400984Y0197600D01*
X0365784Y0197600D01*
X0363384Y0195200D01*
X0335784Y0195200D01*
X0330984Y0200000D01*
X0316584Y0200000D01*
X0304184Y0212400D01*
X0295784Y0212400D01*
X0295512Y0212598D01*
X0295384Y0212800D01*
X0295384Y0214000D01*
X0284584Y0224800D01*
X0284584Y0226000D01*
X0284528Y0226142D01*
X0272984Y0230400D02*
X0296584Y0230400D01*
X0325384Y0201600D01*
X0401784Y0201600D01*
X0415784Y0187600D01*
X0415784Y0162000D01*
X0417784Y0160000D01*
X0414584Y0160800D02*
X0414584Y0146400D01*
X0421384Y0139600D01*
X0421384Y0110800D01*
X0414984Y0118800D02*
X0411384Y0122400D01*
X0411384Y0151600D01*
X0409784Y0153200D01*
X0409784Y0186400D01*
X0400184Y0196000D01*
X0366584Y0196000D01*
X0364184Y0193600D01*
X0332584Y0193600D01*
X0342184Y0198400D02*
X0364184Y0198400D01*
X0364984Y0199200D01*
X0401784Y0199200D01*
X0414184Y0186800D01*
X0414184Y0161200D01*
X0414584Y0160800D01*
X0406184Y0155600D02*
X0406184Y0187600D01*
X0399384Y0194400D01*
X0367384Y0194400D01*
X0363384Y0190400D01*
X0323784Y0190400D01*
X0305784Y0208400D01*
X0280984Y0208400D01*
X0275384Y0214000D01*
X0272184Y0217200D02*
X0270184Y0219200D01*
X0270184Y0227600D01*
X0272984Y0230400D01*
X0272184Y0217200D02*
X0272184Y0198000D01*
X0290184Y0180000D01*
X0290184Y0165600D01*
X0290433Y0165591D01*
X0300433Y0165591D02*
X0300584Y0165600D01*
X0300584Y0190400D01*
X0305384Y0204000D02*
X0337984Y0171400D01*
X0320584Y0154000D01*
X0290184Y0154000D01*
X0271784Y0135600D01*
X0270584Y0135600D01*
X0270433Y0135591D01*
X0261784Y0135600D02*
X0281784Y0155600D01*
X0308984Y0155600D01*
X0316184Y0162800D01*
X0316184Y0172400D01*
X0322984Y0179200D01*
X0324584Y0182400D02*
X0318584Y0182400D01*
X0304584Y0168400D01*
X0304584Y0161200D01*
X0300584Y0157200D01*
X0274184Y0157200D01*
X0264984Y0148000D01*
X0231384Y0148000D01*
X0232984Y0151200D02*
X0263384Y0151200D01*
X0263384Y0156000D02*
X0269384Y0156000D01*
X0274584Y0161200D01*
X0274584Y0170000D01*
X0281384Y0176800D01*
X0281384Y0179200D01*
X0286184Y0179200D02*
X0280584Y0173600D01*
X0280584Y0165600D01*
X0280433Y0165591D01*
X0270433Y0165591D02*
X0270184Y0165600D01*
X0269784Y0166000D01*
X0269784Y0184000D01*
X0269764Y0184055D01*
X0244584Y0169600D02*
X0229784Y0154800D01*
X0260433Y0135591D02*
X0260584Y0135600D01*
X0261784Y0135600D01*
X0260584Y0126800D02*
X0260584Y0122400D01*
X0260591Y0122283D01*
X0272184Y0115200D02*
X0278984Y0122000D01*
X0280584Y0122000D01*
X0280591Y0122283D01*
X0280433Y0135591D02*
X0280584Y0135600D01*
X0281784Y0135600D01*
X0298584Y0152400D01*
X0328984Y0152400D01*
X0336184Y0159600D01*
X0355384Y0159600D01*
X0363784Y0168000D01*
X0386184Y0168000D01*
X0386584Y0167600D01*
X0386811Y0167598D01*
X0391384Y0169600D02*
X0391384Y0162000D01*
X0386984Y0157600D01*
X0386811Y0157598D01*
X0385384Y0152800D02*
X0396984Y0152800D01*
X0401384Y0157200D01*
X0401575Y0157598D01*
X0401384Y0157600D01*
X0396584Y0162400D01*
X0396584Y0189600D01*
X0396417Y0189646D01*
X0382984Y0180400D02*
X0382874Y0180039D01*
X0382984Y0180400D02*
X0394584Y0168800D01*
X0394584Y0159600D01*
X0400184Y0152800D02*
X0394984Y0147600D01*
X0386984Y0147600D01*
X0386811Y0147598D01*
X0384184Y0143600D02*
X0384984Y0142800D01*
X0396984Y0142800D01*
X0401384Y0147200D01*
X0401575Y0147598D01*
X0400184Y0152800D02*
X0403384Y0152800D01*
X0406184Y0155600D01*
X0406984Y0151200D02*
X0406984Y0136400D01*
X0402984Y0132400D01*
X0401384Y0137200D02*
X0401575Y0137598D01*
X0401384Y0137200D02*
X0396984Y0132800D01*
X0384984Y0132800D01*
X0384184Y0133600D01*
X0369384Y0133600D01*
X0369331Y0133937D01*
X0368984Y0133600D01*
X0367784Y0133600D01*
X0356184Y0122000D01*
X0356184Y0088800D01*
X0362984Y0082000D01*
X0363189Y0081693D01*
X0363384Y0081600D01*
X0368184Y0081600D01*
X0396984Y0052800D01*
X0396984Y0032400D01*
X0402584Y0026800D01*
X0402584Y0014000D01*
X0402638Y0013780D01*
X0392495Y0032750D02*
X0392184Y0032800D01*
X0382184Y0032800D01*
X0343784Y0071200D01*
X0343784Y0081600D01*
X0343504Y0081693D01*
X0343784Y0082000D01*
X0353784Y0092000D01*
X0353784Y0127600D01*
X0369384Y0143200D01*
X0369331Y0143937D01*
X0369384Y0143600D01*
X0384184Y0143600D01*
X0382184Y0149600D02*
X0385384Y0152800D01*
X0382184Y0149600D02*
X0305784Y0149600D01*
X0291784Y0135600D01*
X0290584Y0135600D01*
X0290433Y0135591D01*
X0307784Y0146400D02*
X0320984Y0146400D01*
X0332184Y0135200D01*
X0332184Y0132400D01*
X0336584Y0128000D01*
X0343784Y0128000D01*
X0348984Y0122800D01*
X0348984Y0114800D01*
X0352184Y0122000D02*
X0352184Y0098000D01*
X0340584Y0086400D01*
X0339784Y0086400D01*
X0338184Y0084800D01*
X0338184Y0084000D01*
X0333784Y0079600D01*
X0328984Y0066400D02*
X0320584Y0058000D01*
X0320584Y0056800D01*
X0318984Y0055200D01*
X0296184Y0055200D01*
X0291384Y0060000D01*
X0224984Y0060000D01*
X0222184Y0057200D01*
X0213583Y0043071D02*
X0213384Y0042800D01*
X0209784Y0042800D01*
X0178184Y0011200D01*
X0178071Y0010827D01*
X0180584Y0003600D02*
X0187784Y0010800D01*
X0188071Y0010827D01*
X0180584Y0003600D02*
X0048184Y0003600D01*
X0043384Y0008400D01*
X0043384Y0012000D01*
X0039784Y0015600D01*
X0026584Y0015600D01*
X0023384Y0018800D01*
X0023384Y0019200D01*
X0016584Y0026000D01*
X0010184Y0026000D01*
X0009843Y0026339D01*
X0038071Y0020827D02*
X0038184Y0021200D01*
X0044984Y0021200D01*
X0086184Y0064800D02*
X0101784Y0080400D01*
X0080984Y0105200D02*
X0122184Y0146400D01*
X0120984Y0150000D02*
X0120984Y0184400D01*
X0121535Y0184055D01*
X0121384Y0184400D01*
X0121384Y0222000D01*
X0118584Y0224800D01*
X0101384Y0245200D02*
X0101142Y0245079D01*
X0101384Y0245200D02*
X0101384Y0256800D01*
X0101614Y0256890D01*
X0101384Y0257200D01*
X0101384Y0268400D01*
X0099384Y0270400D01*
X0099232Y0270591D01*
X0071384Y0258400D02*
X0059384Y0270400D01*
X0059232Y0270591D01*
X0071384Y0258400D02*
X0071384Y0257200D01*
X0071614Y0256890D01*
X0052584Y0243600D02*
X0052584Y0232800D01*
X0048584Y0228800D01*
X0048584Y0224000D01*
X0055784Y0216800D01*
X0037784Y0229600D02*
X0037784Y0190000D01*
X0037638Y0189646D01*
X0030984Y0190800D02*
X0030984Y0202800D01*
X0034584Y0206400D01*
X0028584Y0205600D02*
X0016184Y0218000D01*
X0031784Y0228800D02*
X0031784Y0231600D01*
X0046584Y0246400D01*
X0049784Y0246400D01*
X0052584Y0243600D01*
X0048228Y0242047D02*
X0048184Y0242000D01*
X0048184Y0240400D01*
X0037784Y0230000D01*
X0037638Y0229646D01*
X0037784Y0229600D01*
X0012795Y0252047D02*
X0012584Y0252400D01*
X0012584Y0259600D01*
X0007784Y0264400D01*
X0007638Y0264449D01*
X0007784Y0264800D01*
X0007784Y0304400D01*
X0007638Y0304449D01*
X0008184Y0304400D01*
X0053995Y0316800D02*
X0240984Y0316800D01*
X0262184Y0295600D01*
X0259665Y0270591D02*
X0259784Y0270000D01*
X0253384Y0263600D01*
X0253384Y0257200D01*
X0253363Y0256879D01*
X0259784Y0270400D02*
X0259665Y0270591D01*
X0259784Y0270400D02*
X0291784Y0270400D01*
X0308584Y0253600D01*
X0309384Y0253600D01*
X0309420Y0253278D01*
X0300184Y0270400D02*
X0299882Y0270591D01*
X0300184Y0270400D02*
X0320984Y0270400D01*
X0353784Y0237600D01*
X0363384Y0237600D01*
X0363425Y0237205D01*
X0364409Y0250984D02*
X0364184Y0251200D01*
X0359384Y0251200D01*
X0340184Y0270400D01*
X0339882Y0270591D01*
X0309384Y0223600D02*
X0306984Y0223600D01*
X0274584Y0256000D01*
X0274528Y0256142D01*
X0309384Y0223600D02*
X0309420Y0223278D01*
X0324584Y0182400D02*
X0326184Y0180800D01*
X0326184Y0177600D01*
X0320584Y0172000D01*
X0320584Y0165600D01*
X0320433Y0165591D01*
X0337984Y0171400D02*
X0338984Y0172400D01*
X0388584Y0172400D01*
X0391384Y0169600D01*
X0386184Y0128000D02*
X0364584Y0128000D01*
X0357784Y0121200D01*
X0357784Y0096800D01*
X0368184Y0086400D01*
X0368984Y0086400D01*
X0369784Y0074400D02*
X0392984Y0051200D01*
X0392638Y0051181D01*
X0369784Y0074400D02*
X0359384Y0074400D01*
X0380184Y0092800D02*
X0369384Y0103600D01*
X0369331Y0103937D01*
X0366584Y0108000D02*
X0376184Y0108000D01*
X0386584Y0097600D01*
X0386811Y0097598D01*
X0380184Y0092800D02*
X0403384Y0092800D01*
X0407784Y0097200D01*
X0386811Y0107598D02*
X0386584Y0107600D01*
X0376184Y0118000D01*
X0364584Y0118000D01*
X0362984Y0116400D01*
X0360984Y0116400D01*
X0360984Y0111600D02*
X0362984Y0111600D01*
X0366584Y0108000D01*
X0369384Y0123600D02*
X0369331Y0123937D01*
X0369384Y0123600D02*
X0384184Y0123600D01*
X0385384Y0122400D01*
X0388984Y0122400D01*
X0386811Y0127598D02*
X0386584Y0127600D01*
X0386184Y0128000D01*
X0352184Y0122000D02*
X0340584Y0133600D01*
X0339384Y0133600D01*
X0339331Y0133937D01*
X0332184Y0127600D02*
X0332184Y0122400D01*
X0338984Y0115600D01*
X0338984Y0114000D01*
X0339331Y0113937D01*
X0330584Y0114000D02*
X0328984Y0115600D01*
X0328984Y0133600D01*
X0328984Y0102800D02*
X0328984Y0066400D01*
X0307087Y0043465D02*
X0306984Y0043200D01*
X0244184Y0043200D01*
X0268584Y0065600D02*
X0288584Y0065600D01*
X0268584Y0065600D02*
X0252584Y0081600D01*
X0250984Y0081600D01*
X0250984Y0081693D01*
X0250591Y0092283D02*
X0250584Y0092400D01*
X0248984Y0092400D01*
X0236584Y0104800D01*
X0178584Y0071600D02*
X0138584Y0031600D01*
X0113384Y0029200D02*
X0113384Y0015600D01*
X0117784Y0011200D01*
X0118071Y0010827D01*
X0130584Y0102800D02*
X0130584Y0118400D01*
X0110584Y0122400D02*
X0105984Y0117800D01*
X0108984Y0144800D02*
X0093784Y0144800D01*
X0040184Y0091200D01*
X0038184Y0091200D01*
X0038071Y0090827D01*
X0036584Y0096000D02*
X0042584Y0096000D01*
X0092984Y0146400D01*
X0100584Y0146400D01*
X0105384Y0151200D01*
X0105709Y0151226D01*
X0108984Y0144800D02*
X0115384Y0151200D01*
X0115709Y0151261D01*
X0120984Y0150000D02*
X0079784Y0108800D01*
X0062584Y0108800D01*
X0059384Y0105200D02*
X0080984Y0105200D01*
X0057384Y0126000D02*
X0080984Y0149600D01*
X0080984Y0153200D01*
X0087784Y0160000D01*
X0096984Y0160000D01*
X0101384Y0164400D01*
X0101384Y0167600D01*
X0116184Y0182400D01*
X0117784Y0178000D02*
X0117784Y0172800D01*
X0105784Y0179600D02*
X0096184Y0170000D01*
X0085709Y0151156D02*
X0085384Y0150800D01*
X0050584Y0116000D01*
X0036584Y0116000D01*
X0031784Y0111200D01*
X0028184Y0111200D01*
X0028071Y0110827D01*
X0036584Y0096000D02*
X0031784Y0091200D01*
X0028184Y0091200D01*
X0028071Y0090827D01*
X0028071Y0120827D02*
X0028184Y0121200D01*
X0031784Y0121200D01*
X0036584Y0126000D01*
X0057384Y0126000D01*
X0040184Y0146000D02*
X0036584Y0146000D01*
X0033384Y0142800D01*
X0033384Y0139600D01*
X0028184Y0134400D01*
X0028184Y0131200D01*
X0028071Y0130827D01*
X0040184Y0146000D02*
X0046984Y0152800D01*
X0385827Y0238110D02*
X0386184Y0238000D01*
X0388184Y0238000D01*
X0396184Y0230000D01*
X0396417Y0229646D01*
X0421260Y0251063D02*
X0421384Y0251200D01*
X0421384Y0259600D01*
X0426184Y0264400D01*
X0426417Y0264449D01*
X0426584Y0264800D01*
X0426584Y0304400D01*
X0426417Y0304449D01*
D36*
X0053995Y0316800D03*
D37*
X0410433Y0211614D02*
X0410433Y0210630D01*
M02*
