G75*
%MOIN*%
%OFA0B0*%
%FSLAX25Y25*%
%IPPOS*%
%LPD*%
%AMOC8*
5,1,8,0,0,1.08239X$1,22.5*
%
%ADD10C,0.13398*%
%ADD11C,0.06546*%
%ADD12OC8,0.07400*%
%ADD13R,0.07600X0.07600*%
%ADD14C,0.07600*%
%ADD15C,0.06400*%
%ADD16R,0.07200X0.07200*%
%ADD17C,0.07200*%
%ADD18R,0.07137X0.07137*%
%ADD19R,0.13461X0.13461*%
%ADD20OC8,0.06400*%
%ADD21R,0.07400X0.07400*%
%ADD22C,0.07400*%
%ADD23R,0.06743X0.06743*%
%ADD24C,0.07200*%
%ADD25C,0.08674*%
%ADD26OC8,0.07800*%
%ADD27OC8,0.09400*%
%ADD28C,0.08600*%
%ADD29C,0.00500*%
D10*
X0051358Y0011516D03*
X0032480Y0250984D03*
X0032480Y0316929D03*
X0346542Y0011606D03*
X0402559Y0247047D03*
X0402559Y0316929D03*
D11*
X0298071Y0203700D02*
X0298071Y0197954D01*
X0288071Y0197954D02*
X0288071Y0203700D01*
X0278071Y0203700D02*
X0278071Y0197954D01*
X0268071Y0197954D02*
X0268071Y0203700D01*
X0258071Y0203700D02*
X0258071Y0197954D01*
X0248071Y0197954D02*
X0248071Y0203700D01*
X0238071Y0203700D02*
X0238071Y0197954D01*
X0228071Y0197954D02*
X0228071Y0203700D01*
X0208071Y0203700D02*
X0208071Y0197954D01*
X0198071Y0197954D02*
X0198071Y0203700D01*
X0188071Y0203700D02*
X0188071Y0197954D01*
X0178071Y0197954D02*
X0178071Y0203700D01*
X0168071Y0203700D02*
X0168071Y0197954D01*
X0158071Y0197954D02*
X0158071Y0203700D01*
X0148071Y0203700D02*
X0148071Y0197954D01*
X0138071Y0197954D02*
X0138071Y0203700D01*
X0138071Y0013700D02*
X0138071Y0007954D01*
X0128071Y0007954D02*
X0128071Y0013700D01*
X0118071Y0013700D02*
X0118071Y0007954D01*
X0108071Y0007954D02*
X0108071Y0013700D01*
X0098071Y0013700D02*
X0098071Y0007954D01*
X0088071Y0007954D02*
X0088071Y0013700D01*
X0078071Y0013700D02*
X0078071Y0007954D01*
X0068071Y0007954D02*
X0068071Y0013700D01*
X0158071Y0013700D02*
X0158071Y0007954D01*
X0168071Y0007954D02*
X0168071Y0013700D01*
X0178071Y0013700D02*
X0178071Y0007954D01*
X0188071Y0007954D02*
X0188071Y0013700D01*
X0198071Y0013700D02*
X0198071Y0007954D01*
X0208071Y0007954D02*
X0208071Y0013700D01*
X0218071Y0013700D02*
X0218071Y0007954D01*
X0228071Y0007954D02*
X0228071Y0013700D01*
X0244071Y0013700D02*
X0244071Y0007954D01*
X0254071Y0007954D02*
X0254071Y0013700D01*
X0264071Y0013700D02*
X0264071Y0007954D01*
X0274071Y0007954D02*
X0274071Y0013700D01*
X0284071Y0013700D02*
X0284071Y0007954D01*
X0294071Y0007954D02*
X0294071Y0013700D01*
X0304071Y0013700D02*
X0304071Y0007954D01*
X0314071Y0007954D02*
X0314071Y0013700D01*
X0324071Y0013700D02*
X0324071Y0007954D01*
X0334071Y0007954D02*
X0334071Y0013700D01*
D12*
X0038071Y0010827D03*
X0038071Y0020827D03*
X0028071Y0020827D03*
X0028071Y0010827D03*
X0028071Y0030827D03*
X0028071Y0040827D03*
X0028071Y0050827D03*
X0028071Y0060827D03*
X0028071Y0070827D03*
X0038071Y0070827D03*
X0038071Y0060827D03*
X0038071Y0050827D03*
X0038071Y0040827D03*
X0038071Y0030827D03*
X0038071Y0080827D03*
X0038071Y0090827D03*
X0038071Y0100827D03*
X0038071Y0110827D03*
X0028071Y0110827D03*
X0028071Y0100827D03*
X0028071Y0090827D03*
X0028071Y0080827D03*
X0028071Y0120827D03*
X0028071Y0130827D03*
X0028071Y0140827D03*
X0028071Y0150827D03*
X0028071Y0160827D03*
X0038071Y0160827D03*
X0038071Y0150827D03*
X0038071Y0140827D03*
X0038071Y0130827D03*
X0038071Y0120827D03*
X0038071Y0170827D03*
X0038071Y0180827D03*
X0028071Y0180827D03*
X0028071Y0170827D03*
D13*
G36*
X0059705Y0094865D02*
X0059732Y0087266D01*
X0052133Y0087239D01*
X0052106Y0094838D01*
X0059705Y0094865D01*
G37*
D14*
X0065919Y0091086D03*
X0075919Y0091121D03*
X0085919Y0091156D03*
X0095919Y0091191D03*
X0105919Y0091226D03*
X0115919Y0091261D03*
X0125919Y0091296D03*
X0135919Y0091331D03*
X0145918Y0091366D03*
X0155918Y0091401D03*
X0165918Y0091436D03*
X0175918Y0091470D03*
X0185918Y0091505D03*
X0195918Y0091540D03*
X0205918Y0091575D03*
X0205709Y0151575D03*
X0195709Y0151540D03*
X0185709Y0151505D03*
X0175709Y0151470D03*
X0165709Y0151435D03*
X0155709Y0151400D03*
X0145709Y0151365D03*
X0135709Y0151330D03*
X0125709Y0151296D03*
X0115709Y0151261D03*
X0105709Y0151226D03*
X0095709Y0151191D03*
X0085709Y0151156D03*
X0075709Y0151121D03*
X0065710Y0151086D03*
X0055710Y0151051D03*
D15*
X0068814Y0256890D02*
X0074414Y0256890D01*
X0098814Y0256890D02*
X0104414Y0256890D01*
X0153307Y0255157D02*
X0153307Y0260757D01*
X0163307Y0260757D02*
X0163307Y0255157D01*
X0173307Y0255157D02*
X0173307Y0260757D01*
X0183307Y0260757D02*
X0183307Y0255157D01*
X0183307Y0225157D02*
X0183307Y0219557D01*
X0173307Y0219557D02*
X0173307Y0225157D01*
X0163307Y0225157D02*
X0163307Y0219557D01*
X0153307Y0219557D02*
X0153307Y0225157D01*
X0220563Y0256879D02*
X0226163Y0256879D01*
X0250563Y0256879D02*
X0256163Y0256879D01*
X0264528Y0256142D02*
X0264528Y0261742D01*
X0274528Y0261742D02*
X0274528Y0256142D01*
X0284528Y0256142D02*
X0284528Y0261742D01*
X0294528Y0261742D02*
X0294528Y0256142D01*
X0294528Y0226142D02*
X0294528Y0220542D01*
X0284528Y0220542D02*
X0284528Y0226142D01*
X0274528Y0226142D02*
X0274528Y0220542D01*
X0264528Y0220542D02*
X0264528Y0226142D01*
X0260433Y0168391D02*
X0260433Y0162791D01*
X0270433Y0162791D02*
X0270433Y0168391D01*
X0280433Y0168391D02*
X0280433Y0162791D01*
X0290433Y0162791D02*
X0290433Y0168391D01*
X0300433Y0168391D02*
X0300433Y0162791D01*
X0310433Y0162791D02*
X0310433Y0168391D01*
X0320433Y0168391D02*
X0320433Y0162791D01*
X0336531Y0163937D02*
X0342131Y0163937D01*
X0342131Y0153937D02*
X0336531Y0153937D01*
X0336531Y0143937D02*
X0342131Y0143937D01*
X0342131Y0133937D02*
X0336531Y0133937D01*
X0336531Y0123937D02*
X0342131Y0123937D01*
X0342131Y0113937D02*
X0336531Y0113937D01*
X0336531Y0103937D02*
X0342131Y0103937D01*
X0342131Y0093937D02*
X0336531Y0093937D01*
X0320591Y0095083D02*
X0320591Y0089483D01*
X0310591Y0089483D02*
X0310591Y0095083D01*
X0300591Y0095083D02*
X0300591Y0089483D01*
X0290591Y0089483D02*
X0290591Y0095083D01*
X0280591Y0095083D02*
X0280591Y0089483D01*
X0270591Y0089483D02*
X0270591Y0095083D01*
X0260591Y0095083D02*
X0260591Y0089483D01*
X0250591Y0089483D02*
X0250591Y0095083D01*
X0240591Y0095083D02*
X0240591Y0089483D01*
X0230591Y0089483D02*
X0230591Y0095083D01*
X0230591Y0119483D02*
X0230591Y0125083D01*
X0240591Y0125083D02*
X0240591Y0119483D01*
X0250591Y0119483D02*
X0250591Y0125083D01*
X0250433Y0132791D02*
X0250433Y0138391D01*
X0260433Y0138391D02*
X0260433Y0132791D01*
X0260591Y0125083D02*
X0260591Y0119483D01*
X0270591Y0119483D02*
X0270591Y0125083D01*
X0270433Y0132791D02*
X0270433Y0138391D01*
X0280433Y0138391D02*
X0280433Y0132791D01*
X0280591Y0125083D02*
X0280591Y0119483D01*
X0290591Y0119483D02*
X0290591Y0125083D01*
X0290433Y0132791D02*
X0290433Y0138391D01*
X0300433Y0138391D02*
X0300433Y0132791D01*
X0300591Y0125083D02*
X0300591Y0119483D01*
X0310591Y0119483D02*
X0310591Y0125083D01*
X0310433Y0132791D02*
X0310433Y0138391D01*
X0320433Y0138391D02*
X0320433Y0132791D01*
X0320591Y0125083D02*
X0320591Y0119483D01*
X0366531Y0123937D02*
X0372131Y0123937D01*
X0372131Y0113937D02*
X0366531Y0113937D01*
X0366531Y0103937D02*
X0372131Y0103937D01*
X0372131Y0093937D02*
X0366531Y0093937D01*
X0366531Y0133937D02*
X0372131Y0133937D01*
X0372131Y0143937D02*
X0366531Y0143937D01*
X0366531Y0153937D02*
X0372131Y0153937D01*
X0372131Y0163937D02*
X0366531Y0163937D01*
X0250433Y0162791D02*
X0250433Y0168391D01*
D16*
X0091535Y0184055D03*
X0091535Y0307087D03*
D17*
X0101535Y0307087D03*
X0111535Y0307087D03*
X0121535Y0307087D03*
X0131535Y0307087D03*
X0141535Y0307087D03*
X0151535Y0307087D03*
X0161535Y0307087D03*
X0171535Y0307087D03*
X0181535Y0307087D03*
X0191535Y0307087D03*
X0201535Y0307087D03*
X0211535Y0307087D03*
X0221535Y0307087D03*
X0231535Y0307087D03*
X0241535Y0307087D03*
X0241535Y0184055D03*
X0231535Y0184055D03*
X0221535Y0184055D03*
X0211535Y0184055D03*
X0201535Y0184055D03*
X0191535Y0184055D03*
X0181535Y0184055D03*
X0171535Y0184055D03*
X0161535Y0184055D03*
X0151535Y0184055D03*
X0141535Y0184055D03*
X0131535Y0184055D03*
X0121535Y0184055D03*
X0111535Y0184055D03*
X0101535Y0184055D03*
D18*
X0085630Y0081693D03*
X0075787Y0081693D03*
X0065945Y0081693D03*
X0065945Y0024606D03*
X0085630Y0024606D03*
X0158465Y0024606D03*
X0178150Y0024606D03*
X0178150Y0081693D03*
X0168307Y0081693D03*
X0158465Y0081693D03*
X0250984Y0081693D03*
X0260827Y0081693D03*
X0270669Y0081693D03*
X0270669Y0024606D03*
X0250984Y0024606D03*
X0343504Y0024606D03*
X0363189Y0024606D03*
X0363189Y0081693D03*
X0353346Y0081693D03*
X0343504Y0081693D03*
D19*
X0329331Y0052165D03*
X0284843Y0052165D03*
X0236811Y0052165D03*
X0192323Y0052165D03*
X0144291Y0052165D03*
X0099803Y0052165D03*
X0051772Y0052165D03*
X0377362Y0052165D03*
D20*
X0009843Y0026339D03*
X0009843Y0056339D03*
X0056024Y0164370D03*
X0066024Y0164370D03*
X0075709Y0164370D03*
X0085709Y0164370D03*
X0095394Y0164370D03*
X0105394Y0164370D03*
X0115079Y0164370D03*
X0125079Y0164370D03*
X0134764Y0164370D03*
X0144764Y0164370D03*
X0154449Y0164370D03*
X0164449Y0164370D03*
X0173150Y0164370D03*
X0183150Y0164370D03*
X0221378Y0139764D03*
X0231378Y0139764D03*
X0259764Y0184055D03*
X0269764Y0184055D03*
X0265512Y0212598D03*
X0295512Y0212598D03*
X0309420Y0223278D03*
X0333425Y0237205D03*
X0334409Y0250984D03*
X0309420Y0253278D03*
X0364409Y0250984D03*
X0363425Y0237205D03*
X0385827Y0238110D03*
X0385827Y0248110D03*
X0421260Y0251063D03*
X0421260Y0241063D03*
X0382874Y0190039D03*
X0382874Y0180039D03*
X0419826Y0176456D03*
X0419826Y0166456D03*
X0402950Y0069612D03*
X0392950Y0069612D03*
X0392638Y0051181D03*
X0402638Y0051181D03*
X0402495Y0032750D03*
X0392495Y0032750D03*
X0392638Y0013780D03*
X0402638Y0013780D03*
X0322913Y0069882D03*
X0312913Y0069882D03*
X0302244Y0069882D03*
X0292244Y0069882D03*
X0213583Y0073071D03*
X0213583Y0043071D03*
X0188228Y0212598D03*
X0194646Y0242126D03*
X0224646Y0242126D03*
X0158228Y0212598D03*
X0141732Y0226142D03*
X0131142Y0245079D03*
X0141732Y0256142D03*
X0101142Y0245079D03*
X0052165Y0190039D03*
X0052165Y0180039D03*
X0048228Y0242047D03*
X0048228Y0252047D03*
X0012795Y0252047D03*
X0012795Y0242047D03*
D21*
X0386811Y0087598D03*
X0401575Y0087598D03*
D22*
X0401575Y0097598D03*
X0401575Y0107598D03*
X0401575Y0117598D03*
X0401575Y0127598D03*
X0401575Y0137598D03*
X0401575Y0147598D03*
X0401575Y0157598D03*
X0401575Y0167598D03*
X0386811Y0167598D03*
X0386811Y0157598D03*
X0386811Y0147598D03*
X0386811Y0137598D03*
X0386811Y0127598D03*
X0386811Y0117598D03*
X0386811Y0107598D03*
X0386811Y0097598D03*
D23*
X0396417Y0189646D03*
X0426417Y0189646D03*
X0426417Y0229646D03*
X0426417Y0264449D03*
X0396417Y0264449D03*
X0396417Y0229646D03*
X0396417Y0304449D03*
X0426417Y0304449D03*
X0037638Y0304449D03*
X0007638Y0304449D03*
X0007638Y0264449D03*
X0007638Y0229646D03*
X0037638Y0229646D03*
X0037638Y0264449D03*
X0037638Y0189646D03*
X0007638Y0189646D03*
D24*
X0297087Y0026665D02*
X0297087Y0020265D01*
X0317087Y0020265D02*
X0317087Y0026665D01*
X0310287Y0043465D02*
X0303887Y0043465D01*
D25*
X0363012Y0274409D02*
X0370886Y0274409D01*
X0386634Y0282283D02*
X0386634Y0290157D01*
X0370886Y0299213D02*
X0363012Y0299213D01*
D26*
X0123531Y0226811D03*
X0113531Y0226811D03*
X0103531Y0226811D03*
X0093531Y0226811D03*
X0083531Y0226811D03*
X0073531Y0226811D03*
X0063531Y0226811D03*
X0053531Y0226811D03*
D27*
X0059232Y0270591D03*
X0049626Y0280197D03*
X0099232Y0270591D03*
X0109232Y0280197D03*
X0129843Y0280197D03*
X0139449Y0270591D03*
X0179449Y0270591D03*
X0189449Y0280197D03*
X0210059Y0280197D03*
X0219665Y0270591D03*
X0259665Y0270591D03*
X0269665Y0280197D03*
X0290276Y0280197D03*
X0299882Y0270591D03*
X0339882Y0270591D03*
X0349882Y0280197D03*
D28*
X0319882Y0283703D02*
X0319882Y0275903D01*
X0239665Y0275903D02*
X0239665Y0283703D01*
X0159449Y0283703D02*
X0159449Y0275903D01*
X0079232Y0275903D02*
X0079232Y0283703D01*
D29*
X0205455Y0166451D02*
X0205740Y0166727D01*
X0206079Y0166932D01*
X0206455Y0167056D01*
X0206850Y0167094D01*
X0207233Y0167048D01*
X0207597Y0166917D01*
X0207922Y0166709D01*
X0208193Y0166433D01*
X0208395Y0166104D01*
X0208520Y0165739D01*
X0208560Y0165354D01*
X0208526Y0164973D01*
X0208408Y0164608D01*
X0208212Y0164279D01*
X0207947Y0164002D01*
X0207628Y0163791D01*
X0207269Y0163656D01*
X0206890Y0163604D01*
X0206489Y0163639D01*
X0206107Y0163763D01*
X0205761Y0163968D01*
X0205470Y0164245D01*
X0205247Y0164580D01*
X0205105Y0164956D01*
X0205050Y0165354D01*
X0205101Y0165747D01*
X0205238Y0166119D01*
X0205455Y0166451D01*
X0205508Y0166503D02*
X0208124Y0166503D01*
X0208430Y0166004D02*
X0205196Y0166004D01*
X0205070Y0165506D02*
X0208544Y0165506D01*
X0208529Y0165007D02*
X0205098Y0165007D01*
X0205295Y0164509D02*
X0208348Y0164509D01*
X0207955Y0164010D02*
X0205716Y0164010D01*
X0206289Y0167001D02*
X0207362Y0167001D01*
X0215821Y0165788D02*
X0215958Y0166159D01*
X0216175Y0166491D01*
X0216460Y0166767D01*
X0216799Y0166972D01*
X0217175Y0167097D01*
X0217570Y0167134D01*
X0217953Y0167088D01*
X0218317Y0166957D01*
X0218642Y0166749D01*
X0218913Y0166473D01*
X0219116Y0166144D01*
X0219240Y0165779D01*
X0219280Y0165394D01*
X0219246Y0165013D01*
X0219128Y0164649D01*
X0218932Y0164320D01*
X0218667Y0164042D01*
X0218348Y0163831D01*
X0217989Y0163696D01*
X0217610Y0163644D01*
X0217209Y0163680D01*
X0216827Y0163803D01*
X0216481Y0164008D01*
X0216190Y0164285D01*
X0215967Y0164620D01*
X0215825Y0164996D01*
X0215770Y0165394D01*
X0215821Y0165788D01*
X0215901Y0166004D02*
X0219163Y0166004D01*
X0219268Y0165506D02*
X0215785Y0165506D01*
X0215824Y0165007D02*
X0219244Y0165007D01*
X0219045Y0164509D02*
X0216041Y0164509D01*
X0216479Y0164010D02*
X0218619Y0164010D01*
X0218884Y0166503D02*
X0216187Y0166503D01*
X0216887Y0167001D02*
X0218194Y0167001D01*
X0226521Y0165758D02*
X0226658Y0166129D01*
X0226874Y0166461D01*
X0227159Y0166737D01*
X0227498Y0166942D01*
X0227875Y0167067D01*
X0228269Y0167104D01*
X0228653Y0167058D01*
X0229016Y0166927D01*
X0229342Y0166719D01*
X0229612Y0166443D01*
X0229815Y0166115D01*
X0229940Y0165749D01*
X0229980Y0165365D01*
X0229946Y0164983D01*
X0229828Y0164619D01*
X0229631Y0164290D01*
X0229367Y0164013D01*
X0229047Y0163801D01*
X0228689Y0163666D01*
X0228309Y0163615D01*
X0227909Y0163650D01*
X0227526Y0163773D01*
X0227181Y0163978D01*
X0226889Y0164255D01*
X0226667Y0164590D01*
X0226525Y0164966D01*
X0226470Y0165365D01*
X0226521Y0165758D01*
X0226488Y0165506D02*
X0229965Y0165506D01*
X0229948Y0165007D02*
X0226519Y0165007D01*
X0226721Y0164509D02*
X0229762Y0164509D01*
X0229364Y0164010D02*
X0227147Y0164010D01*
X0226612Y0166004D02*
X0229853Y0166004D01*
X0229554Y0166503D02*
X0226917Y0166503D01*
X0227677Y0167001D02*
X0228810Y0167001D01*
M02*
